<svg width="24" height="24" viewBox="0 0 24 24" fill="none" xmlns="http://www.w3.org/2000/svg">
<path d="M21.5903 10.8345C21.8533 11.1488 22 11.5661 22 12C22 12.4339 21.8533 12.8512 21.5903 13.1655C19.9689 15.15 16.286 19 12 19C7.71403 19 4.03112 15.15 2.40965 13.1655C2.14667 12.8512 2 12.4339 2 12C2 11.5661 2.14667 11.1488 2.40965 10.8345C4.03112 8.85 7.71403 5 12 5C16.286 5 19.9689 8.85 21.5903 10.8345Z" stroke="#737373" stroke-width="1.5" stroke-linecap="round" stroke-linejoin="round"/>
<path d="M12.0001 15.4287C13.8937 15.4287 15.4287 13.8937 15.4287 12.0001C15.4287 10.1066 13.8937 8.57153 12.0001 8.57153C10.1066 8.57153 8.57153 10.1066 8.57153 12.0001C8.57153 13.8937 10.1066 15.4287 12.0001 15.4287Z" stroke="#737373" stroke-width="1.5" stroke-linecap="round" stroke-linejoin="round"/>
</svg>
