<svg width="12" height="12" viewBox="0 0 12 12" fill="none" xmlns="http://www.w3.org/2000/svg">
<path d="M5.31473 7.6266C5.32213 7.22646 5.37207 6.91039 5.46455 6.67838C5.55703 6.44637 5.74568 6.18914 6.03052 5.90669L6.7574 5.22579C7.06813 4.90635 7.22349 4.56338 7.22349 4.19687C7.22349 3.84381 7.12176 3.56809 6.91831 3.3697C6.71486 3.16796 6.41893 3.06708 6.03052 3.06708C5.65321 3.06708 5.34988 3.15787 5.12053 3.33944C4.89118 3.52102 4.77651 3.76479 4.77651 4.07078H3.75C3.7574 3.52606 3.9701 3.08726 4.3881 2.75437C4.8098 2.41812 5.35727 2.25 6.03052 2.25C6.72965 2.25 7.27343 2.42149 7.66184 2.76446C8.05395 3.10407 8.25 3.57145 8.25 4.16661C8.25 4.75504 7.95037 5.33507 7.35111 5.90669L6.7463 6.45141C6.47626 6.72377 6.34125 7.1155 6.34125 7.6266H5.31473ZM5.27035 9.22545C5.27035 9.07414 5.32028 8.94805 5.42016 8.84718C5.52374 8.74294 5.6754 8.69082 5.87515 8.69082C6.07491 8.69082 6.22657 8.74294 6.33015 8.84718C6.43372 8.94805 6.48551 9.07414 6.48551 9.22545C6.48551 9.37677 6.43372 9.50286 6.33015 9.60373C6.22657 9.70124 6.07491 9.75 5.87515 9.75C5.6754 9.75 5.52374 9.70124 5.42016 9.60373C5.32028 9.50286 5.27035 9.37677 5.27035 9.22545Z" fill="#1F2025"/>
<circle cx="6" cy="6" r="5.5" stroke="#737373"/>
</svg>
