<svg width="10" height="12" viewBox="0 0 10 12" fill="none" xmlns="http://www.w3.org/2000/svg">
<path fill-rule="evenodd" clip-rule="evenodd" d="M4.13495 1.5C4.02415 1.5 3.92181 1.55946 3.86695 1.65575L1.63631 5.57127C1.34063 6.09027 1.21654 6.68947 1.28179 7.28327L1.51721 9.42567C1.55911 9.80687 1.85835 10.1088 2.23915 10.1541L3.65051 10.322C4.58221 10.4329 5.52688 10.3367 6.41721 10.0406C6.85695 9.8944 7.20908 9.56067 7.37881 9.12947L8.51481 6.2424C8.54261 6.17187 8.56181 6.0982 8.57201 6.023C8.65815 5.38827 8.10255 4.8528 7.47141 4.96247L5.19421 5.35793C4.47488 5.48287 3.85361 4.84813 3.99401 4.13163L4.43761 1.86772C4.47495 1.67721 4.32908 1.5 4.13495 1.5ZM2.99807 1.16074C3.23079 0.75224 3.66479 0.500007 4.13495 0.5C4.95855 0.499993 5.57728 1.25179 5.41895 2.06001L4.97535 4.32391C4.97341 4.33361 4.97448 4.33954 4.97581 4.34379C4.97741 4.34903 4.98081 4.35517 4.98641 4.36087C4.99195 4.36656 4.99801 4.37007 5.00321 4.37183C5.00741 4.37325 5.01335 4.3744 5.02308 4.37271L7.30028 3.97719C8.59775 3.75185 9.74008 4.8526 9.56295 6.15753C9.54195 6.31207 9.50248 6.46347 9.44541 6.6086L8.30935 9.49567C8.03115 10.2026 7.45375 10.7497 6.73281 10.9895C5.70295 11.3321 4.61015 11.4432 3.53239 11.315L2.12103 11.1471C1.27822 11.0469 0.615907 10.3786 0.5232 9.53493L0.287774 7.39247C0.199494 6.58913 0.367374 5.77847 0.767427 5.0762L2.99807 1.16074Z" fill="#8D8D8D"/>
</svg>
