<svg width="16" height="16" viewBox="0 0 16 16" fill="none" xmlns="http://www.w3.org/2000/svg">
<path fill-rule="evenodd" clip-rule="evenodd" d="M4.83325 6.66667C4.83325 4.91777 6.25102 3.5 7.99992 3.5C9.74879 3.5 11.1666 4.91777 11.1666 6.66667C11.1666 8.4156 9.74879 9.83333 7.99992 9.83333C6.25102 9.83333 4.83325 8.4156 4.83325 6.66667ZM7.99992 4.5C6.80333 4.5 5.83325 5.47005 5.83325 6.66667C5.83325 7.86327 6.80333 8.83333 7.99992 8.83333C9.19652 8.83333 10.1666 7.86327 10.1666 6.66667C10.1666 5.47005 9.19652 4.5 7.99992 4.5Z" fill="#1F2025"/>
<path fill-rule="evenodd" clip-rule="evenodd" d="M2.34951 5.90449C2.58573 3.03874 4.9805 0.833252 7.85594 0.833252H8.14394C11.0194 0.833252 13.4141 3.03874 13.6503 5.90449C13.7773 7.44392 13.3017 8.97252 12.3239 10.1683L9.1286 14.0762C8.54527 14.7896 7.4546 14.7896 6.87127 14.0762L3.67591 10.1683C2.69814 8.97252 2.22262 7.44392 2.34951 5.90449ZM7.85594 1.83325C5.50093 1.83325 3.53959 3.63957 3.34613 5.98664C3.24052 7.26785 3.63628 8.54005 4.45006 9.53532L7.6454 13.4432C7.82867 13.6673 8.1712 13.6673 8.35447 13.4432L11.5498 9.53532C12.3636 8.54005 12.7593 7.26785 12.6537 5.98664C12.4603 3.63957 10.4989 1.83325 8.14394 1.83325H7.85594Z" fill="#1F2025"/>
</svg>
