<svg width="16" height="16" viewBox="0 0 16 16" fill="none" xmlns="http://www.w3.org/2000/svg">
<path d="M8.97982 5.0202C9.17509 5.21546 9.49162 5.21546 9.68689 5.0202L10.1667 4.54042V11.3333C10.1667 11.6094 10.3906 11.8333 10.6667 11.8333C10.9428 11.8333 11.1667 11.6094 11.1667 11.3333V4.54042L11.6465 5.0202C11.8418 5.21546 12.1583 5.21546 12.3536 5.0202C12.5488 4.82494 12.5488 4.50835 12.3536 4.31309L11.0202 2.97976C10.825 2.7845 10.5084 2.7845 10.3132 2.97976L8.97982 4.31309C8.78456 4.50835 8.78456 4.82494 8.97982 5.0202Z" fill="#737373"/>
<path d="M5.83333 11.4596L6.31311 10.9798C6.50837 10.7846 6.82493 10.7846 7.0202 10.9798C7.21546 11.1751 7.21546 11.4916 7.0202 11.6869L5.68688 13.0202C5.49162 13.2155 5.17504 13.2155 4.97978 13.0202L3.64644 11.6869C3.45119 11.4916 3.45119 11.1751 3.64644 10.9798C3.8417 10.7846 4.15829 10.7846 4.35355 10.9798L4.83333 11.4596V4.66669C4.83333 4.39055 5.05719 4.16669 5.33333 4.16669C5.60947 4.16669 5.83333 4.39055 5.83333 4.66669V11.4596Z" fill="#737373"/>
</svg>
