<svg width="24" height="24" viewBox="0 0 24 24" fill="none" xmlns="http://www.w3.org/2000/svg">
<path d="M8.5 8.5L12 4L15.5 8.5L20.5 10.5L17 14.5L17.5 20L12 18L6.5 20L7 14.5L3.5 10.5L8.5 8.5Z" fill="#FFDD29"/>
<path fill-rule="evenodd" clip-rule="evenodd" d="M10.4864 4.11413C11.1608 2.95186 12.8392 2.95187 13.5136 4.11413L15.579 7.67349C15.7694 8.00158 16.0984 8.22547 16.4735 8.28212L19.9031 8.80012C21.3981 9.02592 21.9225 10.9135 20.7582 11.878L18.2593 13.9484C17.9086 14.2389 17.7437 14.6973 17.8289 15.1448L18.5289 18.8207C18.8031 20.2607 17.2914 21.3795 15.9944 20.6965L12.5824 18.9C12.2178 18.708 11.7822 18.708 11.4176 18.9L8.0056 20.6965C6.70859 21.3795 5.19696 20.2607 5.47116 18.8207L6.17114 15.1448C6.25634 14.6973 6.09142 14.2389 5.74068 13.9484L3.24178 11.878C2.07749 10.9135 2.6019 9.02592 4.09689 8.80012L7.52654 8.28212C7.9016 8.22547 8.23065 8.00158 8.42102 7.67349L10.4864 4.11413ZM12.2162 4.86696C12.1199 4.70092 11.8801 4.70092 11.7838 4.86696L9.71842 8.42632C9.2996 9.14811 8.57569 9.64067 7.75055 9.76529L4.32091 10.2833C4.10734 10.3155 4.03242 10.5852 4.19875 10.723L6.69765 12.7933C7.46928 13.4326 7.83211 14.441 7.64466 15.4253L6.94468 19.1013C6.90551 19.307 7.12145 19.4669 7.30674 19.3693L10.7188 17.5727C11.5207 17.1504 12.4793 17.1504 13.2812 17.5727L16.6933 19.3693C16.8786 19.4669 17.0945 19.307 17.0553 19.1013L16.3554 15.4253C16.1679 14.441 16.5307 13.4326 17.3024 12.7933L19.8013 10.723C19.9676 10.5852 19.8927 10.3155 19.6791 10.2833L16.2495 9.76529C15.4243 9.64067 14.7004 9.14811 14.2816 8.42632L12.2162 4.86696Z" fill="#FFDD29"/>
</svg>
