<svg width="20" height="18" viewBox="0 0 20 18" fill="none" xmlns="http://www.w3.org/2000/svg">
<path fill-rule="evenodd" clip-rule="evenodd" d="M5.24997 3.63104V2.46126C5.24997 1.59501 5.88371 0.85912 6.74037 0.73062L7.96029 0.54763C9.31247 0.3448 10.6875 0.3448 12.0397 0.54763L13.2596 0.73062C14.1163 0.85912 14.75 1.59501 14.75 2.46126V3.63104L16.464 3.76939C17.7764 3.87533 18.847 4.86347 19.0574 6.16319C19.5226 9.03576 19.5226 11.9644 19.0574 14.837C18.847 16.1367 17.7764 17.1248 16.464 17.2308L14.5921 17.3819C11.5357 17.6286 8.46427 17.6286 5.40784 17.3819L3.53592 17.2308C2.22354 17.1248 1.153 16.1367 0.94252 14.837C0.47733 11.9644 0.47733 9.03576 0.94252 6.16319C1.153 4.86347 2.22354 3.87533 3.53593 3.76939L5.24997 3.63104ZM8.18277 2.03104C9.38747 1.85033 10.6125 1.85033 11.8172 2.03104L13.0371 2.21402C13.1595 2.23238 13.25 2.33751 13.25 2.46126V3.52586C11.0851 3.40239 8.91487 3.40239 6.74997 3.52586V2.46126C6.74997 2.33751 6.8405 2.23238 6.96288 2.21402L8.18277 2.03104ZM5.52853 5.11343C8.50467 4.8732 11.4953 4.8732 14.4714 5.11343L16.3433 5.26453C16.9675 5.31491 17.4766 5.78485 17.5767 6.40298C17.6391 6.78791 17.6926 7.17386 17.7372 7.56066C12.8596 9.96246 7.14035 9.96246 2.26275 7.56066C2.3074 7.17386 2.36089 6.78791 2.42323 6.40298C2.52333 5.78485 3.03246 5.31491 3.65661 5.26453L5.52853 5.11343ZM2.12886 9.15676C7.12826 11.4305 12.8717 11.4305 17.8711 9.15676C17.9664 10.9729 17.8683 12.7967 17.5767 14.5972C17.4766 15.2153 16.9675 15.6853 16.3433 15.7356L14.4714 15.8867C11.4953 16.127 8.50467 16.127 5.52853 15.8867L3.65661 15.7356C3.03246 15.6853 2.52333 15.2153 2.42323 14.5972C2.13166 12.7967 2.03353 10.9729 2.12886 9.15676Z" fill="#1F2025"/>
</svg>
