<svg width="8" height="8" viewBox="0 0 8 8" fill="none" xmlns="http://www.w3.org/2000/svg">
<path d="M0.469668 0.469668C0.762558 0.176777 1.23744 0.176777 1.53033 0.469668L4 2.93931L6.4697 0.469678C6.7626 0.176788 7.2374 0.176788 7.5303 0.469678C7.8232 0.762568 7.8232 1.23745 7.5303 1.53034L5.0607 4.00001L7.5303 6.46971C7.8232 6.76261 7.8232 7.23741 7.5303 7.53031C7.2374 7.82321 6.7626 7.82321 6.4697 7.53031L4 5.06071L1.53034 7.53031C1.23744 7.82321 0.762567 7.82321 0.469677 7.53031C0.176777 7.23741 0.176777 6.76261 0.469677 6.46971L2.9393 4.00001L0.469668 1.53033C0.176777 1.23744 0.176777 0.762558 0.469668 0.469668Z" fill="#1F2025"/>
</svg>
