<svg width="24" height="24" viewBox="0 0 24 24" fill="none" xmlns="http://www.w3.org/2000/svg">
<path fill-rule="evenodd" clip-rule="evenodd" d="M12.9317 6.20898C11.3814 6.20898 10.0404 7.11131 9.40794 8.42279C9.23789 8.7754 8.82525 8.93791 8.46042 8.79595C7.96969 8.605 7.43523 8.49986 6.87442 8.49986C4.45796 8.49986 2.49902 10.4588 2.49902 12.8753C2.49902 15.2918 4.45796 17.2507 6.87442 17.2507H18.523C20.1675 17.2507 21.5006 15.9176 21.5006 14.2731C21.5006 12.6287 20.1675 11.2956 18.523 11.2956C18.2555 11.2956 17.9972 11.3307 17.7522 11.3961C17.512 11.4603 17.2556 11.4012 17.0677 11.2385C16.8797 11.0757 16.7847 10.8303 16.8139 10.5834C16.8319 10.4312 16.8411 10.2761 16.8411 10.1185C16.8411 7.95931 15.0908 6.20898 12.9317 6.20898ZM8.37984 7.19469C9.34158 5.7004 11.0203 4.70898 12.9317 4.70898C15.8122 4.70898 18.1669 6.96043 18.3319 9.79956C18.3953 9.79689 18.459 9.79554 18.523 9.79554C20.9959 9.79554 23.0006 11.8002 23.0006 14.2731C23.0006 16.746 20.9959 18.7507 18.523 18.7507H6.87442C3.62953 18.7507 0.999023 16.1202 0.999023 12.8753C0.999023 9.63037 3.62953 6.99986 6.87442 6.99986C7.39408 6.99986 7.8988 7.06751 8.37984 7.19469Z" fill="#1F2025"/>
</svg>
