<svg width="24" height="24" viewBox="0 0 24 24" fill="none" xmlns="http://www.w3.org/2000/svg">
<path fill-rule="evenodd" clip-rule="evenodd" d="M16.7107 1.37758C16.7012 1.15879 16.5965 0.955092 16.4242 0.819962C16.2519 0.684833 16.0291 0.631777 15.8143 0.674726C15.314 0.774784 13.6823 1.17984 12.3941 2.46806C11.7363 3.12586 11.3721 3.95624 11.1749 4.71219C11.0732 5.10178 11.0125 5.48435 10.9802 5.83464C10.9033 5.80121 10.8226 5.76626 10.7371 5.72979C10.0441 5.43433 9.1478 5.08933 8.12768 5.08933C7.03502 5.08933 5.48455 5.53387 4.20451 6.79015C2.90675 8.06381 1.94996 10.108 1.94995 13.1906C1.94995 14.9225 2.81606 17.4411 3.98341 19.485C4.57364 20.5184 5.26846 21.4803 6.01845 22.189C6.74685 22.8773 7.63527 23.4273 8.60294 23.4024C9.32315 23.3994 10.0521 23.1167 10.6202 22.8963L10.6704 22.8769C11.3239 22.6237 11.7899 22.4527 12.1809 22.4527C12.5549 22.4527 13.0245 22.6234 13.6891 22.8779L13.7376 22.8965C14.3143 23.1176 15.057 23.4024 15.7702 23.4024C16.3088 23.4024 16.9324 23.1143 17.4781 22.7748C18.0615 22.412 18.6926 21.9034 19.2739 21.2995C20.4115 20.1176 21.4906 18.4282 21.4487 16.6203C21.4422 16.3371 21.2766 16.0818 21.0208 15.9602C20.6739 15.7954 20.1078 15.423 19.6306 14.8758C19.1577 14.3335 18.8091 13.6643 18.7873 12.8882C18.7566 11.7927 19.0641 10.8239 19.4703 10.0817C19.8914 9.31223 20.3695 8.8713 20.5919 8.75476C20.7838 8.65414 20.9229 8.47539 20.9732 8.26455C21.0235 8.05371 20.9802 7.83142 20.8543 7.65495C20.5116 7.17449 19.8622 6.54311 19.0963 6.03388C18.3386 5.53009 17.3523 5.06918 16.3417 5.08948C16.1652 5.09302 15.9921 5.10602 15.8229 5.1266C16.1928 4.57681 16.4076 3.89474 16.5335 3.29601C16.6851 2.57479 16.7315 1.85614 16.7107 1.37758ZM13.4548 3.52872C13.9963 2.98715 14.6321 2.64508 15.1585 2.43432C15.1356 2.61294 15.105 2.79964 15.0656 2.98738C14.9348 3.60916 14.7293 4.12926 14.4758 4.42506C13.9968 4.98385 13.3524 5.59378 12.4882 5.83495C12.5157 5.59815 12.5598 5.34556 12.6263 5.09093C12.7815 4.49608 13.0455 3.93794 13.4548 3.52872ZM16.3718 6.58918C16.937 6.57782 17.6141 6.8497 18.2658 7.283C18.6095 7.51153 18.9141 7.7635 19.1564 7.99516C18.7987 8.35367 18.4484 8.82449 18.1545 9.36157C17.6415 10.2988 17.2486 11.5285 17.2879 12.9303C17.3222 14.1521 17.8723 15.1418 18.5001 15.8617C18.9596 16.3886 19.4804 16.7948 19.9295 17.0703C19.8035 18.1663 19.1063 19.3107 18.1932 20.2593C17.6912 20.7809 17.1557 21.2089 16.6859 21.5011C16.1784 21.8168 15.8619 21.9024 15.7702 21.9024C15.3695 21.9024 14.8821 21.7286 14.2256 21.4772L14.1461 21.4466C13.5817 21.2299 12.8601 20.9527 12.1809 20.9527C11.4816 20.9527 10.7628 21.2319 10.2005 21.4502L10.1285 21.4782C9.48077 21.7291 9.002 21.9024 8.59166 21.9024C8.58406 21.9024 8.57645 21.9025 8.56885 21.9027C8.19281 21.9142 7.67485 21.6905 7.04867 21.0988C6.44118 20.5247 5.83159 19.6964 5.28594 18.7411C4.18152 16.8074 3.44995 14.5541 3.44995 13.1906C3.44996 10.4344 4.29506 8.80299 5.25518 7.8607C6.23302 6.90102 7.39641 6.58933 8.12768 6.58933C8.82343 6.58933 9.48063 6.8247 10.1488 7.1096C10.2362 7.14687 10.3268 7.18633 10.4188 7.2264C10.6561 7.32971 10.9026 7.43704 11.1265 7.52098C11.4385 7.63796 11.8059 7.75007 12.1809 7.75007C12.5559 7.75007 12.9271 7.64495 13.2503 7.53092C13.4922 7.4456 13.7556 7.33668 14.0104 7.23132C14.0958 7.19601 14.1802 7.16109 14.2626 7.12761C14.9561 6.84549 15.6447 6.60378 16.3718 6.58918Z" fill="#1F2025"/>
</svg>
