<svg width="16" height="16" viewBox="0 0 16 16" fill="none" xmlns="http://www.w3.org/2000/svg">
<path fill-rule="evenodd" clip-rule="evenodd" d="M8.00016 2.5C5.68281 2.5 3.8335 4.31151 3.8335 6.51063C3.8335 7.847 4.38078 8.99953 5.35706 9.71733C5.57223 9.87553 5.7563 10.1115 5.8268 10.4108C5.88466 10.6565 5.95088 10.9558 6.01648 11.273H9.98383C10.0494 10.9558 10.1156 10.6565 10.1735 10.4108C10.244 10.1115 10.4281 9.87553 10.6433 9.71733C11.6196 8.99953 12.1668 7.847 12.1668 6.51063C12.1668 4.31151 10.3175 2.5 8.00016 2.5ZM9.79263 12.273H6.20768C6.28129 12.6981 6.33904 13.1006 6.35652 13.3896C6.37493 13.6939 6.60234 13.9665 6.93763 14.039L7.0683 14.0673C7.6819 14.1998 8.31843 14.1998 8.93203 14.0673L9.0627 14.039C9.39796 13.9665 9.62543 13.6939 9.64383 13.3896C9.6613 13.1006 9.71903 12.6981 9.79263 12.273ZM2.8335 6.51063C2.8335 3.72744 5.16286 1.5 8.00016 1.5C10.8375 1.5 13.1668 3.72744 13.1668 6.51063C13.1668 8.12653 12.4978 9.59507 11.2356 10.523C11.178 10.5653 11.154 10.6099 11.1469 10.6401C11.068 10.9751 10.9718 11.4187 10.8842 11.8686C10.7623 12.4941 10.6631 13.1008 10.642 13.45C10.5953 14.2221 10.0272 14.8537 9.2739 15.0165L9.14323 15.0447C8.39043 15.2073 7.6099 15.2073 6.8571 15.0447L6.72643 15.0165C5.9731 14.8537 5.40506 14.2221 5.35834 13.45C5.33722 13.1008 5.23802 12.4941 5.11616 11.8686C5.0285 11.4187 4.93236 10.9751 4.85344 10.6401C4.84633 10.6099 4.82226 10.5653 4.7647 10.523C3.50254 9.59507 2.8335 8.12653 2.8335 6.51063Z" fill="#1F2025"/>
</svg>
