<svg width="69" height="34" viewBox="0 0 69 34" fill="none" xmlns="http://www.w3.org/2000/svg">
<path d="M35.8039 29.4768C34.4704 29.387 32.9327 29.1508 31.7199 28.7959C31.4928 28.7294 30.5522 28.3801 30.3129 28.2692C26.0907 26.2931 23.1493 21.9795 23.1493 16.975C23.1493 10.111 28.6765 4.51987 35.4746 4.51987C42.2124 4.51987 47.7023 10.0156 47.7967 16.8021H52.2494C52.155 7.53609 44.6687 0.0266075 35.4746 0.0266075C26.2257 0.0266075 18.6977 7.62812 18.6977 16.975C18.6977 23.4189 22.2844 29.0233 27.5361 31.8864C28.4844 32.3932 29.8454 32.9155 30.3074 33.0585C31.8045 33.5088 33.6417 33.8082 35.2771 33.9335C35.8324 33.9756 37.7718 33.9978 38.337 34H69V29.5189H38.3886C37.9814 29.5189 36.2023 29.5034 35.8039 29.4768ZM38.3886 22.4408C38.0648 22.4408 36.3713 22.4297 36.0585 22.4031C35.5284 22.3577 34.7601 22.2778 34.2662 22.1636C33.7087 22.0128 33.1852 21.8132 32.9492 21.6823C31.2952 20.7786 30.168 19.011 30.168 16.975C30.168 14.0132 32.542 11.6113 35.4746 11.6113C38.3458 11.6113 40.6802 13.9189 40.7735 16.8021H45.0517C44.9617 11.5348 40.7121 7.28991 35.4746 7.28991C30.179 7.28991 25.8865 11.6257 25.8865 16.975C25.8865 20.7475 28.0267 24.0055 31.1437 25.6012C31.6234 25.8851 32.5255 26.1823 32.7824 26.2499C33.6626 26.4839 34.8446 26.6436 35.8039 26.7145C36.1584 26.7445 37.8947 26.7578 38.2613 26.76V26.7666H68.9989V22.4408H38.3886ZM15.9538 33.9834H11.4715V4.52986H4.92136V-3.8147e-06H15.9538V33.9834ZM0 6.79312V11.1489H4.92136V33.9834H9.2281V6.79312H0Z" fill="#C4161C"/>
</svg>
