<svg width="247" height="23" viewBox="0 0 247 23" fill="none" xmlns="http://www.w3.org/2000/svg">
<path d="M7.104 18.464H9.792V22.624H0V18.464H2.688V4.384H0V0.223999H9.792V4.384H7.104V18.464Z" fill="#1F2025"/>
<path d="M25.1073 4.384V22.624H20.6912V4.384H14.5472V0.223999H31.2512V4.384H25.1073Z" fill="#1F2025"/>
<path d="M69.9813 22.624H67.3573L61.9173 9.152L56.4453 22.624H53.8532L44.7972 0.223999H49.6932L55.1012 14.496L60.6053 0.223999H63.1973L68.7012 14.496L74.1093 0.223999H79.0053L69.9813 22.624Z" fill="#1F2025"/>
<path d="M85.574 3.36C87.7927 1.12 90.4807 0 93.638 0C96.7953 0 99.4833 1.12 101.702 3.36C103.942 5.57867 105.062 8.26667 105.062 11.424C105.062 14.5813 103.942 17.28 101.702 19.52C99.4833 21.7387 96.7953 22.848 93.638 22.848C90.4807 22.848 87.7927 21.7387 85.574 19.52C83.3553 17.28 82.246 14.5813 82.246 11.424C82.246 8.26667 83.3553 5.57867 85.574 3.36ZM98.63 6.208C97.286 4.84267 95.622 4.16 93.638 4.16C91.654 4.16 89.99 4.84267 88.646 6.208C87.3233 7.57333 86.662 9.312 86.662 11.424C86.662 13.5573 87.3233 15.3067 88.646 16.672C89.99 18.016 91.654 18.688 93.638 18.688C95.6433 18.688 97.3073 18.016 98.63 16.672C99.974 15.3067 100.646 13.5573 100.646 11.424C100.646 9.312 99.974 7.57333 98.63 6.208Z" fill="#1F2025"/>
<path d="M110.281 0.223999H117.897C120.948 0.223999 123.327 1.024 125.033 2.624C126.761 4.20267 127.625 6.21867 127.625 8.672C127.625 10.336 127.199 11.776 126.345 12.992C125.513 14.208 124.329 15.1147 122.793 15.712C123.732 16.3093 124.841 17.6213 126.121 19.648L128.041 22.624H123.081L121.641 20.384C120.745 19.0187 120.041 18.144 119.529 17.76C119.039 17.376 118.249 17.1733 117.161 17.152H114.697V22.624H110.281V0.223999ZM114.697 4.384V12.992H118.313C119.849 12.992 121.087 12.6293 122.025 11.904C122.964 11.1787 123.433 10.1013 123.433 8.672C123.433 7.30667 122.953 6.25067 121.993 5.504C121.055 4.75733 119.828 4.384 118.313 4.384H114.697Z" fill="#1F2025"/>
<path d="M147.277 22.624H132.781V0.223999H137.197V18.464H147.277V22.624Z" fill="#1F2025"/>
<path d="M152 0.223999H159.776C162.955 0.223999 165.643 1.29067 167.84 3.424C170.059 5.536 171.168 8.20267 171.168 11.424C171.168 14.6453 170.069 17.3227 167.872 19.456C165.675 21.568 162.976 22.624 159.776 22.624H152V0.223999ZM156.416 18.464H159.776C161.803 18.464 163.467 17.8453 164.768 16.608C166.091 15.3493 166.752 13.6213 166.752 11.424C166.752 9.22667 166.091 7.50933 164.768 6.272C163.467 5.01333 161.803 4.384 159.776 4.384H156.416V18.464Z" fill="#1F2025"/>
<path d="M201.652 22.624H187.156V0.223999H191.572V18.464H201.652V22.624Z" fill="#1F2025"/>
<path d="M210.887 18.528L209.287 22.624H204.391L213.607 0.223999H216.199L225.287 22.624H220.391L218.791 18.528H210.887ZM214.855 8.224L212.423 14.336H217.255L214.855 8.224Z" fill="#1F2025"/>
<path d="M229.312 0.223999H237.952C239.488 0.223999 240.79 0.426666 241.857 0.831999C242.923 1.216 243.702 1.73867 244.193 2.4C244.705 3.06133 245.057 3.69067 245.249 4.288C245.441 4.88533 245.536 5.51467 245.536 6.176C245.536 8.56533 244.555 10.1547 242.592 10.944C243.766 11.2213 244.694 11.84 245.376 12.8C246.059 13.7387 246.4 14.8693 246.4 16.192C246.4 20.48 243.638 22.624 238.113 22.624H229.312V0.223999ZM233.729 4.384V9.184H238.432C239.499 9.184 240.256 8.94933 240.704 8.48C241.152 7.98933 241.376 7.424 241.376 6.784C241.376 5.184 240.395 4.384 238.432 4.384H233.729ZM233.729 12.992V18.432H239.04C240.171 18.432 240.982 18.1867 241.473 17.696C241.985 17.184 242.24 16.5227 242.24 15.712C242.24 14.944 241.974 14.304 241.441 13.792C240.929 13.2587 240.128 12.992 239.04 12.992H233.729Z" fill="#1F2025"/>
<path d="M85.574 3.36C87.7927 1.12 90.4807 0 93.638 0C96.7953 0 99.4833 1.12 101.702 3.36C103.942 5.57867 105.062 8.26667 105.062 11.424C105.062 14.5813 103.942 17.28 101.702 19.52C99.4833 21.7387 96.7953 22.848 93.638 22.848C90.4807 22.848 87.7927 21.7387 85.574 19.52C83.3553 17.28 82.246 14.5813 82.246 11.424C82.246 8.26667 83.3553 5.57867 85.574 3.36ZM98.63 6.208C97.286 4.84267 95.622 4.16 93.638 4.16C91.654 4.16 89.99 4.84267 88.646 6.208C87.3233 7.57333 86.662 9.312 86.662 11.424C86.662 13.5573 87.3233 15.3067 88.646 16.672C89.99 18.016 91.654 18.688 93.638 18.688C95.6433 18.688 97.3073 18.016 98.63 16.672C99.974 15.3067 100.646 13.5573 100.646 11.424C100.646 9.312 99.974 7.57333 98.63 6.208Z" fill="#1F2025"/>
<path d="M85.574 3.36C87.7926 1.12 90.4806 0 93.638 0C96.7953 0 99.4833 1.12 101.702 3.36C103.942 5.57867 105.062 8.26667 105.062 11.424C105.062 14.5813 103.942 17.28 101.702 19.52C99.4833 21.7387 96.7953 22.848 93.638 22.848C90.4806 22.848 87.7926 21.7387 85.574 19.52C83.3553 17.28 82.246 14.5813 82.246 11.424C82.246 8.26667 83.3553 5.57867 85.574 3.36ZM98.63 6.208C97.286 4.84267 95.622 4.16 93.638 4.16C91.654 4.16 89.99 4.84267 88.646 6.208C87.3233 7.57333 86.662 9.312 86.662 11.424C86.662 13.5573 87.3233 15.3067 88.646 16.672C89.99 18.016 91.654 18.688 93.638 18.688C95.6433 18.688 97.3073 18.016 98.63 16.672C99.974 15.3067 100.646 13.5573 100.646 11.424C100.646 9.312 99.974 7.57333 98.63 6.208Z" fill="#E92742"/>
</svg>
