<svg width="19" height="18" viewBox="0 0 19 18" fill="none" xmlns="http://www.w3.org/2000/svg">
<path fill-rule="evenodd" clip-rule="evenodd" d="M2.84022 6.85641C4.62754 10.7483 7.80805 13.8425 11.7618 15.5191L11.7743 15.5244L12.5381 15.8648C13.5108 16.2982 14.654 15.9904 15.2776 15.1273L16.552 13.3636C16.6298 13.2559 16.6097 13.1061 16.5063 13.0226L14.2816 11.2278C14.171 11.1386 14.0083 11.1594 13.9237 11.2735L13.0579 12.4419C12.8476 12.7257 12.4678 12.8243 12.1461 12.6787C9.18965 11.3407 6.81391 8.96496 5.47598 6.00857C5.33036 5.6868 5.42896 5.30705 5.71271 5.09677L6.88109 4.23091C6.99526 4.1463 7.01605 3.98368 6.92681 3.87308L5.13177 1.64804C5.04834 1.54462 4.8986 1.52454 4.79087 1.60231L3.01757 2.88247C2.14878 3.50966 1.84283 4.6625 2.28629 5.63795L2.83963 6.85511C2.83983 6.85555 2.84003 6.85598 2.84022 6.85641ZM11.1699 16.8974C6.87386 15.0738 3.41849 11.7108 1.47645 7.48096L1.47528 7.47846L0.920782 6.25874C0.181682 4.63299 0.691602 2.71158 2.13959 1.66627L3.91288 0.386112C4.667 -0.158298 5.71523 -0.0176876 6.29922 0.706202L8.09425 2.93125C8.71885 3.70542 8.57335 4.84381 7.77415 5.43605L7.10465 5.93221C8.23565 8.12656 10.028 9.91896 12.2224 11.0499L12.7186 10.3804C13.3108 9.58126 14.4492 9.43576 15.2234 10.0604L17.4481 11.8551C18.1722 12.4393 18.3127 13.488 17.7678 14.2421L16.4934 16.0058C15.4541 17.4443 13.5487 17.9573 11.9277 17.235L11.1699 16.8974Z" fill="#1F2025"/>
</svg>
