<svg width="24" height="24" viewBox="0 0 24 24" fill="none" xmlns="http://www.w3.org/2000/svg">
<path fill-rule="evenodd" clip-rule="evenodd" d="M13.8083 8.44736C12.6158 8.31409 11.3841 8.31409 10.1917 8.44736C9.29374 8.54773 8.56601 9.25454 8.45968 10.1636C8.31699 11.3837 8.31699 12.6162 8.45968 13.8362C8.56601 14.7453 9.29374 15.4521 10.1917 15.5525C11.3841 15.6857 12.6158 15.6857 13.8083 15.5525C14.7063 15.4521 15.434 14.7453 15.5403 13.8362C15.683 12.6162 15.683 11.3837 15.5403 10.1636C15.434 9.25454 14.7063 8.54773 13.8083 8.44736ZM10.3583 9.93809C11.44 9.8172 12.56 9.8172 13.6417 9.93809C13.8577 9.96224 14.0266 10.1336 14.0505 10.3379C14.1796 11.4421 14.1796 12.5577 14.0505 13.6619C14.0266 13.8662 13.8577 14.0376 13.6417 14.0618C12.56 14.1826 11.44 14.1826 10.3583 14.0618C10.1423 14.0376 9.97342 13.8662 9.94952 13.6619C9.82037 12.5577 9.82037 11.4421 9.94952 10.3379C9.97342 10.1336 10.1423 9.96224 10.3583 9.93809Z" fill="#1F2025"/>
<path fill-rule="evenodd" clip-rule="evenodd" d="M15.75 3C15.75 2.58579 15.4142 2.25 15 2.25C14.5858 2.25 14.25 2.58579 14.25 3V5.52362C13.7517 5.48862 13.2512 5.4653 12.75 5.45366V4C12.75 3.58579 12.4142 3.25 12 3.25C11.5858 3.25 11.25 3.58579 11.25 4V5.45366C10.7488 5.4653 10.2483 5.48862 9.75 5.52362V3C9.75 2.58579 9.41421 2.25 9 2.25C8.58579 2.25 8.25 2.58579 8.25 3V5.67203C6.95006 5.9088 5.9125 6.93591 5.68791 8.25H3C2.58579 8.25 2.25 8.58579 2.25 9C2.25 9.41421 2.58579 9.75 3 9.75H5.5374C5.50089 10.2495 5.47655 10.7496 5.46439 11.25H4C3.58579 11.25 3.25 11.5858 3.25 12C3.25 12.4142 3.58579 12.75 4 12.75H5.46439C5.47655 13.2504 5.50089 13.7505 5.5374 14.25H3C2.58579 14.25 2.25 14.5858 2.25 15C2.25 15.4142 2.58579 15.75 3 15.75H5.68791C5.91251 17.0641 6.95006 18.0912 8.25 18.328V21C8.25 21.4142 8.58579 21.75 9 21.75C9.41421 21.75 9.75 21.4142 9.75 21V18.4764C10.2483 18.5114 10.7488 18.5347 11.25 18.5463V20C11.25 20.4142 11.5858 20.75 12 20.75C12.4142 20.75 12.75 20.4142 12.75 20V18.5463C13.2512 18.5347 13.7517 18.5114 14.25 18.4764V21C14.25 21.4142 14.5858 21.75 15 21.75C15.4142 21.75 15.75 21.4142 15.75 21V18.328C17.0499 18.0912 18.0875 17.0641 18.3121 15.75H21C21.4142 15.75 21.75 15.4142 21.75 15C21.75 14.5858 21.4142 14.25 21 14.25H18.4626C18.4991 13.7505 18.5235 13.2504 18.5356 12.75H20C20.4142 12.75 20.75 12.4142 20.75 12C20.75 11.5858 20.4142 11.25 20 11.25H18.5356C18.5235 10.7496 18.4991 10.2495 18.4626 9.75H21C21.4142 9.75 21.75 9.41421 21.75 9C21.75 8.58579 21.4142 8.25 21 8.25H18.3121C18.0875 6.93591 17.0499 5.90879 15.75 5.67203V3ZM8.63335 7.13094C10.8521 6.88296 13.1479 6.88296 15.3667 7.13094C16.1397 7.21734 16.7569 7.82785 16.8459 8.58883C17.111 10.8552 17.111 13.1448 16.8459 15.4112C16.7569 16.1721 16.1397 16.7827 15.3667 16.8691C13.1479 17.117 10.8521 17.117 8.63335 16.8691C7.86027 16.7827 7.24309 16.1721 7.15408 15.4112C6.88901 13.1448 6.88901 10.8552 7.15408 8.58883C7.24309 7.82785 7.86027 7.21734 8.63335 7.13094Z" fill="#1F2025"/>
</svg>
