<svg width="58" height="57" viewBox="0 0 58 57" fill="none" xmlns="http://www.w3.org/2000/svg">
    <path d="M52.3841 13.9207C52.9621 13.3424 51.6804 11.1223 49.5215 8.96189C47.3626 6.80154 45.1439 5.51905 44.566 6.09738C43.988 6.6757 45.2697 8.89585 47.4286 11.0562C49.5875 13.2166 51.8062 14.4991 52.3841 13.9207Z" fill="black" fill-opacity="0.1"/>
    <path d="M55.0589 25.3885C54.1879 26.2625 53.0488 26.8185 51.8243 26.9673L51.8365 26.9778C50.5241 27.2721 47.6195 28.1202 45.1412 30.6842C43.8526 32.018 42.0255 33.9088 41.9193 36.2361C41.8939 36.7943 41.9409 37.961 41.2786 39.2388C41.2786 39.2388 40.8629 40.0188 40.2791 40.603C39.7683 41.1275 39.1584 41.5452 38.485 41.832C37.8116 42.1188 37.0879 42.2689 36.3561 42.2736C35.6242 42.2784 34.8987 42.1376 34.2216 41.8596C33.5445 41.5816 32.9293 41.1718 32.4117 40.654C31.8941 40.1362 31.4845 39.5207 31.2064 38.8433C30.9284 38.1658 30.7876 37.4399 30.7921 36.7075C30.7966 35.9752 30.9464 35.251 31.2328 34.577C31.5192 33.9031 31.9365 33.2927 32.4605 32.7814C33.0387 32.2022 33.7872 31.8011 33.7872 31.8011C35.0587 31.1428 36.2108 31.2336 36.8538 31.2092C37.7831 31.1738 40.1962 30.1294 42.3743 27.915C43.6458 26.6205 45.5912 24.6434 45.6233 21.7745C45.657 18.6926 43.4672 16.5391 42.3787 15.4681C41.5019 14.6062 39.1961 12.3398 36.5901 12.2258C36.1384 12.2059 35.0173 12.2219 33.8044 11.5891C33.8044 11.5891 33.0487 11.1847 32.4665 10.6022C31.4594 9.55898 30.902 8.16168 30.9144 6.71122C30.9267 5.26076 31.508 3.8732 32.5328 2.84739C33.5576 1.82157 34.9441 1.23959 36.3936 1.22678C37.8431 1.21397 39.2396 1.77136 40.2824 2.7789C40.8701 3.3664 41.2747 4.12814 41.2747 4.12814C41.8939 5.32304 41.8856 6.42224 41.9072 6.86424C42.0376 9.59039 44.4723 12.0239 45.1456 12.6971C45.6984 13.2503 48.2547 15.8044 51.0305 15.946C51.4606 15.9676 52.527 15.9637 53.6934 16.5634C54.1924 16.8331 54.6519 17.1702 55.0589 17.5652C56.0956 18.6027 56.6781 20.0097 56.6781 21.4769C56.6781 22.944 56.0956 24.3511 55.0589 25.3885Z" fill="black" fill-opacity="0.1"/>
    <path d="M25.4026 3.14367C26.2761 4.01523 26.8317 5.15509 26.9804 6.38041C26.9843 6.37654 26.9876 6.37211 26.9909 6.36824C27.2856 7.68152 28.1331 10.5875 30.6949 13.068C32.0277 14.3575 33.9178 16.1858 36.243 16.292C36.8008 16.3174 37.9673 16.2704 39.2443 16.9331C39.2443 16.9331 40.0232 17.3492 40.607 17.9333C41.6438 18.9708 42.2263 20.3778 42.2264 21.845C42.2264 23.3122 41.644 24.7194 40.6073 25.7569C39.5705 26.7944 38.1644 27.3773 36.6982 27.3773C35.2319 27.3774 33.8258 26.7946 32.7889 25.7572C32.2107 25.1785 31.8093 24.4295 31.8093 24.4295C31.152 23.1571 31.2427 22.0048 31.2178 21.3615C31.183 20.4316 30.1387 18.0163 27.9257 15.8373C26.6327 14.5649 24.6569 12.6177 21.7893 12.5861C18.7096 12.5518 16.558 14.7436 15.4871 15.8328C14.6264 16.7102 12.3609 19.0176 12.247 21.6253C12.2277 22.0773 12.2437 23.1992 11.6107 24.4129C11.6107 24.4129 11.2066 25.1691 10.6245 25.7516C9.57985 26.7478 8.18738 27.2958 6.74445 27.2786C5.30151 27.2613 3.92251 26.6802 2.90198 25.6593C1.88145 24.6384 1.30029 23.2586 1.28264 21.8147C1.26499 20.3708 1.81224 18.9773 2.8075 17.9317C3.39516 17.3436 4.15639 16.9387 4.15639 16.9387C5.34995 16.3191 6.44898 16.3268 6.89013 16.3058C9.61501 16.1753 12.0469 13.739 12.7191 13.0652C13.272 12.512 15.8249 9.95405 15.9659 7.17646C15.988 6.74607 15.9841 5.67896 16.5828 4.51172C16.8527 4.01201 17.1897 3.5517 17.5845 3.14367C18.6213 2.10625 20.0274 1.52344 21.4936 1.52344C22.9597 1.52344 24.3659 2.10625 25.4026 3.14367Z" fill="black" fill-opacity="0.1"/>
    <path d="M32.8336 54.8352C31.9601 53.9636 31.4045 52.8238 31.2558 51.5985C31.2519 51.6023 31.2486 51.6068 31.2453 51.6106C30.9512 50.2979 30.1037 47.3914 27.5414 44.9109C26.2085 43.6214 24.3189 41.7931 21.9932 41.6869C21.4354 41.6614 20.2695 41.7085 18.9925 41.0463C18.9925 41.0463 18.2135 40.6303 17.6292 40.0456C16.5924 39.0081 16.0099 37.601 16.0098 36.1338C16.0098 34.6666 16.5922 33.2595 17.6289 32.222C18.6657 31.1845 20.0718 30.6016 21.538 30.6016C23.0043 30.6015 24.4104 31.1843 25.4473 32.2217C26.0261 32.8009 26.4269 33.5494 26.4269 33.5494C27.0847 34.8217 26.9941 35.9741 27.0184 36.618C27.0538 37.5479 28.0981 39.9626 30.3105 42.1416C31.6041 43.414 33.5799 45.3612 36.4469 45.3927C39.5267 45.427 41.6788 43.2353 42.7491 42.146C43.6087 41.2676 45.8753 38.9602 45.9859 36.3519C46.0058 35.8999 45.9897 34.7786 46.6222 33.5643C46.6222 33.5643 47.0263 32.8087 47.6084 32.2256C48.6452 31.188 50.0514 30.6049 51.5177 30.6048C52.984 30.6046 54.3904 31.1873 55.4273 32.2248C56.4643 33.2622 57.0469 34.6694 57.0471 36.1367C57.0472 37.604 56.4649 39.0112 55.4281 40.0489C54.841 40.6369 54.0798 41.0446 54.0798 41.0446C52.8857 41.6648 51.7873 41.6565 51.3455 41.6775C48.6212 41.8086 46.1893 44.2443 45.5165 44.9181C44.9637 45.4713 42.4113 48.0293 42.2698 50.8069C42.2482 51.2372 42.2521 52.3049 41.6528 53.4716C41.3835 53.971 41.0466 54.4308 40.6516 54.838C39.6145 55.875 38.2082 56.4573 36.742 56.4568C35.2759 56.4563 33.87 55.873 32.8336 54.8352Z" fill="black" fill-opacity="0.1"/>
    <path d="M2.84863 32.8277C3.71954 31.9535 4.85866 31.3973 6.08324 31.2483L6.07106 31.2378C7.38292 30.943 10.2875 30.0949 12.7663 27.5314C14.055 26.1977 15.8821 24.3063 15.9882 21.9796C16.0137 21.4214 15.9667 20.2541 16.6284 18.9763C16.6284 18.9763 17.0441 18.1968 17.6285 17.6126C18.6652 16.5751 20.0714 15.9922 21.5376 15.9922C23.0038 15.9921 24.41 16.5749 25.4468 17.6124C26.4836 18.6498 27.0661 20.0569 27.0662 21.5241C27.0662 22.9913 26.4838 24.3984 25.4471 25.4359C24.8683 26.0146 24.1203 26.4162 24.1203 26.4162C22.8488 27.0739 21.6973 26.9832 21.0538 27.0081C20.1245 27.0429 17.7114 28.0879 15.5338 30.3024C14.2623 31.5963 12.3163 33.5734 12.2848 36.4428C12.2506 39.5247 14.4408 41.6777 15.5294 42.7492C16.4056 43.6106 18.7114 45.8776 21.318 45.9915C21.7697 46.0109 22.8903 45.9948 24.1037 46.6277C24.1037 46.6277 24.8589 47.0321 25.4416 47.6151C26.4523 48.6578 27.0126 50.0564 27.0015 51.509C26.9904 52.9615 26.4088 54.3514 25.3823 55.3785C24.3558 56.4056 22.9668 56.9875 21.5152 56.9985C20.0636 57.0095 18.6659 56.4487 17.624 55.4373C17.0364 54.8493 16.6289 54.0875 16.6289 54.0875C16.0092 52.8932 16.0175 51.7934 15.9965 51.352C15.8655 48.6253 13.4314 46.1918 12.7581 45.5191C12.2052 44.9659 9.64894 42.4112 6.8732 42.2702C6.4431 42.248 5.37615 42.2519 4.21024 41.6528C3.71147 41.3829 3.25205 41.0458 2.84477 40.651C1.80856 39.613 1.22681 38.2057 1.22754 36.7385C1.22827 35.2714 1.81139 33.8646 2.84863 32.8277Z" fill="black" fill-opacity="0.1"/>
    <path d="M13.2396 52.3231C13.8175 51.7448 12.5359 49.5246 10.377 47.3643C8.21805 45.2039 5.99938 43.9214 5.42144 44.4997C4.8435 45.0781 6.12515 47.2982 8.28407 49.4585C10.443 51.6189 12.6616 52.9014 13.2396 52.3231Z" fill="black" fill-opacity="0.1"/>
    <path d="M10.8946 11.8154C13.0535 9.65509 14.3351 7.43495 13.7572 6.85662C13.1792 6.27829 10.9606 7.56078 8.80165 9.72114C6.64273 11.8815 5.36109 14.1016 5.93904 14.68C6.51698 15.2583 8.73565 13.9758 10.8946 11.8154Z" fill="black" fill-opacity="0.1"/>
    <path d="M49.3496 48.5459C51.5086 46.3856 52.7902 44.1654 52.2123 43.5871C51.6343 43.0088 49.4157 44.2912 47.2567 46.4516C45.0978 48.612 43.8162 50.8321 44.3941 51.4104C44.9721 51.9888 47.1907 50.7063 49.3496 48.5459Z" fill="black" fill-opacity="0.1"/>
    <path d="M51.752 12.8473C52.3367 12.2622 51.0402 10.0162 48.8561 7.83072C46.672 5.6452 44.4275 4.34777 43.8428 4.93283C43.2582 5.5179 44.5547 7.7639 46.7388 9.94942C48.9229 12.1349 51.1674 13.4324 51.752 12.8473Z" fill="url(#paint0_linear_1_94)"/>
    <path d="M54.4578 24.4434C53.5767 25.3276 52.4243 25.8901 51.1855 26.0406L51.1978 26.0512C49.8701 26.3489 46.9317 27.2069 44.4245 29.8008C43.1209 31.1501 41.2725 33.0629 41.1651 35.4173C41.1394 35.982 41.187 37.1623 40.517 38.455C40.517 38.455 40.0964 39.2441 39.5058 39.8351C38.989 40.3656 38.3721 40.7882 37.6908 41.0784C37.0095 41.3685 36.2775 41.5203 35.5371 41.5251C34.7967 41.5299 34.0627 41.3876 33.3778 41.1063C32.6928 40.8251 32.0704 40.4105 31.5468 39.8867C31.0232 39.3629 30.6087 38.7402 30.3275 38.0549C30.0462 37.3695 29.9037 36.6351 29.9083 35.8942C29.9129 35.1533 30.0644 34.4207 30.3542 33.7389C30.6439 33.0571 31.066 32.4397 31.5961 31.9224C32.1811 31.3364 32.9383 30.9307 32.9383 30.9307C34.2247 30.2647 35.3902 30.3565 36.0406 30.3319C36.9807 30.2961 39.4219 29.2395 41.6254 26.9992C42.9117 25.6897 44.8798 23.6895 44.9122 20.7873C44.9463 17.6695 42.7311 15.4908 41.6299 14.4074C40.7429 13.5355 38.4102 11.2426 35.7738 11.1274C35.3169 11.1072 34.1827 11.1234 32.9557 10.4832C32.9557 10.4832 32.1912 10.0741 31.6022 9.48482C30.5833 8.42947 30.0195 7.0159 30.032 5.54854C30.0445 4.08119 30.6325 2.67746 31.6693 1.6397C32.7061 0.60194 34.1087 0.0131765 35.5751 0.000218486C37.0414 -0.0127395 38.4542 0.551145 39.5092 1.57042C40.1037 2.16476 40.513 2.93538 40.513 2.93538C41.1394 4.1442 41.131 5.2562 41.1528 5.70335C41.2848 8.46124 43.7478 10.9231 44.429 11.6042C44.9883 12.1638 47.5743 14.7477 50.3824 14.8909C50.8175 14.9127 51.8963 14.9088 53.0764 15.5155C53.5811 15.7883 54.046 16.1293 54.4578 16.529C55.5066 17.5785 56.0958 19.0019 56.0958 20.4862C56.0958 21.9704 55.5066 23.3939 54.4578 24.4434Z" fill="url(#paint1_linear_1_94)"/>
    <path d="M24.456 1.93988C25.3397 2.8216 25.9017 3.97473 26.0522 5.21432C26.0561 5.21041 26.0595 5.20593 26.0628 5.20201C26.3609 6.53059 27.2183 9.47037 29.8099 11.9798C31.1583 13.2843 33.0704 15.1339 35.4227 15.2414C35.987 15.2671 37.167 15.2195 38.4589 15.89C38.4589 15.89 39.2469 16.3108 39.8375 16.9018C40.8864 17.9513 41.4757 19.3748 41.4757 20.8591C41.4758 22.3434 40.8866 23.7669 39.8378 24.8165C38.789 25.8661 37.3664 26.4557 35.8831 26.4558C34.3998 26.4558 32.9773 25.8663 31.9284 24.8168C31.3434 24.2314 30.9374 23.4736 30.9374 23.4736C30.2724 22.1865 30.3641 21.0207 30.339 20.3699C30.3037 19.4291 29.2473 16.9857 27.0085 14.7813C25.7004 13.4942 23.7016 11.5242 20.8007 11.4923C17.685 11.4576 15.5083 13.6749 14.425 14.7769C13.5543 15.6644 11.2624 17.9987 11.1472 20.6368C11.1276 21.094 11.1438 22.229 10.5035 23.4568C10.5035 23.4568 10.0946 24.2219 9.50574 24.8112C8.44895 25.819 7.04027 26.3734 5.58053 26.3559C4.12079 26.3385 2.72572 25.7505 1.69331 24.7177C0.660895 23.6849 0.0729651 22.2891 0.0551065 20.8284C0.0372479 19.3677 0.590877 17.9579 1.59773 16.9001C2.19223 16.3052 2.96233 15.8956 2.96233 15.8956C4.16979 15.2688 5.28162 15.2766 5.72791 15.2553C8.48453 15.1233 10.9447 12.6586 11.6248 11.977C12.1841 11.4173 14.7668 8.82958 14.9094 6.01964C14.9317 5.58424 14.9278 4.5047 15.5335 3.32387C15.8065 2.81833 16.1474 2.35266 16.5469 1.93988C17.5957 0.890383 19.0182 0.300781 20.5015 0.300781C21.9847 0.300781 23.4072 0.890383 24.456 1.93988Z" fill="url(#paint2_linear_1_94)"/>
    <path d="M31.97 54.2308C31.0864 53.349 30.5243 52.1959 30.3739 50.9563C30.37 50.9602 30.3666 50.9647 30.3632 50.9686C30.0657 49.6406 29.2084 46.7003 26.6162 44.1909C25.2678 42.8863 23.3562 41.0367 21.0034 40.9293C20.4391 40.9035 19.2596 40.9511 17.9677 40.2812C17.9677 40.2812 17.1797 39.8604 16.5885 39.2688C15.5397 38.2193 14.9504 36.7959 14.9503 35.3116C14.9503 33.8273 15.5395 32.4038 16.5883 31.3542C17.6371 30.3046 19.0596 29.7149 20.5429 29.7148C22.0262 29.7148 23.4488 30.3044 24.4977 31.3539C25.0832 31.9398 25.4887 32.697 25.4887 32.697C26.1542 33.9842 26.0625 35.1499 26.0871 35.8013C26.1229 36.7421 27.1794 39.1849 29.4175 41.3893C30.7262 42.6765 32.725 44.6464 35.6254 44.6783C38.7411 44.713 40.9183 42.4957 42.001 41.3938C42.8707 40.5051 45.1637 38.1708 45.2755 35.5321C45.2956 35.0749 45.2794 33.9405 45.9192 32.7121C45.9192 32.7121 46.3281 31.9477 46.917 31.3578C47.9658 30.3081 49.3884 29.7182 50.8718 29.7181C52.3552 29.7179 53.7779 30.3075 54.8269 31.357C55.876 32.4065 56.4654 33.83 56.4655 35.3144C56.4657 36.7988 55.8766 38.2225 54.8278 39.2722C54.2338 39.8671 53.4637 40.2795 53.4637 40.2795C52.2557 40.9069 51.1445 40.8985 50.6976 40.9198C47.9415 41.0524 45.4813 43.5165 44.8007 44.1981C44.2414 44.7578 41.6593 47.3455 41.5161 50.1555C41.4943 50.5909 41.4982 51.671 40.892 52.8512C40.6195 53.3564 40.2787 53.8216 39.8791 54.2336C38.83 55.2827 37.4073 55.8718 35.924 55.8713C34.4408 55.8707 33.0185 55.2806 31.97 54.2308Z" fill="url(#paint3_linear_1_94)"/>
    <path d="M1.63998 31.9652C2.52102 31.0808 3.67341 30.5181 4.91225 30.3674L4.89994 30.3568C6.22708 30.0585 9.16545 29.2006 11.6732 26.6072C12.9768 25.2579 14.8252 23.3445 14.9326 20.9907C14.9583 20.426 14.9108 19.2452 15.5802 17.9524C15.5802 17.9524 16.0008 17.1639 16.5919 16.5729C17.6408 15.5233 19.0633 14.9336 20.5466 14.9336C22.0299 14.9335 23.4525 15.5231 24.5014 16.5726C25.5502 17.6222 26.1395 19.0456 26.1396 20.5299C26.1396 22.0142 25.5504 23.4377 24.5016 24.4873C23.9161 25.0727 23.1594 25.479 23.1594 25.479C21.8731 26.1444 20.7081 26.0526 20.0572 26.0778C19.117 26.1131 16.6758 27.1702 14.4729 29.4104C13.1866 30.7194 11.218 32.7196 11.1861 35.6224C11.1514 38.7402 13.3672 40.9183 14.4684 42.0023C15.3548 42.8737 17.6875 45.167 20.3245 45.2823C20.7814 45.3019 21.915 45.2857 23.1426 45.9259C23.1426 45.9259 23.9066 46.335 24.4961 46.9249C25.5185 47.9797 26.0853 49.3946 26.0741 50.8641C26.0629 52.3335 25.4745 53.7396 24.4361 54.7787C23.3976 55.8178 21.9924 56.4064 20.524 56.4175C19.0555 56.4287 17.6415 55.8614 16.5875 54.8382C15.993 54.2433 15.5808 53.4726 15.5808 53.4726C14.9539 52.2644 14.9622 51.1518 14.941 50.7052C14.8084 47.9468 12.346 45.4849 11.6648 44.8044C11.1055 44.2448 8.51949 41.6604 5.71142 41.5176C5.27631 41.4953 4.19693 41.4992 3.01744 40.8931C2.51287 40.62 2.04809 40.279 1.63607 39.8796C0.587787 38.8295 -0.00073349 37.4058 6.86087e-07 35.9216C0.000734863 34.4373 0.590653 33.0142 1.63998 31.9652Z" fill="url(#paint4_linear_1_94)"/>
    <path d="M12.1524 51.6872C12.7371 51.1021 11.4405 48.8561 9.25645 46.6706C7.07239 44.4851 4.82787 43.1876 4.2432 43.7727C3.65852 44.3578 4.95511 46.6037 7.13918 48.7893C9.32324 50.9748 11.5677 52.2722 12.1524 51.6872Z" fill="url(#paint5_linear_1_94)"/>
    <path d="M9.77796 10.7162C11.962 8.53063 13.2586 6.28463 12.6739 5.69957C12.0892 5.1145 9.84473 6.41193 7.66066 8.59745C5.47659 10.783 4.18003 13.029 4.7647 13.614C5.34938 14.1991 7.59389 12.9017 9.77796 10.7162Z" fill="url(#paint6_linear_1_94)"/>
    <path d="M48.6842 47.8724C50.8683 45.6869 52.1648 43.4409 51.5802 42.8558C50.9955 42.2708 48.751 43.5682 46.5669 45.7537C44.3828 47.9392 43.0863 50.1852 43.671 50.7703C44.2556 51.3554 46.5001 50.0579 48.6842 47.8724Z" fill="url(#paint7_linear_1_94)"/>
    <defs>
        <linearGradient id="paint0_linear_1_94" x1="51.5035" y1="13.0961" x2="43.589" y2="5.18684" gradientUnits="userSpaceOnUse">
            <stop stop-color="#1B439E"/>
            <stop offset="1" stop-color="#00BAFF"/>
        </linearGradient>
        <linearGradient id="paint1_linear_1_94" x1="39.9274" y1="41.5253" x2="39.9274" y2="0" gradientUnits="userSpaceOnUse">
            <stop stop-color="#1B439E"/>
            <stop offset="1" stop-color="#00BAFF"/>
        </linearGradient>
        <linearGradient id="paint2_linear_1_94" x1="15.9022" y1="26.4558" x2="15.9022" y2="0.300781" gradientUnits="userSpaceOnUse">
            <stop stop-color="#1B439E"/>
            <stop offset="1" stop-color="#00BAFF"/>
        </linearGradient>
        <linearGradient id="paint3_linear_1_94" x1="30.8338" y1="55.8713" x2="30.8338" y2="29.7148" gradientUnits="userSpaceOnUse">
            <stop stop-color="#1B439E"/>
            <stop offset="1" stop-color="#00BAFF"/>
        </linearGradient>
        <linearGradient id="paint4_linear_1_94" x1="10.0009" y1="56.4177" x2="10.0009" y2="14.9336" gradientUnits="userSpaceOnUse">
            <stop stop-color="#1B439E"/>
            <stop offset="1" stop-color="#00BAFF"/>
        </linearGradient>
        <linearGradient id="paint5_linear_1_94" x1="11.9038" y1="51.9359" x2="3.98937" y2="44.0267" gradientUnits="userSpaceOnUse">
            <stop stop-color="#1B439E"/>
            <stop offset="1" stop-color="#00BAFF"/>
        </linearGradient>
        <linearGradient id="paint6_linear_1_94" x1="8.84937" y1="11.6454" x2="6.73067" y2="9.52806" gradientUnits="userSpaceOnUse">
            <stop stop-color="#1B439E"/>
            <stop offset="1" stop-color="#00BAFF"/>
        </linearGradient>
        <linearGradient id="paint7_linear_1_94" x1="47.7556" y1="48.8016" x2="45.6369" y2="46.6843" gradientUnits="userSpaceOnUse">
            <stop stop-color="#1B439E"/>
            <stop offset="1" stop-color="#00BAFF"/>
        </linearGradient>
    </defs>
</svg>
