<svg width="270" height="57" viewBox="0 0 270 57" fill="none" xmlns="http://www.w3.org/2000/svg">
    <path d="M52.3841 13.9207C52.9621 13.3424 51.6804 11.1223 49.5215 8.96189C47.3626 6.80154 45.1439 5.51905 44.566 6.09738C43.988 6.6757 45.2697 8.89585 47.4286 11.0562C49.5875 13.2166 51.8062 14.4991 52.3841 13.9207Z" fill="black" fill-opacity="0.1"/>
    <path d="M55.0589 25.3885C54.1879 26.2625 53.0488 26.8185 51.8243 26.9673L51.8365 26.9778C50.5241 27.2721 47.6195 28.1202 45.1412 30.6842C43.8526 32.018 42.0255 33.9088 41.9193 36.2361C41.8939 36.7943 41.9409 37.961 41.2786 39.2388C41.2786 39.2388 40.8629 40.0188 40.2791 40.603C39.7683 41.1275 39.1584 41.5452 38.485 41.832C37.8116 42.1188 37.0879 42.2689 36.3561 42.2736C35.6242 42.2784 34.8987 42.1376 34.2216 41.8596C33.5445 41.5816 32.9293 41.1718 32.4117 40.654C31.8941 40.1362 31.4845 39.5207 31.2064 38.8433C30.9284 38.1658 30.7876 37.4399 30.7921 36.7075C30.7966 35.9752 30.9464 35.251 31.2328 34.577C31.5192 33.9031 31.9365 33.2927 32.4605 32.7814C33.0387 32.2022 33.7872 31.8011 33.7872 31.8011C35.0587 31.1428 36.2108 31.2336 36.8538 31.2092C37.7831 31.1738 40.1962 30.1294 42.3743 27.915C43.6458 26.6205 45.5912 24.6434 45.6233 21.7745C45.657 18.6926 43.4672 16.5391 42.3787 15.4681C41.5019 14.6062 39.1961 12.3398 36.5901 12.2258C36.1384 12.2059 35.0173 12.2219 33.8044 11.5891C33.8044 11.5891 33.0487 11.1847 32.4665 10.6022C31.4594 9.55898 30.902 8.16168 30.9144 6.71122C30.9267 5.26076 31.508 3.8732 32.5328 2.84739C33.5576 1.82157 34.9441 1.23959 36.3936 1.22678C37.8431 1.21397 39.2396 1.77136 40.2824 2.7789C40.8701 3.3664 41.2747 4.12814 41.2747 4.12814C41.8939 5.32304 41.8856 6.42224 41.9072 6.86424C42.0376 9.59039 44.4723 12.0239 45.1456 12.6971C45.6984 13.2503 48.2547 15.8044 51.0305 15.946C51.4606 15.9676 52.527 15.9637 53.6934 16.5634C54.1924 16.8331 54.6519 17.1702 55.0589 17.5652C56.0957 18.6027 56.6781 20.0097 56.6781 21.4769C56.6781 22.944 56.0957 24.3511 55.0589 25.3885V25.3885Z" fill="black" fill-opacity="0.1"/>
    <path d="M25.4026 3.14367C26.2761 4.01523 26.8317 5.15509 26.9804 6.38041C26.9843 6.37654 26.9876 6.37211 26.9909 6.36824C27.2856 7.68152 28.1331 10.5875 30.6949 13.068C32.0277 14.3575 33.9178 16.1858 36.243 16.292C36.8008 16.3174 37.9673 16.2704 39.2443 16.9331C39.2443 16.9331 40.0232 17.3492 40.607 17.9333C41.6438 18.9708 42.2263 20.3778 42.2264 21.845C42.2264 23.3122 41.644 24.7194 40.6073 25.7569C39.5705 26.7944 38.1644 27.3773 36.6982 27.3773C35.2319 27.3774 33.8258 26.7946 32.789 25.7572C32.2107 25.1785 31.8093 24.4295 31.8093 24.4295C31.152 23.1571 31.2427 22.0048 31.2178 21.3615C31.183 20.4316 30.1387 18.0163 27.9257 15.8373C26.6327 14.5649 24.6569 12.6177 21.7893 12.5861C18.7096 12.5518 16.558 14.7436 15.4871 15.8328C14.6264 16.7102 12.3609 19.0176 12.247 21.6253C12.2277 22.0773 12.2437 23.1992 11.6107 24.4129C11.6107 24.4129 11.2066 25.1691 10.6245 25.7516C9.57985 26.7478 8.18738 27.2958 6.74445 27.2786C5.30151 27.2613 3.92251 26.6802 2.90198 25.6593C1.88145 24.6384 1.30029 23.2586 1.28264 21.8147C1.26499 20.3708 1.81224 18.9773 2.8075 17.9317C3.39516 17.3436 4.15639 16.9387 4.15639 16.9387C5.34995 16.3191 6.44898 16.3268 6.89013 16.3058C9.61501 16.1753 12.0469 13.739 12.7191 13.0652C13.272 12.512 15.8249 9.95405 15.9659 7.17646C15.988 6.74607 15.9841 5.67896 16.5828 4.51172C16.8527 4.01201 17.1897 3.5517 17.5845 3.14367C18.6213 2.10625 20.0274 1.52344 21.4936 1.52344C22.9597 1.52344 24.3659 2.10625 25.4026 3.14367V3.14367Z" fill="black" fill-opacity="0.1"/>
    <path d="M32.8336 54.8352C31.9601 53.9637 31.4045 52.8238 31.2558 51.5985C31.2519 51.6023 31.2486 51.6068 31.2453 51.6106C30.9512 50.2979 30.1037 47.3914 27.5414 44.9109C26.2085 43.6214 24.3189 41.7931 21.9932 41.6869C21.4354 41.6614 20.2695 41.7085 18.9925 41.0463C18.9925 41.0463 18.2135 40.6303 17.6292 40.0456C16.5924 39.0081 16.0099 37.601 16.0098 36.1338C16.0098 34.6666 16.5922 33.2595 17.6289 32.222C18.6657 31.1845 20.0718 30.6016 21.538 30.6016C23.0043 30.6015 24.4104 31.1843 25.4473 32.2217C26.0261 32.8009 26.4269 33.5494 26.4269 33.5494C27.0847 34.8217 26.9941 35.9741 27.0184 36.618C27.0538 37.5479 28.0981 39.9626 30.3105 42.1416C31.6041 43.414 33.5799 45.3612 36.4469 45.3927C39.5267 45.427 41.6788 43.2353 42.7491 42.146C43.6087 41.2676 45.8753 38.9602 45.9859 36.3519C46.0058 35.8999 45.9897 34.7786 46.6222 33.5643C46.6222 33.5643 47.0263 32.8087 47.6084 32.2256C48.6452 31.188 50.0514 30.6049 51.5177 30.6048C52.984 30.6046 54.3904 31.1873 55.4273 32.2248C56.4643 33.2622 57.0469 34.6694 57.0471 36.1367C57.0472 37.604 56.4649 39.0112 55.4281 40.0489C54.841 40.6369 54.0798 41.0446 54.0798 41.0446C52.8857 41.6648 51.7873 41.6565 51.3455 41.6775C48.6212 41.8086 46.1893 44.2443 45.5165 44.9181C44.9637 45.4713 42.4113 48.0293 42.2698 50.8069C42.2482 51.2372 42.2521 52.3049 41.6528 53.4716C41.3835 53.971 41.0466 54.4308 40.6516 54.838C39.6145 55.875 38.2082 56.4573 36.742 56.4568C35.2759 56.4563 33.87 55.873 32.8336 54.8352V54.8352Z" fill="black" fill-opacity="0.1"/>
    <path d="M2.84863 32.8277C3.71954 31.9535 4.85866 31.3973 6.08324 31.2483L6.07106 31.2378C7.38292 30.943 10.2875 30.0949 12.7663 27.5314C14.055 26.1977 15.8821 24.3063 15.9882 21.9796C16.0137 21.4214 15.9667 20.2541 16.6284 18.9763C16.6284 18.9763 17.0441 18.1968 17.6285 17.6126C18.6652 16.5751 20.0714 15.9922 21.5376 15.9922C23.0038 15.9921 24.41 16.5749 25.4468 17.6124C26.4836 18.6498 27.0661 20.0569 27.0662 21.5241C27.0662 22.9913 26.4838 24.3984 25.4471 25.4359C24.8683 26.0146 24.1203 26.4162 24.1203 26.4162C22.8488 27.0739 21.6973 26.9832 21.0538 27.0081C20.1245 27.0429 17.7114 28.0879 15.5338 30.3024C14.2623 31.5963 12.3163 33.5734 12.2848 36.4428C12.2506 39.5247 14.4408 41.6777 15.5294 42.7492C16.4056 43.6106 18.7114 45.8776 21.318 45.9915C21.7697 46.0109 22.8903 45.9948 24.1037 46.6277C24.1037 46.6277 24.8589 47.0321 25.4416 47.6151C26.4523 48.6578 27.0126 50.0564 27.0015 51.509C26.9904 52.9615 26.4088 54.3514 25.3823 55.3785C24.3558 56.4056 22.9668 56.9875 21.5152 56.9985C20.0636 57.0095 18.6659 56.4487 17.624 55.4373C17.0364 54.8493 16.6289 54.0875 16.6289 54.0875C16.0092 52.8932 16.0175 51.7934 15.9965 51.352C15.8655 48.6253 13.4314 46.1918 12.7581 45.5191C12.2052 44.9659 9.64894 42.4112 6.8732 42.2702C6.4431 42.248 5.37615 42.2519 4.21024 41.6528C3.71147 41.3829 3.25205 41.0458 2.84477 40.651C1.80856 39.613 1.22681 38.2057 1.22754 36.7385C1.22827 35.2714 1.81139 33.8646 2.84863 32.8277V32.8277Z" fill="black" fill-opacity="0.1"/>
    <path d="M13.2396 52.3231C13.8175 51.7448 12.5359 49.5246 10.377 47.3643C8.21805 45.2039 5.99938 43.9214 5.42144 44.4997C4.8435 45.0781 6.12515 47.2982 8.28407 49.4585C10.443 51.6189 12.6616 52.9014 13.2396 52.3231Z" fill="black" fill-opacity="0.1"/>
    <path d="M10.8946 11.8154C13.0535 9.65509 14.3351 7.43495 13.7572 6.85662C13.1792 6.27829 10.9606 7.56078 8.80165 9.72114C6.64273 11.8815 5.36109 14.1016 5.93904 14.68C6.51698 15.2583 8.73565 13.9758 10.8946 11.8154Z" fill="black" fill-opacity="0.1"/>
    <path d="M49.3496 48.5459C51.5086 46.3856 52.7902 44.1654 52.2123 43.5871C51.6343 43.0088 49.4157 44.2912 47.2567 46.4516C45.0978 48.612 43.8162 50.8321 44.3941 51.4104C44.9721 51.9888 47.1907 50.7063 49.3496 48.5459Z" fill="black" fill-opacity="0.1"/>
    <path d="M51.752 12.8473C52.3367 12.2622 51.0402 10.0162 48.8561 7.83072C46.672 5.6452 44.4275 4.34777 43.8428 4.93283C43.2582 5.5179 44.5547 7.7639 46.7388 9.94942C48.9229 12.1349 51.1674 13.4324 51.752 12.8473Z" fill="url(#paint0_linear_1_38)"/>
    <path d="M54.4578 24.4434C53.5767 25.3276 52.4243 25.8901 51.1855 26.0406L51.1978 26.0512C49.8701 26.3489 46.9317 27.2069 44.4245 29.8008C43.1209 31.1501 41.2725 33.0629 41.1651 35.4173C41.1394 35.982 41.187 37.1623 40.517 38.455C40.517 38.455 40.0964 39.2441 39.5058 39.8351C38.989 40.3656 38.3721 40.7882 37.6908 41.0784C37.0095 41.3685 36.2775 41.5203 35.5371 41.5251C34.7967 41.5299 34.0627 41.3876 33.3778 41.1063C32.6928 40.8251 32.0704 40.4105 31.5468 39.8867C31.0232 39.3629 30.6087 38.7402 30.3275 38.0549C30.0462 37.3695 29.9037 36.6351 29.9083 35.8942C29.9129 35.1533 30.0644 34.4207 30.3542 33.7389C30.6439 33.0571 31.066 32.4397 31.5961 31.9224C32.1811 31.3364 32.9383 30.9307 32.9383 30.9307C34.2247 30.2647 35.3902 30.3565 36.0406 30.3319C36.9807 30.2961 39.4219 29.2395 41.6254 26.9992C42.9117 25.6897 44.8798 23.6895 44.9122 20.7873C44.9463 17.6695 42.7311 15.4908 41.6299 14.4074C40.7429 13.5355 38.4102 11.2426 35.7738 11.1274C35.3169 11.1072 34.1827 11.1234 32.9557 10.4832C32.9557 10.4832 32.1912 10.0741 31.6022 9.48482C30.5833 8.42947 30.0195 7.0159 30.032 5.54854C30.0445 4.08119 30.6325 2.67746 31.6693 1.6397C32.7061 0.60194 34.1087 0.0131765 35.5751 0.000218486C37.0414 -0.0127395 38.4542 0.551145 39.5092 1.57042C40.1037 2.16476 40.513 2.93538 40.513 2.93538C41.1394 4.1442 41.131 5.2562 41.1528 5.70335C41.2848 8.46124 43.7478 10.9231 44.429 11.6042C44.9883 12.1638 47.5743 14.7477 50.3824 14.8909C50.8175 14.9127 51.8963 14.9088 53.0764 15.5155C53.5811 15.7883 54.046 16.1293 54.4578 16.529C55.5066 17.5785 56.0958 19.0019 56.0958 20.4862C56.0958 21.9704 55.5066 23.3939 54.4578 24.4434V24.4434Z" fill="url(#paint1_linear_1_38)"/>
    <path d="M24.456 1.93988C25.3397 2.8216 25.9017 3.97473 26.0522 5.21432C26.0561 5.21041 26.0595 5.20593 26.0628 5.20201C26.3609 6.53059 27.2183 9.47037 29.8099 11.9798C31.1583 13.2843 33.0704 15.1339 35.4227 15.2414C35.987 15.2671 37.167 15.2195 38.4589 15.89C38.4589 15.89 39.2469 16.3108 39.8375 16.9018C40.8864 17.9513 41.4757 19.3748 41.4757 20.8591C41.4758 22.3434 40.8866 23.7669 39.8378 24.8165C38.789 25.8661 37.3664 26.4557 35.8831 26.4558C34.3998 26.4558 32.9773 25.8663 31.9284 24.8168C31.3434 24.2314 30.9374 23.4736 30.9374 23.4736C30.2724 22.1865 30.3641 21.0207 30.339 20.3699C30.3037 19.4291 29.2473 16.9857 27.0085 14.7813C25.7004 13.4942 23.7016 11.5242 20.8007 11.4923C17.685 11.4576 15.5083 13.6749 14.425 14.7769C13.5543 15.6644 11.2624 17.9987 11.1472 20.6368C11.1276 21.094 11.1438 22.229 10.5035 23.4568C10.5035 23.4568 10.0946 24.2219 9.50574 24.8112C8.44895 25.819 7.04027 26.3734 5.58053 26.3559C4.12079 26.3385 2.72572 25.7505 1.69331 24.7177C0.660895 23.6849 0.0729651 22.2891 0.0551065 20.8284C0.0372479 19.3677 0.590877 17.9579 1.59773 16.9001C2.19223 16.3052 2.96233 15.8956 2.96233 15.8956C4.16979 15.2688 5.28162 15.2766 5.72791 15.2553C8.48453 15.1233 10.9447 12.6586 11.6248 11.977C12.1841 11.4173 14.7668 8.82958 14.9094 6.01964C14.9317 5.58424 14.9278 4.5047 15.5335 3.32387C15.8065 2.81833 16.1474 2.35266 16.5469 1.93988C17.5957 0.890383 19.0182 0.300781 20.5015 0.300781C21.9847 0.300781 23.4072 0.890383 24.456 1.93988V1.93988Z" fill="url(#paint2_linear_1_38)"/>
    <path d="M31.97 54.2308C31.0864 53.349 30.5243 52.1959 30.3739 50.9563C30.37 50.9602 30.3666 50.9647 30.3632 50.9686C30.0657 49.6406 29.2084 46.7003 26.6162 44.1909C25.2678 42.8863 23.3562 41.0367 21.0034 40.9293C20.4391 40.9035 19.2596 40.9511 17.9677 40.2812C17.9677 40.2812 17.1797 39.8604 16.5885 39.2688C15.5397 38.2193 14.9504 36.7959 14.9503 35.3116C14.9503 33.8273 15.5395 32.4038 16.5883 31.3542C17.6371 30.3046 19.0596 29.7149 20.5429 29.7148C22.0262 29.7148 23.4488 30.3044 24.4977 31.3539C25.0832 31.9398 25.4887 32.697 25.4887 32.697C26.1542 33.9842 26.0625 35.1499 26.0871 35.8013C26.1229 36.7421 27.1794 39.1849 29.4175 41.3893C30.7262 42.6765 32.725 44.6464 35.6254 44.6783C38.7411 44.713 40.9183 42.4957 42.001 41.3938C42.8707 40.5051 45.1637 38.1708 45.2755 35.5321C45.2956 35.0749 45.2794 33.9405 45.9192 32.7121C45.9192 32.7121 46.3281 31.9477 46.917 31.3578C47.9658 30.3081 49.3884 29.7182 50.8718 29.7181C52.3552 29.7179 53.7779 30.3075 54.8269 31.357C55.876 32.4065 56.4654 33.83 56.4655 35.3144C56.4657 36.7988 55.8766 38.2225 54.8278 39.2722C54.2338 39.8671 53.4637 40.2795 53.4637 40.2795C52.2557 40.9069 51.1445 40.8985 50.6976 40.9198C47.9415 41.0524 45.4813 43.5165 44.8007 44.1981C44.2414 44.7578 41.6593 47.3455 41.5161 50.1555C41.4943 50.5909 41.4982 51.671 40.892 52.8512C40.6195 53.3564 40.2787 53.8216 39.8791 54.2336C38.8299 55.2827 37.4073 55.8718 35.924 55.8713C34.4408 55.8707 33.0185 55.2806 31.97 54.2308V54.2308Z" fill="url(#paint3_linear_1_38)"/>
    <path d="M1.63998 31.9652C2.52102 31.0808 3.67341 30.5181 4.91225 30.3674L4.89994 30.3568C6.22707 30.0585 9.16545 29.2006 11.6732 26.6072C12.9768 25.2579 14.8252 23.3445 14.9326 20.9907C14.9583 20.426 14.9108 19.2452 15.5802 17.9524C15.5802 17.9524 16.0008 17.1639 16.5919 16.5729C17.6408 15.5233 19.0633 14.9336 20.5466 14.9336C22.0299 14.9335 23.4525 15.5231 24.5014 16.5726C25.5502 17.6222 26.1395 19.0456 26.1396 20.5299C26.1396 22.0142 25.5504 23.4377 24.5016 24.4873C23.9161 25.0727 23.1594 25.479 23.1594 25.479C21.8731 26.1444 20.7081 26.0526 20.0572 26.0778C19.117 26.1131 16.6758 27.1702 14.4729 29.4104C13.1866 30.7194 11.218 32.7196 11.1861 35.6224C11.1514 38.7402 13.3672 40.9183 14.4684 42.0023C15.3548 42.8737 17.6875 45.167 20.3245 45.2823C20.7814 45.3019 21.915 45.2857 23.1426 45.9259C23.1426 45.9259 23.9066 46.335 24.4961 46.9249C25.5185 47.9797 26.0853 49.3946 26.0741 50.8641C26.0629 52.3335 25.4745 53.7396 24.4361 54.7787C23.3976 55.8178 21.9924 56.4064 20.524 56.4175C19.0555 56.4287 17.6415 55.8614 16.5875 54.8381C15.993 54.2433 15.5808 53.4726 15.5808 53.4726C14.9539 52.2644 14.9622 51.1518 14.941 50.7052C14.8084 47.9468 12.346 45.4849 11.6648 44.8044C11.1055 44.2448 8.51949 41.6604 5.71142 41.5176C5.27631 41.4953 4.19693 41.4992 3.01744 40.8931C2.51287 40.62 2.04809 40.279 1.63607 39.8796C0.587787 38.8295 -0.00073349 37.4058 6.86087e-07 35.9216C0.000734863 34.4373 0.590653 33.0142 1.63998 31.9652V31.9652Z" fill="url(#paint4_linear_1_38)"/>
    <path d="M12.1524 51.6872C12.7371 51.1021 11.4405 48.8561 9.25645 46.6706C7.07239 44.4851 4.82787 43.1876 4.2432 43.7727C3.65852 44.3578 4.95511 46.6037 7.13918 48.7893C9.32324 50.9748 11.5677 52.2722 12.1524 51.6872Z" fill="url(#paint5_linear_1_38)"/>
    <path d="M9.77796 10.7162C11.962 8.53063 13.2586 6.28463 12.6739 5.69957C12.0892 5.1145 9.84473 6.41193 7.66066 8.59745C5.47659 10.783 4.18003 13.029 4.7647 13.614C5.34938 14.1991 7.59389 12.9017 9.77796 10.7162Z" fill="url(#paint6_linear_1_38)"/>
    <path d="M48.6842 47.8724C50.8683 45.6869 52.1648 43.4409 51.5802 42.8558C50.9955 42.2708 48.751 43.5682 46.5669 45.7537C44.3828 47.9392 43.0863 50.1852 43.671 50.7703C44.2556 51.3554 46.5001 50.0579 48.6842 47.8724Z" fill="url(#paint7_linear_1_38)"/>
    <g opacity="0.1">
        <path d="M68.8419 21.9493C68.8419 20.8448 69.7373 19.9493 70.8419 19.9493H72.7067C73.8112 19.9493 74.7067 20.8448 74.7067 21.9493V36.8983C74.7067 38.0028 73.8112 38.8983 72.7067 38.8983H70.8419C69.7374 38.8983 68.8419 38.0028 68.8419 36.8983V21.9493Z" fill="black"/>
        <path d="M77.5873 21.9493C77.5873 20.8448 78.4828 19.9493 79.5873 19.9493H93.3753C94.4799 19.9493 95.3753 20.8448 95.3753 21.9493V22.6284C95.3753 23.733 94.4799 24.6284 93.3753 24.6284H91.4072C90.3027 24.6284 89.4072 25.5238 89.4072 26.6284V36.8983C89.4072 38.0028 88.5118 38.8983 87.4072 38.8983H85.5554C84.4509 38.8983 83.5554 38.0028 83.5554 36.8983V26.6284C83.5554 25.5238 82.66 24.6284 81.5554 24.6284H79.5873C78.4828 24.6284 77.5873 23.733 77.5873 22.6284V21.9493Z" fill="black"/>
        <path d="M111.57 38.8983C110.811 38.8983 110.147 38.3877 109.953 37.6543L105.666 21.4914C105.46 20.7126 106.047 19.9493 106.853 19.9493V19.9493C107.424 19.9493 107.92 20.3432 108.049 20.8995L110.709 32.3708C111.019 33.672 111.286 34.9646 111.51 36.2485C111.992 34.2235 112.276 33.0559 112.362 32.7457L115.557 21.405C115.799 20.5441 116.584 19.9493 117.479 19.9493V19.9493C118.372 19.9493 119.157 20.543 119.4 21.4028L121.702 29.5401C122.382 31.9184 122.873 34.1546 123.175 36.2485C123.416 35.0508 123.73 33.6763 124.118 32.1253L126.865 20.8661C126.996 20.328 127.479 19.9493 128.033 19.9493V19.9493C128.825 19.9493 129.401 20.7039 129.191 21.4686L124.734 37.732C124.546 38.4208 123.92 38.8983 123.206 38.8983V38.8983C122.493 38.8983 121.868 38.4225 121.678 37.7355L118.008 24.4604C117.672 23.254 117.474 22.5129 117.413 22.2372C117.215 23.1075 117.03 23.8486 116.858 24.4604L113.181 37.674C112.98 38.3976 112.321 38.8983 111.57 38.8983V38.8983Z" fill="black"/>
        <path d="M131.197 29.6694C131.197 26.5242 132.041 24.064 133.729 22.2889C135.417 20.5051 137.595 19.6133 140.265 19.6133C142.013 19.6133 143.589 20.0312 144.993 20.8671C146.397 21.7029 147.465 22.8705 148.197 24.3699C148.937 25.8607 149.308 27.5539 149.308 29.4497C149.308 31.3713 148.92 33.0904 148.145 34.607C147.37 36.1236 146.272 37.274 144.851 38.0581C143.43 38.8336 141.897 39.2214 140.252 39.2214C138.469 39.2214 136.876 38.7906 135.473 37.9289C134.069 37.0671 133.005 35.8909 132.282 34.4002C131.558 32.9094 131.197 31.3325 131.197 29.6694ZM133.78 29.7082C133.78 31.9917 134.392 33.7927 135.615 35.1111C136.846 36.4209 138.388 37.0758 140.239 37.0758C142.125 37.0758 143.675 36.4122 144.89 35.0852C146.113 33.7582 146.724 31.8754 146.724 29.4367C146.724 27.8943 146.461 26.55 145.936 25.4039C145.419 24.2493 144.657 23.3574 143.65 22.7284C142.651 22.0907 141.527 21.7719 140.278 21.7719C138.504 21.7719 136.975 22.3837 135.692 23.6073C134.418 24.8223 133.78 26.8559 133.78 29.7082Z" fill="black"/>
        <path d="M153.842 38.8983C153.15 38.8983 152.589 38.3373 152.589 37.6452V21.9493C152.589 20.8448 153.484 19.9493 154.589 19.9493H160.985C162.673 19.9493 163.957 20.1217 164.835 20.4664C165.713 20.8024 166.415 21.4013 166.941 22.263C167.466 23.1247 167.729 24.0769 167.729 25.1196C167.729 26.4638 167.294 27.597 166.424 28.519C165.554 29.441 164.211 30.027 162.393 30.2769C163.057 30.5957 163.56 30.9103 163.905 31.2205C164.637 31.8926 165.33 32.7328 165.985 33.741L168.296 37.36C168.721 38.0256 168.243 38.8983 167.453 38.8983H167.225C166.541 38.8983 165.904 38.5486 165.537 37.9712L163.621 34.956C162.889 33.8185 162.286 32.9482 161.812 32.345C161.339 31.7418 160.912 31.3196 160.533 31.0783C160.163 30.837 159.784 30.669 159.397 30.5742C159.112 30.5139 158.647 30.4837 158.001 30.4837H155.095V37.6452C155.095 38.3373 154.534 38.8983 153.842 38.8983V38.8983ZM155.095 28.3122H160.482C161.627 28.3122 162.523 28.1959 163.169 27.9632C163.814 27.7219 164.305 27.3428 164.641 26.8258C164.977 26.3001 165.145 25.7314 165.145 25.1196C165.145 24.2234 164.818 23.4867 164.163 22.9093C163.517 22.332 162.493 22.0433 161.089 22.0433H155.095V28.3122Z" fill="black"/>
        <path d="M173.565 38.8983C172.461 38.8983 171.565 38.0028 171.565 36.8983V21.2024C171.565 20.5104 172.126 19.9493 172.818 19.9493V19.9493C173.51 19.9493 174.071 20.5104 174.071 21.2024V34.6621C174.071 35.7667 174.967 36.6621 176.071 36.6621H182.28C182.897 36.6621 183.398 37.1627 183.398 37.7802V37.7802C183.398 38.3977 182.897 38.8983 182.28 38.8983H173.565Z" fill="black"/>
        <path d="M188.395 38.8983C187.29 38.8983 186.395 38.0028 186.395 36.8983V21.9493C186.395 20.8448 187.29 19.9493 188.395 19.9493H192.919C194.391 19.9493 195.515 20.0398 196.29 20.2208C197.375 20.4707 198.301 20.9231 199.067 21.578C200.066 22.4224 200.811 23.5039 201.302 24.8223C201.802 26.1321 202.051 27.6315 202.051 29.3204C202.051 30.7595 201.884 32.0348 201.548 33.1464C201.212 34.258 200.781 35.18 200.256 35.9125C199.731 36.6363 199.154 37.2093 198.525 37.6316C197.905 38.0452 197.151 38.3597 196.264 38.5751C195.386 38.7906 194.374 38.8983 193.229 38.8983H188.395ZM188.901 36.6621H192.944C194.193 36.6621 195.171 36.5458 195.877 36.3132C196.592 36.0805 197.16 35.753 197.582 35.3308C198.176 34.7362 198.637 33.9392 198.964 32.9396C199.3 31.9314 199.468 30.7121 199.468 29.2816C199.468 27.2997 199.141 25.7788 198.486 24.7189C197.84 23.6504 197.052 22.9352 196.122 22.5732C195.45 22.3147 194.37 22.1855 192.88 22.1855H188.901V36.6621Z" fill="black"/>
        <path d="M214.246 21.9493C214.246 20.8448 215.141 19.9493 216.246 19.9493H218.098C219.202 19.9493 220.098 20.8448 220.098 21.9493V32.2321C220.098 33.3367 220.993 34.2321 222.098 34.2321H227.231C228.335 34.2321 229.231 35.1276 229.231 36.2321V36.8983C229.231 38.0028 228.335 38.8983 227.231 38.8983H216.246C215.141 38.8983 214.246 38.0028 214.246 36.8983V21.9493Z" fill="black"/>
        <path d="M243.969 37.2003C243.717 36.3519 242.937 35.7703 242.052 35.7703H238.376C237.488 35.7703 236.707 36.3556 236.457 37.2075L236.382 37.461C236.133 38.313 235.351 38.8983 234.463 38.8983H232.868C231.471 38.8983 230.504 37.5027 230.995 36.195L236.611 21.2461C236.904 20.466 237.65 19.9493 238.483 19.9493H242.094C242.927 19.9493 243.673 20.466 243.966 21.2461L249.582 36.195C250.073 37.5027 249.106 38.8983 247.709 38.8983H245.966C245.081 38.8983 244.301 38.3166 244.049 37.4683L243.969 37.2003ZM240.963 31.6729C241.636 31.6729 242.117 31.0222 241.919 30.3792L240.224 24.8611L238.539 30.3809C238.342 31.0235 238.823 31.6729 239.495 31.6729H240.963Z" fill="black"/>
        <path d="M252.496 21.9493C252.496 20.8448 253.391 19.9493 254.496 19.9493H263.45C265.276 19.9493 266.676 20.4017 267.649 21.3065C268.63 22.2113 269.121 23.3315 269.121 24.6672C269.121 25.7874 268.773 26.7482 268.075 27.5496C267.61 28.0839 266.93 28.5061 266.034 28.8163C267.395 29.1438 268.394 29.7082 269.031 30.5096C269.677 31.3023 270 32.3019 270 33.5083C270 34.4906 269.772 35.3739 269.315 36.158C268.859 36.9422 268.234 37.5626 267.442 38.0193C266.951 38.3037 266.21 38.5105 265.22 38.6398C263.902 38.8121 263.028 38.8983 262.598 38.8983H254.496C253.391 38.8983 252.496 38.0028 252.496 36.8983V21.9493ZM258.399 27.3816H260.944C261.857 27.3816 262.49 27.2265 262.843 26.9162C263.205 26.5974 263.386 26.1407 263.386 25.5461C263.386 24.9946 263.205 24.5638 262.843 24.2536C262.49 23.9434 261.87 23.7882 260.983 23.7882H258.399V27.3816ZM258.399 34.8267H261.383C262.391 34.8267 263.102 34.6501 263.515 34.2968C263.928 33.9348 264.135 33.4523 264.135 32.8491C264.135 32.289 263.928 31.8409 263.515 31.5048C263.11 31.1601 262.395 30.9878 261.371 30.9878H258.399V34.8267Z" fill="black"/>
    </g>
    <path d="M67.9474 21.0586C67.9474 19.954 68.8429 19.0586 69.9474 19.0586H71.8122C72.9168 19.0586 73.8122 19.954 73.8122 21.0586V36.0075C73.8122 37.1121 72.9168 38.0075 71.8122 38.0075H69.9474C68.8429 38.0075 67.9474 37.1121 67.9474 36.0075V21.0586Z" fill="#1F2025"/>
    <path d="M76.6929 21.0586C76.6929 19.954 77.5883 19.0586 78.6929 19.0586H92.4809C93.5854 19.0586 94.4809 19.954 94.4809 21.0586V21.7377C94.4809 22.8422 93.5854 23.7377 92.4809 23.7377H89.5128C88.9605 23.7377 88.5128 24.1854 88.5128 24.7377V36.0075C88.5128 37.1121 87.6173 38.0075 86.5128 38.0075H84.661C83.5564 38.0075 82.661 37.1121 82.661 36.0075V24.7377C82.661 24.1854 82.2132 23.7377 81.661 23.7377H78.6929C77.5883 23.7377 76.6929 22.8422 76.6929 21.7377V21.0586Z" fill="#1F2025"/>
    <path d="M213.352 21.0586C213.352 19.954 214.247 19.0586 215.352 19.0586H217.203C218.308 19.0586 219.203 19.954 219.203 21.0586V31.3414C219.203 32.4459 220.099 33.3414 221.203 33.3414H226.336C227.441 33.3414 228.336 34.2368 228.336 35.3414V36.0075C228.336 37.1121 227.441 38.0075 226.336 38.0075H215.352C214.247 38.0075 213.352 37.1121 213.352 36.0075V21.0586Z" fill="#1F2025"/>
    <path d="M243.075 36.3095C242.822 35.4612 242.043 34.8795 241.158 34.8795H237.481C236.594 34.8795 235.812 35.4648 235.562 36.3168L235.488 36.5703C235.238 37.4222 234.457 38.0075 233.569 38.0075H231.973C230.576 38.0075 229.61 36.6119 230.101 35.3042L235.716 20.3553C236.009 19.5752 236.755 19.0586 237.589 19.0586H241.2C242.033 19.0586 242.779 19.5752 243.072 20.3553L248.687 35.3042C249.178 36.6119 248.212 38.0075 246.815 38.0075H245.071C244.186 38.0075 243.406 37.4259 243.154 36.5775L243.075 36.3095ZM240.069 30.7821C240.741 30.7821 241.222 30.1314 241.025 29.4884L239.329 23.9703L237.644 29.4901C237.448 30.1327 237.929 30.7821 238.601 30.7821H240.069Z" fill="#1F2025"/>
    <path d="M251.601 21.0586C251.601 19.954 252.497 19.0586 253.601 19.0586H262.556C264.382 19.0586 265.781 19.511 266.754 20.4158C267.736 21.3206 268.227 22.4408 268.227 23.7764C268.227 24.8967 267.878 25.8575 267.18 26.6588C266.715 27.1931 266.035 27.6153 265.139 27.9256C266.5 28.253 267.499 28.8174 268.136 29.6188C268.782 30.4116 269.105 31.4112 269.105 32.6175C269.105 33.5999 268.877 34.4831 268.421 35.2673C267.964 36.0514 267.34 36.6719 266.548 37.1286C266.057 37.4129 265.316 37.6198 264.326 37.749C263.008 37.9213 262.134 38.0075 261.703 38.0075H253.601C252.497 38.0075 251.601 37.1121 251.601 36.0075V21.0586ZM257.505 26.4908H260.05C260.963 26.4908 261.596 26.3357 261.949 26.0255C262.31 25.7067 262.491 25.25 262.491 24.6554C262.491 24.1039 262.31 23.673 261.949 23.3628C261.596 23.0526 260.976 22.8975 260.089 22.8975H257.505V26.4908ZM257.505 33.936H260.489C261.497 33.936 262.207 33.7593 262.62 33.406C263.034 33.0441 263.241 32.5615 263.241 31.9583C263.241 31.3982 263.034 30.9501 262.62 30.6141C262.216 30.2694 261.501 30.0971 260.476 30.0971H257.505V33.936Z" fill="#1F2025"/>
    <path d="M110.673 38.0076C109.915 38.0076 109.251 37.497 109.057 36.7637L104.77 20.6008C104.564 19.8219 105.151 19.0587 105.957 19.0587V19.0587C106.528 19.0587 107.023 19.4526 107.152 20.0088L109.813 31.4802C110.123 32.7814 110.39 34.074 110.614 35.3579C111.096 33.3329 111.38 32.1653 111.466 31.8551L114.66 20.5144C114.903 19.6534 115.688 19.0587 116.583 19.0587V19.0587C117.476 19.0587 118.261 19.6524 118.504 20.5122L120.806 28.6495C121.486 31.0278 121.977 33.264 122.279 35.3579C122.52 34.1601 122.834 32.7857 123.222 31.2346L125.969 19.9755C126.1 19.4374 126.582 19.0587 127.136 19.0587V19.0587C127.929 19.0587 128.505 19.8132 128.295 20.578L123.838 36.8414C123.65 37.5302 123.024 38.0076 122.309 38.0076V38.0076C121.597 38.0076 120.972 37.5319 120.782 36.8449L117.111 23.5698C116.776 22.3634 116.577 21.6223 116.517 21.3466C116.319 22.2169 116.134 22.9579 115.962 23.5698L112.285 36.7834C112.084 37.507 111.425 38.0076 110.673 38.0076V38.0076Z" fill="url(#paint8_linear_1_38)"/>
    <path d="M130.301 28.7788C130.301 25.6335 131.145 23.1734 132.833 21.3983C134.52 19.6145 136.699 18.7227 139.369 18.7227C141.117 18.7227 142.693 19.1406 144.097 19.9764C145.501 20.8123 146.569 21.9799 147.301 23.4793C148.041 24.97 148.412 26.6633 148.412 28.559C148.412 30.4806 148.024 32.1997 147.249 33.7163C146.474 35.233 145.376 36.3833 143.955 37.1675C142.534 37.943 141.001 38.3308 139.356 38.3308C137.573 38.3308 135.98 37.8999 134.576 37.0382C133.173 36.1765 132.109 35.0003 131.386 33.5095C130.662 32.0188 130.301 30.4419 130.301 28.7788ZM132.884 28.8175C132.884 31.1011 133.496 32.902 134.719 34.2204C135.95 35.5302 137.492 36.1851 139.343 36.1851C141.229 36.1851 142.779 35.5216 143.994 34.1946C145.217 32.8676 145.828 30.9847 145.828 28.5461C145.828 27.0037 145.565 25.6594 145.04 24.5133C144.523 23.3586 143.761 22.4668 142.753 21.8377C141.755 21.2001 140.631 20.8812 139.382 20.8812C137.608 20.8812 136.079 21.493 134.796 22.7167C133.521 23.9317 132.884 25.9653 132.884 28.8175Z" fill="url(#paint9_linear_1_38)"/>
    <path d="M152.946 38.0076C152.254 38.0076 151.693 37.4466 151.693 36.7546V21.0587C151.693 19.9542 152.588 19.0587 153.693 19.0587H160.089C161.777 19.0587 163.06 19.2311 163.939 19.5757C164.817 19.9118 165.519 20.5107 166.045 21.3724C166.57 22.2341 166.833 23.1863 166.833 24.229C166.833 25.5732 166.398 26.7064 165.528 27.6284C164.658 28.5504 163.315 29.1364 161.497 29.3863C162.161 29.7051 162.664 30.0196 163.009 30.3298C163.741 31.002 164.434 31.8421 165.089 32.8503L167.4 36.4694C167.825 37.135 167.347 38.0076 166.557 38.0076H166.329C165.645 38.0076 165.008 37.6579 164.641 37.0806L162.725 34.0653C161.993 32.9279 161.39 32.0576 160.916 31.4544C160.442 30.8512 160.016 30.4289 159.637 30.1877C159.267 29.9464 158.888 29.7784 158.5 29.6836C158.216 29.6232 157.751 29.5931 157.105 29.5931H154.199V36.7546C154.199 37.4466 153.638 38.0076 152.946 38.0076V38.0076ZM154.199 27.4216H159.586C160.731 27.4216 161.627 27.3053 162.272 27.0726C162.918 26.8313 163.409 26.4522 163.745 25.9351C164.081 25.4095 164.249 24.8408 164.249 24.229C164.249 23.3328 163.922 22.596 163.267 22.0187C162.621 21.4413 161.596 21.1527 160.193 21.1527H154.199V27.4216Z" fill="url(#paint10_linear_1_38)"/>
    <path d="M172.669 38.0076C171.565 38.0076 170.669 37.1122 170.669 36.0076V20.3118C170.669 19.6197 171.23 19.0587 171.922 19.0587V19.0587C172.614 19.0587 173.175 19.6197 173.175 20.3118V34.7715C173.175 35.3238 173.623 35.7715 174.175 35.7715H181.384C182.001 35.7715 182.502 36.2721 182.502 36.8896V36.8896C182.502 37.5071 182.001 38.0076 181.384 38.0076H172.669Z" fill="url(#paint11_linear_1_38)"/>
    <path d="M187.499 38.0076C186.394 38.0076 185.499 37.1122 185.499 36.0076V21.0587C185.499 19.9542 186.394 19.0587 187.499 19.0587H192.022C193.495 19.0587 194.619 19.1492 195.394 19.3302C196.479 19.5801 197.405 20.0325 198.171 20.6873C199.17 21.5318 199.915 22.6133 200.406 23.9317C200.906 25.2415 201.155 26.7408 201.155 28.4298C201.155 29.8688 200.987 31.1442 200.652 32.2558C200.316 33.3674 199.885 34.2894 199.36 35.0218C198.834 35.7457 198.257 36.3187 197.629 36.7409C197.009 37.1546 196.255 37.4691 195.368 37.6845C194.49 37.8999 193.478 38.0076 192.332 38.0076H187.499ZM188.005 35.7715H192.048C193.297 35.7715 194.274 35.6552 194.981 35.4225C195.695 35.1899 196.264 34.8624 196.686 34.4402C197.28 33.8456 197.741 33.0485 198.068 32.0489C198.404 31.0408 198.572 29.8214 198.572 28.391C198.572 26.4091 198.245 24.8882 197.59 23.8283C196.944 22.7598 196.156 22.0445 195.226 21.6826C194.554 21.4241 193.474 21.2949 191.984 21.2949H188.005V35.7715Z" fill="url(#paint12_linear_1_38)"/>
    <defs>
        <linearGradient id="paint0_linear_1_38" x1="51.5035" y1="13.0961" x2="43.589" y2="5.18684" gradientUnits="userSpaceOnUse">
            <stop stop-color="#1B439E"/>
            <stop offset="1" stop-color="#00BAFF"/>
        </linearGradient>
        <linearGradient id="paint1_linear_1_38" x1="39.9274" y1="41.5253" x2="39.9274" y2="0" gradientUnits="userSpaceOnUse">
            <stop stop-color="#1B439E"/>
            <stop offset="1" stop-color="#00BAFF"/>
        </linearGradient>
        <linearGradient id="paint2_linear_1_38" x1="15.9022" y1="26.4558" x2="15.9022" y2="0.300781" gradientUnits="userSpaceOnUse">
            <stop stop-color="#1B439E"/>
            <stop offset="1" stop-color="#00BAFF"/>
        </linearGradient>
        <linearGradient id="paint3_linear_1_38" x1="30.8338" y1="55.8713" x2="30.8338" y2="29.7148" gradientUnits="userSpaceOnUse">
            <stop stop-color="#1B439E"/>
            <stop offset="1" stop-color="#00BAFF"/>
        </linearGradient>
        <linearGradient id="paint4_linear_1_38" x1="10.0009" y1="56.4177" x2="10.0009" y2="14.9336" gradientUnits="userSpaceOnUse">
            <stop stop-color="#1B439E"/>
            <stop offset="1" stop-color="#00BAFF"/>
        </linearGradient>
        <linearGradient id="paint5_linear_1_38" x1="11.9038" y1="51.9359" x2="3.98937" y2="44.0267" gradientUnits="userSpaceOnUse">
            <stop stop-color="#1B439E"/>
            <stop offset="1" stop-color="#00BAFF"/>
        </linearGradient>
        <linearGradient id="paint6_linear_1_38" x1="8.84937" y1="11.6454" x2="6.73067" y2="9.52806" gradientUnits="userSpaceOnUse">
            <stop stop-color="#1B439E"/>
            <stop offset="1" stop-color="#00BAFF"/>
        </linearGradient>
        <linearGradient id="paint7_linear_1_38" x1="47.7556" y1="48.8016" x2="45.6369" y2="46.6843" gradientUnits="userSpaceOnUse">
            <stop stop-color="#1B439E"/>
            <stop offset="1" stop-color="#00BAFF"/>
        </linearGradient>
        <linearGradient id="paint8_linear_1_38" x1="104.592" y1="18.906" x2="201.125" y2="38.201" gradientUnits="userSpaceOnUse">
            <stop stop-color="#00BAFF"/>
            <stop offset="1" stop-color="#1B439E"/>
        </linearGradient>
        <linearGradient id="paint9_linear_1_38" x1="104.592" y1="18.906" x2="201.125" y2="38.201" gradientUnits="userSpaceOnUse">
            <stop stop-color="#00BAFF"/>
            <stop offset="1" stop-color="#1B439E"/>
        </linearGradient>
        <linearGradient id="paint10_linear_1_38" x1="104.592" y1="18.906" x2="201.125" y2="38.201" gradientUnits="userSpaceOnUse">
            <stop stop-color="#00BAFF"/>
            <stop offset="1" stop-color="#1B439E"/>
        </linearGradient>
        <linearGradient id="paint11_linear_1_38" x1="104.592" y1="18.906" x2="201.125" y2="38.201" gradientUnits="userSpaceOnUse">
            <stop stop-color="#00BAFF"/>
            <stop offset="1" stop-color="#1B439E"/>
        </linearGradient>
        <linearGradient id="paint12_linear_1_38" x1="104.592" y1="18.906" x2="201.125" y2="38.201" gradientUnits="userSpaceOnUse">
            <stop stop-color="#00BAFF"/>
            <stop offset="1" stop-color="#1B439E"/>
        </linearGradient>
    </defs>
</svg>
