<?xml version="1.0" standalone="no"?>
<!DOCTYPE svg PUBLIC "-//W3C//DTD SVG 20010904//EN"
 "http://www.w3.org/TR/2001/REC-SVG-20010904/DTD/svg10.dtd">
<svg version="1.0" xmlns="http://www.w3.org/2000/svg"
 width="928.000000pt" height="928.000000pt" viewBox="0 0 928.000000 928.000000"
 preserveAspectRatio="xMidYMid meet">
<metadata>
Created by potrace 1.14, written by Peter Selinger 2001-2017
</metadata>
<g transform="translate(0.000000,928.000000) scale(0.100000,-0.100000)"
fill="#000000" stroke="none">
<path d="M5515 9178 c-44 -10 -84 -20 -90 -22 -271 -93 -478 -296 -572 -561
-49 -137 -60 -340 -28 -480 25 -104 97 -272 136 -314 11 -11 19 -24 19 -29 0
-11 122 -136 154 -157 14 -10 23 -22 19 -28 -3 -5 -1 -7 5 -3 6 3 17 0 25 -8
8 -8 17 -12 21 -9 3 4 6 1 6 -5 0 -7 7 -12 15 -12 8 0 15 -3 15 -8 0 -9 111
-58 122 -54 5 1 8 -2 8 -8 0 -6 3 -9 8 -8 4 1 19 -4 33 -10 15 -6 42 -13 60
-15 19 -3 35 -6 37 -7 1 -2 7 -4 12 -5 6 -1 11 -3 13 -4 1 -1 38 -4 82 -7 157
-9 200 -13 223 -18 49 -13 67 -17 77 -19 6 -2 16 -6 23 -10 6 -5 16 -6 21 -2
5 3 12 1 16 -5 4 -6 11 -8 16 -5 5 4 9 1 9 -6 0 -7 3 -9 7 -6 3 4 12 2 20 -4
7 -6 13 -8 13 -5 0 4 7 0 16 -8 8 -9 20 -14 25 -11 5 4 9 1 9 -6 0 -7 2 -10 6
-7 5 6 44 -14 140 -72 31 -19 65 -40 74 -45 20 -12 84 -62 111 -87 10 -10 24
-18 30 -18 6 0 8 -7 5 -16 -3 -8 -2 -12 3 -9 6 3 21 -6 35 -20 14 -14 26 -24
26 -22 0 3 24 -18 53 -45 28 -27 50 -54 49 -61 -2 -7 0 -9 4 -5 13 14 223
-206 307 -322 227 -315 301 -629 222 -947 -23 -95 -121 -326 -145 -343 -4 -3
-13 -16 -20 -29 -7 -14 -17 -30 -21 -35 -5 -6 -28 -36 -51 -66 -23 -30 -45
-56 -50 -58 -4 -2 -8 -8 -8 -12 0 -24 -299 -323 -397 -397 -20 -15 -45 -35
-54 -44 -8 -9 -60 -45 -115 -82 -157 -104 -365 -204 -464 -221 -14 -3 -25 -5
-25 -6 0 0 -49 -3 -110 -5 -60 -1 -130 -6 -155 -10 -53 -7 -161 -34 -175 -43
-5 -4 -19 -8 -29 -9 -11 -2 -25 -8 -31 -13 -7 -6 -34 -21 -60 -35 -95 -51
-241 -182 -293 -264 -9 -14 -19 -28 -23 -31 -3 -3 -25 -43 -47 -90 -83 -174
-107 -311 -89 -500 6 -65 29 -167 46 -205 77 -169 93 -195 194 -312 31 -35
150 -133 162 -133 4 0 16 -10 26 -22 11 -11 19 -18 19 -15 0 3 13 1 30 -4 17
-6 27 -16 23 -22 -3 -5 -2 -7 3 -4 6 3 23 -1 39 -8 42 -19 114 -42 160 -51 22
-4 43 -12 47 -18 6 -8 8 -8 8 1 0 11 16 12 35 2 12 -7 166 -3 220 5 22 4 51 9
65 11 14 2 38 8 53 14 16 6 33 9 38 5 5 -3 9 -1 9 4 0 8 34 22 61 26 13 2 84
42 87 49 2 4 9 7 17 7 7 0 18 7 25 15 7 8 15 13 19 10 4 -2 14 5 21 16 8 10
19 19 25 19 5 0 26 16 45 35 19 19 37 35 41 35 4 0 11 9 14 20 4 11 10 18 14
16 4 -3 15 8 25 25 9 16 21 29 27 29 5 0 9 7 9 15 0 9 7 18 15 21 8 4 13 10
10 14 -3 5 0 12 7 17 27 17 119 217 120 261 0 12 4 22 8 22 4 0 7 10 7 23 1
56 3 68 14 61 8 -5 8 -1 0 13 -6 11 -8 23 -4 26 3 4 7 46 9 94 1 49 5 110 8
137 11 89 73 271 98 287 5 3 10 10 9 15 0 15 42 94 51 94 4 0 8 7 8 15 0 8 5
15 12 15 6 0 9 3 5 6 -6 6 2 17 36 55 10 11 31 40 46 64 16 25 30 42 33 39 3
-2 13 8 23 23 10 15 25 35 34 43 9 8 33 34 53 57 20 23 39 39 42 35 3 -3 6 0
6 7 0 16 133 151 149 151 7 0 10 4 6 9 -3 5 4 12 15 16 11 4 18 11 15 16 -4 5
-2 9 4 9 5 0 16 7 24 15 9 8 48 39 89 69 40 30 78 60 85 65 7 6 15 11 19 11 4
0 15 6 23 14 9 8 23 16 31 18 14 3 21 7 55 36 8 7 15 10 15 7 0 -4 13 3 28 14
16 11 35 21 43 23 8 2 16 6 19 9 8 8 99 49 110 49 5 0 10 5 10 10 0 6 10 10
23 10 13 0 28 5 34 11 6 6 17 12 24 13 8 2 21 5 29 9 28 10 45 14 51 13 3 0
12 4 20 10 8 6 22 10 32 9 9 -2 15 1 11 6 -3 5 3 9 13 10 10 0 25 2 33 5 8 2
30 7 48 10 17 4 32 9 32 13 0 3 10 7 23 8 21 2 38 5 102 19 17 3 37 7 45 8 8
0 18 4 21 9 3 4 20 9 37 10 18 1 32 4 32 7 0 4 17 12 38 19 87 32 310 195 311
229 1 7 6 10 11 7 6 -3 10 -1 10 5 0 15 66 101 73 94 3 -3 4 3 3 13 0 10 4 17
9 16 6 -1 11 6 12 15 0 9 14 49 31 87 26 60 43 104 43 112 0 2 5 17 10 35 25
86 32 343 10 383 -6 11 -10 28 -14 60 -1 11 -5 23 -9 26 -5 3 -9 17 -10 32 -1
15 -6 27 -10 27 -4 0 -7 3 -6 8 5 20 -97 197 -142 243 -14 15 -32 35 -41 45
-55 67 -198 166 -297 208 -100 42 -187 60 -337 70 -44 3 -91 8 -105 11 -14 2
-41 7 -60 10 -99 17 -308 108 -435 191 -167 109 -314 238 -515 453 -100 106
-269 355 -255 375 3 3 2 4 -1 1 -9 -6 -54 78 -47 88 2 4 0 7 -5 7 -9 0 -26 53
-25 77 0 7 -4 10 -10 6 -6 -4 -8 0 -4 10 3 10 3 17 -2 17 -7 0 -23 64 -26 105
0 6 -4 15 -8 22 -4 6 -7 24 -7 40 0 41 -9 161 -16 208 -3 22 -6 51 -7 65 -1
14 -5 27 -9 30 -3 3 -8 19 -11 35 -8 51 -58 156 -113 240 -65 99 -143 179
-233 240 -66 43 -221 120 -221 109 0 -2 -8 0 -17 5 -40 21 -197 42 -293 39
-41 -1 -111 -10 -155 -20z"/>
<path d="M3224 9149 c-91 -7 -219 -36 -284 -65 -90 -40 -119 -56 -130 -70 -7
-7 -17 -14 -22 -14 -36 0 -182 -148 -253 -255 -71 -109 -115 -214 -130 -313
-3 -21 -7 -49 -10 -62 -3 -13 -7 -67 -10 -120 -3 -52 -9 -110 -14 -127 -5 -18
-8 -33 -6 -33 2 0 -9 -38 -25 -84 -85 -253 -234 -473 -494 -731 -203 -201
-328 -297 -506 -389 -177 -90 -289 -121 -478 -130 -56 -3 -106 -7 -110 -10 -4
-2 -26 -7 -49 -11 -138 -20 -305 -108 -429 -224 -47 -44 -144 -169 -144 -186
0 -4 -8 -19 -19 -33 -18 -27 -67 -152 -75 -195 -2 -12 -8 -40 -14 -62 -14 -61
-12 -242 3 -315 21 -101 23 -111 47 -170 67 -168 186 -314 338 -415 41 -27 77
-52 80 -55 3 -3 14 -7 25 -8 11 -2 22 -7 25 -11 13 -18 154 -59 235 -68 28 -3
55 -10 62 -15 7 -6 13 -4 15 4 4 10 8 11 20 1 8 -7 18 -10 21 -7 3 4 32 8 64
9 51 3 96 8 143 18 8 1 21 6 28 10 6 5 12 6 12 3 0 -3 30 7 68 21 37 14 73 26
80 26 6 0 12 3 12 7 0 4 11 12 24 18 14 6 44 24 68 39 24 15 47 26 51 25 5 -1
6 2 2 8 -3 5 -2 10 3 10 5 0 34 24 65 54 30 30 59 51 63 48 4 -4 5 -2 1 3 -3
6 3 22 14 35 35 43 73 105 71 113 -1 4 2 7 6 7 5 0 17 19 28 43 10 23 21 44
24 47 3 3 7 16 8 30 2 14 9 31 14 38 6 6 8 12 4 12 -3 0 -1 12 5 28 6 15 13
47 16 72 8 80 11 105 13 105 0 0 3 34 5 75 6 133 30 232 88 360 12 25 21 47
22 50 5 20 30 60 37 60 5 0 7 4 4 8 -3 5 3 18 14 29 10 12 17 23 14 26 -2 2 2
10 11 17 8 7 15 18 15 24 0 7 17 30 37 51 21 22 36 41 35 43 -6 6 77 107 150
183 25 27 43 49 40 49 -4 0 7 9 23 20 17 11 26 20 22 20 -5 0 13 18 38 40 25
22 43 40 38 40 -4 0 0 5 10 11 9 5 22 7 29 3 7 -4 8 -3 4 4 -4 7 -2 20 3 29 6
10 11 15 11 11 0 -3 15 8 34 25 55 52 127 111 155 127 14 8 30 21 34 28 4 6
15 12 22 12 8 0 15 4 15 8 0 5 18 17 40 27 22 10 40 22 40 27 0 4 3 7 8 6 4
-1 23 6 42 17 19 11 37 20 40 20 3 1 23 10 45 20 22 9 45 18 52 19 7 1 16 5
19 9 4 4 17 7 29 7 12 0 25 3 29 8 4 4 12 8 17 8 5 1 10 2 12 4 1 1 11 3 22 5
11 1 36 6 55 10 19 4 62 9 95 10 33 2 60 4 60 5 0 1 12 3 28 4 15 1 27 -1 27
-4 0 -3 19 -5 43 -5 23 1 45 -4 49 -10 5 -6 8 -5 8 3 0 7 4 10 10 7 10 -6 40
-14 75 -19 87 -13 316 -108 337 -140 4 -6 8 -7 8 -3 0 4 6 3 13 -3 6 -6 30
-22 52 -34 22 -13 39 -28 37 -34 -1 -7 1 -11 5 -10 13 5 83 -41 83 -53 0 -7 3
-10 6 -7 7 8 71 -50 236 -213 76 -75 138 -141 138 -148 0 -6 4 -11 9 -11 12 0
117 -138 180 -235 28 -44 54 -84 58 -90 12 -15 88 -173 106 -220 45 -115 47
-127 52 -250 6 -142 15 -226 26 -246 5 -10 9 -25 9 -34 0 -39 71 -189 117
-250 5 -5 16 -22 26 -38 30 -47 178 -187 197 -187 5 0 10 -4 10 -10 0 -5 6
-10 14 -10 8 0 16 -4 18 -8 2 -7 133 -75 148 -78 26 -4 67 -19 78 -27 6 -5 12
-7 12 -4 0 3 17 1 38 -4 63 -15 124 -21 202 -20 70 0 155 7 155 12 0 1 9 3 20
5 34 5 50 9 60 15 6 4 23 9 40 13 25 6 61 21 125 50 43 20 160 99 160 109 0 4
5 5 10 2 6 -3 10 1 10 9 0 9 4 16 10 16 12 0 52 42 103 110 23 30 44 57 47 60
16 16 85 155 95 193 2 4 4 9 5 12 4 8 7 24 9 41 0 8 4 13 9 11 4 -3 7 7 8 21
1 51 16 117 27 124 7 5 8 8 2 8 -7 0 -11 33 -11 83 0 109 -7 187 -16 187 -5 0
-8 13 -8 28 0 15 -5 33 -12 40 -9 9 -9 12 2 12 13 0 13 2 0 10 -8 5 -15 13
-16 17 0 4 -4 16 -8 25 -4 9 -9 22 -10 30 -8 49 -119 209 -198 286 -131 128
-276 207 -437 237 -19 3 -38 8 -41 10 -4 3 -50 7 -101 10 -223 12 -304 27
-411 75 -26 11 -51 20 -54 20 -4 -1 -10 2 -13 7 -3 5 -17 14 -31 21 -70 34
-216 136 -285 198 -22 19 -58 51 -80 70 -81 71 -228 221 -283 289 -31 38 -67
81 -79 95 -13 14 -23 30 -23 37 0 7 -4 13 -9 13 -5 0 -12 8 -16 19 -3 10 -17
31 -30 47 -14 16 -25 35 -25 42 0 6 -3 12 -7 12 -5 0 -13 10 -19 23 -21 46
-59 112 -67 118 -5 3 -8 9 -7 13 1 4 -13 36 -30 72 -17 36 -27 70 -24 76 4 6
3 8 -3 5 -12 -8 -26 20 -17 34 3 5 0 9 -7 9 -7 0 -9 3 -6 7 4 3 2 12 -4 20 -6
7 -9 22 -6 33 3 11 1 18 -3 15 -7 -5 -37 69 -45 113 -2 9 -4 17 -5 17 -1 0 -3
7 -5 15 -2 8 -6 26 -9 40 -19 82 -25 123 -19 133 3 5 1 7 -4 4 -6 -4 -14 11
-18 36 -8 43 -11 53 -15 62 -1 3 -3 8 -4 13 -4 21 -59 129 -86 168 -16 25 -30
47 -30 50 0 7 -59 72 -119 132 -132 129 -323 218 -516 239 -27 3 -52 6 -55 7
-3 1 -46 -1 -96 -5z"/>
<path d="M7016 8411 c-19 -21 -25 -83 -12 -134 20 -83 167 -331 246 -417 8 -9
33 -38 55 -65 22 -26 59 -68 83 -92 23 -25 42 -49 42 -53 0 -5 9 -12 20 -15
11 -3 20 -13 20 -21 0 -8 3 -14 8 -14 4 0 34 -26 68 -58 78 -73 116 -106 184
-162 30 -25 58 -49 62 -55 4 -5 8 -7 8 -3 0 8 27 -12 62 -44 10 -10 19 -17 21
-16 1 1 20 -10 42 -23 22 -14 58 -33 80 -44 22 -11 42 -23 43 -28 2 -4 8 -5
13 -1 5 3 9 1 9 -4 0 -9 86 -35 120 -37 8 0 21 -4 28 -8 6 -5 12 -4 12 1 0 5
7 9 15 10 8 1 22 3 30 4 8 1 12 5 9 9 -2 4 1 13 8 21 14 14 17 76 5 95 -4 6
-8 23 -9 37 -1 14 -6 26 -10 26 -4 0 -7 3 -6 8 4 14 -60 131 -125 226 -90 134
-192 254 -351 411 -138 137 -367 325 -394 325 -7 0 -12 4 -12 8 0 5 -12 15
-27 23 -16 7 -48 25 -73 39 -120 69 -238 90 -274 51z"/>
<path d="M1877 8294 c-26 -8 -65 -24 -85 -35 -20 -12 -55 -31 -77 -42 -22 -12
-44 -25 -50 -29 -5 -5 -46 -33 -90 -64 -142 -100 -357 -296 -475 -434 -12 -14
-34 -38 -48 -55 -15 -16 -43 -50 -62 -75 -19 -25 -37 -47 -40 -50 -15 -12
-120 -178 -120 -189 0 -6 -4 -11 -8 -11 -18 0 -78 -159 -81 -216 -5 -81 67
-113 171 -77 24 8 52 17 62 19 11 2 23 9 27 15 4 6 12 8 18 5 6 -4 11 -3 11 2
0 14 76 52 86 44 4 -4 4 -2 1 5 -4 7 5 17 23 25 16 7 30 16 30 20 0 5 6 8 14
8 8 0 16 7 20 15 3 8 10 15 16 15 6 0 16 5 23 10 32 27 65 54 90 73 33 26 58
48 158 142 41 38 77 68 82 67 4 -1 7 2 7 8 0 5 10 21 22 35 17 20 24 23 37 13
13 -10 14 -10 4 2 -10 11 -4 22 30 59 23 26 62 71 87 100 25 30 53 62 63 73 9
10 14 18 10 18 -5 1 2 9 13 18 12 10 29 32 38 49 8 17 21 37 28 45 13 13 28
40 65 108 10 19 21 37 24 40 7 6 21 40 24 60 2 8 8 31 14 50 39 123 -25 176
-162 134z"/>
<path d="M6630 8281 c0 -6 4 -13 10 -16 6 -3 7 1 4 9 -7 18 -14 21 -14 7z"/>
<path d="M1490 7376 c0 -2 8 -10 18 -17 15 -13 16 -12 3 4 -13 16 -21 21 -21
13z"/>
<path d="M3795 7209 c-4 -6 -5 -12 -2 -15 2 -3 7 2 10 11 7 17 1 20 -8 4z"/>
<path d="M1354 7086 c1 -8 5 -18 8 -22 4 -3 5 1 4 10 -1 8 -5 18 -8 22 -4 3
-5 -1 -4 -10z"/>
<path d="M2386 6838 c3 -5 10 -6 15 -3 13 9 11 12 -6 12 -8 0 -12 -4 -9 -9z"/>
<path d="M3145 6801 c-4 -3 -10 -6 -13 -7 -72 -6 -210 -56 -297 -107 -149 -87
-286 -239 -359 -399 -59 -126 -80 -231 -87 -432 -2 -58 -13 -130 -33 -206 -11
-40 -52 -140 -79 -190 -35 -64 -128 -207 -154 -236 -10 -10 -40 -46 -68 -79
-81 -97 -304 -318 -385 -381 -41 -32 -78 -63 -82 -69 -5 -7 -8 -7 -8 0 0 7 -3
7 -8 0 -7 -10 -79 -59 -117 -81 -11 -6 -44 -25 -74 -43 -30 -18 -72 -39 -93
-48 -21 -8 -38 -18 -38 -22 0 -4 -6 -8 -12 -8 -7 0 -33 -9 -58 -20 -50 -22
-80 -35 -95 -39 -5 -2 -49 -16 -96 -33 -47 -16 -96 -32 -110 -35 -13 -3 -62
-14 -109 -25 -47 -11 -97 -22 -111 -25 -69 -12 -248 -102 -318 -160 -128 -105
-235 -255 -288 -400 -56 -155 -66 -375 -24 -528 23 -85 89 -238 103 -238 4 0
8 -5 8 -10 0 -33 148 -195 225 -247 22 -15 42 -29 45 -33 14 -18 203 -104 223
-101 4 1 16 -3 27 -9 19 -10 64 -18 109 -19 21 -1 22 -3 10 -18 -13 -15 -12
-15 11 -2 22 13 44 16 60 9 3 -1 28 -4 55 -6 117 -8 219 -28 244 -48 8 -6 17
-10 20 -8 10 4 101 -32 101 -40 0 -4 4 -7 8 -5 12 3 112 -45 112 -55 0 -5 5
-6 10 -3 6 3 13 -1 16 -9 3 -9 10 -13 15 -11 4 3 17 -3 29 -15 11 -11 21 -19
23 -18 5 4 67 -37 67 -44 0 -4 6 -8 14 -8 8 0 16 -3 18 -7 2 -5 28 -27 58 -50
126 -96 308 -277 427 -423 124 -153 239 -357 280 -496 34 -115 37 -131 47
-284 4 -57 13 -125 20 -163 15 -73 19 -88 27 -93 5 -3 9 -14 9 -25 0 -17 7
-34 31 -79 5 -8 15 -28 22 -45 8 -16 21 -36 30 -44 10 -7 17 -18 17 -23 0 -13
74 -103 115 -141 90 -82 267 -188 336 -201 13 -3 25 -5 27 -7 1 -1 7 -3 12 -4
6 -1 11 -3 13 -4 1 -2 13 -4 27 -7 14 -2 41 -7 60 -11 49 -9 251 -10 256 -1 3
5 14 3 26 -3 16 -9 19 -8 13 2 -6 9 -2 11 13 7 12 -4 22 -2 22 3 0 5 9 9 20 9
36 0 189 61 223 89 9 8 17 11 17 8 0 -9 104 68 154 113 21 19 43 34 48 32 5
-1 7 2 4 7 -5 8 25 48 76 102 9 9 14 20 11 23 -4 3 0 6 7 6 7 0 10 3 7 7 -4 3
-3 11 2 17 19 23 71 127 71 141 0 8 4 15 10 15 5 0 7 7 4 15 -4 8 -1 15 5 15
6 0 8 7 5 15 -4 8 -2 15 3 15 5 0 9 8 9 18 1 9 4 33 8 52 4 19 9 46 12 60 7
38 6 222 -1 250 -4 14 -8 34 -10 45 -11 59 -17 80 -26 97 -11 20 -20 53 -21
76 -1 6 -5 12 -10 12 -4 0 -8 9 -8 20 0 11 -3 20 -8 20 -4 0 -13 15 -21 33 -8
17 -17 34 -20 37 -3 3 -22 28 -41 55 -19 28 -59 74 -90 104 -53 51 -171 138
-179 132 -2 -1 -7 2 -10 7 -8 14 -107 57 -172 75 -83 24 -157 35 -274 41 -44
3 -92 7 -105 10 -14 3 -38 7 -55 10 -79 12 -261 88 -375 157 -69 41 -198 144
-193 153 4 5 2 6 -4 3 -11 -7 -30 9 -150 120 -40 37 -70 70 -67 75 3 5 0 7 -8
6 -7 -2 -12 3 -10 10 1 8 -1 11 -6 8 -4 -3 -38 26 -75 65 -37 38 -65 69 -62
69 3 0 -10 15 -30 32 -19 18 -35 36 -35 41 0 4 -11 19 -24 32 -38 38 -175 252
-154 239 7 -4 6 1 -3 12 -40 47 -112 257 -95 275 8 9 8 10 -1 5 -12 -7 -17 15
-16 77 0 9 -4 17 -8 17 -9 0 -5 252 5 290 14 56 37 146 40 155 18 57 96 218
110 227 6 4 7 8 3 8 -7 0 47 87 62 100 4 3 18 23 32 45 15 22 44 60 65 85 47
54 232 247 257 269 11 9 36 32 58 51 61 55 70 63 129 107 30 23 60 46 65 51
71 56 318 196 329 185 3 -4 6 0 6 7 0 7 3 10 7 7 3 -4 11 -3 17 2 22 18 87 41
79 28 -5 -8 -2 -8 9 1 29 23 82 34 198 38 63 2 129 6 145 9 53 10 110 18 127
19 9 0 14 4 12 8 -3 4 4 8 14 8 11 0 36 7 56 15 20 8 36 13 36 9 0 -3 7 2 16
10 8 9 19 14 24 11 5 -3 10 -1 12 3 3 9 93 72 102 72 16 0 147 130 189 188 16
23 34 42 39 42 5 0 6 5 3 10 -3 6 -1 10 4 10 6 0 10 3 9 8 -2 10 65 146 75
150 4 2 5 7 3 11 -9 15 25 111 37 105 9 -5 9 -4 0 6 -7 8 -8 21 -4 34 5 11 7
29 6 39 -2 9 0 17 3 17 8 0 7 141 -2 220 -3 30 -13 77 -21 104 -11 37 -12 52
-4 63 9 11 8 12 -5 7 -11 -4 -16 -1 -16 10 0 28 -1 31 -17 49 -9 9 -13 17 -9
17 19 0 -103 183 -166 250 -57 61 -233 193 -258 193 -3 0 -18 5 -35 12 -16 7
-39 16 -50 20 -27 11 -30 12 -100 31 -60 16 -337 28 -350 15z"/>
<path d="M6713 5875 c0 -8 4 -12 9 -9 5 3 6 10 3 15 -9 13 -12 11 -12 -6z"/>
<path d="M4266 5678 c3 -5 10 -6 15 -3 13 9 11 12 -6 12 -8 0 -12 -4 -9 -9z"/>
<path d="M9020 5686 c0 -2 8 -10 18 -17 15 -13 16 -12 3 4 -13 16 -21 21 -21
13z"/>
<path d="M8719 5178 c-5 -18 -6 -38 -1 -34 7 8 12 36 6 36 -2 0 -4 -1 -5 -2z"/>
<path d="M8234 4926 c1 -8 5 -18 8 -22 4 -3 5 1 4 10 -1 8 -5 18 -8 22 -4 3
-5 -1 -4 -10z"/>
<path d="M7865 4799 c-3 -4 2 -6 10 -5 21 3 28 13 10 13 -9 0 -18 -4 -20 -8z"/>
<path d="M7536 4633 c-6 -14 -5 -15 5 -6 7 7 10 15 7 18 -3 3 -9 -2 -12 -12z"/>
<path d="M3178 4438 c-18 -3 -49 -9 -68 -13 -19 -3 -39 -7 -45 -9 -5 -1 -30
-8 -55 -15 -25 -7 -56 -19 -70 -26 -14 -7 -51 -25 -82 -41 -32 -15 -58 -33
-58 -38 0 -5 -3 -7 -6 -3 -6 6 -15 -1 -114 -87 -112 -97 -213 -262 -256 -421
-44 -162 -37 -382 18 -530 40 -107 116 -232 195 -320 31 -34 130 -115 141
-115 6 0 12 -3 14 -7 9 -22 138 -90 213 -113 22 -7 43 -18 47 -24 5 -8 8 -7 8
2 0 7 4 10 10 7 10 -6 22 -9 86 -20 35 -6 71 -9 244 -19 30 -2 55 -5 55 -6 0
-1 16 -4 35 -7 19 -2 37 -9 38 -14 2 -5 8 -6 13 -3 12 7 108 -29 159 -60 19
-11 36 -19 38 -18 3 3 120 -66 139 -83 36 -30 43 -35 43 -30 0 4 6 0 14 -7 7
-7 31 -26 52 -43 157 -122 402 -367 484 -485 13 -19 27 -37 30 -40 3 -3 21
-30 40 -60 19 -30 37 -57 40 -60 25 -24 152 -286 194 -401 38 -106 82 -262 91
-324 4 -22 9 -49 12 -60 6 -19 9 -30 16 -57 2 -7 9 -24 17 -38 7 -14 13 -27
13 -30 0 -3 4 -16 10 -30 6 -14 11 -28 11 -31 2 -11 77 -129 92 -144 9 -8 13
-15 11 -15 -6 0 98 -105 141 -143 18 -15 34 -27 36 -27 3 0 32 -18 65 -40 33
-22 67 -40 76 -40 8 0 15 -4 15 -10 0 -5 8 -10 18 -10 10 0 22 -4 28 -9 18
-18 146 -48 237 -56 33 -3 63 -7 68 -11 5 -3 9 0 9 7 0 8 3 9 13 0 8 -6 16 -9
19 -6 4 4 118 18 156 18 6 0 12 3 12 7 0 3 8 7 18 8 20 2 56 10 60 12 1 2 5 3
10 5 9 2 37 14 82 33 19 8 41 14 48 13 6 -1 12 2 12 6 0 9 52 43 65 43 3 0 3
-5 -1 -12 -4 -7 -3 -8 5 -4 6 4 9 11 6 16 -3 4 2 13 10 20 8 7 15 9 15 6 0 -4
14 5 30 21 93 86 144 142 182 199 23 35 45 64 50 64 4 0 7 3 6 8 -1 4 6 25 16
47 34 75 50 117 47 128 0 4 3 16 8 26 9 16 22 85 25 136 1 11 5 25 9 32 4 6 3
14 -3 18 -6 4 -7 11 -4 17 4 6 8 39 9 73 2 34 8 71 14 82 5 11 8 23 5 26 -9 9
46 177 57 177 6 0 8 4 4 9 -6 11 25 82 34 77 3 -2 7 7 8 21 0 14 5 28 11 32 5
3 12 16 16 29 4 12 12 22 17 22 5 0 9 6 9 13 0 16 124 198 147 214 9 7 13 13
8 13 -4 0 2 8 13 19 12 10 22 21 22 25 0 3 17 24 38 45 20 21 67 71 105 110
39 42 72 69 79 65 6 -4 8 -3 4 4 -9 14 23 44 41 38 8 -4 11 -1 7 5 -3 6 11 26
32 46 60 54 219 173 232 173 7 0 12 3 12 8 0 15 169 104 183 95 5 -3 7 -1 4 4
-6 10 37 29 56 25 4 -1 10 5 13 13 3 8 10 13 14 10 4 -3 25 2 45 11 21 8 46
13 57 11 10 -3 16 -1 12 4 -3 5 1 9 8 10 7 0 22 2 33 5 32 7 103 14 184 19 42
2 87 7 101 10 39 8 93 16 117 18 12 0 20 4 18 8 -6 9 55 20 68 12 5 -3 7 -1 4
4 -4 6 11 18 36 28 23 9 50 24 60 32 9 9 17 13 17 9 0 -4 6 -2 13 4 6 5 46 35
87 67 73 55 98 79 143 136 12 16 27 34 34 41 6 7 24 36 39 64 15 28 32 48 37
45 6 -3 7 -1 4 5 -10 15 3 43 16 35 6 -3 7 -1 3 5 -4 6 -2 21 4 33 7 11 14 32
16 47 3 14 8 30 12 36 3 6 7 17 8 26 1 8 5 26 9 40 8 31 13 65 14 108 1 23 5
31 14 26 10 -6 10 -4 0 7 -16 16 -17 33 -1 23 7 -5 8 -3 2 7 -13 22 -14 42 -1
58 8 10 9 13 1 8 -8 -5 -12 4 -13 26 0 17 -2 39 -4 47 -2 8 -8 38 -12 65 -11
60 -9 54 -24 89 -6 16 -13 36 -15 45 -3 18 -28 73 -36 81 -3 3 -16 25 -29 50
-72 134 -223 275 -376 352 -180 91 -411 116 -610 67 -53 -14 -127 -40 -142
-52 -7 -5 -13 -7 -13 -3 0 8 -140 -75 -175 -105 -78 -65 -120 -107 -160 -163
-25 -34 -49 -66 -54 -72 -29 -35 -120 -254 -106 -254 3 0 1 -10 -4 -23 -10
-25 -21 -113 -26 -209 -9 -151 -40 -269 -107 -406 -40 -82 -155 -263 -195
-307 -10 -11 -40 -47 -68 -80 -93 -113 -340 -350 -449 -432 -164 -123 -378
-221 -541 -249 -61 -10 -272 -12 -313 -3 -21 4 -53 10 -72 13 -101 15 -291 98
-409 178 -35 24 -71 48 -79 53 -8 6 -23 17 -32 25 -9 8 -41 35 -71 60 -62 52
-308 297 -359 359 -19 23 -38 50 -42 59 -4 9 -7 13 -7 8 -1 -5 -26 26 -56 70
-30 43 -59 85 -65 92 -6 7 -9 16 -6 21 3 5 -1 11 -9 15 -8 3 -15 12 -15 21 0
8 -3 15 -7 15 -5 0 -19 24 -33 53 -14 28 -28 54 -31 57 -8 8 -34 74 -31 83 1
4 -3 7 -8 7 -6 0 -10 4 -10 9 0 5 -5 22 -12 38 -6 15 -12 34 -14 41 -1 8 -6
21 -10 30 -11 25 -14 56 -18 177 -3 61 -8 126 -11 145 -4 19 -9 46 -11 60 -3
14 -14 57 -26 95 -12 39 -21 73 -20 78 1 4 -3 7 -8 7 -6 0 -10 7 -10 15 0 16
-39 77 -52 83 -5 2 -8 9 -8 15 -1 31 -139 174 -231 240 -61 43 -219 124 -219
111 0 -2 -9 0 -21 6 -11 6 -29 13 -40 16 -10 2 -27 6 -38 8 -87 20 -241 27
-303 14z"/>
<path d="M1906 3822 c-3 -5 1 -9 9 -9 8 0 12 4 9 9 -3 4 -7 8 -9 8 -2 0 -6 -4
-9 -8z"/>
<path d="M1909 3343 c-13 -16 -12 -17 4 -4 9 7 17 15 17 17 0 8 -8 3 -21 -13z"/>
<path d="M8140 2358 c-56 -10 -215 -87 -279 -135 -9 -6 -56 -42 -106 -78 -49
-37 -99 -75 -110 -85 -208 -187 -346 -332 -449 -470 -22 -30 -43 -57 -47 -60
-31 -27 -163 -269 -175 -322 -16 -69 -6 -118 29 -140 24 -16 110 -16 130 0 6
5 20 8 30 7 9 -2 17 0 17 4 0 3 24 17 53 31 28 14 87 48 131 77 43 29 83 50
89 46 5 -3 7 -2 4 4 -3 5 3 17 14 26 10 9 19 14 19 11 0 -3 6 1 14 8 8 7 35
31 61 53 26 22 60 53 76 68 16 16 29 26 29 22 0 -3 46 41 103 98 117 119 198
207 192 207 -3 0 10 15 28 34 17 19 50 59 72 90 22 31 45 54 51 52 7 -3 10 3
7 13 -2 10 3 25 11 34 9 8 16 20 16 25 0 5 11 21 24 35 13 14 21 28 18 31 -3
3 1 6 8 6 7 0 11 3 7 6 -3 3 5 27 18 52 13 26 21 50 19 54 -3 4 -1 8 5 8 9 0
21 53 25 111 3 35 -30 77 -64 82 -14 2 -45 0 -70 -5z"/>
<path d="M696 2208 c-10 -5 -23 -24 -30 -40 -28 -66 23 -199 148 -383 33 -49
63 -92 66 -95 3 -3 35 -41 70 -85 67 -83 311 -332 369 -375 18 -14 45 -37 61
-52 16 -16 32 -28 37 -28 4 0 20 -11 34 -24 28 -26 209 -148 209 -140 0 2 17
-6 38 -19 36 -23 118 -53 157 -58 11 -2 36 0 56 4 32 7 38 12 48 50 12 41 11
66 -3 99 -4 9 -9 22 -10 30 -8 40 -19 68 -27 68 -5 0 -8 3 -7 8 3 11 -30 71
-88 155 -30 43 -54 83 -54 88 0 5 -4 9 -8 9 -5 0 -21 18 -38 40 -28 40 -39 52
-117 138 -21 23 -34 42 -30 42 4 0 -4 8 -20 18 -15 10 -24 22 -20 25 3 4 -1 7
-10 7 -8 0 -19 9 -22 20 -3 11 -9 20 -13 20 -4 0 -41 33 -84 73 -42 39 -95 88
-118 107 -24 19 -48 40 -54 45 -17 16 -145 108 -200 144 -139 92 -286 139
-340 109z"/>
<path d="M7305 2159 c-3 -4 2 -6 10 -5 21 3 28 13 10 13 -9 0 -18 -4 -20 -8z"/>
<path d="M7345 2100 c-3 -6 1 -7 9 -4 18 7 21 14 7 14 -6 0 -13 -4 -16 -10z"/>
<path d="M7360 1140 c-9 -6 -10 -10 -3 -10 6 0 15 5 18 10 8 12 4 12 -15 0z"/>
<path d="M4250 816 c0 -2 8 -10 18 -17 15 -13 16 -12 3 4 -13 16 -21 21 -21
13z"/>
<path d="M4156 578 c3 -5 10 -6 15 -3 13 9 11 12 -6 12 -8 0 -12 -4 -9 -9z"/>
</g>
</svg>
