<svg width="24" height="24" fill="none" xmlns="http://www.w3.org/2000/svg"><path d="M13.5 9.75a.75.75 0 00-.75-.75h-6a.75.75 0 100 1.5h6a.75.75 0 00.75-.75zm-1 3a.75.75 0 00-.75-.75h-5a.75.75 0 000 1.5h5a.75.75 0 00.75-.75zm.25 2.25a.75.75 0 010 1.5h-6a.75.75 0 010-1.5h6z" fill="#1F2025"/><path fill-rule="evenodd" clip-rule="evenodd" d="M6 21.75h13A2.75 2.75 0 0021.75 19v-5.5a.75.75 0 00-.75-.75h-3.25V4.943c0-1.423-1.609-2.251-2.767-1.424l-.175.125a2.26 2.26 0 01-2.622-.004 3.77 3.77 0 00-4.372 0 2.26 2.26 0 01-2.622.004l-.175-.125c-1.158-.827-2.767 0-2.767 1.424V18A3.75 3.75 0 006 21.75zM8.686 4.86a2.27 2.27 0 012.628 0 3.76 3.76 0 004.366.005l.175-.125a.25.25 0 01.395.203V19c0 .45.108.875.3 1.25H6A2.25 2.25 0 013.75 18V4.943a.25.25 0 01.395-.203l.175.125a3.76 3.76 0 004.366-.005zM17.75 19v-4.75h2.5V19a1.25 1.25 0 11-2.5 0z" fill="#1F2025"/></svg>