<svg width="93" height="47" fill="none" xmlns="http://www.w3.org/2000/svg"><g clip-path="url(#clip0_1607_16700)" fill="#C4161C"><path d="M52.978 44.747c-1.824-.124-3.928-.45-5.587-.94a27.467 27.467 0 01-1.925-.729c-5.775-2.732-9.799-8.695-9.799-15.612 0-9.489 7.56-17.218 16.86-17.218 9.217 0 16.727 7.597 16.856 16.979h6.091c-.129-12.81-10.37-23.19-22.947-23.19-12.652 0-22.95 10.508-22.95 23.429 0 8.907 4.907 16.654 12.091 20.612 1.297.7 3.159 1.423 3.79 1.62 2.049.623 4.562 1.037 6.8 1.21.759.058 3.412.089 4.185.092h41.945v-6.194H56.513c-.556 0-2.99-.022-3.535-.059zm3.535-9.726c-.442 0-2.759-.015-3.187-.052-.725-.063-1.776-.173-2.452-.331-.762-.209-1.479-.484-1.801-.665a7.416 7.416 0 01-3.805-6.507c0-4.095 3.248-7.415 7.26-7.415 3.927 0 7.12 3.19 7.248 7.176h5.852c-.123-7.282-5.936-13.15-13.1-13.15-7.245 0-13.117 5.994-13.117 13.389 0 5.215 2.928 9.718 7.192 11.924.656.392 1.89.803 2.241.897 1.205.323 2.822.544 4.134.642.485.041 2.86.06 3.361.063V41h42.048v-5.98H56.514zM25.825 50.977h-6.132V10.262h-8.96V4h15.092v46.977zM4 13.391v6.02h6.732v31.566h5.892V13.391H4zM87.554 4.44a4.05 4.05 0 00-4.04 4.055c0 2.256 1.831 4.126 4.04 4.126 2.276 0 4.037-1.87 4.037-4.126 0-2.257-1.761-4.055-4.037-4.055zm0 7.516c-1.824 0-3.396-1.464-3.396-3.461 0-1.897 1.572-3.397 3.396-3.397 1.822 0 3.387 1.5 3.387 3.397 0 1.997-1.565 3.46-3.387 3.46z"/><path d="M89.092 9.604c0-.455-.066-.878-.576-1.045.64-.227.702-.655.702-.914 0-1.047-.93-1.18-1.313-1.18h-1.761v4.055h.734V8.856h.578c.831 0 .9.391.9.748 0 .692 0 .822.16.916h.735c-.159-.165-.096-.292-.159-.916zm-1.348-1.34h-.866V6.989h.741c.514 0 .862.165.862.657 0 .26-.124.62-.737.62"/></g><defs><clipPath id="clip0_1607_16700"><path fill="#fff" d="M0 0h93v47H0z"/></clipPath></defs></svg>