<svg width="24" height="24" fill="none" xmlns="http://www.w3.org/2000/svg"><path d="M11.115 4.666a.846.846 0 11-1.692 0 .846.846 0 011.692 0zm2.539.847a.846.846 0 100-1.693.846.846 0 000 1.693z" fill="#1F2025"/><path fill-rule="evenodd" clip-rule="evenodd" d="M6.354.47a.75.75 0 011.061 0l1.228 1.227a6.259 6.259 0 013.215-.883h.207c1.175 0 2.274.322 3.215.883L16.508.47a.75.75 0 011.06 1.06l-1.091 1.092a6.269 6.269 0 011.853 3.943 2.16 2.16 0 012.843 2.05v5.077a2.16 2.16 0 01-2.82 2.058v1.865c0 .913-.445 1.721-1.129 2.222v1.47a2.442 2.442 0 11-4.884 0v-.942h-.757v.943a2.442 2.442 0 11-4.884 0v-1.471a2.746 2.746 0 01-1.128-2.222V15.75a2.16 2.16 0 01-2.82-2.058V8.615a2.16 2.16 0 012.842-2.05 6.27 6.27 0 011.853-3.943L6.354 1.53a.75.75 0 010-1.06zm.965 7.485a.25.25 0 00-.248.25v9.41a1.25 1.25 0 001.245 1.25h7.291a1.25 1.25 0 001.245-1.25v-9.41a.25.25 0 00-.248-.25H7.319zm9.287-1.5h.203a4.789 4.789 0 00-4.744-4.14h-.207a4.789 4.789 0 00-4.744 4.14h9.492zM13.84 21.308v-.943h1.884v.943a.942.942 0 11-1.884 0zm-5.526-.943h1.769v.943a.942.942 0 11-1.884 0v-.943h.115zm10.699-6.012a.66.66 0 01-.66-.658V8.612a.66.66 0 011.32.003v5.077a.66.66 0 01-.66.66zM5.57 8.61a.66.66 0 00-1.32.004v5.077a.66.66 0 001.32.005V8.611z" fill="#1F2025"/></svg>