<svg width="18" height="16" fill="none" xmlns="http://www.w3.org/2000/svg"><path d="M17.97 9.458a.74.74 0 00-.022-.14L16.062 4.41c.343-.217.625-.514.821-.865.196-.351.298-.744.299-1.144a.791.791 0 00-.24-.566.828.828 0 00-1.157 0 .791.791 0 00-.24.566.79.79 0 01-.173.492.836.836 0 01-.976.24.812.812 0 01-.39-.354 2.342 2.342 0 00-.889-.874 2.41 2.41 0 00-1.22-.304h-2.08V.8a.791.791 0 00-.24-.566.828.828 0 00-1.157 0A.791.791 0 008.18.8v.8H6.105a2.41 2.41 0 00-1.221.304c-.372.208-.679.51-.889.874a.812.812 0 01-.39.354.836.836 0 01-.976-.24.789.789 0 01-.173-.492.791.791 0 00-.24-.566.828.828 0 00-1.157 0 .791.791 0 00-.24.566c0 .4.103.793.299 1.144.196.35.478.648.821.865L.052 9.32a.743.743 0 00-.023.14A.744.744 0 000 9.6l.002.022.003.03c.013.84.363 1.64.974 2.229a3.307 3.307 0 002.294.919c.858 0 1.682-.33 2.293-.92a3.16 3.16 0 00.974-2.228l.003-.03.002-.022a.743.743 0 00-.029-.142.742.742 0 00-.023-.14L4.605 4.404a2.41 2.41 0 00.83-.867.765.765 0 01.669-.336h2.078v11.2H5.727a.828.828 0 00-.578.234.791.791 0 000 1.132c.153.15.361.234.578.234h6.546a.828.828 0 00.578-.234.791.791 0 000-1.132.828.828 0 00-.578-.234H9.818V3.2h2.078a.764.764 0 01.67.336 2.4 2.4 0 00.829.867L11.507 9.32a.748.748 0 00-.023.14.756.756 0 00-.03.141c0 .007.003.014.003.022l.003.03c.013.84.363 1.64.974 2.229a3.305 3.305 0 002.293.919c.858 0 1.682-.33 2.294-.92a3.16 3.16 0 00.974-2.228l.003-.03L18 9.6a.74.74 0 00-.03-.142zM3.274 5.484L4.546 8.8H2l1.274-3.316zm1.41 4.916c-.145.24-.35.441-.598.581-.247.14-.527.216-.812.219-.287 0-.57-.074-.818-.214a1.619 1.619 0 01-.599-.586h2.826zm10.044-4.916L16.001 8.8h-2.547l1.273-3.316zm0 5.716a1.67 1.67 0 01-.818-.214 1.619 1.619 0 01-.598-.586h2.826c-.145.24-.35.441-.597.581-.247.14-.527.216-.813.219z" fill="#0038FF"/></svg>