<svg width="16" height="16" fill="none" xmlns="http://www.w3.org/2000/svg"><path d="M8.234 5.8a.5.5 0 01.5.5v1.334h1.333a.5.5 0 010 1H8.734v1.333a.5.5 0 11-1 0V8.634H6.4a.5.5 0 010-1h1.334V6.301a.5.5 0 01.5-.5z" fill="#1F2025"/><path fill-rule="evenodd" clip-rule="evenodd" d="M3.062 10.203C1.563 6.525 4.269 2.5 8.24 2.5h.214a5.378 5.378 0 015.379 5.378 5.988 5.988 0 01-5.989 5.989H2.632a.5.5 0 01-.313-.89l1.314-1.056a.167.167 0 00.05-.192l-.621-1.526zM8.24 3.5c-3.262 0-5.484 3.305-4.253 6.326l.621 1.525a1.167 1.167 0 01-.35 1.35l-.206.166h3.792a4.988 4.988 0 004.989-4.989A4.378 4.378 0 008.455 3.5h-.214z" fill="#1F2025"/></svg>