<svg width="24" height="24" fill="none" xmlns="http://www.w3.org/2000/svg"><path fill-rule="evenodd" clip-rule="evenodd" d="M12 3.75l7.273.206a2.584 2.584 0 012.495 2.289 37.436 37.436 0 010 8.51 2.584 2.584 0 01-2.495 2.29l-5.523.156v2.05H17a.75.75 0 010 1.5H7a.75.75 0 010-1.5h3.25V17.2l-5.524-.156a2.584 2.584 0 01-2.494-2.29 37.434 37.434 0 010-8.51 2.584 2.584 0 012.494-2.29L12 3.75zm0 1.5l-7.231.205c-.54.015-.986.425-1.047.96a35.933 35.933 0 000 8.17c.062.536.507.945 1.047.96l7.23.205 7.232-.204c.54-.016.985-.425 1.047-.961.31-2.714.31-5.455 0-8.17a1.084 1.084 0 00-1.047-.96L12 5.251z" fill="#1F2025"/></svg>