<svg width="20" height="16" fill="none" xmlns="http://www.w3.org/2000/svg"><path fill-rule="evenodd" clip-rule="evenodd" d="M.804 4.353C.524 6.956.536 9.958.926 12.55a3.138 3.138 0 002.832 2.66l1.51.131c3.149.274 6.316.274 9.465 0l1.51-.13a3.138 3.138 0 002.832-2.66c.39-2.593.402-5.595.122-8.198a30.68 30.68 0 00-.122-.904A3.138 3.138 0 0016.242.79l-1.51-.13a54.646 54.646 0 00-9.465 0l-1.51.13A3.138 3.138 0 00.926 3.45a30.64 30.64 0 00-.122.904zm4.594-2.2a53.146 53.146 0 019.205 0l1.51.131c.754.066 1.366.64 1.478 1.388l.034.234-5.56 3.09a4.25 4.25 0 01-4.129 0l-5.56-3.09c.01-.078.022-.156.034-.234a1.638 1.638 0 011.478-1.388l1.51-.131zm12.41 3.367a29.099 29.099 0 01-.217 6.807 1.638 1.638 0 01-1.478 1.389l-1.51.131a53.152 53.152 0 01-9.205 0l-1.51-.131a1.638 1.638 0 01-1.478-1.389 29.1 29.1 0 01-.218-6.807l5.016 2.786a5.75 5.75 0 005.585 0l5.016-2.786z" fill="#1F2025"/></svg>