<svg width="16" height="16" fill="none" xmlns="http://www.w3.org/2000/svg"><path fill-rule="evenodd" clip-rule="evenodd" d="M5.5 8a2.5 2.5 0 115 0 2.5 2.5 0 01-5 0zM8 6.5a1.5 1.5 0 100 3 1.5 1.5 0 000-3z" fill="#737373"/><path fill-rule="evenodd" clip-rule="evenodd" d="M2.882 7.098C2.602 7.5 2.5 7.815 2.5 8c0 .185.103.5.382.902.27.39.672.812 1.18 1.201C5.08 10.885 6.476 11.5 8 11.5s2.92-.615 3.938-1.397c.508-.39.91-.811 1.18-1.2.28-.403.382-.718.382-.903 0-.185-.103-.5-.382-.902a5.583 5.583 0 00-1.18-1.201C10.92 5.115 9.524 4.5 8 4.5s-2.92.615-3.938 1.397c-.508.39-.91.811-1.18 1.2zm.57-1.995C4.607 4.218 6.212 3.5 8 3.5c1.79 0 3.393.718 4.547 1.603a6.578 6.578 0 011.392 1.424c.328.473.561.991.561 1.473 0 .482-.233 1-.56 1.473a6.58 6.58 0 01-1.393 1.424C11.393 11.782 9.79 12.5 8 12.5c-1.79 0-3.394-.718-4.547-1.603A6.577 6.577 0 012.06 9.473C1.733 9 1.5 8.482 1.5 8c0-.482.233-1 .56-1.473.338-.485.815-.98 1.393-1.424z" fill="#737373"/></svg>