<svg width="16" height="16" fill="none" xmlns="http://www.w3.org/2000/svg"><path fill-rule="evenodd" clip-rule="evenodd" d="M5 7a3 3 0 116 0 3 3 0 01-6 0zm3-2.053a2.053 2.053 0 100 4.106 2.053 2.053 0 000-4.106z" fill="#1F2025"/><path fill-rule="evenodd" clip-rule="evenodd" d="M3.018 6.417C3.226 3.92 5.338 2 7.873 2h.254c2.535 0 4.647 1.92 4.855 4.417a5.15 5.15 0 01-1.17 3.713l-2.817 3.404a1.296 1.296 0 01-1.99 0L4.187 10.13a5.15 5.15 0 01-1.17-3.713zM7.873 2.87c-2.076 0-3.806 1.573-3.976 3.617A4.286 4.286 0 004.87 9.58l2.817 3.404a.407.407 0 00.626 0L11.13 9.58a4.287 4.287 0 00.973-3.09c-.17-2.045-1.9-3.618-3.976-3.618h-.254z" fill="#1F2025"/></svg>