<svg width="118" height="58" fill="none" xmlns="http://www.w3.org/2000/svg"><path d="M61.23 50.269c-2.28-.154-4.91-.556-6.984-1.161-.389-.114-1.997-.71-2.407-.899-7.22-3.37-12.25-10.726-12.25-19.26 0-11.706 9.452-21.241 21.078-21.241 11.522 0 20.91 9.372 21.072 20.946h7.615C89.193 12.85 76.39.044 60.667.044c-15.817 0-28.691 12.963-28.691 28.903 0 10.99 6.134 20.547 15.115 25.43 1.621.864 3.949 1.755 4.74 1.999 2.56.768 5.701 1.278 8.498 1.492.95.072 4.266.11 5.233.113H118V50.34H65.65c-.696 0-3.739-.026-4.42-.071zm4.42-12c-.554 0-3.45-.018-3.985-.064-.906-.077-2.22-.213-3.065-.408-.953-.257-1.849-.598-2.252-.82a9.13 9.13 0 01-4.756-8.028c0-5.052 4.06-9.148 9.075-9.148 4.91 0 8.902 3.936 9.062 8.853h7.316c-.154-8.983-7.421-16.222-16.378-16.222-9.056 0-16.397 7.394-16.397 16.517 0 6.433 3.66 11.989 8.99 14.71.82.484 2.363.991 2.803 1.107 1.505.399 3.526.67 5.167.792.606.051 3.575.074 4.202.078v.01h52.566V38.27H65.65zM27.283 57.955h-7.665V7.724H8.416V0h18.867v57.954zM0 11.584v7.429h8.416v38.941h7.365v-46.37H0z" fill="#C4161C"/></svg>