<svg display="none" xmlns="http://www.w3.org/2000/svg">
    <symbol id="arrow-bottom" viewBox="0 0 8 5">
        <path fill-rule="evenodd" clip-rule="evenodd" d="M7.62425 0.175734C7.85857 0.410046 7.85857 0.78995 7.62425 1.02424L4.42425 4.22424C4.18993 4.45856 3.81009 4.45856 3.57577 4.22424L0.375746 1.02424C0.141434 0.78995 0.141434 0.410046 0.375746 0.175734C0.610058 -0.058578 0.989962 -0.058578 1.22427 0.175734L4.00001 2.95144L6.77577 0.175734C7.01009 -0.058578 7.38993 -0.058578 7.62425 0.175734Z" />
    </symbol>
    <symbol id="location" viewBox="0 0 24 24">
        <path fill-rule="evenodd" clip-rule="evenodd" d="M7.25 10C7.25 7.37665 9.37665 5.25 12 5.25C14.6233 5.25 16.75 7.37665 16.75 10C16.75 12.6234 14.6233 14.75 12 14.75C9.37665 14.75 7.25 12.6234 7.25 10ZM12 6.75C10.2051 6.75 8.75 8.20507 8.75 10C8.75 11.7949 10.2051 13.25 12 13.25C13.7949 13.25 15.25 11.7949 15.25 10C15.25 8.20507 13.7949 6.75 12 6.75Z" />
        <path fill-rule="evenodd" clip-rule="evenodd" d="M3.52433 8.85685C3.87866 4.55824 7.47081 1.25 11.784 1.25H12.216C16.5292 1.25 20.1213 4.55824 20.4756 8.85685C20.666 11.166 19.9527 13.4589 18.486 15.2526L13.693 21.1144C12.818 22.1845 11.182 22.1845 10.307 21.1144L5.51393 15.2526C4.04727 13.4589 3.33399 11.166 3.52433 8.85685ZM11.784 2.75C8.25146 2.75 5.30945 5.45948 5.01926 8.98008C4.86084 10.9019 5.45449 12.8102 6.67515 14.3031L11.4682 20.1649C11.7431 20.501 12.2569 20.501 12.5318 20.1649L17.3248 14.3031C18.5455 12.8102 19.1391 10.9019 18.9807 8.98008C18.6905 5.45948 15.7485 2.75 12.216 2.75H11.784Z" />
    </symbol>
    <symbol id="loupe" viewBox="0 0 18 18">
        <path fill-rule="evenodd" clip-rule="evenodd" d="M11.3851 12.0241C8.73482 14.1468 4.85539 13.9797 2.3986 11.5229C-0.23744 8.88693 -0.23744 4.61307 2.3986 1.97703C5.03464 -0.65901 9.30852 -0.65901 11.9445 1.97703C14.4013 4.43381 14.5684 8.31323 12.4457 10.9635L17.6014 16.1191C17.8943 16.412 17.8943 16.8869 17.6014 17.1798C17.3085 17.4727 16.8336 17.4727 16.5407 17.1798L11.3851 12.0241ZM3.45926 10.4623C1.40901 8.41203 1.40901 5.08794 3.45926 3.03769C5.50952 0.98744 8.83362 0.98744 10.8839 3.03769C12.9326 5.08644 12.9341 8.40713 10.8884 10.4578C10.8869 10.4593 10.8854 10.4607 10.8838 10.4623C10.8823 10.4638 10.8808 10.4653 10.8794 10.4668C8.82872 12.5125 5.50801 12.511 3.45926 10.4623Z" />
    </symbol>
    <symbol id="star" viewBox="0 0 24 24">
        <path d="M8.5 8.5L12 4L15.5 8.5L20.5 10.5L17 14.5L17.5 20L12 18L6.5 20L7 14.5L3.5 10.5L8.5 8.5Z" />
        <path fill-rule="evenodd" clip-rule="evenodd" d="M10.4864 4.11413C11.1608 2.95186 12.8392 2.95187 13.5136 4.11413L15.579 7.67349C15.7694 8.00158 16.0984 8.22547 16.4735 8.28212L19.9031 8.80012C21.3981 9.02592 21.9225 10.9135 20.7582 11.878L18.2593 13.9484C17.9086 14.2389 17.7437 14.6973 17.8289 15.1448L18.5289 18.8207C18.8031 20.2607 17.2914 21.3795 15.9944 20.6965L12.5824 18.9C12.2178 18.708 11.7822 18.708 11.4176 18.9L8.0056 20.6965C6.70859 21.3795 5.19696 20.2607 5.47116 18.8207L6.17114 15.1448C6.25634 14.6973 6.09142 14.2389 5.74068 13.9484L3.24178 11.878C2.07749 10.9135 2.6019 9.02592 4.09689 8.80012L7.52654 8.28212C7.9016 8.22547 8.23065 8.00158 8.42102 7.67349L10.4864 4.11413ZM12.2162 4.86696C12.1199 4.70092 11.8801 4.70092 11.7838 4.86696L9.71842 8.42632C9.2996 9.14811 8.57569 9.64067 7.75055 9.76529L4.32091 10.2833C4.10734 10.3155 4.03242 10.5852 4.19875 10.723L6.69765 12.7933C7.46928 13.4326 7.83211 14.441 7.64466 15.4253L6.94468 19.1013C6.90551 19.307 7.12145 19.4669 7.30674 19.3693L10.7188 17.5727C11.5207 17.1504 12.4793 17.1504 13.2812 17.5727L16.6933 19.3693C16.8786 19.4669 17.0945 19.307 17.0553 19.1013L16.3554 15.4253C16.1679 14.441 16.5307 13.4326 17.3024 12.7933L19.8013 10.723C19.9676 10.5852 19.8927 10.3155 19.6791 10.2833L16.2495 9.76529C15.4243 9.64067 14.7004 9.14811 14.2816 8.42632L12.2162 4.86696Z" />
    </symbol>
    <symbol id="like" viewBox="0 0 10 12">
        <path fill-rule="evenodd" clip-rule="evenodd" d="M4.13495 1.5C4.02415 1.5 3.92181 1.55946 3.86695 1.65575L1.63631 5.57127C1.34063 6.09027 1.21654 6.68947 1.28179 7.28327L1.51721 9.42567C1.55911 9.80687 1.85835 10.1088 2.23915 10.1541L3.65051 10.322C4.58221 10.4329 5.52688 10.3367 6.41721 10.0406C6.85695 9.8944 7.20908 9.56067 7.37881 9.12947L8.51481 6.2424C8.54261 6.17187 8.56181 6.0982 8.57201 6.023C8.65815 5.38827 8.10255 4.8528 7.47141 4.96247L5.19421 5.35793C4.47488 5.48287 3.85361 4.84813 3.99401 4.13163L4.43761 1.86772C4.47495 1.67721 4.32908 1.5 4.13495 1.5ZM2.99807 1.16074C3.23079 0.75224 3.66479 0.500007 4.13495 0.5C4.95855 0.499993 5.57728 1.25179 5.41895 2.06001L4.97535 4.32391C4.97341 4.33361 4.97448 4.33954 4.97581 4.34379C4.97741 4.34903 4.98081 4.35517 4.98641 4.36087C4.99195 4.36656 4.99801 4.37007 5.00321 4.37183C5.00741 4.37325 5.01335 4.3744 5.02308 4.37271L7.30028 3.97719C8.59775 3.75185 9.74008 4.8526 9.56295 6.15753C9.54195 6.31207 9.50248 6.46347 9.44541 6.6086L8.30935 9.49567C8.03115 10.2026 7.45375 10.7497 6.73281 10.9895C5.70295 11.3321 4.61015 11.4432 3.53239 11.315L2.12103 11.1471C1.27822 11.0469 0.615907 10.3786 0.5232 9.53493L0.287774 7.39247C0.199494 6.58913 0.367374 5.77847 0.767427 5.0762L2.99807 1.16074Z" />
    </symbol>
    <symbol id="check" viewBox="0 0 14 10">
        <path fill-rule="evenodd" clip-rule="evenodd" d="M13.0303 0.969668C13.3232 1.26256 13.3232 1.73744 13.0303 2.03033L6.0303 9.0303C5.7374 9.3232 5.2626 9.3232 4.96967 9.0303L0.969668 5.0303C0.676777 4.7374 0.676777 4.2626 0.969668 3.9697C1.26256 3.6768 1.73744 3.6768 2.03033 3.9697L5.5 7.4393L11.9697 0.969668C12.2626 0.676777 12.7374 0.676777 13.0303 0.969668Z" />
    </symbol>
    <symbol id="close" viewBox="0 0 8 8">
        <path d="M0.469668 0.469668C0.762558 0.176777 1.23744 0.176777 1.53033 0.469668L4 2.93931L6.4697 0.469678C6.7626 0.176788 7.2374 0.176788 7.5303 0.469678C7.8232 0.762568 7.8232 1.23745 7.5303 1.53034L5.0607 4.00001L7.5303 6.46971C7.8232 6.76261 7.8232 7.23741 7.5303 7.53031C7.2374 7.82321 6.7626 7.82321 6.4697 7.53031L4 5.06071L1.53034 7.53031C1.23744 7.82321 0.762567 7.82321 0.469677 7.53031C0.176777 7.23741 0.176777 6.76261 0.469677 6.46971L2.9393 4.00001L0.469668 1.53033C0.176777 1.23744 0.176777 0.762558 0.469668 0.469668Z"/>
    </symbol>
    <symbol id="chart" viewBox="0 0 14 14">
        <path fill-rule="evenodd" clip-rule="evenodd" d="M9.90579 0.333496H4.09405C1.83716 0.333496 0.333252 1.94676 0.333252 4.26228V9.73803C0.333252 12.0557 1.8332 13.6668 4.09405 13.6668H9.90579C12.1667 13.6668 13.6666 12.0557 13.6666 9.73803V4.26228C13.6666 1.9446 12.1667 0.333496 9.90579 0.333496ZM4.09405 1.26373H9.90579C11.6375 1.26373 12.7364 2.44408 12.7364 4.26228V9.73803C12.7364 11.5562 11.6375 12.7366 9.90579 12.7366H4.09405C2.3624 12.7366 1.26349 11.5562 1.26349 9.73803V4.26228C1.26349 2.44649 2.36607 1.26373 4.09405 1.26373ZM7.48439 3.78612C7.45359 3.5591 7.25899 3.38412 7.02352 3.38412C6.76665 3.38412 6.55845 3.59236 6.55845 3.84923V10.1393L6.56265 10.2024C6.59345 10.4294 6.78805 10.6044 7.02352 10.6044C7.28045 10.6044 7.48865 10.3962 7.48865 10.1393V3.84923L7.48439 3.78612ZM4.59036 5.82183C4.55956 5.59481 4.36496 5.41983 4.12949 5.41983C3.87261 5.41983 3.66437 5.62807 3.66437 5.88496V10.1393L3.66862 10.2024C3.69941 10.4294 3.89402 10.6044 4.12949 10.6044C4.38637 10.6044 4.59461 10.3962 4.59461 10.1393V5.88496L4.59036 5.82183ZM9.87032 7.66796C10.1059 7.66796 10.3005 7.84296 10.3313 8.06996L10.3355 8.1331V10.1393C10.3355 10.3962 10.1273 10.6044 9.87032 10.6044C9.63485 10.6044 9.44025 10.4294 9.40945 10.2024L9.40525 10.1393V8.1331C9.40525 7.87623 9.61345 7.66796 9.87032 7.66796Z" />
    </symbol>
    <symbol id="faq" viewBox="0 0 12 12">
        <path d="M5.31473 7.6266C5.32213 7.22646 5.37207 6.91039 5.46455 6.67838C5.55703 6.44637 5.74568 6.18914 6.03052 5.90669L6.7574 5.22579C7.06813 4.90635 7.22349 4.56338 7.22349 4.19687C7.22349 3.84381 7.12176 3.56809 6.91831 3.3697C6.71486 3.16796 6.41893 3.06708 6.03052 3.06708C5.65321 3.06708 5.34988 3.15787 5.12053 3.33944C4.89118 3.52102 4.77651 3.76479 4.77651 4.07078H3.75C3.7574 3.52606 3.9701 3.08726 4.3881 2.75437C4.8098 2.41812 5.35727 2.25 6.03052 2.25C6.72965 2.25 7.27343 2.42149 7.66184 2.76446C8.05395 3.10407 8.25 3.57145 8.25 4.16661C8.25 4.75504 7.95037 5.33507 7.35111 5.90669L6.7463 6.45141C6.47626 6.72377 6.34125 7.1155 6.34125 7.6266H5.31473ZM5.27035 9.22545C5.27035 9.07414 5.32028 8.94805 5.42016 8.84718C5.52374 8.74294 5.6754 8.69082 5.87515 8.69082C6.07491 8.69082 6.22657 8.74294 6.33015 8.84718C6.43372 8.94805 6.48551 9.07414 6.48551 9.22545C6.48551 9.37677 6.43372 9.50286 6.33015 9.60373C6.22657 9.70124 6.07491 9.75 5.87515 9.75C5.6754 9.75 5.52374 9.70124 5.42016 9.60373C5.32028 9.50286 5.27035 9.37677 5.27035 9.22545Z" fill="#1F2025"/>
        <circle cx="6" cy="6" r="5.5" stroke="#737373"/>
    </symbol>
    <symbol id="truck-loading" viewBox="0 0 14 12">
        <path d="M13.0322 8.93525H11.2135C11.5166 8.93525 11.5166 8.62713 11.5166 8.01091V4.92979C11.5166 4.43949 11.5545 4.04404 11.2135 3.69734C10.8724 3.35065 10.4833 3.38923 10.001 3.38923H6.36359C5.88124 3.38923 5.49219 3.35065 5.15112 3.69734C4.81005 4.04404 4.848 4.43949 4.848 4.92979V8.01091C4.848 8.62713 4.848 8.93525 5.15112 8.93525H3.93865C3.77787 8.93525 3.57947 8.7427 3.46578 8.62713C3.35209 8.51157 3.33241 8.17434 3.33241 8.01091V1.84867C3.33241 1.35837 3.1408 0.888157 2.79973 0.541463C2.45865 0.19477 1.99606 0 1.51371 0H0.907475C0.746692 0 0.592494 0.00358177 0.478803 0.119146C0.333374 0.266971 0.333372 0.361428 0.333374 0.466792C0.333376 0.572065 0.349206 0.702806 0.478803 0.816534C0.601646 0.924336 0.746692 0.924336 0.907475 0.924336H1.51371C1.67449 0.924336 2.00625 1.11688 2.11994 1.23245C2.23363 1.34801 2.42306 1.68524 2.42306 1.84867L2.42307 8.01091C2.4253 8.4157 2.48306 8.92275 2.72618 9.24336C2.96931 9.56396 3.37225 9.85958 3.76791 9.85812C3.65626 10.1358 3.61857 10.3299 3.64695 10.6285C3.67533 10.927 3.73568 11.0795 3.89755 11.3303C4.05943 11.5811 4.2097 11.6959 4.46783 11.8412C4.72597 11.9865 4.85611 11.9931 5.15111 11.9995C5.44612 12.0059 5.61265 11.9523 5.87667 11.8183C6.14069 11.6844 6.26341 11.5036 6.43571 11.2601C6.56101 11.0333 6.60682 10.9533 6.64776 10.6562C6.68869 10.3592 6.62712 10.1404 6.52727 9.85812L9.24535 9.85958C9.13177 10.1552 9.09643 10.4098 9.13338 10.6954C9.16294 10.9239 9.26718 11.1736 9.43491 11.4168C9.5587 11.5963 9.8402 11.7914 9.99394 11.8657C10.1663 11.9489 10.3218 11.9962 10.614 11.9962C10.9063 11.9962 10.9872 11.9799 11.2534 11.8657C11.5126 11.7285 11.6736 11.6258 11.8413 11.3825C12.0091 11.1393 12.0841 10.9507 12.1225 10.6562C12.1608 10.3618 12.1049 10.1388 12.0052 9.85958H13.0322C13.1929 9.85958 13.5601 9.80849 13.6384 9.55147C13.7021 9.34233 13.6384 8.93525 13.6384 8.93525C13.6384 8.93525 13.1929 8.93525 13.0322 8.93525ZM5.15111 11.092C5.03121 11.092 4.914 11.0559 4.81431 10.9882C4.71461 10.9205 4.63691 10.8242 4.59103 10.7116C4.54514 10.599 4.53314 10.4751 4.55653 10.3556C4.57992 10.236 4.63766 10.1262 4.72244 10.0401C4.80722 9.95389 4.91525 9.8952 5.03284 9.87142C5.15044 9.84764 5.27233 9.85985 5.38311 9.90649C5.49388 9.95313 5.58856 10.0321 5.65518 10.1334C5.72179 10.2348 5.75735 10.3539 5.75735 10.4758C5.75735 10.6392 5.69348 10.796 5.57979 10.9115C5.46609 11.0271 5.3119 11.092 5.15111 11.092ZM6.36359 8.93525C6.06047 8.93525 5.75735 8.93525 5.75735 8.62713C5.75735 8.31902 5.75735 8.17434 5.75735 8.01091V4.92979C5.75735 4.76636 5.82122 4.60962 5.93491 4.49405C6.0486 4.37849 6.2028 4.31357 6.36358 4.31357H10.001C10.1618 4.31357 10.316 4.37849 10.4297 4.49405C10.5433 4.60962 10.6072 4.76636 10.6072 4.92979V8.01091C10.6072 8.17434 10.6072 8.31902 10.6072 8.62713C10.6072 8.93525 10.1734 8.93525 10.0126 8.93525H6.36359ZM10.6072 11.092C10.4873 11.092 10.3701 11.0559 10.2704 10.9882C10.1707 10.9205 10.093 10.8242 10.0471 10.7116C10.0012 10.599 9.98924 10.4751 10.0126 10.3556C10.036 10.236 10.0938 10.1262 10.1785 10.0401C10.2633 9.95389 10.3713 9.8952 10.4889 9.87142C10.6065 9.84764 10.7284 9.85985 10.8392 9.90649C10.95 9.95313 11.0447 10.0321 11.1113 10.1334C11.1779 10.2348 11.2135 10.3539 11.2135 10.4758C11.2135 10.6392 11.1496 10.796 11.0359 10.9115C10.9222 11.0271 10.768 11.092 10.6072 11.092Z" />
    </symbol>
    <symbol id="bag" viewBox="0 0 14 12">
        <path fill-rule="evenodd" clip-rule="evenodd" d="M3.83335 2.42069V1.64084C3.83335 1.06334 4.25585 0.572747 4.82695 0.48708L5.64023 0.365087C6.54169 0.229867 7.45835 0.229867 8.35982 0.365087L9.17309 0.48708C9.74422 0.572747 10.1667 1.06334 10.1667 1.64084V2.42069L11.3094 2.51293C12.1843 2.58355 12.898 3.24231 13.0383 4.10879C13.3484 6.02384 13.3484 7.97624 13.0383 9.89131C12.898 10.7578 12.1843 11.4165 11.3094 11.4872L10.0614 11.5879C8.02382 11.7524 5.97622 11.7524 3.9386 11.5879L2.69065 11.4872C1.81573 11.4165 1.10204 10.7578 0.961721 9.89131C0.651594 7.97624 0.651594 6.02384 0.961721 4.10879C1.10204 3.24231 1.81573 2.58355 2.69066 2.51293L3.83335 2.42069ZM5.78855 1.35403C6.59169 1.23355 7.40835 1.23355 8.21149 1.35403L9.02475 1.47601C9.10635 1.48825 9.16669 1.55834 9.16669 1.64084V2.35057C7.72342 2.26826 6.27662 2.26826 4.83335 2.35057V1.64084C4.83335 1.55834 4.89371 1.48825 4.97529 1.47601L5.78855 1.35403ZM4.01906 3.40895C6.00315 3.2488 7.99689 3.2488 9.98095 3.40895L11.2289 3.50969C11.645 3.54327 11.9844 3.85657 12.0512 4.26865C12.0928 4.52527 12.1284 4.78257 12.1582 5.04044C8.90642 6.64164 5.09361 6.64164 1.84187 5.04044C1.87164 4.78257 1.9073 4.52527 1.94886 4.26865C2.01559 3.85657 2.35501 3.54327 2.77111 3.50969L4.01906 3.40895ZM1.75261 6.10451C5.08555 7.62031 8.91449 7.62031 12.2474 6.10451C12.311 7.31524 12.2456 8.53111 12.0512 9.73144C11.9844 10.1435 11.645 10.4568 11.2289 10.4904L9.98095 10.5911C7.99689 10.7513 6.00315 10.7513 4.01906 10.5911L2.77111 10.4904C2.35501 10.4568 2.01559 10.1435 1.94886 9.73144C1.75448 8.53111 1.68906 7.31524 1.75261 6.10451Z" />
    </symbol>
    <symbol id="chart-pie" viewBox="0 0 14 14">
        <path fill-rule="evenodd" clip-rule="evenodd" d="M6.5 1.52242C3.69675 1.77503 1.5 4.13098 1.5 7C1.5 10.0375 3.96243 12.5 7 12.5C8.5476 12.5 9.94567 11.8613 10.9457 10.8317L6.68573 7.38887C6.56827 7.29393 6.5 7.151 6.5 7V1.52242ZM7.5 1.52242V6.5H12.4776C12.2398 3.86143 10.1386 1.76019 7.5 1.52242ZM12.4776 7.5H8.41413L11.5747 10.0543C12.0721 9.31093 12.393 8.4398 12.4776 7.5ZM0.5 7C0.5 3.41015 3.41015 0.5 7 0.5C10.5899 0.5 13.5 3.41015 13.5 7C13.5 8.54747 12.9586 9.96987 12.0553 11.0861C10.8645 12.5577 9.04213 13.5 7 13.5C3.41015 13.5 0.5 10.5899 0.5 7Z" />
    </symbol>
    <symbol id="phone" viewBox="0 0 13 12">
        <path fill-rule="evenodd" clip-rule="evenodd" d="M1.89352 4.57094C3.08507 7.16551 5.20541 9.22831 7.84121 10.346L7.84954 10.3496L8.35874 10.5765C9.00721 10.8654 9.76934 10.6602 10.1851 10.0848L11.0347 8.90904C11.0865 8.83724 11.0731 8.73737 11.0042 8.68171L9.52108 7.48518C9.44734 7.42571 9.33887 7.43958 9.28247 7.51564L8.70527 8.29457C8.56507 8.48378 8.31187 8.54951 8.09741 8.45244C6.12647 7.56044 4.54265 5.97664 3.6507 4.00571C3.55362 3.7912 3.61935 3.53804 3.80852 3.39785L4.58743 2.82061C4.66355 2.7642 4.67741 2.65579 4.61791 2.58206L3.42122 1.0987C3.3656 1.02975 3.26577 1.01636 3.19395 1.06821L2.01176 1.92165C1.43256 2.33978 1.2286 3.10834 1.52424 3.75864L1.89313 4.57008C1.89326 4.57037 1.8934 4.57065 1.89352 4.57094ZM7.44661 11.2649C4.58261 10.0492 2.27903 7.80718 0.984342 4.98731L0.983562 4.98564L0.613895 4.1725C0.121162 3.08866 0.461108 1.80772 1.42643 1.11085L2.60863 0.257408C3.11137 -0.105532 3.81019 -0.0117917 4.19952 0.470802L5.39621 1.95417C5.81261 2.47028 5.71561 3.22921 5.18281 3.62404L4.73647 3.95481C5.49048 5.41771 6.68534 6.61264 8.14827 7.36657L8.47907 6.92024C8.87387 6.38751 9.63281 6.29051 10.1489 6.70691L11.6321 7.90337C12.1148 8.29284 12.2085 8.99197 11.8452 9.49471L10.9956 10.6705C10.3027 11.6295 9.03247 11.9715 7.95181 11.49L7.44661 11.2649Z" />
    </symbol>
    <symbol id="invoice" viewBox="0 0 16 16">
        <path d="M9 6.5C9 6.22385 8.77613 6 8.5 6H4.5C4.22386 6 4 6.22385 4 6.5C4 6.77612 4.22386 6.99999 4.5 6.99999H8.5C8.77613 6.99999 9 6.77612 9 6.5Z" />
        <path d="M8.33333 8.5C8.33333 8.22387 8.10947 8 7.83333 8H4.5C4.22386 8 4 8.22387 4 8.5C4 8.77613 4.22386 9 4.5 9H7.83333C8.10947 9 8.33333 8.77613 8.33333 8.5Z" />
        <path d="M8.5 10C8.77613 10 9 10.2239 9 10.5C9 10.7761 8.77613 11 8.5 11H4.5C4.22386 11 4 10.7761 4 10.5C4 10.2239 4.22386 10 4.5 10H8.5Z" />
        <path fill-rule="evenodd" clip-rule="evenodd" d="M4 14.5H12.6667C13.6792 14.5 14.5 13.6792 14.5 12.6667V9C14.5 8.72387 14.2761 8.5 14 8.5H11.8333V3.29547C11.8333 2.34654 10.7607 1.79456 9.98853 2.34612L9.87187 2.42947C9.35153 2.80113 8.64673 2.79989 8.12393 2.42648C7.25473 1.80559 6.07863 1.80559 5.20938 2.42648C4.68661 2.79989 3.9818 2.80113 3.46147 2.42947L3.34478 2.34612C2.5726 1.79456 1.5 2.34654 1.5 3.29547V12C1.5 13.3807 2.61929 14.5 4 14.5ZM5.79062 3.24021C6.31217 2.86768 7.0212 2.86768 7.54273 3.24021C8.41073 3.86023 9.5826 3.86497 10.4531 3.24321L10.5698 3.15985C10.6801 3.08106 10.8333 3.15991 10.8333 3.29547V12.6667C10.8333 12.9667 10.9054 13.25 11.0333 13.5H4C3.17157 13.5 2.5 12.8285 2.5 12V3.29547C2.5 3.15991 2.65323 3.08106 2.76354 3.15985L2.88024 3.24321C3.7507 3.86497 4.9226 3.86023 5.79062 3.24021ZM11.8333 12.6667V9.5H13.5V12.6667C13.5 13.1269 13.1269 13.5 12.6667 13.5C12.2064 13.5 11.8333 13.1269 11.8333 12.6667Z" />
    </symbol>
    <symbol id="shield" viewBox="0 0 12 12">
        <path fill-rule="evenodd" clip-rule="evenodd" d="M6.42991 1.50921C6.16544 1.34996 5.83464 1.34996 5.57017 1.50921L5.22597 1.71647C4.30514 2.27094 3.27139 2.61118 2.20126 2.712L1.98441 2.73243C1.89879 2.7405 1.83337 2.81237 1.83337 2.89837V3.99429C1.83337 5.66597 2.51206 7.26604 3.71396 8.42797L5.88417 10.526C5.94877 10.5884 6.05131 10.5884 6.11591 10.526L8.28611 8.42797C9.48804 7.26604 10.1667 5.66597 10.1667 3.99429V2.89837C10.1667 2.81237 10.1013 2.7405 10.0157 2.73243L9.79884 2.712C8.72871 2.61118 7.69491 2.27094 6.77411 1.71647L6.42991 1.50921ZM5.05431 0.652525C5.63611 0.302185 6.36397 0.302185 6.94577 0.652525L7.28997 0.859785C8.08231 1.33689 8.97177 1.62966 9.89264 1.71641L10.1094 1.73684C10.7088 1.7933 11.1667 2.29643 11.1667 2.89837V3.99429C11.1667 5.93704 10.378 7.79657 8.98117 9.1469L6.81091 11.2449C6.35871 11.6821 5.64137 11.6821 5.18917 11.2449L3.01892 9.1469C1.62211 7.79657 0.833374 5.93704 0.833374 3.99429V2.89837C0.833374 2.29643 1.29133 1.7933 1.89061 1.73684L2.10746 1.71641C3.02827 1.62966 3.91778 1.33689 4.71011 0.859785L5.05431 0.652525Z" />
    </symbol>
    <symbol id="folder-lock" viewBox="0 0 16 16">
        <path fill-rule="evenodd" clip-rule="evenodd" d="M12.3333 7.5C11.485 7.5 10.7523 8.09333 10.576 8.92313L10.5612 8.99273C10.5159 9.20587 10.5079 9.42527 10.5376 9.64113L10.6396 10.3829C10.6015 10.3875 10.5634 10.3923 10.5253 10.3973C9.93887 10.4735 9.5 10.973 9.5 11.5644V13.1023C9.5 13.6937 9.93887 14.1933 10.5253 14.2694C11.7256 14.4253 12.9411 14.4253 14.1413 14.2694C14.7278 14.1933 15.1667 13.6937 15.1667 13.1023V11.5644C15.1667 10.973 14.7278 10.4735 14.1413 10.3973C14.1033 10.3923 14.0651 10.3875 14.0271 10.3829L14.1291 9.64113C14.1587 9.42527 14.1507 9.20587 14.1055 8.99273L14.0907 8.92313C13.9143 8.09333 13.1816 7.5 12.3333 7.5ZM13.0294 10.2976L13.1384 9.50493C13.1523 9.4036 13.1485 9.30067 13.1273 9.2006L13.1125 9.131C13.0343 8.76307 12.7095 8.5 12.3333 8.5C11.9572 8.5 11.6323 8.76307 11.5541 9.131L11.5394 9.2006C11.5181 9.30067 11.5143 9.4036 11.5283 9.50493L11.6373 10.2976C12.101 10.2746 12.5656 10.2746 13.0294 10.2976ZM10.6541 11.3889C11.7689 11.2442 12.8977 11.2442 14.0125 11.3889C14.1007 11.4004 14.1667 11.4755 14.1667 11.5644V13.1023C14.1667 13.1912 14.1007 13.2663 14.0125 13.2777C12.8977 13.4225 11.7689 13.4225 10.6541 13.2777C10.566 13.2663 10.5 13.1912 10.5 13.1023V11.5644C10.5 11.4755 10.566 11.4004 10.6541 11.3889Z" />
        <path d="M8.50002 12.2435C8.50002 12.1323 8.40922 12.0425 8.29789 12.0431C7.06895 12.0509 5.83975 12.0109 4.61312 11.9231L3.60379 11.8509C3.26147 11.8264 2.97912 11.5733 2.91743 11.2357C2.64435 9.74107 2.59759 8.21387 2.77875 6.70533L2.9604 5.19259C3.00786 4.79741 3.34311 4.5 3.74113 4.5H5.26884C5.56221 4.5 5.80002 4.73781 5.80002 5.03118C5.80002 5.42122 6.11621 5.73741 6.50626 5.73741H12.3148C12.6943 5.73741 13.0175 6.01313 13.0773 6.38785L13.0862 6.44354C13.1025 6.54547 13.1765 6.62779 13.2737 6.66251C13.5081 6.74627 13.7289 6.86053 13.9308 7.00107C14.0312 7.07107 14.1785 6.99253 14.1623 6.87113C14.1456 6.74653 14.1274 6.62211 14.1076 6.49786L14.0648 6.23023C13.9276 5.37022 13.1858 4.73741 12.3148 4.73741H6.77189C6.63486 4.03231 6.01401 3.5 5.26884 3.5H3.74113C2.83694 3.5 2.07534 4.17562 1.96753 5.07336L1.78588 6.5861C1.59277 8.1942 1.64261 9.8222 1.93372 11.4155C2.0774 12.2018 2.73507 12.7913 3.53242 12.8483L4.54176 12.9205C5.79354 13.0101 7.04795 13.0509 8.30209 13.0431C8.41175 13.0425 8.50002 12.9532 8.50002 12.8435V12.2435Z" />
    </symbol>
    <symbol id="caret-big-right" viewBox="0 0 6 10">
        <path fill-rule="evenodd" clip-rule="evenodd" d="M0.500061 0.469702C0.792951 0.176802 1.26783 0.176802 1.56069 0.469702L5.56069 4.4697C5.85359 4.7626 5.85359 5.2374 5.56069 5.5303L1.56069 9.53033C1.26783 9.82322 0.792951 9.82322 0.500061 9.53033C0.207171 9.23744 0.207171 8.76256 0.500061 8.46967L3.96969 5L0.500061 1.5303C0.207171 1.2374 0.207171 0.762602 0.500061 0.469702Z" />
    </symbol>
    <symbol id="close" viewBox="0 0 8 8">
        <path d="M0.469668 0.469668C0.762558 0.176777 1.23744 0.176777 1.53033 0.469668L4 2.93931L6.4697 0.469678C6.7626 0.176788 7.2374 0.176788 7.5303 0.469678C7.8232 0.762568 7.8232 1.23745 7.5303 1.53034L5.0607 4.00001L7.5303 6.46971C7.8232 6.76261 7.8232 7.23741 7.5303 7.53031C7.2374 7.82321 6.7626 7.82321 6.4697 7.53031L4 5.06071L1.53034 7.53031C1.23744 7.82321 0.762567 7.82321 0.469677 7.53031C0.176777 7.23741 0.176777 6.76261 0.469677 6.46971L2.9393 4.00001L0.469668 1.53033C0.176777 1.23744 0.176777 0.762558 0.469668 0.469668Z" />
    </symbol>
</svg>