<svg width="14" height="12" fill="none" xmlns="http://www.w3.org/2000/svg"><path fill-rule="evenodd" clip-rule="evenodd" d="M5.991.743a1.167 1.167 0 012.018 0l1.377 2.373a.833.833 0 00.596.406l2.287.345c.996.15 1.346 1.41.57 2.052L11.173 7.3a.833.833 0 00-.287.798l.467 2.45c.183.96-.825 1.707-1.69 1.251l-2.275-1.197a.833.833 0 00-.776 0l-2.275 1.197c-.864.456-1.872-.29-1.69-1.25l.467-2.451a.833.833 0 00-.287-.798L1.161 5.92c-.776-.643-.426-1.901.57-2.052l2.287-.345a.833.833 0 00.596-.406L5.991.743z" fill="#FFDD29"/></svg>