<svg width="22" height="16" fill="none" xmlns="http://www.w3.org/2000/svg"><path fill-rule="evenodd" clip-rule="evenodd" d="M18.184.912L11.001.75 3.817.912a2.809 2.809 0 00-2.7 2.3 26.484 26.484 0 000 9.576 2.809 2.809 0 002.7 2.3L11 15.25l7.183-.162a2.809 2.809 0 002.7-2.3c.581-3.166.581-6.41 0-9.575a2.809 2.809 0 00-2.7-2.3zm-14.333 1.5L11 2.25l7.15.162c.62.014 1.145.462 1.257 1.072.153.834.264 1.674.331 2.516H2.262c.067-.842.178-1.682.331-2.516a1.309 1.309 0 011.258-1.072zM2.18 8c0 1.512.138 3.024.412 4.517.112.61.638 1.057 1.258 1.071l7.15.162 7.15-.162a1.309 1.309 0 001.257-1.071c.274-1.493.412-3.005.412-4.517H2.182z" fill="#0038FF"/></svg>