<svg width="20" height="20" fill="none" xmlns="http://www.w3.org/2000/svg"><path fill-rule="evenodd" clip-rule="evenodd" d="M.25 10C.25 4.616 4.616.25 10 .25a9.71 9.71 0 016.64 2.623.75.75 0 01.018 1.08l-2.545 2.545a.75.75 0 01-1.029.03A4.621 4.621 0 0010 5.35a4.65 4.65 0 000 9.3 4.637 4.637 0 003.883-2.1H10a.75.75 0 01-.75-.75V8.2a.75.75 0 01.75-.75h8.825a.75.75 0 01.736.604A10.2 10.2 0 0119.75 10c0 5.384-4.366 9.75-9.75 9.75S.25 15.384.25 10zM10 1.75a8.25 8.25 0 108.185 7.2H10.75v2.1h4.336a.75.75 0 01.707 1A6.148 6.148 0 013.85 10 6.15 6.15 0 0110 3.85c1.313 0 2.527.415 3.524 1.116l1.499-1.5A8.187 8.187 0 0010 1.75z" fill="#1F2025"/></svg>