<svg width="10" height="12" fill="none" xmlns="http://www.w3.org/2000/svg"><path fill-rule="evenodd" clip-rule="evenodd" d="M4.135 1.5a.31.31 0 00-.268.156L1.637 5.57a2.833 2.833 0 00-.355 1.712l.235 2.143a.824.824 0 00.722.728l1.412.168a6.39 6.39 0 002.766-.281c.44-.147.792-.48.962-.912l1.136-2.887a.947.947 0 00-1.043-1.28l-2.278.396c-.72.125-1.34-.51-1.2-1.226l.444-2.264a.308.308 0 00-.303-.368zm-1.137-.34a1.308 1.308 0 012.42.9l-.443 2.264a.038.038 0 00.011.037c.006.006.012.01.017.01.004.002.01.003.02.002L7.3 3.977A1.947 1.947 0 019.445 6.61L8.31 9.496a2.564 2.564 0 01-1.576 1.493 7.378 7.378 0 01-3.2.326l-1.412-.168A1.824 1.824 0 01.523 9.535L.288 7.392a3.833 3.833 0 01.48-2.316l2.23-3.915z" fill="#8D8D8D"/></svg>