<svg width="16" height="16" fill="none" xmlns="http://www.w3.org/2000/svg"><path fill-rule="evenodd" clip-rule="evenodd" d="M4.833 6.667a3.167 3.167 0 116.334 0 3.167 3.167 0 01-6.334 0zM8 4.5a2.167 2.167 0 100 4.333A2.167 2.167 0 008 4.5z" fill="#1F2025"/><path fill-rule="evenodd" clip-rule="evenodd" d="M2.35 5.904A5.525 5.525 0 017.856.834h.288a5.525 5.525 0 015.506 5.07 5.961 5.961 0 01-1.326 4.264l-3.195 3.908a1.458 1.458 0 01-2.258 0l-3.195-3.908A5.962 5.962 0 012.35 5.904zm5.506-4.07a4.525 4.525 0 00-4.51 4.153A4.962 4.962 0 004.45 9.535l3.195 3.908a.458.458 0 00.71 0l3.195-3.908a4.962 4.962 0 001.104-3.548 4.525 4.525 0 00-4.51-4.154h-.288z" fill="#1F2025"/></svg>