<svg width="24" height="24" fill="none" xmlns="http://www.w3.org/2000/svg"><path d="M3.055 11v-.75a.75.75 0 00-.744.655l.744.096zM7 13h.75H7zm0 1h-.75H7zm2 2v.75V16zm2 4.946l-.196.724a.75.75 0 00.946-.724H11zM8 3.936l-.402-.633a.75.75 0 00-.348.633H8zM10.5 8v.75V8zM19 8v.75V8zm1.064 0v.75a.75.75 0 00.707-1l-.707.25zM15 20.489h-.75a.75.75 0 001.028.697L15 20.489zM17 16v.75V16zm3.064 0l.66.355a.75.75 0 00-.66-1.105V16zM12 3v.75V3zm-8.945 8.75H5v-1.5H3.055v1.5zm1.945 0c.332 0 .65.132.884.366l1.06-1.06A2.75 2.75 0 005 10.25v1.5zm.884.366c.234.234.366.552.366.884h1.5c0-.73-.29-1.429-.805-1.945l-1.061 1.061zM6.25 13v1h1.5v-1h-1.5zm0 1c0 .73.29 1.429.805 1.944l1.061-1.06A1.25 1.25 0 017.75 14h-1.5zm.805 1.944A2.75 2.75 0 009 16.751v-1.5a1.25 1.25 0 01-.884-.366l-1.06 1.06zM9 16.751c.332 0 .65.132.884.366l1.06-1.06A2.75 2.75 0 009 15.25v1.5zm.884.366c.234.234.366.552.366.884h1.5c0-.73-.29-1.429-.806-1.945l-1.06 1.061zm.366.884v2.945h1.5V18h-1.5zm-3-14.065V5.5h1.5V3.936h-1.5zm0 1.565c0 .862.342 1.688.952 2.298l1.06-1.06A1.75 1.75 0 018.75 5.5h-1.5zm.952 2.298a3.25 3.25 0 002.298.952v-1.5a1.75 1.75 0 01-1.237-.513L8.202 7.8zm2.298.952h.5v-1.5h-.5v1.5zm.5 0c.332 0 .65.132.884.366l1.06-1.06A2.75 2.75 0 0011 7.25v1.5zm.884.366c.234.234.366.552.366.884h1.5c0-.73-.29-1.429-.806-1.945l-1.06 1.061zm.366.884c0 .73.29 1.429.806 1.944l1.06-1.06A1.25 1.25 0 0113.75 10h-1.5zm.806 1.944a2.75 2.75 0 001.944.806v-1.5a1.25 1.25 0 01-.884-.366l-1.06 1.06zm1.944.806c.73 0 1.429-.29 1.945-.806l-1.061-1.06a1.25 1.25 0 01-.884.366v1.5zm1.945-.806a2.75 2.75 0 00.805-1.944h-1.5c0 .331-.132.65-.366.884l1.06 1.06zm.805-1.944c0-.332.132-.65.366-.884l-1.06-1.06A2.75 2.75 0 0016.25 10h1.5zm.366-.884A1.25 1.25 0 0119 8.751v-1.5c-.73 0-1.429.29-1.945.805l1.061 1.061zM19 8.751h1.064v-1.5H19v1.5zm-3.25 11.738V18h-1.5v2.488h1.5zm0-2.488c0-.332.132-.65.366-.884l-1.06-1.06A2.75 2.75 0 0014.25 18h1.5zm.366-.884a1.25 1.25 0 01.884-.366v-1.5c-.73 0-1.429.29-1.944.805l1.06 1.061zm.884-.366h3.064v-1.5H17v1.5zM20.25 12a8.25 8.25 0 01-.628 3.157l1.386.574A9.75 9.75 0 0021.75 12h-1.5zm-.628 3.157a8.25 8.25 0 01-1.788 2.676l1.06 1.061a9.75 9.75 0 002.114-3.163l-1.386-.574zm-1.788 2.676a8.25 8.25 0 01-2.677 1.789l.574 1.386a9.752 9.752 0 003.163-2.114l-1.06-1.06zm-2.677 1.789A8.25 8.25 0 0112 20.25v1.5a9.75 9.75 0 003.731-.742l-.574-1.386zM12 20.25a8.25 8.25 0 01-3.157-.628l-.574 1.386A9.75 9.75 0 0012 21.75v-1.5zm-3.157-.628a8.25 8.25 0 01-2.677-1.789l-1.06 1.061a9.751 9.751 0 003.163 2.114l.574-1.386zm-2.677-1.789a8.25 8.25 0 01-1.788-2.676l-1.386.574a9.75 9.75 0 002.114 3.163l1.06-1.06zm-1.788-2.676A8.25 8.25 0 013.75 12h-1.5c0 1.28.252 2.548.742 3.731l1.386-.574zM3.75 12a8.25 8.25 0 012.416-5.834l-1.06-1.06A9.75 9.75 0 002.25 12h1.5zm2.416-5.834A8.25 8.25 0 0112 3.751v-1.5a9.75 9.75 0 00-6.894 2.856l1.06 1.06zM12 3.751a8.25 8.25 0 015.834 2.416l1.06-1.06A9.75 9.75 0 0012 2.25v1.5zm5.834 2.416a8.25 8.25 0 012.416 5.834h1.5a9.75 9.75 0 00-2.856-6.894l-1.06 1.06zm2.23 1.834c.707-.25.707-.251.707-.252l-.001-.002-.002-.005a.877.877 0 00-.019-.05 5.763 5.763 0 00-.252-.537 8.132 8.132 0 00-.885-1.315c-.838-1.024-2.21-2.233-4.35-3.027l-.523 1.406c1.86.69 3.02 1.725 3.713 2.571.347.425.58.805.721 1.072a4.298 4.298 0 01.18.379l.005.013v-.001L20.063 8zm-4.803-5.188c-2.164-.804-4.067-.692-5.43-.375a8.72 8.72 0 00-1.609.54 6.56 6.56 0 00-.617.32l-.004.003-.002.001.401.634.402.633-.002.001a1.145 1.145 0 01.096-.055 4.76 4.76 0 01.343-.17 7.22 7.22 0 011.33-.446c1.136-.264 2.733-.362 4.569.32l.522-1.407zM11 20.945l.196-.724c-.001 0-.003 0-.005-.002a8.4 8.4 0 01-.535-.168c-.35-.12-.844-.303-1.413-.557-1.147-.51-2.564-1.292-3.73-2.385l-1.026 1.095c1.334 1.25 2.917 2.113 4.145 2.66a18.454 18.454 0 001.995.754 8.052 8.052 0 00.162.047c.004 0 .008.002.01.003a.043.043 0 00.005 0l.196-.723zM5.513 17.11c-1.065-.997-1.515-2.456-1.679-3.753a10.604 10.604 0 01-.05-2.103 5.41 5.41 0 01.014-.153l.001-.005-.744-.095a101.593 101.593 0 00-.744-.095v.006a1.67 1.67 0 00-.007.058c-.004.037-.01.09-.015.158a12.103 12.103 0 00.057 2.417c.183 1.446.706 3.315 2.141 4.66l1.026-1.095zM20.064 16l-.66-.354-.002.002a12.934 12.934 0 01-.551.893c-.354.523-.83 1.143-1.351 1.61l1 1.117c.653-.585 1.21-1.32 1.593-1.887a14.434 14.434 0 00.584-.94l.034-.06.01-.017a.527.527 0 01.002-.006l.001-.001v-.001l-.66-.355zM17.5 18.15c-.519.465-1.204.876-1.786 1.178a13.628 13.628 0 01-.977.458l-.013.005-.002.001a294.583 294.583 0 01.556 1.393h.003l.005-.003.019-.007a7.436 7.436 0 00.305-.132c.2-.09.479-.22.796-.384.625-.325 1.439-.804 2.094-1.391l-1-1.118z" fill="#1F2025"/></svg>