<svg width="24" height="24" fill="none" xmlns="http://www.w3.org/2000/svg"><path fill-rule="evenodd" clip-rule="evenodd" d="M19.184 4.912L12 4.75l-7.184.162a2.809 2.809 0 00-2.699 2.3 26.484 26.484 0 000 9.576 2.809 2.809 0 002.7 2.3L12 19.25l7.184-.162a2.809 2.809 0 002.699-2.3c.582-3.165.582-6.41 0-9.575a2.809 2.809 0 00-2.7-2.3zM4.85 6.412L12 6.25l7.15.162a1.31 1.31 0 011.258 1.072c.153.834.263 1.674.33 2.516H3.262a24.89 24.89 0 01.332-2.516A1.309 1.309 0 014.85 6.412zM3.181 12c0 1.512.137 3.024.412 4.517.112.61.637 1.057 1.257 1.071l7.15.162 7.15-.162a1.309 1.309 0 001.258-1.072c.274-1.492.411-3.004.411-4.516H3.181z" fill="#1F2025"/></svg>