<svg width="18" height="18" viewBox="0 0 18 18" fill="none" xmlns="http://www.w3.org/2000/svg">
<path fill-rule="evenodd" clip-rule="evenodd" d="M11.3851 12.0241C8.73482 14.1468 4.85539 13.9797 2.3986 11.5229C-0.23744 8.88693 -0.23744 4.61307 2.3986 1.97703C5.03464 -0.65901 9.30852 -0.65901 11.9445 1.97703C14.4013 4.43381 14.5684 8.31323 12.4457 10.9635L17.6014 16.1191C17.8943 16.412 17.8943 16.8869 17.6014 17.1798C17.3085 17.4727 16.8336 17.4727 16.5407 17.1798L11.3851 12.0241ZM3.45926 10.4623C1.40901 8.41203 1.40901 5.08794 3.45926 3.03769C5.50952 0.98744 8.83362 0.98744 10.8839 3.03769C12.9326 5.08644 12.9341 8.40713 10.8884 10.4578C10.8869 10.4593 10.8854 10.4607 10.8838 10.4623C10.8823 10.4638 10.8808 10.4653 10.8794 10.4668C8.82872 12.5125 5.50801 12.511 3.45926 10.4623Z" fill="white"/>
</svg>
