<svg width="168" height="84" viewBox="0 0 168 84" fill="none" xmlns="http://www.w3.org/2000/svg">
<path d="M87.1747 72.5704C83.9278 72.3523 80.184 71.7789 77.2311 70.9173C76.678 70.7558 74.3879 69.9076 73.8053 69.6384C63.5251 64.8405 56.3634 54.3671 56.3634 42.2163C56.3634 25.5503 69.821 11.9752 86.373 11.9752C102.778 11.9752 116.145 25.3188 116.375 41.7963H127.216C126.986 19.2986 108.759 1.06563 86.373 1.06563C63.8538 1.06563 45.5247 19.522 45.5247 42.2163C45.5247 57.8618 54.2577 71.4692 67.0445 78.421C69.3533 79.6514 72.6669 80.9196 73.7919 81.2669C77.4369 82.36 81.9103 83.0869 85.892 83.3912C87.2441 83.4935 91.966 83.5473 93.3422 83.5527H168V72.6727H93.4678C92.4764 72.6727 88.1447 72.635 87.1747 72.5704ZM93.4678 55.4871C92.6795 55.4871 88.5562 55.4602 87.7946 55.3956C86.5039 55.2852 84.6333 55.0914 83.4308 54.814C82.0733 54.4479 80.7986 53.9632 80.2241 53.6455C76.197 51.4512 73.4526 47.1595 73.4526 42.2163C73.4526 35.0249 79.2327 29.1931 86.373 29.1931C93.3636 29.1931 99.0475 34.796 99.2747 41.7963H109.691C109.472 29.0074 99.125 18.7009 86.373 18.7009C73.4793 18.7009 63.0281 29.2281 63.0281 42.2163C63.0281 51.3758 68.239 59.2861 75.8282 63.1605C76.996 63.8497 79.1926 64.5713 79.8179 64.7355C81.9611 65.3036 84.8391 65.6913 87.1747 65.8637C88.0378 65.9364 92.2653 65.9687 93.1579 65.974V65.9902H167.997V55.4871H93.4678ZM38.8441 83.5123H27.9305V11.9995H11.9824V1.00101H38.8441V83.5123ZM0 17.4947V28.0704H11.9824V83.5123H22.4684V17.4947H0Z" fill="#C4161C"/>
<path d="M148.716 1.76542C144.786 1.76542 141.525 4.92361 141.525 8.88682C141.525 12.85 144.786 16.1348 148.716 16.1348C152.768 16.1348 155.902 12.85 155.902 8.88682C155.902 4.92361 152.768 1.76542 148.716 1.76542ZM148.716 14.9663C145.47 14.9663 142.672 12.395 142.672 8.88682C142.672 5.55632 145.47 2.92046 148.716 2.92046C151.961 2.92046 154.745 5.55632 154.745 8.88682C154.745 12.395 151.961 14.9663 148.716 14.9663Z" fill="#C4161C"/>
<path d="M151.453 10.8419C151.453 10.0422 151.336 9.29911 150.427 9.00564C151.566 8.60716 151.678 7.85598 151.678 7.40097C151.678 5.56206 150.021 5.32782 149.34 5.32782H146.205V12.4492H147.512V9.52796H148.541C150.021 9.52796 150.144 10.2145 150.144 10.8419C150.144 12.0561 150.144 12.285 150.427 12.4492H151.737C151.453 12.1611 151.566 11.9377 151.453 10.8419ZM149.054 8.4887H147.512V6.24593H148.832C149.746 6.24593 150.366 6.53671 150.366 7.40097C150.366 7.85598 150.144 8.4887 149.054 8.4887Z" fill="#C4161C"/>
</svg>
