<svg width="93" height="47" viewBox="0 0 93 47" fill="none" xmlns="http://www.w3.org/2000/svg">
<g clip-path="url(#clip0_1607_16700)">
<path d="M52.9778 44.7474C51.1536 44.6232 49.0502 44.2967 47.3912 43.8062C47.0804 43.7142 45.7937 43.2313 45.4664 43.0781C39.6906 40.3465 35.667 34.3835 35.667 27.4656C35.667 17.9771 43.2279 10.2483 52.5274 10.2483C61.7443 10.2483 69.2542 17.8453 69.3833 27.2265H75.4744C75.3453 14.4177 65.1044 4.03705 52.5274 4.03705C39.8753 4.03705 29.5774 14.545 29.5774 27.4656C29.5774 36.3732 34.4839 44.1204 41.668 48.0783C42.9651 48.7789 44.8268 49.5008 45.4589 49.6986C47.5068 50.3209 50.0201 50.7348 52.2571 50.908C53.0168 50.9663 55.6698 50.9969 56.443 51H98.3883V44.8056H56.5135C55.9565 44.8056 53.5228 44.7842 52.9778 44.7474ZM56.5135 35.0212C56.0706 35.0212 53.754 35.0059 53.3261 34.9691C52.601 34.9063 51.55 34.7959 50.8744 34.638C50.1117 34.4295 49.3955 34.1536 49.0727 33.9727C46.8102 32.7234 45.2682 30.28 45.2682 27.4656C45.2682 23.3713 48.5157 20.0511 52.5274 20.0511C56.455 20.0511 59.6484 23.241 59.776 27.2265H65.6284C65.5053 19.9453 59.6919 14.0774 52.5274 14.0774C45.2833 14.0774 39.4114 20.071 39.4114 27.4656C39.4114 32.6805 42.3391 37.1841 46.603 39.3899C47.2591 39.7824 48.4932 40.1932 48.8445 40.2867C50.0486 40.6101 51.6656 40.8309 52.9778 40.929C53.4627 40.9703 55.8379 40.9887 56.3394 40.9918V41.001H98.3868V35.0212H56.5135ZM25.824 50.977H19.6924V10.2621H10.7322V4.00026H25.824V50.977ZM4 13.3907V19.4119H10.7322V50.977H16.6235V13.3907H4Z" fill="#C4161C"/>
<path d="M87.5539 4.4401C85.3453 4.4401 83.5137 6.23817 83.5137 8.49457C83.5137 10.751 85.3453 12.6211 87.5539 12.6211C89.83 12.6211 91.5911 10.751 91.5911 8.49457C91.5911 6.23817 89.83 4.4401 87.5539 4.4401ZM87.5539 11.9558C85.7297 11.9558 84.1578 10.4919 84.1578 8.49457C84.1578 6.5984 85.7297 5.0977 87.5539 5.0977C89.3765 5.0977 90.941 6.5984 90.941 8.49457C90.941 10.4919 89.3765 11.9558 87.5539 11.9558Z" fill="#C4161C"/>
<path d="M89.0922 9.6044C89.0922 9.14913 89.0262 8.72606 88.5157 8.55897C89.1553 8.33211 89.2183 7.90443 89.2183 7.64538C89.2183 6.59842 88.2875 6.46506 87.9047 6.46506H86.1436V10.5195H86.8777V8.85635H87.4557C88.2875 8.85635 88.3566 9.24724 88.3566 9.6044C88.3566 10.2957 88.3566 10.426 88.5157 10.5195H89.2514C89.0922 10.3555 89.1553 10.2283 89.0922 9.6044ZM87.744 8.26466H86.8777V6.98777H87.6194C88.1329 6.98777 88.4812 7.15332 88.4812 7.64538C88.4812 7.90443 88.3566 8.26466 87.744 8.26466" fill="#C4161C"/>
</g>
<defs>
<clipPath id="clip0_1607_16700">
<rect width="93" height="47" fill="white"/>
</clipPath>
</defs>
</svg>
