<svg width="24" height="24" viewBox="0 0 24 24" fill="none" xmlns="http://www.w3.org/2000/svg">
<path fill-rule="evenodd" clip-rule="evenodd" d="M21.0939 12.7568C21.0738 12.7499 21.0522 12.7462 21.0297 12.7462H12.4766C12.4542 12.7462 12.4326 12.7499 12.4124 12.7568C12.3335 12.7835 12.2766 12.8582 12.2766 12.9462V19.3684C12.2766 19.4664 12.3477 19.55 12.4445 19.5658L20.9976 20.9585C21.1193 20.9783 21.2297 20.8843 21.2297 20.7611V12.9462C21.2297 12.8582 21.1729 12.7835 21.0939 12.7568ZM19.7297 19.2323V14.2462H13.7766V18.2629L19.7297 19.2323ZM12.4124 11.2474C12.4326 11.2543 12.4542 11.258 12.4766 11.258H21.0297C21.0522 11.258 21.0738 11.2543 21.0939 11.2474C21.1729 11.2207 21.2297 11.146 21.2297 11.058V3.23911C21.2297 3.11559 21.1189 3.02161 20.9971 3.0418L12.4439 4.45911C12.3474 4.4751 12.2766 4.55858 12.2766 4.65642V11.058C12.2766 11.146 12.3335 11.2207 12.4124 11.2474ZM19.7297 4.77225L13.7766 5.75873V9.75794H19.7297V4.77225ZM10.2405 11.2472C10.3229 11.2225 10.3829 11.1461 10.3829 11.0556V4.96879C10.3829 4.84528 10.272 4.75129 10.1502 4.77148L2.98225 5.95912C2.88573 5.97511 2.81494 6.05859 2.81494 6.15643V11.0556C2.81494 11.1461 2.87497 11.2225 2.95736 11.2472C2.97559 11.2527 2.99493 11.2556 3.01494 11.2556H10.1829C10.2029 11.2556 10.2222 11.2527 10.2405 11.2472ZM8.8829 6.50191L4.31494 7.25876V9.7556H8.8829V6.50191ZM10.2405 12.7547C10.2222 12.7492 10.2029 12.7462 10.1829 12.7462H3.01494C2.99492 12.7462 2.97559 12.7492 2.95736 12.7547C2.87497 12.7794 2.81494 12.8558 2.81494 12.9462V17.8918C2.81494 17.9899 2.88602 18.0735 2.98279 18.0892L10.1507 19.2569C10.2724 19.2767 10.3829 19.1828 10.3829 19.0595V12.9462C10.3829 12.8558 10.3229 12.7794 10.2405 12.7547ZM8.8829 17.5306V14.2462H4.31494V16.7865L8.8829 17.5306Z" fill="#1F2025"/>
</svg>
