<svg width="24" height="24" viewBox="0 0 24 24" fill="none" xmlns="http://www.w3.org/2000/svg">
<path fill-rule="evenodd" clip-rule="evenodd" d="M7.24997 6.63202V5.46224C7.24997 4.59599 7.88371 3.8601 8.74037 3.7316L9.96029 3.54861C11.3125 3.34578 12.6875 3.34578 14.0397 3.54861L15.2596 3.7316C16.1163 3.8601 16.75 4.59599 16.75 5.46224V6.63202L18.464 6.77037C19.7764 6.87631 20.847 7.86445 21.0574 9.16417C21.5226 12.0367 21.5226 14.9653 21.0574 17.8379C20.847 19.1376 19.7764 20.1257 18.464 20.2317L16.5921 20.3828C13.5357 20.6295 10.4643 20.6295 7.40784 20.3828L5.53592 20.2317C4.22354 20.1257 3.153 19.1376 2.94252 17.8379C2.47733 14.9653 2.47733 12.0367 2.94252 9.16417C3.153 7.86445 4.22354 6.87631 5.53593 6.77037L7.24997 6.63202ZM10.1828 5.03202C11.3875 4.85131 12.6125 4.85131 13.8172 5.03202L15.0371 5.215C15.1595 5.23336 15.25 5.33849 15.25 5.46224V6.52684C13.0851 6.40337 10.9149 6.40337 8.74997 6.52684V5.46224C8.74997 5.33849 8.8405 5.23336 8.96288 5.215L10.1828 5.03202ZM7.52853 8.11441C10.5047 7.87418 13.4953 7.87418 16.4714 8.11441L18.3433 8.26551C18.9675 8.31589 19.4766 8.78583 19.5767 9.40396C19.6391 9.78889 19.6926 10.1748 19.7372 10.5616C14.8596 12.9634 9.14035 12.9634 4.26275 10.5616C4.3074 10.1748 4.36089 9.78889 4.42323 9.40396C4.52333 8.78583 5.03246 8.31589 5.65661 8.26551L7.52853 8.11441ZM4.12886 12.1577C9.12826 14.4314 14.8717 14.4314 19.8711 12.1577C19.9664 13.9738 19.8683 15.7976 19.5767 17.5981C19.4766 18.2162 18.9675 18.6862 18.3433 18.7365L16.4714 18.8876C13.4953 19.1279 10.5047 19.1279 7.52853 18.8876L5.65661 18.7365C5.03246 18.6862 4.52333 18.2162 4.42323 17.5981C4.13166 15.7976 4.03353 13.9738 4.12886 12.1577Z" fill="#1F2025"/>
</svg>
