<svg width="18" height="16" viewBox="0 0 18 16" fill="none" xmlns="http://www.w3.org/2000/svg">
<path d="M17.9707 9.4581C17.9675 9.41105 17.9598 9.3644 17.9477 9.31875L16.062 4.40908C16.4052 4.19204 16.6874 3.89454 16.883 3.54365C17.0786 3.19276 17.1813 2.79962 17.1818 2.4C17.1818 2.18783 17.0956 1.98434 16.9422 1.83431C16.7887 1.68429 16.5806 1.6 16.3636 1.6C16.1466 1.6 15.9385 1.68429 15.7851 1.83431C15.6317 1.98434 15.5455 2.18783 15.5455 2.4C15.5454 2.57828 15.4844 2.75143 15.3723 2.89199C15.2601 3.03255 15.1032 3.13247 14.9264 3.1759C14.7495 3.21933 14.5629 3.20378 14.3961 3.13172C14.2294 3.05966 14.092 2.93522 14.0058 2.77813C13.7958 2.41374 13.4888 2.11178 13.1174 1.90433C12.746 1.69689 12.324 1.59172 11.8964 1.6H9.81818V0.8C9.81818 0.587827 9.73198 0.384344 9.57854 0.234315C9.4251 0.0842854 9.217 0 9 0C8.783 0 8.5749 0.0842854 8.42146 0.234315C8.26802 0.384344 8.18182 0.587827 8.18182 0.8V1.6H6.10364C5.67598 1.59172 5.25402 1.69689 4.8826 1.90433C4.51118 2.11178 4.20418 2.41374 3.99423 2.77813C3.90802 2.93522 3.77063 3.05966 3.60386 3.13172C3.43709 3.20378 3.25048 3.21933 3.07364 3.1759C2.89681 3.13247 2.73987 3.03255 2.62771 2.89199C2.51556 2.75143 2.45461 2.57828 2.45455 2.4C2.45455 2.18783 2.36834 1.98434 2.21491 1.83431C2.06147 1.68429 1.85336 1.6 1.63636 1.6C1.41937 1.6 1.21126 1.68429 1.05782 1.83431C0.904383 1.98434 0.818182 2.18783 0.818182 2.4C0.818717 2.79962 0.921448 3.19276 1.11702 3.54365C1.3126 3.89454 1.59482 4.19204 1.93799 4.40908L0.0523636 9.31875C0.0402595 9.3644 0.0325378 9.41105 0.0292991 9.4581C0.0149305 9.50438 0.00511954 9.5519 0 9.6C0 9.60742 0.00220094 9.61426 0.00225003 9.62168C0.00249549 9.63222 0.00470452 9.64194 0.00544089 9.65244C0.0181801 10.4915 0.368015 11.292 0.979365 11.8809C1.59071 12.4699 2.41449 12.8 3.27273 12.8C4.13096 12.8 4.95474 12.4699 5.56609 11.8809C6.17744 11.292 6.52727 10.4915 6.54001 9.65244C6.54071 9.64194 6.54296 9.63222 6.5432 9.62168C6.54325 9.61426 6.54545 9.60742 6.54545 9.6C6.54035 9.5519 6.53055 9.50438 6.51619 9.4581C6.51295 9.41105 6.50523 9.3644 6.49312 9.31875L4.60527 4.40337C4.95198 4.18702 5.2373 3.88868 5.43484 3.53594C5.50623 3.42736 5.60567 3.33912 5.72309 3.28014C5.84052 3.22116 5.97179 3.19351 6.10364 3.2H8.18182V14.4H5.72727C5.51028 14.4 5.30217 14.4843 5.14873 14.6343C4.99529 14.7843 4.90909 14.9878 4.90909 15.2C4.90909 15.4122 4.99529 15.6157 5.14873 15.7657C5.30217 15.9157 5.51028 16 5.72727 16H12.2727C12.4897 16 12.6978 15.9157 12.8513 15.7657C13.0047 15.6157 13.0909 15.4122 13.0909 15.2C13.0909 14.9878 13.0047 14.7843 12.8513 14.6343C12.6978 14.4843 12.4897 14.4 12.2727 14.4H9.81818V3.2H11.8964C12.0282 3.19352 12.1595 3.22116 12.2769 3.28015C12.3943 3.33913 12.4937 3.42736 12.5651 3.53594C12.7627 3.88868 13.048 4.18702 13.3947 4.40337L11.5069 9.31875C11.4948 9.3644 11.4871 9.41105 11.4838 9.4581C11.4695 9.50438 11.4597 9.5519 11.4545 9.6C11.4545 9.60742 11.4567 9.61426 11.4568 9.62168C11.457 9.63222 11.4592 9.64194 11.46 9.65244C11.4727 10.4915 11.8226 11.292 12.4339 11.8809C13.0453 12.4699 13.869 12.8 14.7273 12.8C15.5855 12.8 16.4093 12.4699 17.0206 11.8809C17.632 11.292 17.9818 10.4915 17.9946 9.65244C17.9953 9.64194 17.9975 9.63222 17.9977 9.62168C17.9978 9.61426 18 9.60742 18 9.6C17.9949 9.5519 17.9851 9.50438 17.9707 9.4581ZM3.27273 5.48442L4.54615 8.8H1.99931L3.27273 5.48442ZM4.68218 10.4C4.53778 10.6409 4.3321 10.8412 4.08512 10.9814C3.83815 11.1215 3.55828 11.1969 3.27273 11.2C2.98557 11.1999 2.7035 11.1259 2.45484 10.9855C2.20618 10.8451 1.99968 10.6431 1.85609 10.4H4.68218ZM14.7273 5.48442L16.0007 8.8H13.4539L14.7273 5.48442ZM14.7273 11.2C14.4401 11.1999 14.158 11.1259 13.9094 10.9855C13.6607 10.8451 13.4542 10.6431 13.3106 10.4H16.1367C15.9923 10.6409 15.7866 10.8412 15.5397 10.9814C15.2927 11.1215 15.0128 11.1969 14.7273 11.2Z" fill="#0038FF"/>
</svg>
