<svg width="16" height="16" viewBox="0 0 16 16" fill="none" xmlns="http://www.w3.org/2000/svg">
<path d="M8.5 4.66797C8.5 4.39183 8.27613 4.16797 8 4.16797C7.72387 4.16797 7.5 4.39183 7.5 4.66797V8.0013C7.5 8.1737 7.5888 8.3339 7.735 8.4253L9.735 9.6753C9.9692 9.82163 10.2777 9.7505 10.424 9.5163C10.5703 9.2821 10.4992 8.97364 10.265 8.8273L8.5 7.72417V4.66797Z" fill="#737373"/>
<path fill-rule="evenodd" clip-rule="evenodd" d="M7.99935 2.16797C4.77769 2.16797 2.16602 4.77964 2.16602 8.0013C2.16602 11.223 4.77769 13.8346 7.99935 13.8346C11.221 13.8346 13.8327 11.223 13.8327 8.0013C13.8327 4.77964 11.221 2.16797 7.99935 2.16797ZM3.16602 8.0013C3.16602 5.33193 5.32998 3.16797 7.99935 3.16797C10.6687 3.16797 12.8327 5.33193 12.8327 8.0013C12.8327 10.6707 10.6687 12.8346 7.99935 12.8346C5.32998 12.8346 3.16602 10.6707 3.16602 8.0013Z" fill="#737373"/>
</svg>
