<svg width="12" height="12" viewBox="0 0 12 12" fill="none" xmlns="http://www.w3.org/2000/svg">
<path fill-rule="evenodd" clip-rule="evenodd" d="M1.0613 8.2028C-0.437284 4.5245 2.26879 0.5 6.24065 0.5H6.45492C9.42538 0.5 11.8334 2.90801 11.8334 5.8784C11.8334 9.18567 9.15232 11.8667 5.84512 11.8667H0.631616C0.419449 11.8667 0.230376 11.7327 0.159962 11.5326C0.0895425 11.3325 0.153109 11.1097 0.318536 10.9768L1.63286 9.92127C1.69034 9.87513 1.71066 9.79673 1.68285 9.72847L1.0613 8.2028ZM6.24065 1.5C2.97898 1.5 0.756762 4.80493 1.98739 7.82553L2.60894 9.3512C2.80361 9.829 2.66131 10.3779 2.25903 10.701L2.05273 10.8667H5.84512C8.60005 10.8667 10.8334 8.63333 10.8334 5.8784C10.8334 3.46029 8.87312 1.5 6.45492 1.5H6.24065Z" fill="#737373"/>
</svg>
