<svg width="16" height="16" viewBox="0 0 16 16" fill="none" xmlns="http://www.w3.org/2000/svg">
<path d="M8.23372 5.80078C8.50986 5.80078 8.73372 6.02464 8.73372 6.30078V7.63411H10.0671C10.3432 7.63411 10.5671 7.85797 10.5671 8.13411C10.5671 8.41024 10.3432 8.63411 10.0671 8.63411H8.73372V9.96744C8.73372 10.2436 8.50986 10.4674 8.23372 10.4674C7.95759 10.4674 7.73372 10.2436 7.73372 9.96744V8.63411H6.40039C6.12424 8.63411 5.90039 8.41024 5.90039 8.13411C5.90039 7.85797 6.12424 7.63411 6.40039 7.63411H7.73372V6.30078C7.73372 6.02464 7.95759 5.80078 8.23372 5.80078Z" fill="#1F2025"/>
<path fill-rule="evenodd" clip-rule="evenodd" d="M3.06154 10.2028C1.56296 6.5245 4.26903 2.5 8.24089 2.5H8.45516C11.4256 2.5 13.8336 4.90801 13.8336 7.8784C13.8336 11.1857 11.1526 13.8667 7.84536 13.8667H2.63186C2.41969 13.8667 2.23062 13.7327 2.16021 13.5326C2.08979 13.3325 2.15335 13.1097 2.31878 12.9768L3.63311 11.9213C3.69058 11.8751 3.71091 11.7967 3.68309 11.7285L3.06154 10.2028ZM8.24089 3.5C4.97922 3.5 2.75701 6.80493 3.98763 9.82553L4.60919 11.3512C4.80385 11.829 4.66155 12.3779 4.25927 12.701L4.05297 12.8667H7.84536C10.6003 12.8667 12.8336 10.6333 12.8336 7.8784C12.8336 5.46029 10.8734 3.5 8.45516 3.5H8.24089Z" fill="#1F2025"/>
</svg>
