<svg width="24" height="24" viewBox="0 0 24 24" fill="none" xmlns="http://www.w3.org/2000/svg">
<path fill-rule="evenodd" clip-rule="evenodd" d="M11.9999 3.75L19.2735 3.95566C20.5587 3.992 21.6218 4.96765 21.7679 6.24505C22.0914 9.07266 22.0914 11.9279 21.7679 14.7555C21.6218 16.0329 20.5587 17.0086 19.2735 17.0449L13.7499 17.2011V19.2503H16.9999C17.4141 19.2503 17.7499 19.5861 17.7499 20.0003C17.7499 20.4145 17.4141 20.7503 16.9999 20.7503H6.99994C6.58573 20.7503 6.24994 20.4145 6.24994 20.0003C6.24994 19.5861 6.58573 19.2503 6.99994 19.2503H10.2499V17.2011L4.7263 17.0449C3.44108 17.0086 2.37806 16.0329 2.2319 14.7555C1.90838 11.9279 1.90838 9.07266 2.2319 6.24505C2.37806 4.96765 3.44108 3.992 4.7263 3.95566L11.9999 3.75ZM11.9999 5.2506L4.76869 5.45506C4.22948 5.4703 3.7835 5.87963 3.72218 6.41556C3.41162 9.12987 3.41162 11.8707 3.72218 14.585C3.7835 15.121 4.22948 15.5303 4.76869 15.5455L11.9999 15.75L19.2311 15.5455C19.7703 15.5303 20.2163 15.121 20.2776 14.585C20.5882 11.8707 20.5882 9.12987 20.2776 6.41556C20.2163 5.87964 19.7703 5.4703 19.2311 5.45506L11.9999 5.2506Z" fill="#1F2025"/>
</svg>
