<svg width="20" height="16" viewBox="0 0 20 16" fill="none" xmlns="http://www.w3.org/2000/svg">
<path fill-rule="evenodd" clip-rule="evenodd" d="M0.804026 4.35318C0.523886 6.95608 0.536376 9.95808 0.926196 12.5504C1.1419 13.9848 2.31257 15.0844 3.75764 15.2101L5.26787 15.3413C8.41694 15.6151 11.5837 15.6151 14.7328 15.3413L16.243 15.2101C17.6881 15.0844 18.8588 13.9848 19.0745 12.5504C19.4643 9.95808 19.4768 6.95628 19.1966 4.35333C19.1604 4.05157 19.1197 3.75022 19.0745 3.44937C18.8588 2.01498 17.6881 0.91533 16.243 0.78971L14.7328 0.65843C11.5837 0.38469 8.41694 0.38469 5.26787 0.65843L3.75764 0.78971C2.31257 0.91533 1.1419 2.01498 0.926196 3.44937C0.880966 3.75016 0.840246 4.05147 0.804026 4.35318ZM5.39777 2.1528C8.46034 1.88657 11.5403 1.88657 14.6029 2.1528L16.1131 2.28408C16.8674 2.34965 17.4785 2.92367 17.5911 3.67242C17.6028 3.75018 17.6142 3.82797 17.6253 3.9058L12.0643 6.99528C10.7807 7.70838 9.21994 7.70838 7.93633 6.99528L2.37539 3.90584C2.38645 3.828 2.39783 3.75019 2.40952 3.67242C2.52212 2.92367 3.13321 2.34965 3.88754 2.28408L5.39777 2.1528ZM17.8088 5.51977C18.0028 7.78748 17.9302 10.0724 17.5911 12.3273C17.4785 13.0761 16.8674 13.6501 16.1131 13.7157L14.6029 13.847C11.5403 14.1132 8.46034 14.1132 5.39777 13.847L3.88754 13.7157C3.13321 13.6501 2.52212 13.0761 2.40952 12.3273C2.07043 10.0724 1.99787 7.78758 2.19184 5.5198L7.20786 8.30648C8.94454 9.27128 11.0561 9.27128 12.7927 8.30648L17.8088 5.51977Z" fill="#1F2025"/>
</svg>
