<svg width="16" height="16" viewBox="0 0 16 16" fill="none" xmlns="http://www.w3.org/2000/svg">
<path fill-rule="evenodd" clip-rule="evenodd" d="M5.5 8C5.5 6.61929 6.61929 5.5 8 5.5C9.38073 5.5 10.5 6.61929 10.5 8C10.5 9.38073 9.38073 10.5 8 10.5C6.61929 10.5 5.5 9.38073 5.5 8ZM8 6.5C7.1716 6.5 6.5 7.1716 6.5 8C6.5 8.8284 7.1716 9.5 8 9.5C8.8284 9.5 9.5 8.8284 9.5 8C9.5 7.1716 8.8284 6.5 8 6.5Z" fill="#737373"/>
<path fill-rule="evenodd" clip-rule="evenodd" d="M2.88229 7.0976C2.60287 7.5002 2.5 7.81513 2.5 8C2.5 8.18487 2.60287 8.4998 2.88229 8.9024C3.15238 9.2916 3.55385 9.71353 4.06178 10.1033C5.07985 10.8847 6.47563 11.5 8 11.5C9.52433 11.5 10.9201 10.8847 11.9382 10.1033C12.4461 9.71353 12.8476 9.2916 13.1177 8.9024C13.3971 8.4998 13.5 8.18487 13.5 8C13.5 7.81513 13.3971 7.5002 13.1177 7.0976C12.8476 6.7084 12.4461 6.28648 11.9382 5.89665C10.9201 5.11528 9.52433 4.5 8 4.5C6.47563 4.5 5.07985 5.11528 4.06178 5.89665C3.55385 6.28648 3.15238 6.7084 2.88229 7.0976ZM3.45294 5.10335C4.60643 4.21805 6.21065 3.5 8 3.5C9.78933 3.5 11.3935 4.21805 12.5471 5.10335C13.1249 5.54685 13.6021 6.04163 13.9393 6.52743C14.2671 6.9998 14.5 7.5182 14.5 8C14.5 8.4818 14.2671 9.0002 13.9393 9.4726C13.6021 9.9584 13.1249 10.4531 12.5471 10.8967C11.3935 11.7819 9.78933 12.5 8 12.5C6.21065 12.5 4.60643 11.7819 3.45294 10.8967C2.87508 10.4531 2.39787 9.9584 2.06073 9.4726C1.73291 9.0002 1.5 8.4818 1.5 8C1.5 7.5182 1.73291 6.9998 2.06073 6.52743C2.39787 6.04163 2.87508 5.54685 3.45294 5.10335Z" fill="#737373"/>
</svg>
