<svg width="22" height="20" viewBox="0 0 22 20" fill="none" xmlns="http://www.w3.org/2000/svg">
<path fill-rule="evenodd" clip-rule="evenodd" d="M5.53539 0.25C4.95027 0.25 4.40387 0.54243 4.0793 1.02927L0.490083 6.41311C0.270353 6.74271 0.244074 7.1648 0.421224 7.5191C2.38533 11.4473 5.11488 14.9432 8.44944 17.8014L10.2002 19.3021C10.6605 19.6967 11.3399 19.6967 11.8002 19.3021L13.551 17.8014C16.8855 14.9432 19.6151 11.4473 21.5792 7.5191C21.7563 7.1648 21.7301 6.74271 21.5103 6.41311L17.9211 1.02927C17.5965 0.54243 17.0501 0.25 16.465 0.25H5.53539ZM5.32738 1.86132C5.37374 1.79178 5.4518 1.75 5.53539 1.75H7.8752L5.96008 6.34629C5.91597 6.45216 5.88267 6.56135 5.86023 6.67224C5.1564 6.61985 4.45317 6.55669 3.75078 6.48276L2.34507 6.33479L5.32738 1.86132ZM2.27886 7.8361C4.07226 11.1261 6.44042 14.0714 9.27341 16.5312L6.14796 8.1967C5.29562 8.1381 4.44408 8.064 3.59376 7.9745L2.27886 7.8361ZM7.78502 8.2902L11.0002 16.864L14.2154 8.2902C12.073 8.3876 9.92741 8.3876 7.78502 8.2902ZM15.8525 8.1967L12.727 16.5312C15.56 14.0714 17.9281 11.1261 19.7215 7.8361L18.4066 7.9745C17.5563 8.064 16.7048 8.1381 15.8525 8.1967ZM19.6553 6.33479L18.2496 6.48276C17.5472 6.55669 16.844 6.61985 16.1402 6.67224C16.1177 6.56135 16.0844 6.45216 16.0403 6.34629L14.1252 1.75H16.465C16.5486 1.75 16.6267 1.79178 16.673 1.86133L19.6553 6.33479ZM14.5919 6.77005C12.199 6.89432 9.80141 6.89432 7.40851 6.77005L9.50021 1.75H12.5002L14.5919 6.77005Z" fill="#0038FF"/>
</svg>
