<svg width="24" height="24" viewBox="0 0 24 24" fill="none" xmlns="http://www.w3.org/2000/svg">
<path fill-rule="evenodd" clip-rule="evenodd" d="M6.53539 3.25C5.95027 3.25 5.40387 3.54243 5.0793 4.02927L1.49008 9.41311C1.27035 9.74271 1.24407 10.1648 1.42122 10.5191C3.38533 14.4473 6.11488 17.9432 9.44944 20.8014L11.2002 22.3021C11.6605 22.6967 12.3399 22.6967 12.8002 22.3021L14.551 20.8014C17.8855 17.9432 20.6151 14.4473 22.5792 10.5191C22.7563 10.1648 22.7301 9.74271 22.5103 9.41311L18.9211 4.02927C18.5965 3.54243 18.0501 3.25 17.465 3.25H6.53539ZM6.32738 4.86132C6.37374 4.79178 6.4518 4.75 6.53539 4.75H8.8752L6.96008 9.34629C6.91597 9.45216 6.88267 9.56135 6.86023 9.67224C6.1564 9.61985 5.45317 9.55669 4.75078 9.48276L3.34507 9.33479L6.32738 4.86132ZM3.27886 10.8361C5.07226 14.1261 7.44042 17.0714 10.2734 19.5312L7.14796 11.1967C6.29562 11.1381 5.44408 11.064 4.59376 10.9745L3.27886 10.8361ZM8.78502 11.2902L12.0002 19.864L15.2154 11.2902C13.073 11.3876 10.9274 11.3876 8.78502 11.2902ZM16.8525 11.1967L13.727 19.5312C16.56 17.0714 18.9281 14.1261 20.7215 10.8361L19.4066 10.9745C18.5563 11.064 17.7048 11.1381 16.8525 11.1967ZM20.6553 9.33479L19.2496 9.48276C18.5472 9.55669 17.844 9.61985 17.1402 9.67224C17.1177 9.56135 17.0844 9.45216 17.0403 9.34629L15.1252 4.75H17.465C17.5486 4.75 17.6267 4.79178 17.673 4.86133L20.6553 9.33479ZM15.5919 9.77005C13.199 9.89432 10.8014 9.89432 8.40851 9.77005L10.5002 4.75H13.5002L15.5919 9.77005Z" fill="#1F2025"/>
</svg>
