<svg width="24" height="24" viewBox="0 0 24 24" fill="none" xmlns="http://www.w3.org/2000/svg">
<path d="M3.055 11.0009V10.2509C2.67778 10.2509 2.35926 10.5311 2.31113 10.9052L3.055 11.0009ZM7 13.0009H7.75H7ZM7 14.0009H6.25H7ZM9 16.0009V16.7509V16.0009ZM11 20.9459L10.8043 21.6699C11.0297 21.7308 11.2706 21.6833 11.4559 21.5414C11.6413 21.3995 11.75 21.1793 11.75 20.9459H11ZM8 3.93588L7.59787 3.3028C7.38123 3.44041 7.25 3.67924 7.25 3.93588H8ZM10.5 8.00088V8.75088V8.00088ZM19 8.00088V8.75088V8.00088ZM20.064 8.00088V8.75088C20.3076 8.75088 20.536 8.63257 20.6766 8.43359C20.8171 8.23462 20.8523 7.97978 20.7709 7.75018L20.064 8.00088ZM15 20.4889H14.25C14.25 20.7376 14.3733 20.9702 14.5792 21.1097C14.7851 21.2493 15.0468 21.2777 15.2779 21.1855L15 20.4889ZM17 16.0009V16.7509V16.0009ZM20.064 16.0009L20.7247 16.3558C20.8496 16.1234 20.8431 15.8424 20.7077 15.616C20.5723 15.3895 20.3279 15.2509 20.064 15.2509V16.0009ZM12 3.00088V3.75088V3.00088ZM3.055 11.7509H5V10.2509H3.055V11.7509ZM5 11.7509C5.33152 11.7509 5.64946 11.8826 5.88388 12.117L6.94454 11.0563C6.42882 10.5406 5.72935 10.2509 5 10.2509V11.7509ZM5.88388 12.117C6.1183 12.3514 6.25 12.6694 6.25 13.0009H7.75C7.75 12.2715 7.46027 11.5721 6.94454 11.0563L5.88388 12.117ZM6.25 13.0009V14.0009H7.75V13.0009H6.25ZM6.25 14.0009C6.25 14.7302 6.53973 15.4297 7.05546 15.9454L8.11612 14.8848C7.8817 14.6503 7.75 14.3324 7.75 14.0009H6.25ZM7.05546 15.9454C7.57118 16.4612 8.27065 16.7509 9 16.7509V15.2509C8.66848 15.2509 8.35054 15.1192 8.11612 14.8848L7.05546 15.9454ZM9 16.7509C9.33152 16.7509 9.64946 16.8826 9.88388 17.117L10.9445 16.0563C10.4288 15.5406 9.72935 15.2509 9 15.2509V16.7509ZM9.88388 17.117C10.1183 17.3514 10.25 17.6694 10.25 18.0009H11.75C11.75 17.2715 11.4603 16.5721 10.9445 16.0563L9.88388 17.117ZM10.25 18.0009V20.9459H11.75V18.0009H10.25ZM7.25 3.93588V5.50088H8.75V3.93588H7.25ZM7.25 5.50088C7.25 6.36284 7.59241 7.18949 8.2019 7.79898L9.26256 6.73832C8.93437 6.41013 8.75 5.96501 8.75 5.50088H7.25ZM8.2019 7.79898C8.8114 8.40847 9.63805 8.75088 10.5 8.75088V7.25088C10.0359 7.25088 9.59075 7.06651 9.26256 6.73832L8.2019 7.79898ZM10.5 8.75088H11V7.25088H10.5V8.75088ZM11 8.75088C11.3315 8.75088 11.6495 8.88258 11.8839 9.117L12.9445 8.05634C12.4288 7.54062 11.7293 7.25088 11 7.25088V8.75088ZM11.8839 9.117C12.1183 9.35142 12.25 9.66936 12.25 10.0009H13.75C13.75 9.27154 13.4603 8.57206 12.9445 8.05634L11.8839 9.117ZM12.25 10.0009C12.25 10.7302 12.5397 11.4297 13.0555 11.9454L14.1161 10.8848C13.8817 10.6503 13.75 10.3324 13.75 10.0009H12.25ZM13.0555 11.9454C13.5712 12.4612 14.2707 12.7509 15 12.7509V11.2509C14.6685 11.2509 14.3505 11.1192 14.1161 10.8848L13.0555 11.9454ZM15 12.7509C15.7293 12.7509 16.4288 12.4612 16.9445 11.9454L15.8839 10.8848C15.6495 11.1192 15.3315 11.2509 15 11.2509V12.7509ZM16.9445 11.9454C17.4603 11.4297 17.75 10.7302 17.75 10.0009H16.25C16.25 10.3324 16.1183 10.6503 15.8839 10.8848L16.9445 11.9454ZM17.75 10.0009C17.75 9.66936 17.8817 9.35142 18.1161 9.117L17.0555 8.05634C16.5397 8.57206 16.25 9.27154 16.25 10.0009H17.75ZM18.1161 9.117C18.3505 8.88258 18.6685 8.75088 19 8.75088V7.25088C18.2707 7.25088 17.5712 7.54062 17.0555 8.05634L18.1161 9.117ZM19 8.75088H20.064V7.25088H19V8.75088ZM15.75 20.4889V18.0009H14.25V20.4889H15.75ZM15.75 18.0009C15.75 17.6694 15.8817 17.3514 16.1161 17.117L15.0555 16.0563C14.5397 16.5721 14.25 17.2715 14.25 18.0009H15.75ZM16.1161 17.117C16.3505 16.8826 16.6685 16.7509 17 16.7509V15.2509C16.2707 15.2509 15.5712 15.5406 15.0555 16.0563L16.1161 17.117ZM17 16.7509H20.064V15.2509H17V16.7509ZM20.25 12.0009C20.25 13.0843 20.0366 14.1571 19.622 15.158L21.0078 15.732C21.4978 14.5491 21.75 13.2813 21.75 12.0009H20.25ZM19.622 15.158C19.2074 16.159 18.5997 17.0684 17.8336 17.8345L18.8943 18.8952C19.7997 17.9898 20.5178 16.915 21.0078 15.732L19.622 15.158ZM17.8336 17.8345C17.0675 18.6006 16.1581 19.2083 15.1571 19.6229L15.7312 21.0087C16.9141 20.5187 17.9889 19.8005 18.8943 18.8952L17.8336 17.8345ZM15.1571 19.6229C14.1562 20.0375 13.0834 20.2509 12 20.2509V21.7509C13.2804 21.7509 14.5482 21.4987 15.7312 21.0087L15.1571 19.6229ZM12 20.2509C10.9166 20.2509 9.8438 20.0375 8.84286 19.6229L8.26884 21.0087C9.45176 21.4987 10.7196 21.7509 12 21.7509V20.2509ZM8.84286 19.6229C7.84193 19.2083 6.93245 18.6006 6.16637 17.8345L5.10571 18.8952C6.01108 19.8005 7.08591 20.5187 8.26884 21.0087L8.84286 19.6229ZM6.16637 17.8345C5.40029 17.0684 4.7926 16.159 4.37799 15.158L2.99217 15.732C3.48216 16.915 4.20034 17.9898 5.10571 18.8952L6.16637 17.8345ZM4.37799 15.158C3.96339 14.1571 3.75 13.0843 3.75 12.0009H2.25C2.25 13.2813 2.50219 14.5491 2.99217 15.732L4.37799 15.158ZM3.75 12.0009C3.75 9.81285 4.61919 7.71443 6.16637 6.16725L5.10571 5.10659C3.27723 6.93507 2.25 9.41502 2.25 12.0009H3.75ZM6.16637 6.16725C7.71354 4.62008 9.81196 3.75088 12 3.75088V2.25088C9.41414 2.25088 6.93419 3.27811 5.10571 5.10659L6.16637 6.16725ZM12 3.75088C14.188 3.75088 16.2865 4.62008 17.8336 6.16725L18.8943 5.10659C17.0658 3.27811 14.5859 2.25088 12 2.25088V3.75088ZM17.8336 6.16725C19.3808 7.71443 20.25 9.81285 20.25 12.0009H21.75C21.75 9.41502 20.7228 6.93507 18.8943 5.10659L17.8336 6.16725ZM20.064 8.00088C20.7709 7.75018 20.7707 7.74982 20.7706 7.74944C20.7705 7.7493 20.7704 7.74891 20.7703 7.74862C20.7701 7.74806 20.7699 7.74745 20.7696 7.74679C20.7692 7.74547 20.7686 7.74397 20.768 7.74228C20.7668 7.73891 20.7653 7.73482 20.7635 7.73C20.7599 7.72038 20.7552 7.70791 20.7492 7.69273C20.7373 7.66237 20.7205 7.62114 20.6983 7.57017C20.6541 7.46829 20.5883 7.32725 20.4971 7.1562C20.3149 6.81433 20.0305 6.35086 19.6123 5.84012C18.7735 4.81551 17.4018 3.6074 15.2611 2.8125L14.7389 4.21869C16.5982 4.90908 17.7585 5.94361 18.4517 6.79032C18.7995 7.21525 19.0311 7.59461 19.1734 7.86165C19.2445 7.99506 19.2931 8.1 19.3226 8.16798C19.3374 8.20195 19.3473 8.22662 19.353 8.24093C19.3558 8.24808 19.3575 8.25264 19.3582 8.25446C19.3585 8.25537 19.3586 8.2556 19.3584 8.25512C19.3583 8.25489 19.3582 8.25448 19.358 8.25389C19.3579 8.25359 19.3577 8.25325 19.3576 8.25287C19.3575 8.25268 19.3574 8.25235 19.3574 8.25226C19.3573 8.25193 19.3571 8.25158 20.064 8.00088ZM15.2611 2.8125C13.0973 2.00906 11.1939 2.12106 9.8301 2.43826C9.14983 2.59648 8.60313 2.80573 8.22223 2.97796C8.03155 3.06419 7.88164 3.14149 7.77646 3.1991C7.72384 3.22791 7.68233 3.25185 7.65243 3.26956C7.63747 3.27842 7.62541 3.28573 7.6163 3.29132C7.61174 3.29412 7.60792 3.29649 7.60485 3.29841C7.60331 3.29937 7.60196 3.30022 7.6008 3.30095C7.60022 3.30132 7.59968 3.30165 7.5992 3.30196C7.59895 3.30212 7.59862 3.30233 7.5985 3.3024C7.59818 3.30261 7.59787 3.3028 8 3.93588C8.40213 4.56897 8.40184 4.56915 8.40157 4.56932C8.40149 4.56937 8.40123 4.56953 8.40108 4.56963C8.40077 4.56982 8.40051 4.56999 8.4003 4.57012C8.39986 4.5704 8.39961 4.57056 8.39953 4.57061C8.39937 4.57071 8.39992 4.57036 8.40116 4.5696C8.40365 4.56807 8.40892 4.56486 8.41691 4.56013C8.4329 4.55066 8.45975 4.5351 8.49698 4.51471C8.57149 4.47391 8.6872 4.41394 8.84027 4.34473C9.14687 4.20608 9.60017 4.03177 10.1699 3.89926C11.3061 3.63499 12.9027 3.53685 14.7389 4.21869L15.2611 2.8125ZM11 20.9459C11.1957 20.2219 11.1958 20.2219 11.1959 20.2219C11.196 20.2219 11.1961 20.222 11.1961 20.222C11.1962 20.222 11.1963 20.222 11.1963 20.222C11.1963 20.222 11.1961 20.222 11.1957 20.2219C11.1948 20.2216 11.1931 20.2212 11.1907 20.2205C11.1857 20.2191 11.1775 20.2168 11.1662 20.2136C11.1435 20.2071 11.1084 20.1969 11.062 20.1828C10.969 20.1547 10.8309 20.1113 10.6562 20.0517C10.3065 19.9323 9.81241 19.749 9.24282 19.4951C8.09631 18.9841 6.6788 18.2029 5.51278 17.1104L4.48722 18.2051C5.8212 19.4549 7.40369 20.3177 8.63218 20.8652C9.25009 21.1406 9.78724 21.3401 10.1719 21.4713C10.3644 21.537 10.5192 21.5858 10.6275 21.6185C10.6816 21.6349 10.7242 21.6473 10.754 21.6558C10.7689 21.6601 10.7807 21.6634 10.7891 21.6657C10.7933 21.6669 10.7967 21.6678 10.7993 21.6685C10.8005 21.6689 10.8016 21.6692 10.8024 21.6694C10.8029 21.6695 10.8032 21.6696 10.8035 21.6697C10.8037 21.6697 10.8039 21.6698 10.804 21.6698C10.8042 21.6699 10.8043 21.6699 11 20.9459ZM5.51278 17.1104C4.44807 16.1129 3.99844 14.6542 3.83405 13.3567C3.75318 12.7184 3.7449 12.146 3.75702 11.7337C3.76306 11.5282 3.77412 11.3641 3.7834 11.2536C3.78804 11.1984 3.79222 11.1567 3.79509 11.13C3.79652 11.1166 3.79763 11.107 3.79829 11.1014C3.79863 11.0986 3.79885 11.0968 3.79895 11.0959C3.799 11.0955 3.79902 11.0954 3.79901 11.0955C3.799 11.0955 3.79899 11.0957 3.79897 11.0958C3.79895 11.0959 3.79893 11.0961 3.79892 11.0962C3.7989 11.0964 3.79887 11.0966 3.055 11.0009C2.31113 10.9052 2.3111 10.9054 2.31106 10.9057C2.31105 10.9058 2.31101 10.9061 2.31098 10.9063C2.31093 10.9068 2.31086 10.9073 2.31079 10.9079C2.31065 10.909 2.31047 10.9104 2.31026 10.9121C2.30985 10.9154 2.30931 10.9198 2.30867 10.9253C2.30739 10.9361 2.30569 10.951 2.30366 10.9698C2.29962 11.0075 2.29432 11.0607 2.28867 11.1281C2.27736 11.2627 2.26459 11.454 2.25767 11.6896C2.24385 12.1595 2.25307 12.8121 2.34595 13.5452C2.52906 14.9906 3.05193 16.8603 4.48722 18.2051L5.51278 17.1104ZM20.064 16.0009C19.4033 15.6459 19.4034 15.6458 19.4034 15.6458C19.4034 15.6457 19.4035 15.6457 19.4035 15.6456C19.4035 15.6456 19.4035 15.6455 19.4035 15.6455C19.4036 15.6454 19.4035 15.6455 19.4035 15.6456C19.4033 15.646 19.4029 15.6466 19.4023 15.6477C19.4012 15.6499 19.3992 15.6535 19.3963 15.6587C19.3907 15.669 19.3818 15.6851 19.3697 15.7065C19.3456 15.7493 19.3091 15.8132 19.2614 15.8938C19.1657 16.0553 19.0258 16.2822 18.8511 16.5404C18.4965 17.0643 18.0204 17.6839 17.4996 18.1504L18.5004 19.2678C19.1534 18.6829 19.7093 17.9485 20.0933 17.3811C20.2879 17.0936 20.4439 16.8406 20.5518 16.6586C20.6058 16.5674 20.648 16.4936 20.6772 16.4418C20.6918 16.4158 20.7031 16.3953 20.7111 16.3808C20.7151 16.3736 20.7182 16.3678 20.7205 16.3636C20.7216 16.3615 20.7225 16.3598 20.7232 16.3585C20.7236 16.3579 20.7239 16.3573 20.7241 16.3569C20.7242 16.3567 20.7244 16.3565 20.7244 16.3563C20.7245 16.3562 20.7246 16.3561 20.7246 16.356C20.7246 16.3559 20.7247 16.3558 20.064 16.0009ZM17.4996 18.1504C16.9814 18.6146 16.2955 19.0255 15.7139 19.3278C15.4279 19.4764 15.1765 19.594 14.9976 19.6739C14.9083 19.7138 14.8375 19.7442 14.7899 19.7642C14.7661 19.7742 14.7482 19.7816 14.7367 19.7863C14.7309 19.7887 14.7268 19.7904 14.7243 19.7914C14.7231 19.7919 14.7223 19.7922 14.7219 19.7923C14.7217 19.7924 14.7217 19.7924 14.7217 19.7924C14.7217 19.7924 14.7218 19.7924 14.7218 19.7924C14.7219 19.7924 14.7219 19.7923 14.7219 19.7923C14.722 19.7923 14.7221 19.7923 15 20.4889C15.2779 21.1855 15.278 21.1855 15.2781 21.1854C15.2781 21.1854 15.2783 21.1854 15.2783 21.1853C15.2785 21.1853 15.2787 21.1852 15.279 21.1851C15.2794 21.1849 15.28 21.1846 15.2807 21.1844C15.2821 21.1838 15.2839 21.1831 15.2862 21.1822C15.2907 21.1803 15.297 21.1778 15.3049 21.1746C15.3207 21.1681 15.3432 21.1588 15.3716 21.1468C15.4285 21.1229 15.5095 21.0882 15.6097 21.0434C15.8099 20.9539 16.0885 20.8236 16.4057 20.6587C17.0307 20.3339 17.8448 19.855 18.5004 19.2678L17.4996 18.1504Z" fill="#1F2025"/>
</svg>
