<svg width="22" height="15" viewBox="0 0 22 15" fill="none" xmlns="http://www.w3.org/2000/svg">
<path fill-rule="evenodd" clip-rule="evenodd" d="M11.9319 2.20825C10.3816 2.20825 9.04055 3.11058 8.40806 4.42206C8.23801 4.77467 7.82538 4.93718 7.46055 4.79522C6.96982 4.60427 6.43535 4.49913 5.87454 4.49913C3.45808 4.49913 1.49914 6.45804 1.49914 8.87454C1.49914 11.291 3.45808 13.2499 5.87454 13.2499H17.5232C19.1677 13.2499 20.5008 11.9168 20.5008 10.2723C20.5008 8.62794 19.1677 7.29484 17.5232 7.29484C17.2557 7.29484 16.9974 7.32994 16.7524 7.39534C16.5122 7.45954 16.2558 7.40044 16.0679 7.23774C15.8799 7.07494 15.7849 6.82954 15.8141 6.58264C15.8321 6.43044 15.8413 6.27534 15.8413 6.11774C15.8413 3.95858 14.091 2.20825 11.9319 2.20825ZM7.37996 3.19396C8.3417 1.69967 10.0205 0.708252 11.9319 0.708252C14.8124 0.708252 17.1671 2.9597 17.3321 5.79883C17.3955 5.79616 17.4592 5.79481 17.5232 5.79481C19.9961 5.79481 22.0008 7.79944 22.0008 10.2723C22.0008 12.7452 19.9961 14.7499 17.5232 14.7499H5.87454C2.62965 14.7499 -0.000854492 12.1194 -0.000854492 8.87454C-0.000854492 5.62964 2.62965 2.99913 5.87454 2.99913C6.3942 2.99913 6.89892 3.06678 7.37996 3.19396Z" fill="#1F2025"/>
</svg>
