<svg width="16" height="18" viewBox="0 0 16 18" fill="none" xmlns="http://www.w3.org/2000/svg">
<path fill-rule="evenodd" clip-rule="evenodd" d="M8.6448 2.26387C8.2481 2.025 7.7519 2.025 7.3552 2.26387L6.8389 2.57476C5.45765 3.40647 3.90703 3.91683 2.30183 4.06806L1.97655 4.09871C1.84813 4.11081 1.75 4.21862 1.75 4.34761V5.99149C1.75 8.49902 2.76803 10.8991 4.57088 12.642L7.8262 15.789C7.9231 15.8826 8.0769 15.8826 8.1738 15.789L11.4291 12.642C13.232 10.8991 14.25 8.49902 14.25 5.99149V4.34761C14.25 4.21862 14.1519 4.11081 14.0235 4.09871L13.6982 4.06806C12.093 3.91683 10.5423 3.40647 9.1611 2.57476L8.6448 2.26387ZM6.5814 0.978849C7.4541 0.453339 8.5459 0.453339 9.4186 0.978849L9.9349 1.28974C11.1234 2.00539 12.4576 2.44455 13.8389 2.57468L14.1641 2.60532C15.0631 2.69001 15.75 3.4447 15.75 4.34761V5.99149C15.75 8.90562 14.5669 11.6949 12.4717 13.7204L9.2163 16.8674C8.538 17.5232 7.462 17.5232 6.7837 16.8674L3.52832 13.7204C1.43311 11.6949 0.25 8.90562 0.25 5.99149V4.34761C0.25 3.4447 0.93693 2.69001 1.83585 2.60532L2.16113 2.57468C3.54235 2.44455 4.87661 2.0054 6.0651 1.28974L6.5814 0.978849Z" fill="#1F2025"/>
</svg>
