<svg width="10" height="12" viewBox="0 0 10 12" fill="none" xmlns="http://www.w3.org/2000/svg">
<path fill-rule="evenodd" clip-rule="evenodd" d="M4.13501 1.5C4.02421 1.5 3.92187 1.55946 3.86701 1.65575L1.63637 5.57127C1.34069 6.09027 1.2166 6.68947 1.28185 7.28327L1.51727 9.42567C1.55917 9.80687 1.85841 10.1088 2.23921 10.1541L3.65057 10.322C4.58227 10.4329 5.52694 10.3367 6.41727 10.0406C6.85701 9.8944 7.20914 9.56067 7.37887 9.12947L8.51487 6.2424C8.54267 6.17187 8.56187 6.0982 8.57207 6.023C8.65821 5.38827 8.10261 4.8528 7.47147 4.96247L5.19427 5.35793C4.47494 5.48287 3.85367 4.84813 3.99407 4.13163L4.43767 1.86772C4.47501 1.67721 4.32914 1.5 4.13501 1.5ZM2.99814 1.16074C3.23085 0.75224 3.66486 0.500007 4.13501 0.5C4.95861 0.499993 5.57734 1.25179 5.41901 2.06001L4.97541 4.32391C4.97347 4.33361 4.97454 4.33954 4.97587 4.34379C4.97748 4.34903 4.98088 4.35517 4.98647 4.36087C4.99201 4.36656 4.99807 4.37007 5.00327 4.37183C5.00747 4.37325 5.01341 4.3744 5.02314 4.37271L7.30034 3.97719C8.59781 3.75185 9.74014 4.8526 9.56301 6.15753C9.54201 6.31207 9.50254 6.46347 9.44547 6.6086L8.30941 9.49567C8.03121 10.2026 7.45381 10.7497 6.73287 10.9895C5.70301 11.3321 4.61021 11.4432 3.53245 11.315L2.12109 11.1471C1.27828 11.0469 0.615968 10.3786 0.523261 9.53493L0.287835 7.39247C0.199555 6.58913 0.367435 5.77847 0.767488 5.0762L2.99814 1.16074Z" fill="#737373"/>
</svg>
