<svg width="16" height="16" viewBox="0 0 16 16" fill="none" xmlns="http://www.w3.org/2000/svg">
<path fill-rule="evenodd" clip-rule="evenodd" d="M5 7C5 5.34315 6.34315 4 8 4C9.65682 4 11 5.34315 11 7C11 8.65688 9.65682 10 8 10C6.34315 10 5 8.65688 5 7ZM8 4.94737C6.86638 4.94737 5.94737 5.86636 5.94737 7C5.94737 8.13362 6.86638 9.05263 8 9.05263C9.13362 9.05263 10.0526 8.13362 10.0526 7C10.0526 5.86636 9.13362 4.94737 8 4.94737Z" fill="#1F2025"/>
<path fill-rule="evenodd" clip-rule="evenodd" d="M3.01778 6.41681C3.22607 3.92088 5.33764 2 7.87304 2H8.12698C10.6624 2 12.7739 3.92088 12.9822 6.41681C13.0941 7.75759 12.6748 9.08893 11.8127 10.1304L8.9952 13.534C8.48085 14.1553 7.51916 14.1553 7.00481 13.534L4.18733 10.1304C3.32518 9.08893 2.90589 7.75759 3.01778 6.41681ZM7.87304 2.87095C5.79652 2.87095 4.06713 4.44418 3.89654 6.48837C3.80342 7.60425 4.15238 8.71227 4.86992 9.57911L7.6874 12.9827C7.84899 13.1778 8.15102 13.1778 8.31261 12.9827L11.1301 9.57911C11.8476 8.71227 12.1966 7.60425 12.1035 6.48837C11.9329 4.44418 10.2035 2.87095 8.12698 2.87095H7.87304Z" fill="#1F2025"/>
</svg>
