<svg width="251" height="52" viewBox="0 0 251 52" fill="none" xmlns="http://www.w3.org/2000/svg">
<path d="M67.5276 16.6664C67.3153 16.6664 67.1029 16.5952 66.8906 16.3815C66.749 16.239 66.6074 16.0253 66.6074 15.7404V13.176C66.6074 12.9623 66.6782 12.7486 66.8906 12.5349C67.0321 12.3925 67.2445 12.25 67.5276 12.25H70.7837C71.0668 12.25 71.2792 12.3212 71.4207 12.5349C71.5623 12.6774 71.7039 12.8911 71.7039 13.176V15.7404C71.7039 15.9541 71.6331 16.1678 71.4207 16.3815C71.2792 16.524 71.0668 16.6664 70.7837 16.6664H67.5276ZM67.6692 38.5349C67.4568 38.5349 67.2445 38.4637 67.0321 38.25C66.8906 38.1075 66.749 37.8938 66.749 37.6089V20.6555C66.749 20.4418 66.8198 20.2281 67.0321 20.0144C67.1737 19.8719 67.386 19.7295 67.6692 19.7295H70.6421C70.9252 19.7295 71.1376 19.8007 71.2792 20.0144C71.4207 20.1569 71.4915 20.3706 71.4915 20.6555V37.6801C71.4915 37.8938 71.4207 38.1075 71.2792 38.3212C71.1376 38.4637 70.9252 38.6062 70.6421 38.6062H67.6692V38.5349Z" fill="#064EBE"/>
<path d="M84.7285 38.5354C83.3128 38.5354 82.1095 38.2504 81.1185 37.7518C80.1276 37.2532 79.4197 36.4696 78.9242 35.4724C78.4287 34.4751 78.2164 33.2641 78.2164 31.7683V23.6477H75.385C75.1727 23.6477 74.9603 23.5765 74.748 23.3628C74.6064 23.2203 74.4648 23.0066 74.4648 22.7217V20.6559C74.4648 20.4422 74.5356 20.2285 74.748 20.0148C74.8895 19.8724 75.1019 19.7299 75.385 19.7299H78.2164V13.7463C78.2164 13.5326 78.2872 13.3189 78.4288 13.1052C78.5703 12.9628 78.7827 12.8203 79.0658 12.8203H81.9679C82.1803 12.8203 82.3926 12.8915 82.605 13.1052C82.7466 13.2477 82.8881 13.4614 82.8881 13.7463V19.7299H87.3475C87.5599 19.7299 87.7722 19.8011 87.9846 20.0148C88.1262 20.1573 88.2677 20.371 88.2677 20.6559V22.7217C88.2677 23.0066 88.1969 23.2203 87.9846 23.3628C87.843 23.5052 87.6307 23.6477 87.3475 23.6477H82.8881V31.4833C82.8881 32.4806 83.0297 33.2641 83.3836 33.7628C83.7375 34.2614 84.3038 34.6176 85.224 34.6176H87.7014C87.9138 34.6176 88.1262 34.6888 88.3385 34.9025C88.4801 35.045 88.6216 35.2587 88.6216 35.5436V37.7518C88.6216 37.9655 88.5509 38.1792 88.3385 38.3929C88.1969 38.5354 87.9846 38.6778 87.7014 38.6778H84.7285V38.5354Z" fill="#064EBE"/>
<path d="M104.972 38.532C104.618 38.532 104.406 38.4608 104.193 38.2471C104.052 38.1046 103.91 37.8909 103.769 37.606L98.6723 20.8663C98.6723 20.7238 98.6016 20.6526 98.6016 20.5101C98.6016 20.2964 98.6723 20.0827 98.8139 19.9403C98.9555 19.7978 99.1678 19.7266 99.3094 19.7266H101.928C102.212 19.7266 102.424 19.7978 102.636 19.9403C102.778 20.0827 102.919 20.2252 102.919 20.3677L106.459 32.3348L110.21 20.5101C110.281 20.3677 110.352 20.154 110.564 20.0115C110.706 19.7978 110.989 19.7266 111.343 19.7266H113.112C113.466 19.7266 113.679 19.7978 113.891 20.0115C114.032 20.2252 114.174 20.3677 114.245 20.5101L117.996 32.3348L121.536 20.3677C121.536 20.2252 121.677 20.0827 121.819 19.9403C121.96 19.7978 122.173 19.7266 122.456 19.7266H125.075C125.287 19.7266 125.499 19.7978 125.641 19.9403C125.783 20.0827 125.853 20.2964 125.853 20.5101C125.853 20.5814 125.853 20.7238 125.783 20.8663L120.686 37.606C120.615 37.8909 120.474 38.1046 120.332 38.2471C120.12 38.3896 119.908 38.532 119.554 38.532H117.218C116.935 38.532 116.651 38.4608 116.439 38.2471C116.227 38.1046 116.085 37.8909 116.014 37.606L112.263 26.2088L108.511 37.606C108.441 37.8909 108.299 38.1046 108.087 38.2471C107.874 38.3896 107.662 38.532 107.308 38.532H104.972Z" fill="#064EBE"/>
<path d="M137.533 38.9622C135.621 38.9622 133.993 38.606 132.719 37.9649C131.445 37.3238 130.454 36.3266 129.746 35.1156C129.038 33.9047 128.685 32.48 128.614 30.8416C128.614 30.4143 128.543 29.8444 128.543 29.2745C128.543 28.6334 128.543 28.1348 128.614 27.7074C128.685 26.069 129.109 24.6444 129.817 23.3622C130.525 22.1512 131.516 21.2252 132.861 20.5129C134.135 19.8718 135.763 19.5156 137.603 19.5156C139.444 19.5156 141.072 19.8718 142.346 20.5129C143.62 21.154 144.682 22.1512 145.39 23.3622C146.097 24.5732 146.522 25.9978 146.593 27.7074C146.593 28.1348 146.664 28.7047 146.664 29.2745C146.664 29.9156 146.664 30.4143 146.593 30.8416C146.522 32.48 146.097 33.9047 145.46 35.1156C144.752 36.3266 143.762 37.3238 142.487 37.9649C141.072 38.606 139.444 38.9622 137.533 38.9622ZM137.533 35.3293C138.807 35.3293 139.798 34.9019 140.505 34.1184C141.213 33.3348 141.567 32.1238 141.638 30.5567C141.638 30.2006 141.709 29.7019 141.709 29.1321C141.709 28.5622 141.709 28.0636 141.638 27.7074C141.567 26.1403 141.213 24.9293 140.505 24.1458C139.798 23.3622 138.807 22.9348 137.533 22.9348C136.258 22.9348 135.267 23.3622 134.56 24.1458C133.852 24.9293 133.498 26.1403 133.427 27.7074C133.427 28.0636 133.356 28.5622 133.356 29.1321C133.356 29.7019 133.356 30.2006 133.427 30.5567C133.498 32.1238 133.852 33.3348 134.56 34.1184C135.267 34.9732 136.258 35.3293 137.533 35.3293Z" fill="#064EBE"/>
<path d="M151.335 38.535C151.123 38.535 150.911 38.4638 150.698 38.2501C150.557 38.1076 150.415 37.8939 150.415 37.609V20.7268C150.415 20.4419 150.486 20.2282 150.698 20.0857C150.84 19.9432 151.052 19.8008 151.335 19.8008H154.237C154.45 19.8008 154.662 19.872 154.874 20.0857C155.087 20.2282 155.158 20.4419 155.158 20.7268V22.2227C155.724 21.4391 156.432 20.8693 157.281 20.4419C158.13 20.0145 159.192 19.8008 160.325 19.8008H161.811C162.094 19.8008 162.307 19.872 162.448 20.0857C162.59 20.2282 162.661 20.4419 162.661 20.7268V23.2912C162.661 23.5049 162.59 23.7186 162.448 23.9323C162.307 24.0748 162.094 24.2172 161.811 24.2172H158.98C157.847 24.2172 156.927 24.5022 156.29 25.1432C155.653 25.7843 155.37 26.7104 155.37 27.8501V37.7515C155.37 37.9652 155.299 38.1789 155.087 38.3926C154.945 38.535 154.733 38.6775 154.45 38.6775H151.335V38.535Z" fill="#064EBE"/>
<path d="M166.342 38.5345C166.13 38.5345 165.917 38.4632 165.705 38.2495C165.563 38.1071 165.422 37.8934 165.422 37.6084V13.8167C165.422 13.603 165.493 13.3893 165.705 13.1756C165.847 13.0331 166.059 12.8906 166.342 12.8906H169.315C169.527 12.8906 169.74 12.9619 169.952 13.1756C170.094 13.318 170.235 13.5317 170.235 13.8167V37.6797C170.235 37.8934 170.164 38.1071 169.952 38.3208C169.81 38.4632 169.598 38.6057 169.315 38.6057H166.342V38.5345Z" fill="#064EBE"/>
<path d="M181.914 38.9619C180.64 38.9619 179.578 38.7482 178.658 38.3208C177.738 37.8934 176.959 37.3235 176.322 36.5399C175.685 35.7564 175.19 34.8303 174.907 33.8331C174.553 32.7646 174.411 31.6249 174.34 30.4139C174.34 29.9865 174.27 29.5591 174.27 29.2742C174.27 28.9893 174.27 28.5619 174.34 28.1345C174.411 26.9235 174.553 25.7838 174.907 24.7865C175.261 23.718 175.685 22.8632 176.322 22.0797C176.959 21.2961 177.738 20.655 178.658 20.2276C179.578 19.8002 180.711 19.5865 181.914 19.5865C183.188 19.5865 184.321 19.8002 185.17 20.2276C186.09 20.655 186.798 21.2249 187.435 21.9372V13.8167C187.435 13.603 187.506 13.3893 187.648 13.1756C187.789 13.0331 188.002 12.8906 188.285 12.8906H191.328C191.541 12.8906 191.753 12.9619 191.966 13.1756C192.107 13.318 192.249 13.5317 192.249 13.8167V37.6797C192.249 37.8934 192.178 38.1071 191.966 38.3208C191.824 38.4632 191.612 38.6057 191.328 38.6057H188.497C188.214 38.6057 188.002 38.5345 187.86 38.3208C187.718 38.1783 187.648 37.9646 187.648 37.6797V36.3262C187.081 37.0386 186.303 37.6797 185.383 38.1783C184.392 38.6769 183.259 38.9619 181.914 38.9619ZM183.188 35.044C184.179 35.044 184.958 34.8303 185.595 34.3317C186.161 33.9043 186.657 33.2632 186.94 32.5509C187.223 31.8386 187.365 31.1262 187.435 30.3427C187.435 29.9153 187.506 29.4167 187.506 28.918C187.506 28.4194 187.506 27.992 187.435 27.4934C187.435 26.781 187.223 26.0687 186.94 25.4276C186.657 24.7865 186.161 24.2167 185.595 23.7893C185.029 23.3619 184.25 23.1482 183.259 23.1482C182.268 23.1482 181.489 23.3619 180.852 23.7893C180.286 24.2167 179.861 24.7865 179.578 25.5701C179.295 26.2824 179.154 27.066 179.083 27.9208C179.083 28.6331 179.083 29.3454 179.083 30.0577C179.154 30.9125 179.295 31.6961 179.578 32.4084C179.861 33.1208 180.286 33.6906 180.852 34.1893C181.419 34.8303 182.197 35.044 183.188 35.044Z" fill="#064EBE"/>
<path d="M206.335 38.5335C206.123 38.5335 205.911 38.4623 205.769 38.3198C205.627 38.1774 205.557 37.9637 205.557 37.75V13.7445C205.557 13.5308 205.627 13.3171 205.769 13.1746C205.911 13.0322 206.123 12.9609 206.335 12.9609H208.034C208.317 12.9609 208.53 13.0322 208.671 13.1746C208.813 13.3171 208.883 13.5308 208.883 13.7445V37.6787C208.883 37.8924 208.813 38.1061 208.671 38.2486C208.53 38.3911 208.317 38.4623 208.034 38.4623H206.335V38.5335Z" fill="black"/>
<path d="M219.359 38.9631C218.155 38.9631 217.094 38.7494 216.103 38.2508C215.112 37.7522 214.333 37.1111 213.767 36.3275C213.201 35.5439 212.847 34.6179 212.847 33.5494C212.847 31.9111 213.484 30.5576 214.829 29.5604C216.174 28.5631 217.943 27.922 220.067 27.6371L225.375 26.8535V25.785C225.375 24.6453 225.022 23.7193 224.384 23.0782C223.747 22.4371 222.686 22.0809 221.199 22.0809C220.137 22.0809 219.288 22.2946 218.651 22.722C218.014 23.1494 217.518 23.7193 217.235 24.3604C217.094 24.7165 216.811 24.9302 216.457 24.9302H214.829C214.545 24.9302 214.333 24.859 214.262 24.7165C214.121 24.5741 214.05 24.3604 214.05 24.1467C214.05 23.7905 214.192 23.3631 214.475 22.7933C214.758 22.2946 215.183 21.7248 215.749 21.2261C216.315 20.7275 217.023 20.3001 217.943 19.9439C218.863 19.5878 219.925 19.4453 221.199 19.4453C222.615 19.4453 223.818 19.659 224.809 20.0152C225.8 20.3713 226.579 20.87 227.145 21.5111C227.711 22.1522 228.136 22.8645 228.348 23.648C228.632 24.4316 228.702 25.2152 228.702 26.07V37.7522C228.702 37.9659 228.632 38.1796 228.49 38.322C228.348 38.4645 228.136 38.5357 227.924 38.5357H226.296C226.012 38.5357 225.8 38.4645 225.659 38.322C225.517 38.1796 225.446 37.9659 225.446 37.7522V36.185C225.163 36.6124 224.738 37.0398 224.172 37.4672C223.677 37.8946 222.969 38.2508 222.19 38.5357C221.482 38.8207 220.491 38.9631 219.359 38.9631ZM220.137 36.2563C221.128 36.2563 222.049 36.0426 222.827 35.6152C223.606 35.1878 224.314 34.5467 224.738 33.6207C225.234 32.7659 225.446 31.6261 225.446 30.2727V29.2754L221.27 29.9165C219.571 30.1302 218.297 30.5576 217.448 31.1275C216.598 31.6974 216.174 32.4097 216.174 33.2645C216.174 33.9056 216.386 34.4755 216.74 34.9741C217.165 35.4015 217.66 35.7576 218.226 35.9713C218.863 36.1138 219.5 36.2563 220.137 36.2563Z" fill="black"/>
<path d="M243.142 38.9609C241.727 38.9609 240.523 38.676 239.532 38.1774C238.541 37.6787 237.834 37.0377 237.267 36.2541V37.75C237.267 37.9637 237.197 38.1774 237.055 38.3198C236.913 38.4623 236.701 38.5335 236.489 38.5335H234.861C234.648 38.5335 234.436 38.4623 234.294 38.3198C234.153 38.1774 234.082 37.9637 234.082 37.75V13.7445C234.082 13.5308 234.153 13.3171 234.294 13.1746C234.436 13.0322 234.648 12.9609 234.861 12.9609H236.63C236.843 12.9609 237.055 13.0322 237.197 13.1746C237.338 13.3171 237.409 13.5308 237.409 13.7445V22.0787C237.975 21.3664 238.754 20.7253 239.745 20.2267C240.665 19.7281 241.868 19.4431 243.213 19.4431C244.558 19.4431 245.691 19.6568 246.611 20.1555C247.531 20.6541 248.31 21.2952 248.947 22.0787C249.584 22.8623 250.008 23.7883 250.362 24.8568C250.645 25.9253 250.858 26.9938 250.929 28.1335C250.929 28.4897 250.999 28.8459 250.999 29.202C250.999 29.5582 250.999 29.9144 250.929 30.2705C250.858 31.4103 250.716 32.55 250.362 33.5472C250.079 34.6157 249.584 35.4705 248.947 36.3253C248.31 37.1089 247.531 37.75 246.611 38.2486C245.62 38.676 244.487 38.9609 243.142 38.9609ZM242.435 36.0404C243.709 36.0404 244.629 35.7555 245.337 35.2568C246.045 34.687 246.54 33.9746 246.894 33.1198C247.177 32.265 247.389 31.2678 247.46 30.2705C247.46 29.5582 247.46 28.8459 247.46 28.2048C247.389 27.2075 247.248 26.2815 246.894 25.3555C246.611 24.5007 246.045 23.7883 245.337 23.2185C244.629 22.6486 243.638 22.4349 242.435 22.4349C241.302 22.4349 240.382 22.7198 239.603 23.2185C238.895 23.7171 238.329 24.4294 237.904 25.213C237.55 25.9966 237.338 26.8514 237.338 27.7061C237.338 28.0623 237.267 28.5609 237.267 29.1308C237.267 29.7007 237.267 30.1281 237.338 30.5555C237.409 31.4103 237.55 32.3363 237.904 33.1911C238.258 34.0459 238.754 34.7582 239.532 35.3281C240.311 35.7555 241.231 36.0404 242.435 36.0404Z" fill="black"/>
<path d="M37.7279 0H18.9701C15.5725 0 12.3872 1.85206 10.6884 4.84384L1.27411 21.1562C-0.424704 24.1479 -0.424704 27.8521 1.27411 30.8438L10.6176 47.1562C12.3164 50.1479 15.5017 52 18.8993 52H37.6571C41.0547 52 44.24 50.1479 45.9388 47.1562L55.2823 30.8438C56.9811 27.8521 56.9811 24.1479 55.2823 21.1562L46.0096 4.84384C44.3108 1.85206 41.1255 0 37.7279 0Z" fill="#064EBE"/>
<path d="M39.8633 36.0795C39.2971 36.6493 38.66 36.7206 34.8377 36.7206C29.5997 36.7206 29.5289 36.7206 27.7593 36.7206C25.7065 36.7918 23.3707 36.863 19.8315 36.7206C17.7079 36.6493 17.2125 36.5069 16.717 36.0795C15.6552 35.1534 15.9384 33.5151 16.5046 28.5288C16.8585 25.1096 16.8585 24.611 17.5664 19.6959C18.1327 15.2082 18.4158 13.8548 19.5483 13.2137C19.8315 13.0712 20.0438 13 23.1583 13C25.0695 13 26.4144 13 27.5469 13C30.4491 13 31.7232 13 31.7232 13C35.05 13 35.1208 13 35.4747 13.1425C36.678 13.7123 37.032 15.0658 37.9522 20.1233C38.8016 24.6822 38.8016 24.9671 39.4386 28.5288C40.3588 33.8712 40.7127 35.1534 39.8633 36.0795Z" fill="white" stroke="white" stroke-width="6" stroke-miterlimit="10"/>
<path d="M22.5293 20.0123C25.7854 21.8643 29.6785 21.8643 32.9346 20.0123C34.1379 19.3712 33.0761 17.5191 31.8728 18.1602C29.3246 19.5849 26.2101 19.5849 23.5911 18.1602C22.3878 17.4479 21.326 19.2999 22.5293 20.0123Z" fill="#064EBE"/>
</svg>
