<svg width="69" height="34" viewBox="0 0 69 34" fill="none" xmlns="http://www.w3.org/2000/svg">
<path d="M35.8039 29.3751C34.4704 29.2868 32.9327 29.0547 31.7199 28.706C31.4927 28.6406 30.5522 28.2973 30.3129 28.1883C26.0907 26.2463 23.1493 22.0071 23.1493 17.0889C23.1493 10.3432 28.6765 4.84847 35.4746 4.84847C42.2124 4.84847 47.7023 10.2494 47.7967 16.9189H52.2494C52.155 7.81268 44.6687 0.432678 35.4746 0.432678C26.2257 0.432678 18.6977 7.90313 18.6977 17.0889C18.6977 23.4216 22.2844 28.9294 27.5361 31.7432C28.4844 32.2412 29.8453 32.7545 30.3074 32.8951C31.8044 33.3375 33.6417 33.6318 35.2771 33.7549C35.8324 33.7963 37.7718 33.8181 38.337 33.8203H69V29.4165H38.3886C37.9814 29.4165 36.2023 29.4012 35.8039 29.3751ZM38.3886 22.4604C38.0648 22.4604 36.3713 22.4495 36.0585 22.4234C35.5284 22.3787 34.7601 22.3002 34.2662 22.188C33.7087 22.0398 33.1852 21.8436 32.9492 21.715C31.2952 20.8268 30.168 19.0897 30.168 17.0889C30.168 14.1781 32.542 11.8176 35.4746 11.8176C38.3458 11.8176 40.6802 14.0855 40.7735 16.9189H45.0517C44.9617 11.7424 40.7121 7.57075 35.4746 7.57075C30.179 7.57075 25.8865 11.8318 25.8865 17.0889C25.8865 20.7963 28.0267 23.9981 31.1437 25.5663C31.6234 25.8453 32.5255 26.1374 32.7824 26.2038C33.6626 26.4338 34.8446 26.5907 35.8039 26.6604C36.1584 26.6899 37.8947 26.703 38.2613 26.7051V26.7117H68.9989V22.4604H38.3886ZM15.9538 33.804H11.4715V4.85828H4.92136V0.406525H15.9538V33.804ZM0 7.08253V11.3632H4.92136V33.804H9.2281V7.08253H0Z" fill="#C4161C"/>
</svg>
