<svg width="118" height="58" viewBox="0 0 118 58" fill="none" xmlns="http://www.w3.org/2000/svg">
<path d="M61.2298 50.2687C58.9493 50.1155 56.3197 49.7127 54.2457 49.1075C53.8572 48.9941 52.2486 48.3984 51.8394 48.2093C44.6188 44.8393 39.5886 37.483 39.5886 28.9485C39.5886 17.2426 49.0409 7.70776 60.6667 7.70776C72.1893 7.70776 81.5778 17.08 81.7392 28.6535H89.354C89.1926 12.8515 76.3899 0.0450554 60.6667 0.0450554C44.8497 0.0450554 31.9757 13.0085 31.9757 28.9485C31.9757 39.9376 38.1096 49.4952 47.0908 54.378C48.7124 55.2422 51.0399 56.1329 51.8301 56.3769C54.3902 57.1447 57.5322 57.6553 60.3289 57.869C61.2786 57.9408 64.5952 57.9786 65.5618 57.9824H118V50.3405H65.65C64.9537 50.3405 61.9111 50.314 61.2298 50.2687ZM65.65 38.2697C65.0963 38.2697 62.2002 38.2508 61.6653 38.2054C60.7587 38.1279 59.4448 37.9917 58.6002 37.7969C57.6467 37.5397 56.7514 37.1993 56.3479 36.9762C53.5193 35.4349 51.5917 32.4205 51.5917 28.9485C51.5917 23.8974 55.6515 19.8013 60.6667 19.8013C65.5768 19.8013 69.5691 23.7366 69.7286 28.6535H77.045C76.8911 19.6708 69.6235 12.4317 60.6667 12.4317C51.6105 12.4317 44.2697 19.8259 44.2697 28.9485C44.2697 35.382 47.9298 40.938 53.2603 43.6593C54.0805 44.1434 55.6234 44.6502 56.0626 44.7656C57.5679 45.1646 59.5894 45.4369 61.2298 45.558C61.8361 45.609 64.8054 45.6317 65.4323 45.6355V45.6468H117.998V38.2697H65.65ZM27.2833 57.9541H19.6179V7.72478H8.41624V-0.000331879H27.2833V57.9541ZM0 11.5845V19.0127H8.41624V57.9541H15.7814V11.5845H0Z" fill="#C4161C"/>
</svg>
