<svg width="24" height="24" viewBox="0 0 24 24" fill="none" xmlns="http://www.w3.org/2000/svg">
<path fill-rule="evenodd" clip-rule="evenodd" d="M19.75 12C19.75 11.5858 19.4142 11.25 19 11.25H10.75C10.3358 11.25 10 11.5858 10 12C10 12.4142 10.3358 12.75 10.75 12.75H19C19.4142 12.75 19.75 12.4142 19.75 12Z" fill="#1F2025"/>
<path fill-rule="evenodd" clip-rule="evenodd" d="M19.75 7C19.75 6.58579 19.4142 6.25 19 6.25H5C4.58579 6.25 4.25 6.58579 4.25 7C4.25 7.41421 4.58579 7.75 5 7.75H19C19.4142 7.75 19.75 7.41421 19.75 7Z" fill="#1F2025"/>
<path fill-rule="evenodd" clip-rule="evenodd" d="M19.75 17C19.75 16.5858 19.4142 16.25 19 16.25H16C15.5858 16.25 15.25 16.5858 15.25 17C15.25 17.4142 15.5858 17.75 16 17.75H19C19.4142 17.75 19.75 17.4142 19.75 17Z" fill="#1F2025"/>
</svg>
