<svg width="24" height="24" viewBox="0 0 24 24" fill="none" xmlns="http://www.w3.org/2000/svg">
<path fill-rule="evenodd" clip-rule="evenodd" d="M13.0527 2.40682C16.3336 2.92484 18.75 5.75272 18.75 9.07421V14.9256C18.75 18.2471 16.3336 21.0749 13.0527 21.593C12.3552 21.7031 11.6448 21.7031 10.9473 21.593C7.6664 21.0749 5.25 18.2471 5.25 14.9256V9.07422C5.25 5.75272 7.6664 2.92484 10.9473 2.40682C11.6448 2.29668 12.3552 2.29668 13.0527 2.40682ZM17.25 9.07421C17.25 6.49083 15.3706 4.29137 12.8188 3.88846C12.7959 3.88484 12.773 3.88138 12.75 3.87806V9.24989H17.25V9.07421ZM11.25 9.24989H6.75V9.07422C6.75 6.49083 8.62943 4.29137 11.1812 3.88846C11.2041 3.88484 11.227 3.88138 11.25 3.87806V9.24989ZM6.75 14.9256V10.7499H17.25V14.9256C17.25 17.5089 15.3706 19.7084 12.8188 20.1113C12.2763 20.197 11.7237 20.197 11.1812 20.1113C8.62942 19.7084 6.75 17.5089 6.75 14.9256Z" fill="#353535"/>
</svg>
