<svg width="22" height="18" viewBox="0 0 22 18" fill="none" xmlns="http://www.w3.org/2000/svg">
<path fill-rule="evenodd" clip-rule="evenodd" d="M10.9999 0.749756L18.2735 0.955416C19.5587 0.991756 20.6218 1.96741 20.7679 3.24481C21.0914 6.07242 21.0914 8.92767 20.7679 11.7553C20.6218 13.0327 19.5587 14.0084 18.2735 14.0447L12.7499 14.2009V16.2501H15.9999C16.4141 16.2501 16.7499 16.5859 16.7499 17.0001C16.7499 17.4143 16.4141 17.7501 15.9999 17.7501H5.99994C5.58573 17.7501 5.24994 17.4143 5.24994 17.0001C5.24994 16.5859 5.58573 16.2501 5.99994 16.2501H9.24994V14.2009L3.7263 14.0447C2.44108 14.0084 1.37806 13.0327 1.2319 11.7553C0.908378 8.92767 0.908378 6.07242 1.2319 3.24481C1.37806 1.96741 2.44108 0.991756 3.7263 0.955416L10.9999 0.749756ZM10.9999 2.25036L3.76869 2.45482C3.22948 2.47006 2.7835 2.87939 2.72218 3.41532C2.41162 6.12963 2.41162 8.87047 2.72218 11.5848C2.7835 12.1208 3.22948 12.5301 3.76869 12.5453L10.9999 12.7498L18.2311 12.5453C18.7703 12.5301 19.2163 12.1208 19.2776 11.5848C19.5882 8.87047 19.5882 6.12963 19.2776 3.41532C19.2163 2.8794 18.7703 2.47006 18.2311 2.45482L10.9999 2.25036Z" fill="#1F2025"/>
</svg>
