<svg width="24" height="24" viewBox="0 0 24 24" fill="none" xmlns="http://www.w3.org/2000/svg">
<path fill-rule="evenodd" clip-rule="evenodd" d="M18.5 11.25C17.2275 11.25 16.1285 12.14 15.864 13.3847L15.8418 13.4891C15.7739 13.8088 15.7619 14.1379 15.8064 14.4617L15.9594 15.5744C15.9023 15.5813 15.8451 15.5885 15.788 15.5959C14.9083 15.7102 14.25 16.4595 14.25 17.3466V19.6534C14.25 20.5405 14.9083 21.2899 15.788 21.4041C17.5884 21.6379 19.4116 21.6379 21.212 21.4041C22.0917 21.2899 22.75 20.5405 22.75 19.6534V17.3466C22.75 16.4595 22.0917 15.7102 21.212 15.5959C21.1549 15.5885 21.0977 15.5813 21.0406 15.5744L21.1936 14.4617C21.2381 14.1379 21.2261 13.8088 21.1582 13.4891L21.136 13.3847C20.8715 12.14 19.7724 11.25 18.5 11.25ZM19.5441 15.4464L19.7076 14.2574C19.7284 14.1054 19.7228 13.951 19.6909 13.8009L19.6688 13.6965C19.5515 13.1446 19.0642 12.75 18.5 12.75C17.9358 12.75 17.4485 13.1446 17.3312 13.6965L17.3091 13.8009C17.2772 13.951 17.2715 14.1054 17.2924 14.2574L17.4559 15.4464C18.1515 15.4119 18.8484 15.4119 19.5441 15.4464ZM15.9812 17.0834C17.6534 16.8663 19.3466 16.8663 21.0188 17.0834C21.151 17.1006 21.25 17.2132 21.25 17.3466V19.6534C21.25 19.7868 21.151 19.8994 21.0188 19.9166C19.3466 20.1338 17.6534 20.1338 15.9812 19.9166C15.849 19.8994 15.75 19.7868 15.75 19.6534V17.3466C15.75 17.2132 15.849 17.1006 15.9812 17.0834Z" fill="#737373"/>
<path d="M12.7499 18.3653C12.7499 18.1984 12.6137 18.0637 12.4467 18.0647C10.6033 18.0763 8.75951 18.0163 6.91956 17.8846L5.40556 17.7763C4.89208 17.7396 4.46856 17.36 4.37603 16.8536C3.9664 14.6116 3.89627 12.3208 4.168 10.058L4.44048 7.78888C4.51167 7.19611 5.01455 6.75 5.61158 6.75H7.90314C8.34319 6.75 8.69991 7.10672 8.69991 7.54677C8.69991 8.13183 9.1742 8.60612 9.75927 8.60612H18.4721C19.0413 8.60612 19.5261 9.0197 19.6158 9.58178L19.6292 9.66531C19.6536 9.8182 19.7646 9.94169 19.9104 9.99377C20.262 10.1194 20.5932 10.2908 20.896 10.5016C21.0467 10.6066 21.2676 10.4888 21.2433 10.3067C21.2183 10.1198 21.1909 9.93317 21.1612 9.74679L21.0971 9.34535C20.8912 8.05533 19.7785 7.10612 18.4721 7.10612H10.1577C9.95217 6.04846 9.0209 5.25 7.90314 5.25H5.61158C4.25529 5.25 3.11289 6.26343 2.95118 7.61004L2.6787 9.87915C2.38904 12.2913 2.46379 14.7333 2.90046 17.1232C3.11598 18.3027 4.10249 19.1869 5.29851 19.2725L6.81252 19.3808C8.69019 19.5151 10.5718 19.5764 12.453 19.5647C12.6175 19.5637 12.7499 19.4298 12.7499 19.2653V18.3653Z" fill="#737373"/>
</svg>
