<svg width="12" height="12" viewBox="0 0 12 12" fill="none" xmlns="http://www.w3.org/2000/svg">
<path fill-rule="evenodd" clip-rule="evenodd" d="M7.59004 8.01609C5.82317 9.43122 3.23689 9.31982 1.59903 7.68195C-0.158334 5.92462 -0.158334 3.07538 1.59903 1.31802C3.35639 -0.43934 6.20564 -0.43934 7.96297 1.31802C9.60084 2.95587 9.71224 5.54215 8.2971 7.30902L11.7342 10.7461C11.9295 10.9414 11.9295 11.258 11.7342 11.4532C11.539 11.6485 11.2224 11.6485 11.0271 11.4532L7.59004 8.01609ZM2.30613 6.97489C0.939299 5.60802 0.939299 3.39196 2.30613 2.02513C3.67297 0.658293 5.88904 0.658293 7.2559 2.02513C8.62171 3.39096 8.6227 5.60475 7.2589 6.97189C7.25791 6.97289 7.2569 6.97382 7.25584 6.97489C7.25484 6.97589 7.25384 6.97689 7.2529 6.97789C5.88577 8.34169 3.67197 8.34069 2.30613 6.97489Z" fill="#1F2025"/>
</svg>
