<svg width="24" height="24" viewBox="0 0 24 24" fill="none" xmlns="http://www.w3.org/2000/svg">
<path d="M2.46967 11.4697C2.17678 11.7626 2.17678 12.2374 2.46967 12.5303C2.76256 12.8232 3.23744 12.8232 3.53033 12.5303L2.46967 11.4697ZM12 3L12.5303 2.46967C12.2374 2.17678 11.7626 2.17678 11.4697 2.46967L12 3ZM20.4697 12.5303C20.7626 12.8232 21.2374 12.8232 21.5303 12.5303C21.8232 12.2374 21.8232 11.7626 21.5303 11.4697L20.4697 12.5303ZM3.53033 12.5303L5.53033 10.5303L4.46967 9.46967L2.46967 11.4697L3.53033 12.5303ZM5.53033 10.5303L12.5303 3.53033L11.4697 2.46967L4.46967 9.46967L5.53033 10.5303ZM11.4697 3.53033L18.4697 10.5303L19.5303 9.46967L12.5303 2.46967L11.4697 3.53033ZM4.25 10V20H5.75V10H4.25ZM4.25 20C4.25 20.4641 4.43437 20.9092 4.76256 21.2374L5.82322 20.1768C5.77634 20.1299 5.75 20.0663 5.75 20H4.25ZM4.76256 21.2374C5.09075 21.5656 5.53587 21.75 6 21.75V20.25C5.93369 20.25 5.87011 20.2237 5.82322 20.1768L4.76256 21.2374ZM18.4697 10.5303L20.4697 12.5303L21.5303 11.4697L19.5303 9.46967L18.4697 10.5303ZM18.25 10V20H19.75V10H18.25ZM18.25 20C18.25 20.0663 18.2237 20.1299 18.1768 20.1768L19.2374 21.2374C19.5656 20.9092 19.75 20.4641 19.75 20H18.25ZM18.1768 20.1768C18.1299 20.2237 18.0663 20.25 18 20.25V21.75C18.4641 21.75 18.9092 21.5656 19.2374 21.2374L18.1768 20.1768ZM9 21.75C9.71421 21.75 10.241 21.4664 10.5248 20.974C10.7621 20.5623 10.75 20.1192 10.75 20H9.25C9.25 20.0662 9.24918 20.1127 9.24237 20.1589C9.23564 20.2047 9.22633 20.223 9.22523 20.2249C9.2252 20.225 9.22574 20.224 9.22697 20.2224C9.22823 20.2208 9.22983 20.2189 9.23167 20.2171C9.23609 20.2128 9.23775 20.2127 9.23246 20.2155C9.22223 20.2208 9.15944 20.25 9 20.25V21.75ZM10.75 20V16H9.25V20H10.75ZM10.75 16C10.75 15.9337 10.7763 15.8701 10.8232 15.8232L9.76256 14.7626C9.43437 15.0908 9.25 15.5359 9.25 16H10.75ZM10.8232 15.8232C10.8701 15.7763 10.9337 15.75 11 15.75V14.25C10.5359 14.25 10.0908 14.4344 9.76256 14.7626L10.8232 15.8232ZM11 15.75H13V14.25H11V15.75ZM13 15.75C13.0663 15.75 13.1299 15.7763 13.1768 15.8232L14.2374 14.7626C13.9092 14.4344 13.4641 14.25 13 14.25V15.75ZM13.1768 15.8232C13.2237 15.8701 13.25 15.9337 13.25 16H14.75C14.75 15.5359 14.5656 15.0908 14.2374 14.7626L13.1768 15.8232ZM13.25 16V20H14.75V16H13.25ZM13.25 20C13.25 20.1192 13.2379 20.5623 13.4752 20.974C13.759 21.4664 14.2858 21.75 15 21.75V20.25C14.8406 20.25 14.7778 20.2208 14.7675 20.2155C14.7622 20.2127 14.7639 20.2128 14.7683 20.2171C14.7702 20.2189 14.7718 20.2208 14.773 20.2224C14.7743 20.224 14.7748 20.225 14.7748 20.2249C14.7737 20.223 14.7644 20.2047 14.7576 20.1589C14.7508 20.1127 14.75 20.0662 14.75 20H13.25ZM6 21C6 21.75 6.00001 21.75 6.00002 21.75C6.00004 21.75 6.00006 21.75 6.00009 21.75C6.00012 21.75 6.00016 21.75 6.00021 21.75C6.00025 21.75 6.0003 21.75 6.00036 21.75C6.00043 21.75 6.00049 21.75 6.00057 21.75C6.00065 21.75 6.00073 21.75 6.00082 21.75C6.00091 21.75 6.00101 21.75 6.00111 21.75C6.00122 21.75 6.00133 21.75 6.00145 21.75C6.00157 21.75 6.0017 21.75 6.00184 21.75C6.00197 21.75 6.00212 21.75 6.00227 21.75C6.00242 21.75 6.00257 21.75 6.00274 21.75C6.0029 21.75 6.00308 21.75 6.00326 21.75C6.00344 21.75 6.00362 21.75 6.00382 21.75C6.00401 21.75 6.00422 21.75 6.00442 21.75C6.00463 21.75 6.00485 21.75 6.00507 21.75C6.0053 21.75 6.00553 21.75 6.00577 21.75C6.00601 21.75 6.00625 21.75 6.0065 21.75C6.00676 21.75 6.00702 21.75 6.00729 21.75C6.00755 21.75 6.00783 21.75 6.00811 21.75C6.00839 21.75 6.00868 21.75 6.00898 21.75C6.00927 21.75 6.00958 21.75 6.00989 21.75C6.0102 21.75 6.01051 21.75 6.01084 21.75C6.01116 21.75 6.0115 21.75 6.01184 21.75C6.01218 21.75 6.01252 21.75 6.01287 21.75C6.01323 21.75 6.01359 21.75 6.01396 21.75C6.01432 21.75 6.0147 21.75 6.01508 21.75C6.01546 21.75 6.01585 21.75 6.01625 21.75C6.01664 21.75 6.01704 21.75 6.01745 21.75C6.01786 21.75 6.01828 21.75 6.0187 21.75C6.01913 21.75 6.01956 21.75 6.02 21.75C6.02043 21.75 6.02088 21.75 6.02133 21.75C6.02178 21.75 6.02224 21.75 6.02271 21.75C6.02317 21.75 6.02364 21.75 6.02412 21.75C6.0246 21.75 6.02509 21.75 6.02558 21.75C6.02607 21.75 6.02657 21.75 6.02708 21.75C6.02759 21.75 6.0281 21.75 6.02862 21.75C6.02914 21.75 6.02967 21.75 6.0302 21.75C6.03074 21.75 6.03128 21.75 6.03182 21.75C6.03237 21.75 6.03293 21.75 6.03349 21.75C6.03405 21.75 6.03462 21.75 6.03519 21.75C6.03577 21.75 6.03635 21.75 6.03693 21.75C6.03752 21.75 6.03812 21.75 6.03872 21.75C6.03932 21.75 6.03993 21.75 6.04054 21.75C6.04116 21.75 6.04178 21.75 6.04241 21.75C6.04304 21.75 6.04367 21.75 6.04431 21.75C6.04495 21.75 6.0456 21.75 6.04626 21.75C6.04691 21.75 6.04757 21.75 6.04824 21.75C6.04891 21.75 6.04958 21.75 6.05026 21.75C6.05094 21.75 6.05163 21.75 6.05232 21.75C6.05302 21.75 6.05372 21.75 6.05443 21.75C6.05513 21.75 6.05585 21.75 6.05657 21.75C6.05729 21.75 6.05801 21.75 6.05875 21.75C6.05948 21.75 6.06022 21.75 6.06097 21.75C6.06171 21.75 6.06246 21.75 6.06322 21.75C6.06398 21.75 6.06475 21.75 6.06552 21.75C6.06629 21.75 6.06707 21.75 6.06785 21.75C6.06864 21.75 6.06943 21.75 6.07022 21.75C6.07102 21.75 6.07183 21.75 6.07263 21.75C6.07344 21.75 6.07426 21.75 6.07508 21.75C6.07591 21.75 6.07673 21.75 6.07757 21.75C6.0784 21.75 6.07925 21.75 6.08009 21.75C6.08094 21.75 6.08179 21.75 6.08266 21.75C6.08352 21.75 6.08438 21.75 6.08525 21.75C6.08613 21.75 6.08701 21.75 6.08789 21.75C6.08878 21.75 6.08967 21.75 6.09056 21.75C6.09146 21.75 6.09237 21.75 6.09327 21.75C6.09418 21.75 6.0951 21.75 6.09602 21.75C6.09694 21.75 6.09787 21.75 6.09881 21.75C6.09974 21.75 6.10068 21.75 6.10163 21.75C6.10257 21.75 6.10353 21.75 6.10449 21.75C6.10544 21.75 6.10641 21.75 6.10738 21.75C6.10835 21.75 6.10933 21.75 6.11031 21.75C6.11129 21.75 6.11228 21.75 6.11328 21.75C6.11427 21.75 6.11527 21.75 6.11628 21.75C6.11729 21.75 6.1183 21.75 6.11932 21.75C6.12034 21.75 6.12136 21.75 6.12239 21.75C6.12342 21.75 6.12446 21.75 6.1255 21.75C6.12654 21.75 6.12759 21.75 6.12864 21.75C6.1297 21.75 6.13076 21.75 6.13182 21.75C6.13289 21.75 6.13396 21.75 6.13504 21.75C6.13612 21.75 6.1372 21.75 6.13829 21.75C6.13938 21.75 6.14048 21.75 6.14158 21.75C6.14268 21.75 6.14378 21.75 6.1449 21.75C6.14601 21.75 6.14713 21.75 6.14825 21.75C6.14937 21.75 6.1505 21.75 6.15164 21.75C6.15278 21.75 6.15392 21.75 6.15506 21.75C6.15621 21.75 6.15736 21.75 6.15852 21.75C6.15968 21.75 6.16084 21.75 6.16201 21.75C6.16318 21.75 6.16436 21.75 6.16554 21.75C6.16672 21.75 6.16791 21.75 6.1691 21.75C6.17029 21.75 6.17149 21.75 6.17269 21.75C6.1739 21.75 6.17511 21.75 6.17632 21.75C6.17754 21.75 6.17876 21.75 6.17998 21.75C6.18121 21.75 6.18244 21.75 6.18368 21.75C6.18491 21.75 6.18615 21.75 6.1874 21.75C6.18865 21.75 6.1899 21.75 6.19116 21.75C6.19242 21.75 6.19369 21.75 6.19496 21.75C6.19622 21.75 6.1975 21.75 6.19878 21.75C6.20006 21.75 6.20135 21.75 6.20264 21.75C6.20393 21.75 6.20523 21.75 6.20653 21.75C6.20783 21.75 6.20914 21.75 6.21045 21.75C6.21177 21.75 6.21308 21.75 6.21441 21.75C6.21573 21.75 6.21706 21.75 6.2184 21.75C6.21973 21.75 6.22107 21.75 6.22242 21.75C6.22376 21.75 6.22511 21.75 6.22647 21.75C6.22782 21.75 6.22918 21.75 6.23055 21.75C6.23192 21.75 6.23329 21.75 6.23466 21.75C6.23604 21.75 6.23742 21.75 6.23881 21.75C6.2402 21.75 6.24159 21.75 6.24299 21.75C6.24439 21.75 6.24579 21.75 6.2472 21.75C6.2486 21.75 6.25002 21.75 6.25144 21.75C6.25285 21.75 6.25428 21.75 6.25571 21.75C6.25714 21.75 6.25857 21.75 6.26001 21.75C6.26145 21.75 6.26289 21.75 6.26434 21.75C6.26579 21.75 6.26724 21.75 6.2687 21.75C6.27016 21.75 6.27163 21.75 6.27309 21.75C6.27456 21.75 6.27604 21.75 6.27752 21.75C6.279 21.75 6.28048 21.75 6.28197 21.75C6.28346 21.75 6.28495 21.75 6.28645 21.75C6.28795 21.75 6.28946 21.75 6.29097 21.75C6.29248 21.75 6.29399 21.75 6.29551 21.75C6.29703 21.75 6.29855 21.75 6.30008 21.75C6.30161 21.75 6.30314 21.75 6.30468 21.75C6.30622 21.75 6.30776 21.75 6.30931 21.75C6.31086 21.75 6.31241 21.75 6.31397 21.75C6.31553 21.75 6.31709 21.75 6.31866 21.75C6.32023 21.75 6.3218 21.75 6.32338 21.75C6.32496 21.75 6.32654 21.75 6.32812 21.75C6.32971 21.75 6.3313 21.75 6.3329 21.75C6.3345 21.75 6.3361 21.75 6.3377 21.75C6.33931 21.75 6.34092 21.75 6.34254 21.75C6.34415 21.75 6.34577 21.75 6.3474 21.75C6.34902 21.75 6.35065 21.75 6.35228 21.75C6.35392 21.75 6.35556 21.75 6.3572 21.75C6.35884 21.75 6.36049 21.75 6.36214 21.75C6.3638 21.75 6.36545 21.75 6.36712 21.75C6.36878 21.75 6.37044 21.75 6.37211 21.75C6.37379 21.75 6.37546 21.75 6.37714 21.75C6.37882 21.75 6.38051 21.75 6.38219 21.75C6.38388 21.75 6.38558 21.75 6.38728 21.75C6.38897 21.75 6.39068 21.75 6.39238 21.75C6.39409 21.75 6.3958 21.75 6.39752 21.75C6.39923 21.75 6.40095 21.75 6.40268 21.75C6.4044 21.75 6.40613 21.75 6.40787 21.75C6.4096 21.75 6.41134 21.75 6.41308 21.75C6.41482 21.75 6.41657 21.75 6.41832 21.75C6.42007 21.75 6.42183 21.75 6.42359 21.75C6.42535 21.75 6.42711 21.75 6.42888 21.75C6.43065 21.75 6.43242 21.75 6.4342 21.75C6.43598 21.75 6.43776 21.75 6.43955 21.75C6.44133 21.75 6.44312 21.75 6.44492 21.75C6.44671 21.75 6.44851 21.75 6.45031 21.75C6.45212 21.75 6.45392 21.75 6.45573 21.75C6.45755 21.75 6.45936 21.75 6.46118 21.75C6.463 21.75 6.46483 21.75 6.46665 21.75C6.46848 21.75 6.47031 21.75 6.47215 21.75C6.47399 21.75 6.47583 21.75 6.47767 21.75C6.47952 21.75 6.48137 21.75 6.48322 21.75C6.48507 21.75 6.48693 21.75 6.48879 21.75C6.49065 21.75 6.49252 21.75 6.49438 21.75C6.49625 21.75 6.49813 21.75 6.5 21.75C6.50188 21.75 6.50376 21.75 6.50565 21.75C6.50753 21.75 6.50942 21.75 6.51132 21.75C6.51321 21.75 6.51511 21.75 6.51701 21.75C6.51891 21.75 6.52081 21.75 6.52272 21.75C6.52463 21.75 6.52655 21.75 6.52846 21.75C6.53038 21.75 6.5323 21.75 6.53423 21.75C6.53615 21.75 6.53808 21.75 6.54001 21.75C6.54194 21.75 6.54388 21.75 6.54582 21.75C6.54776 21.75 6.54971 21.75 6.55165 21.75C6.5536 21.75 6.55555 21.75 6.55751 21.75C6.55947 21.75 6.56143 21.75 6.56339 21.75C6.56535 21.75 6.56732 21.75 6.56929 21.75C6.57126 21.75 6.57323 21.75 6.57521 21.75C6.57719 21.75 6.57917 21.75 6.58116 21.75C6.58315 21.75 6.58513 21.75 6.58713 21.75C6.58912 21.75 6.59112 21.75 6.59312 21.75C6.59512 21.75 6.59712 21.75 6.59913 21.75C6.60114 21.75 6.60315 21.75 6.60517 21.75C6.60718 21.75 6.6092 21.75 6.61122 21.75C6.61324 21.75 6.61527 21.75 6.6173 21.75C6.61933 21.75 6.62136 21.75 6.6234 21.75C6.62544 21.75 6.62748 21.75 6.62952 21.75C6.63156 21.75 6.63361 21.75 6.63566 21.75C6.63771 21.75 6.63977 21.75 6.64183 21.75C6.64388 21.75 6.64594 21.75 6.64801 21.75C6.65007 21.75 6.65214 21.75 6.65421 21.75C6.65629 21.75 6.65836 21.75 6.66044 21.75C6.66252 21.75 6.6646 21.75 6.66669 21.75C6.66877 21.75 6.67086 21.75 6.67295 21.75C6.67505 21.75 6.67714 21.75 6.67924 21.75C6.68134 21.75 6.68344 21.75 6.68555 21.75C6.68765 21.75 6.68976 21.75 6.69187 21.75C6.69399 21.75 6.6961 21.75 6.69822 21.75C6.70034 21.75 6.70246 21.75 6.70459 21.75C6.70671 21.75 6.70884 21.75 6.71097 21.75C6.71311 21.75 6.71524 21.75 6.71738 21.75C6.71952 21.75 6.72166 21.75 6.72381 21.75C6.72595 21.75 6.7281 21.75 6.73025 21.75C6.7324 21.75 6.73456 21.75 6.73671 21.75C6.73887 21.75 6.74103 21.75 6.7432 21.75C6.74536 21.75 6.74753 21.75 6.7497 21.75C6.75187 21.75 6.75404 21.75 6.75622 21.75C6.75839 21.75 6.76057 21.75 6.76276 21.75C6.76494 21.75 6.76712 21.75 6.76931 21.75C6.7715 21.75 6.77369 21.75 6.77589 21.75C6.77808 21.75 6.78028 21.75 6.78248 21.75C6.78468 21.75 6.78689 21.75 6.78909 21.75C6.7913 21.75 6.79351 21.75 6.79572 21.75C6.79794 21.75 6.80015 21.75 6.80237 21.75C6.80459 21.75 6.80681 21.75 6.80903 21.75C6.81126 21.75 6.81349 21.75 6.81572 21.75C6.81795 21.75 6.82018 21.75 6.82242 21.75C6.82465 21.75 6.82689 21.75 6.82913 21.75C6.83137 21.75 6.83362 21.75 6.83587 21.75C6.83811 21.75 6.84036 21.75 6.84262 21.75C6.84487 21.75 6.84713 21.75 6.84938 21.75C6.85164 21.75 6.8539 21.75 6.85617 21.75C6.85843 21.75 6.8607 21.75 6.86297 21.75C6.86524 21.75 6.86751 21.75 6.86979 21.75C6.87206 21.75 6.87434 21.75 6.87662 21.75C6.8789 21.75 6.88118 21.75 6.88347 21.75C6.88576 21.75 6.88804 21.75 6.89034 21.75C6.89263 21.75 6.89492 21.75 6.89722 21.75C6.89951 21.75 6.90181 21.75 6.90411 21.75C6.90642 21.75 6.90872 21.75 6.91103 21.75C6.91333 21.75 6.91564 21.75 6.91795 21.75C6.92027 21.75 6.92258 21.75 6.9249 21.75C6.92722 21.75 6.92954 21.75 6.93186 21.75C6.93418 21.75 6.9365 21.75 6.93883 21.75C6.94116 21.75 6.94349 21.75 6.94582 21.75C6.94815 21.75 6.95049 21.75 6.95282 21.75C6.95516 21.75 6.9575 21.75 6.95984 21.75C6.96218 21.75 6.96453 21.75 6.96687 21.75C6.96922 21.75 6.97157 21.75 6.97392 21.75C6.97627 21.75 6.97863 21.75 6.98098 21.75C6.98334 21.75 6.9857 21.75 6.98806 21.75C6.99042 21.75 6.99278 21.75 6.99515 21.75C6.99751 21.75 6.99988 21.75 7.00225 21.75C7.00462 21.75 7.00699 21.75 7.00937 21.75C7.01174 21.75 7.01412 21.75 7.0165 21.75C7.01888 21.75 7.02126 21.75 7.02364 21.75C7.02603 21.75 7.02841 21.75 7.0308 21.75C7.03319 21.75 7.03558 21.75 7.03797 21.75C7.04036 21.75 7.04276 21.75 7.04516 21.75C7.04755 21.75 7.04995 21.75 7.05235 21.75C7.05475 21.75 7.05716 21.75 7.05956 21.75C7.06197 21.75 7.06437 21.75 7.06678 21.75C7.06919 21.75 7.0716 21.75 7.07402 21.75C7.07643 21.75 7.07885 21.75 7.08127 21.75C7.08368 21.75 7.0861 21.75 7.08852 21.75C7.09095 21.75 7.09337 21.75 7.0958 21.75C7.09822 21.75 7.10065 21.75 7.10308 21.75C7.10551 21.75 7.10794 21.75 7.11037 21.75C7.11281 21.75 7.11524 21.75 7.11768 21.75C7.12012 21.75 7.12256 21.75 7.125 21.75C7.12744 21.75 7.12988 21.75 7.13233 21.75C7.13478 21.75 7.13722 21.75 7.13967 21.75C7.14212 21.75 7.14457 21.75 7.14702 21.75C7.14948 21.75 7.15193 21.75 7.15439 21.75C7.15684 21.75 7.1593 21.75 7.16176 21.75C7.16422 21.75 7.16668 21.75 7.16915 21.75C7.17161 21.75 7.17408 21.75 7.17654 21.75C7.17901 21.75 7.18148 21.75 7.18395 21.75C7.18642 21.75 7.18889 21.75 7.19137 21.75C7.19384 21.75 7.19631 21.75 7.19879 21.75C7.20127 21.75 7.20375 21.75 7.20623 21.75C7.20871 21.75 7.21119 21.75 7.21368 21.75C7.21616 21.75 7.21865 21.75 7.22113 21.75C7.22362 21.75 7.22611 21.75 7.2286 21.75C7.23109 21.75 7.23358 21.75 7.23608 21.75C7.23857 21.75 7.24106 21.75 7.24356 21.75C7.24606 21.75 7.24856 21.75 7.25106 21.75C7.25356 21.75 7.25606 21.75 7.25856 21.75C7.26106 21.75 7.26357 21.75 7.26607 21.75C7.26858 21.75 7.27109 21.75 7.27359 21.75C7.2761 21.75 7.27861 21.75 7.28113 21.75C7.28364 21.75 7.28615 21.75 7.28866 21.75C7.29118 21.75 7.29369 21.75 7.29621 21.75C7.29873 21.75 7.30125 21.75 7.30377 21.75C7.30629 21.75 7.30881 21.75 7.31133 21.75C7.31386 21.75 7.31638 21.75 7.3189 21.75C7.32143 21.75 7.32396 21.75 7.32649 21.75C7.32901 21.75 7.33154 21.75 7.33407 21.75C7.3366 21.75 7.33914 21.75 7.34167 21.75C7.3442 21.75 7.34674 21.75 7.34927 21.75C7.35181 21.75 7.35435 21.75 7.35688 21.75C7.35942 21.75 7.36196 21.75 7.3645 21.75C7.36704 21.75 7.36958 21.75 7.37213 21.75C7.37467 21.75 7.37721 21.75 7.37976 21.75C7.3823 21.75 7.38485 21.75 7.3874 21.75C7.38995 21.75 7.3925 21.75 7.39504 21.75C7.39759 21.75 7.40015 21.75 7.4027 21.75C7.40525 21.75 7.4078 21.75 7.41036 21.75C7.41291 21.75 7.41547 21.75 7.41802 21.75C7.42058 21.75 7.42314 21.75 7.42569 21.75C7.42825 21.75 7.43081 21.75 7.43337 21.75C7.43593 21.75 7.43849 21.75 7.44105 21.75C7.44362 21.75 7.44618 21.75 7.44874 21.75C7.45131 21.75 7.45387 21.75 7.45644 21.75C7.45901 21.75 7.46157 21.75 7.46414 21.75C7.46671 21.75 7.46928 21.75 7.47185 21.75C7.47442 21.75 7.47699 21.75 7.47956 21.75C7.48213 21.75 7.4847 21.75 7.48727 21.75C7.48985 21.75 7.49242 21.75 7.495 21.75C7.49757 21.75 7.50015 21.75 7.50272 21.75C7.5053 21.75 7.50788 21.75 7.51045 21.75C7.51303 21.75 7.51561 21.75 7.51819 21.75C7.52077 21.75 7.52335 21.75 7.52593 21.75C7.52851 21.75 7.53109 21.75 7.53367 21.75C7.53626 21.75 7.53884 21.75 7.54142 21.75C7.54401 21.75 7.54659 21.75 7.54918 21.75C7.55176 21.75 7.55435 21.75 7.55693 21.75C7.55952 21.75 7.56211 21.75 7.56469 21.75C7.56728 21.75 7.56987 21.75 7.57246 21.75C7.57505 21.75 7.57763 21.75 7.58022 21.75C7.58281 21.75 7.5854 21.75 7.588 21.75C7.59059 21.75 7.59318 21.75 7.59577 21.75C7.59836 21.75 7.60095 21.75 7.60355 21.75C7.60614 21.75 7.60873 21.75 7.61133 21.75C7.61392 21.75 7.61652 21.75 7.61911 21.75C7.62171 21.75 7.6243 21.75 7.6269 21.75C7.62949 21.75 7.63209 21.75 7.63469 21.75C7.63728 21.75 7.63988 21.75 7.64248 21.75C7.64507 21.75 7.64767 21.75 7.65027 21.75C7.65287 21.75 7.65547 21.75 7.65807 21.75C7.66067 21.75 7.66326 21.75 7.66586 21.75C7.66846 21.75 7.67106 21.75 7.67366 21.75C7.67626 21.75 7.67886 21.75 7.68147 21.75C7.68407 21.75 7.68667 21.75 7.68927 21.75C7.69187 21.75 7.69447 21.75 7.69707 21.75C7.69968 21.75 7.70228 21.75 7.70488 21.75C7.70748 21.75 7.71008 21.75 7.71269 21.75C7.71529 21.75 7.71789 21.75 7.72049 21.75C7.7231 21.75 7.7257 21.75 7.7283 21.75C7.73091 21.75 7.73351 21.75 7.73611 21.75C7.73872 21.75 7.74132 21.75 7.74393 21.75C7.74653 21.75 7.74913 21.75 7.75174 21.75C7.75434 21.75 7.75694 21.75 7.75955 21.75C7.76215 21.75 7.76476 21.75 7.76736 21.75C7.76997 21.75 7.77257 21.75 7.77517 21.75C7.77778 21.75 7.78038 21.75 7.78299 21.75C7.78559 21.75 7.78819 21.75 7.7908 21.75C7.7934 21.75 7.79601 21.75 7.79861 21.75C7.80121 21.75 7.80382 21.75 7.80642 21.75C7.80903 21.75 7.81163 21.75 7.81423 21.75C7.81684 21.75 7.81944 21.75 7.82204 21.75C7.82465 21.75 7.82725 21.75 7.82985 21.75C7.83246 21.75 7.83506 21.75 7.83766 21.75C7.84027 21.75 7.84287 21.75 7.84547 21.75C7.84807 21.75 7.85068 21.75 7.85328 21.75C7.85588 21.75 7.85848 21.75 7.86108 21.75C7.86369 21.75 7.86629 21.75 7.86889 21.75C7.87149 21.75 7.87409 21.75 7.87669 21.75C7.87929 21.75 7.88189 21.75 7.88449 21.75C7.88709 21.75 7.88969 21.75 7.89229 21.75C7.89489 21.75 7.89749 21.75 7.90009 21.75C7.90269 21.75 7.90528 21.75 7.90788 21.75C7.91048 21.75 7.91308 21.75 7.91568 21.75C7.91827 21.75 7.92087 21.75 7.92347 21.75C7.92606 21.75 7.92866 21.75 7.93125 21.75C7.93385 21.75 7.93644 21.75 7.93904 21.75C7.94163 21.75 7.94423 21.75 7.94682 21.75C7.94941 21.75 7.95201 21.75 7.9546 21.75C7.95719 21.75 7.95979 21.75 7.96238 21.75C7.96497 21.75 7.96756 21.75 7.97015 21.75C7.97274 21.75 7.97533 21.75 7.97792 21.75C7.98051 21.75 7.9831 21.75 7.98569 21.75C7.98828 21.75 7.99086 21.75 7.99345 21.75C7.99604 21.75 7.99862 21.75 8.00121 21.75C8.0038 21.75 8.00638 21.75 8.00897 21.75C8.01155 21.75 8.01413 21.75 8.01672 21.75C8.0193 21.75 8.02188 21.75 8.02446 21.75C8.02705 21.75 8.02963 21.75 8.03221 21.75C8.03479 21.75 8.03737 21.75 8.03995 21.75C8.04252 21.75 8.0451 21.75 8.04768 21.75C8.05026 21.75 8.05283 21.75 8.05541 21.75C8.05799 21.75 8.06056 21.75 8.06313 21.75C8.06571 21.75 8.06828 21.75 8.07085 21.75C8.07343 21.75 8.076 21.75 8.07857 21.75C8.08114 21.75 8.08371 21.75 8.08628 21.75C8.08885 21.75 8.09142 21.75 8.09398 21.75C8.09655 21.75 8.09912 21.75 8.10168 21.75C8.10425 21.75 8.10681 21.75 8.10938 21.75C8.11194 21.75 8.1145 21.75 8.11706 21.75C8.11962 21.75 8.12218 21.75 8.12474 21.75C8.1273 21.75 8.12986 21.75 8.13242 21.75C8.13498 21.75 8.13753 21.75 8.14009 21.75C8.14264 21.75 8.1452 21.75 8.14775 21.75C8.15031 21.75 8.15286 21.75 8.15541 21.75C8.15796 21.75 8.16051 21.75 8.16306 21.75C8.16561 21.75 8.16816 21.75 8.1707 21.75C8.17325 21.75 8.1758 21.75 8.17834 21.75C8.18089 21.75 8.18343 21.75 8.18597 21.75C8.18851 21.75 8.19105 21.75 8.19359 21.75C8.19613 21.75 8.19867 21.75 8.20121 21.75C8.20375 21.75 8.20628 21.75 8.20882 21.75C8.21135 21.75 8.21389 21.75 8.21642 21.75C8.21895 21.75 8.22148 21.75 8.22401 21.75C8.22654 21.75 8.22907 21.75 8.2316 21.75C8.23413 21.75 8.23665 21.75 8.23918 21.75C8.2417 21.75 8.24422 21.75 8.24675 21.75C8.24927 21.75 8.25179 21.75 8.25431 21.75C8.25683 21.75 8.25934 21.75 8.26186 21.75C8.26438 21.75 8.26689 21.75 8.26941 21.75C8.27192 21.75 8.27443 21.75 8.27694 21.75C8.27945 21.75 8.28196 21.75 8.28447 21.75C8.28698 21.75 8.28948 21.75 8.29199 21.75C8.29449 21.75 8.297 21.75 8.2995 21.75C8.302 21.75 8.3045 21.75 8.307 21.75C8.3095 21.75 8.312 21.75 8.31449 21.75C8.31699 21.75 8.31948 21.75 8.32197 21.75C8.32447 21.75 8.32696 21.75 8.32945 21.75C8.33194 21.75 8.33442 21.75 8.33691 21.75C8.3394 21.75 8.34188 21.75 8.34436 21.75C8.34685 21.75 8.34933 21.75 8.35181 21.75C8.35429 21.75 8.35676 21.75 8.35924 21.75C8.36172 21.75 8.36419 21.75 8.36666 21.75C8.36914 21.75 8.37161 21.75 8.37408 21.75C8.37655 21.75 8.37901 21.75 8.38148 21.75C8.38395 21.75 8.38641 21.75 8.38887 21.75C8.39133 21.75 8.3938 21.75 8.39625 21.75C8.39871 21.75 8.40117 21.75 8.40362 21.75C8.40608 21.75 8.40853 21.75 8.41098 21.75C8.41344 21.75 8.41588 21.75 8.41833 21.75C8.42078 21.75 8.42323 21.75 8.42567 21.75C8.42811 21.75 8.43056 21.75 8.433 21.75C8.43544 21.75 8.43787 21.75 8.44031 21.75C8.44275 21.75 8.44518 21.75 8.44761 21.75C8.45005 21.75 8.45248 21.75 8.45491 21.75C8.45733 21.75 8.45976 21.75 8.46218 21.75C8.46461 21.75 8.46703 21.75 8.46945 21.75C8.47187 21.75 8.47429 21.75 8.47671 21.75C8.47912 21.75 8.48154 21.75 8.48395 21.75C8.48636 21.75 8.48877 21.75 8.49118 21.75C8.49359 21.75 8.49599 21.75 8.4984 21.75C8.5008 21.75 8.5032 21.75 8.5056 21.75C8.508 21.75 8.5104 21.75 8.5128 21.75C8.51519 21.75 8.51758 21.75 8.51998 21.75C8.52237 21.75 8.52476 21.75 8.52714 21.75C8.52953 21.75 8.53191 21.75 8.53429 21.75C8.53668 21.75 8.53906 21.75 8.54143 21.75C8.54381 21.75 8.54619 21.75 8.54856 21.75C8.55093 21.75 8.5533 21.75 8.55567 21.75C8.55804 21.75 8.56041 21.75 8.56277 21.75C8.56514 21.75 8.5675 21.75 8.56986 21.75C8.57222 21.75 8.57457 21.75 8.57693 21.75C8.57928 21.75 8.58163 21.75 8.58398 21.75C8.58633 21.75 8.58868 21.75 8.59103 21.75C8.59337 21.75 8.59571 21.75 8.59805 21.75C8.60039 21.75 8.60273 21.75 8.60507 21.75C8.6074 21.75 8.60974 21.75 8.61207 21.75C8.6144 21.75 8.61672 21.75 8.61905 21.75C8.62138 21.75 8.6237 21.75 8.62602 21.75C8.62834 21.75 8.63066 21.75 8.63297 21.75C8.63529 21.75 8.6376 21.75 8.63991 21.75C8.64222 21.75 8.64453 21.75 8.64683 21.75C8.64914 21.75 8.65144 21.75 8.65374 21.75C8.65604 21.75 8.65834 21.75 8.66063 21.75C8.66293 21.75 8.66522 21.75 8.66751 21.75C8.6698 21.75 8.67209 21.75 8.67437 21.75C8.67665 21.75 8.67894 21.75 8.68121 21.75C8.68349 21.75 8.68577 21.75 8.68804 21.75C8.69032 21.75 8.69259 21.75 8.69485 21.75C8.69712 21.75 8.69939 21.75 8.70165 21.75C8.70391 21.75 8.70617 21.75 8.70843 21.75C8.71069 21.75 8.71294 21.75 8.71519 21.75C8.71744 21.75 8.71969 21.75 8.72194 21.75C8.72418 21.75 8.72642 21.75 8.72866 21.75C8.7309 21.75 8.73314 21.75 8.73537 21.75C8.73761 21.75 8.73984 21.75 8.74207 21.75C8.7443 21.75 8.74652 21.75 8.74874 21.75C8.75097 21.75 8.75319 21.75 8.7554 21.75C8.75762 21.75 8.75983 21.75 8.76204 21.75C8.76426 21.75 8.76646 21.75 8.76867 21.75C8.77087 21.75 8.77308 21.75 8.77527 21.75C8.77747 21.75 8.77967 21.75 8.78186 21.75C8.78405 21.75 8.78624 21.75 8.78843 21.75C8.79062 21.75 8.7928 21.75 8.79498 21.75C8.79716 21.75 8.79934 21.75 8.80151 21.75C8.80369 21.75 8.80586 21.75 8.80803 21.75C8.8102 21.75 8.81236 21.75 8.81452 21.75C8.81668 21.75 8.81884 21.75 8.821 21.75C8.82315 21.75 8.82531 21.75 8.82746 21.75C8.82961 21.75 8.83175 21.75 8.83389 21.75C8.83604 21.75 8.83818 21.75 8.84031 21.75C8.84245 21.75 8.84458 21.75 8.84671 21.75C8.84884 21.75 8.85097 21.75 8.85309 21.75C8.85522 21.75 8.85734 21.75 8.85945 21.75C8.86157 21.75 8.86368 21.75 8.86579 21.75C8.8679 21.75 8.87001 21.75 8.87211 21.75C8.87422 21.75 8.87632 21.75 8.87841 21.75C8.88051 21.75 8.8826 21.75 8.88469 21.75C8.88678 21.75 8.88887 21.75 8.89095 21.75C8.89304 21.75 8.89512 21.75 8.89719 21.75C8.89927 21.75 8.90134 21.75 8.90341 21.75C8.90548 21.75 8.90755 21.75 8.90961 21.75C8.91167 21.75 8.91373 21.75 8.91579 21.75C8.91784 21.75 8.91989 21.75 8.92194 21.75C8.92399 21.75 8.92604 21.75 8.92808 21.75C8.93012 21.75 8.93216 21.75 8.93419 21.75C8.93623 21.75 8.93826 21.75 8.94028 21.75C8.94231 21.75 8.94433 21.75 8.94635 21.75C8.94837 21.75 8.95039 21.75 8.9524 21.75C8.95442 21.75 8.95643 21.75 8.95843 21.75C8.96044 21.75 8.96244 21.75 8.96444 21.75C8.96643 21.75 8.96843 21.75 8.97042 21.75C8.97241 21.75 8.9744 21.75 8.97638 21.75C8.97836 21.75 8.98034 21.75 8.98232 21.75C8.9843 21.75 8.98627 21.75 8.98824 21.75C8.9902 21.75 8.99217 21.75 8.99413 21.75C8.99609 21.75 8.99805 21.75 9 21.75V20.25C8.99805 20.25 8.99609 20.25 8.99413 20.25C8.99217 20.25 8.9902 20.25 8.98824 20.25C8.98627 20.25 8.9843 20.25 8.98232 20.25C8.98034 20.25 8.97836 20.25 8.97638 20.25C8.9744 20.25 8.97241 20.25 8.97042 20.25C8.96843 20.25 8.96643 20.25 8.96444 20.25C8.96244 20.25 8.96044 20.25 8.95843 20.25C8.95643 20.25 8.95442 20.25 8.9524 20.25C8.95039 20.25 8.94837 20.25 8.94635 20.25C8.94433 20.25 8.94231 20.25 8.94028 20.25C8.93826 20.25 8.93623 20.25 8.93419 20.25C8.93216 20.25 8.93012 20.25 8.92808 20.25C8.92604 20.25 8.92399 20.25 8.92194 20.25C8.91989 20.25 8.91784 20.25 8.91579 20.25C8.91373 20.25 8.91167 20.25 8.90961 20.25C8.90755 20.25 8.90548 20.25 8.90341 20.25C8.90134 20.25 8.89927 20.25 8.89719 20.25C8.89512 20.25 8.89304 20.25 8.89095 20.25C8.88887 20.25 8.88678 20.25 8.88469 20.25C8.8826 20.25 8.88051 20.25 8.87841 20.25C8.87632 20.25 8.87422 20.25 8.87211 20.25C8.87001 20.25 8.8679 20.25 8.86579 20.25C8.86368 20.25 8.86157 20.25 8.85945 20.25C8.85734 20.25 8.85522 20.25 8.85309 20.25C8.85097 20.25 8.84884 20.25 8.84671 20.25C8.84458 20.25 8.84245 20.25 8.84031 20.25C8.83818 20.25 8.83604 20.25 8.83389 20.25C8.83175 20.25 8.82961 20.25 8.82746 20.25C8.82531 20.25 8.82315 20.25 8.821 20.25C8.81884 20.25 8.81668 20.25 8.81452 20.25C8.81236 20.25 8.8102 20.25 8.80803 20.25C8.80586 20.25 8.80369 20.25 8.80151 20.25C8.79934 20.25 8.79716 20.25 8.79498 20.25C8.7928 20.25 8.79062 20.25 8.78843 20.25C8.78624 20.25 8.78405 20.25 8.78186 20.25C8.77967 20.25 8.77747 20.25 8.77527 20.25C8.77308 20.25 8.77087 20.25 8.76867 20.25C8.76646 20.25 8.76426 20.25 8.76204 20.25C8.75983 20.25 8.75762 20.25 8.7554 20.25C8.75319 20.25 8.75097 20.25 8.74874 20.25C8.74652 20.25 8.7443 20.25 8.74207 20.25C8.73984 20.25 8.73761 20.25 8.73537 20.25C8.73314 20.25 8.7309 20.25 8.72866 20.25C8.72642 20.25 8.72418 20.25 8.72194 20.25C8.71969 20.25 8.71744 20.25 8.71519 20.25C8.71294 20.25 8.71069 20.25 8.70843 20.25C8.70617 20.25 8.70391 20.25 8.70165 20.25C8.69939 20.25 8.69712 20.25 8.69485 20.25C8.69259 20.25 8.69032 20.25 8.68804 20.25C8.68577 20.25 8.68349 20.25 8.68121 20.25C8.67894 20.25 8.67665 20.25 8.67437 20.25C8.67209 20.25 8.6698 20.25 8.66751 20.25C8.66522 20.25 8.66293 20.25 8.66063 20.25C8.65834 20.25 8.65604 20.25 8.65374 20.25C8.65144 20.25 8.64914 20.25 8.64683 20.25C8.64453 20.25 8.64222 20.25 8.63991 20.25C8.6376 20.25 8.63529 20.25 8.63297 20.25C8.63066 20.25 8.62834 20.25 8.62602 20.25C8.6237 20.25 8.62138 20.25 8.61905 20.25C8.61672 20.25 8.6144 20.25 8.61207 20.25C8.60974 20.25 8.6074 20.25 8.60507 20.25C8.60273 20.25 8.60039 20.25 8.59805 20.25C8.59571 20.25 8.59337 20.25 8.59103 20.25C8.58868 20.25 8.58633 20.25 8.58398 20.25C8.58163 20.25 8.57928 20.25 8.57693 20.25C8.57457 20.25 8.57222 20.25 8.56986 20.25C8.5675 20.25 8.56514 20.25 8.56277 20.25C8.56041 20.25 8.55804 20.25 8.55567 20.25C8.5533 20.25 8.55093 20.25 8.54856 20.25C8.54619 20.25 8.54381 20.25 8.54143 20.25C8.53906 20.25 8.53668 20.25 8.53429 20.25C8.53191 20.25 8.52953 20.25 8.52714 20.25C8.52476 20.25 8.52237 20.25 8.51998 20.25C8.51758 20.25 8.51519 20.25 8.5128 20.25C8.5104 20.25 8.508 20.25 8.5056 20.25C8.5032 20.25 8.5008 20.25 8.4984 20.25C8.49599 20.25 8.49359 20.25 8.49118 20.25C8.48877 20.25 8.48636 20.25 8.48395 20.25C8.48154 20.25 8.47912 20.25 8.47671 20.25C8.47429 20.25 8.47187 20.25 8.46945 20.25C8.46703 20.25 8.46461 20.25 8.46218 20.25C8.45976 20.25 8.45733 20.25 8.45491 20.25C8.45248 20.25 8.45005 20.25 8.44761 20.25C8.44518 20.25 8.44275 20.25 8.44031 20.25C8.43787 20.25 8.43544 20.25 8.433 20.25C8.43056 20.25 8.42811 20.25 8.42567 20.25C8.42323 20.25 8.42078 20.25 8.41833 20.25C8.41588 20.25 8.41344 20.25 8.41098 20.25C8.40853 20.25 8.40608 20.25 8.40362 20.25C8.40117 20.25 8.39871 20.25 8.39625 20.25C8.3938 20.25 8.39133 20.25 8.38887 20.25C8.38641 20.25 8.38395 20.25 8.38148 20.25C8.37901 20.25 8.37655 20.25 8.37408 20.25C8.37161 20.25 8.36914 20.25 8.36666 20.25C8.36419 20.25 8.36172 20.25 8.35924 20.25C8.35676 20.25 8.35429 20.25 8.35181 20.25C8.34933 20.25 8.34685 20.25 8.34436 20.25C8.34188 20.25 8.3394 20.25 8.33691 20.25C8.33442 20.25 8.33194 20.25 8.32945 20.25C8.32696 20.25 8.32447 20.25 8.32197 20.25C8.31948 20.25 8.31699 20.25 8.31449 20.25C8.312 20.25 8.3095 20.25 8.307 20.25C8.3045 20.25 8.302 20.25 8.2995 20.25C8.297 20.25 8.29449 20.25 8.29199 20.25C8.28948 20.25 8.28698 20.25 8.28447 20.25C8.28196 20.25 8.27945 20.25 8.27694 20.25C8.27443 20.25 8.27192 20.25 8.26941 20.25C8.26689 20.25 8.26438 20.25 8.26186 20.25C8.25934 20.25 8.25683 20.25 8.25431 20.25C8.25179 20.25 8.24927 20.25 8.24675 20.25C8.24422 20.25 8.2417 20.25 8.23918 20.25C8.23665 20.25 8.23413 20.25 8.2316 20.25C8.22907 20.25 8.22654 20.25 8.22401 20.25C8.22148 20.25 8.21895 20.25 8.21642 20.25C8.21389 20.25 8.21135 20.25 8.20882 20.25C8.20628 20.25 8.20375 20.25 8.20121 20.25C8.19867 20.25 8.19613 20.25 8.19359 20.25C8.19105 20.25 8.18851 20.25 8.18597 20.25C8.18343 20.25 8.18089 20.25 8.17834 20.25C8.1758 20.25 8.17325 20.25 8.1707 20.25C8.16816 20.25 8.16561 20.25 8.16306 20.25C8.16051 20.25 8.15796 20.25 8.15541 20.25C8.15286 20.25 8.15031 20.25 8.14775 20.25C8.1452 20.25 8.14264 20.25 8.14009 20.25C8.13753 20.25 8.13498 20.25 8.13242 20.25C8.12986 20.25 8.1273 20.25 8.12474 20.25C8.12218 20.25 8.11962 20.25 8.11706 20.25C8.1145 20.25 8.11194 20.25 8.10938 20.25C8.10681 20.25 8.10425 20.25 8.10168 20.25C8.09912 20.25 8.09655 20.25 8.09398 20.25C8.09142 20.25 8.08885 20.25 8.08628 20.25C8.08371 20.25 8.08114 20.25 8.07857 20.25C8.076 20.25 8.07343 20.25 8.07085 20.25C8.06828 20.25 8.06571 20.25 8.06313 20.25C8.06056 20.25 8.05799 20.25 8.05541 20.25C8.05283 20.25 8.05026 20.25 8.04768 20.25C8.0451 20.25 8.04252 20.25 8.03995 20.25C8.03737 20.25 8.03479 20.25 8.03221 20.25C8.02963 20.25 8.02705 20.25 8.02446 20.25C8.02188 20.25 8.0193 20.25 8.01672 20.25C8.01413 20.25 8.01155 20.25 8.00897 20.25C8.00638 20.25 8.0038 20.25 8.00121 20.25C7.99862 20.25 7.99604 20.25 7.99345 20.25C7.99086 20.25 7.98828 20.25 7.98569 20.25C7.9831 20.25 7.98051 20.25 7.97792 20.25C7.97533 20.25 7.97274 20.25 7.97015 20.25C7.96756 20.25 7.96497 20.25 7.96238 20.25C7.95979 20.25 7.95719 20.25 7.9546 20.25C7.95201 20.25 7.94941 20.25 7.94682 20.25C7.94423 20.25 7.94163 20.25 7.93904 20.25C7.93644 20.25 7.93385 20.25 7.93125 20.25C7.92866 20.25 7.92606 20.25 7.92347 20.25C7.92087 20.25 7.91827 20.25 7.91568 20.25C7.91308 20.25 7.91048 20.25 7.90788 20.25C7.90528 20.25 7.90269 20.25 7.90009 20.25C7.89749 20.25 7.89489 20.25 7.89229 20.25C7.88969 20.25 7.88709 20.25 7.88449 20.25C7.88189 20.25 7.87929 20.25 7.87669 20.25C7.87409 20.25 7.87149 20.25 7.86889 20.25C7.86629 20.25 7.86369 20.25 7.86108 20.25C7.85848 20.25 7.85588 20.25 7.85328 20.25C7.85068 20.25 7.84807 20.25 7.84547 20.25C7.84287 20.25 7.84027 20.25 7.83766 20.25C7.83506 20.25 7.83246 20.25 7.82985 20.25C7.82725 20.25 7.82465 20.25 7.82204 20.25C7.81944 20.25 7.81684 20.25 7.81423 20.25C7.81163 20.25 7.80903 20.25 7.80642 20.25C7.80382 20.25 7.80121 20.25 7.79861 20.25C7.79601 20.25 7.7934 20.25 7.7908 20.25C7.78819 20.25 7.78559 20.25 7.78299 20.25C7.78038 20.25 7.77778 20.25 7.77517 20.25C7.77257 20.25 7.76997 20.25 7.76736 20.25C7.76476 20.25 7.76215 20.25 7.75955 20.25C7.75694 20.25 7.75434 20.25 7.75174 20.25C7.74913 20.25 7.74653 20.25 7.74393 20.25C7.74132 20.25 7.73872 20.25 7.73611 20.25C7.73351 20.25 7.73091 20.25 7.7283 20.25C7.7257 20.25 7.7231 20.25 7.72049 20.25C7.71789 20.25 7.71529 20.25 7.71269 20.25C7.71008 20.25 7.70748 20.25 7.70488 20.25C7.70228 20.25 7.69968 20.25 7.69707 20.25C7.69447 20.25 7.69187 20.25 7.68927 20.25C7.68667 20.25 7.68407 20.25 7.68147 20.25C7.67886 20.25 7.67626 20.25 7.67366 20.25C7.67106 20.25 7.66846 20.25 7.66586 20.25C7.66326 20.25 7.66067 20.25 7.65807 20.25C7.65547 20.25 7.65287 20.25 7.65027 20.25C7.64767 20.25 7.64507 20.25 7.64248 20.25C7.63988 20.25 7.63728 20.25 7.63469 20.25C7.63209 20.25 7.62949 20.25 7.6269 20.25C7.6243 20.25 7.62171 20.25 7.61911 20.25C7.61652 20.25 7.61392 20.25 7.61133 20.25C7.60873 20.25 7.60614 20.25 7.60355 20.25C7.60095 20.25 7.59836 20.25 7.59577 20.25C7.59318 20.25 7.59059 20.25 7.588 20.25C7.5854 20.25 7.58281 20.25 7.58022 20.25C7.57763 20.25 7.57505 20.25 7.57246 20.25C7.56987 20.25 7.56728 20.25 7.56469 20.25C7.56211 20.25 7.55952 20.25 7.55693 20.25C7.55435 20.25 7.55176 20.25 7.54918 20.25C7.54659 20.25 7.54401 20.25 7.54142 20.25C7.53884 20.25 7.53626 20.25 7.53367 20.25C7.53109 20.25 7.52851 20.25 7.52593 20.25C7.52335 20.25 7.52077 20.25 7.51819 20.25C7.51561 20.25 7.51303 20.25 7.51045 20.25C7.50788 20.25 7.5053 20.25 7.50272 20.25C7.50015 20.25 7.49757 20.25 7.495 20.25C7.49242 20.25 7.48985 20.25 7.48727 20.25C7.4847 20.25 7.48213 20.25 7.47956 20.25C7.47699 20.25 7.47442 20.25 7.47185 20.25C7.46928 20.25 7.46671 20.25 7.46414 20.25C7.46157 20.25 7.45901 20.25 7.45644 20.25C7.45387 20.25 7.45131 20.25 7.44874 20.25C7.44618 20.25 7.44362 20.25 7.44105 20.25C7.43849 20.25 7.43593 20.25 7.43337 20.25C7.43081 20.25 7.42825 20.25 7.42569 20.25C7.42314 20.25 7.42058 20.25 7.41802 20.25C7.41547 20.25 7.41291 20.25 7.41036 20.25C7.4078 20.25 7.40525 20.25 7.4027 20.25C7.40015 20.25 7.39759 20.25 7.39504 20.25C7.3925 20.25 7.38995 20.25 7.3874 20.25C7.38485 20.25 7.3823 20.25 7.37976 20.25C7.37721 20.25 7.37467 20.25 7.37213 20.25C7.36958 20.25 7.36704 20.25 7.3645 20.25C7.36196 20.25 7.35942 20.25 7.35688 20.25C7.35435 20.25 7.35181 20.25 7.34927 20.25C7.34674 20.25 7.3442 20.25 7.34167 20.25C7.33914 20.25 7.3366 20.25 7.33407 20.25C7.33154 20.25 7.32901 20.25 7.32649 20.25C7.32396 20.25 7.32143 20.25 7.3189 20.25C7.31638 20.25 7.31386 20.25 7.31133 20.25C7.30881 20.25 7.30629 20.25 7.30377 20.25C7.30125 20.25 7.29873 20.25 7.29621 20.25C7.29369 20.25 7.29118 20.25 7.28866 20.25C7.28615 20.25 7.28364 20.25 7.28113 20.25C7.27861 20.25 7.2761 20.25 7.27359 20.25C7.27109 20.25 7.26858 20.25 7.26607 20.25C7.26357 20.25 7.26106 20.25 7.25856 20.25C7.25606 20.25 7.25356 20.25 7.25106 20.25C7.24856 20.25 7.24606 20.25 7.24356 20.25C7.24106 20.25 7.23857 20.25 7.23608 20.25C7.23358 20.25 7.23109 20.25 7.2286 20.25C7.22611 20.25 7.22362 20.25 7.22113 20.25C7.21865 20.25 7.21616 20.25 7.21368 20.25C7.21119 20.25 7.20871 20.25 7.20623 20.25C7.20375 20.25 7.20127 20.25 7.19879 20.25C7.19631 20.25 7.19384 20.25 7.19137 20.25C7.18889 20.25 7.18642 20.25 7.18395 20.25C7.18148 20.25 7.17901 20.25 7.17654 20.25C7.17408 20.25 7.17161 20.25 7.16915 20.25C7.16668 20.25 7.16422 20.25 7.16176 20.25C7.1593 20.25 7.15684 20.25 7.15439 20.25C7.15193 20.25 7.14948 20.25 7.14702 20.25C7.14457 20.25 7.14212 20.25 7.13967 20.25C7.13722 20.25 7.13478 20.25 7.13233 20.25C7.12988 20.25 7.12744 20.25 7.125 20.25C7.12256 20.25 7.12012 20.25 7.11768 20.25C7.11524 20.25 7.11281 20.25 7.11037 20.25C7.10794 20.25 7.10551 20.25 7.10308 20.25C7.10065 20.25 7.09822 20.25 7.0958 20.25C7.09337 20.25 7.09095 20.25 7.08852 20.25C7.0861 20.25 7.08368 20.25 7.08127 20.25C7.07885 20.25 7.07643 20.25 7.07402 20.25C7.0716 20.25 7.06919 20.25 7.06678 20.25C7.06437 20.25 7.06197 20.25 7.05956 20.25C7.05716 20.25 7.05475 20.25 7.05235 20.25C7.04995 20.25 7.04755 20.25 7.04516 20.25C7.04276 20.25 7.04036 20.25 7.03797 20.25C7.03558 20.25 7.03319 20.25 7.0308 20.25C7.02841 20.25 7.02603 20.25 7.02364 20.25C7.02126 20.25 7.01888 20.25 7.0165 20.25C7.01412 20.25 7.01174 20.25 7.00937 20.25C7.00699 20.25 7.00462 20.25 7.00225 20.25C6.99988 20.25 6.99751 20.25 6.99515 20.25C6.99278 20.25 6.99042 20.25 6.98806 20.25C6.9857 20.25 6.98334 20.25 6.98098 20.25C6.97863 20.25 6.97627 20.25 6.97392 20.25C6.97157 20.25 6.96922 20.25 6.96687 20.25C6.96453 20.25 6.96218 20.25 6.95984 20.25C6.9575 20.25 6.95516 20.25 6.95282 20.25C6.95049 20.25 6.94815 20.25 6.94582 20.25C6.94349 20.25 6.94116 20.25 6.93883 20.25C6.9365 20.25 6.93418 20.25 6.93186 20.25C6.92954 20.25 6.92722 20.25 6.9249 20.25C6.92258 20.25 6.92027 20.25 6.91795 20.25C6.91564 20.25 6.91333 20.25 6.91103 20.25C6.90872 20.25 6.90642 20.25 6.90411 20.25C6.90181 20.25 6.89951 20.25 6.89722 20.25C6.89492 20.25 6.89263 20.25 6.89034 20.25C6.88804 20.25 6.88576 20.25 6.88347 20.25C6.88118 20.25 6.8789 20.25 6.87662 20.25C6.87434 20.25 6.87206 20.25 6.86979 20.25C6.86751 20.25 6.86524 20.25 6.86297 20.25C6.8607 20.25 6.85843 20.25 6.85617 20.25C6.8539 20.25 6.85164 20.25 6.84938 20.25C6.84713 20.25 6.84487 20.25 6.84262 20.25C6.84036 20.25 6.83811 20.25 6.83587 20.25C6.83362 20.25 6.83137 20.25 6.82913 20.25C6.82689 20.25 6.82465 20.25 6.82242 20.25C6.82018 20.25 6.81795 20.25 6.81572 20.25C6.81349 20.25 6.81126 20.25 6.80903 20.25C6.80681 20.25 6.80459 20.25 6.80237 20.25C6.80015 20.25 6.79794 20.25 6.79572 20.25C6.79351 20.25 6.7913 20.25 6.78909 20.25C6.78689 20.25 6.78468 20.25 6.78248 20.25C6.78028 20.25 6.77808 20.25 6.77589 20.25C6.77369 20.25 6.7715 20.25 6.76931 20.25C6.76712 20.25 6.76494 20.25 6.76276 20.25C6.76057 20.25 6.75839 20.25 6.75622 20.25C6.75404 20.25 6.75187 20.25 6.7497 20.25C6.74753 20.25 6.74536 20.25 6.7432 20.25C6.74103 20.25 6.73887 20.25 6.73671 20.25C6.73456 20.25 6.7324 20.25 6.73025 20.25C6.7281 20.25 6.72595 20.25 6.72381 20.25C6.72166 20.25 6.71952 20.25 6.71738 20.25C6.71524 20.25 6.71311 20.25 6.71097 20.25C6.70884 20.25 6.70671 20.25 6.70459 20.25C6.70246 20.25 6.70034 20.25 6.69822 20.25C6.6961 20.25 6.69399 20.25 6.69187 20.25C6.68976 20.25 6.68765 20.25 6.68555 20.25C6.68344 20.25 6.68134 20.25 6.67924 20.25C6.67714 20.25 6.67505 20.25 6.67295 20.25C6.67086 20.25 6.66877 20.25 6.66669 20.25C6.6646 20.25 6.66252 20.25 6.66044 20.25C6.65836 20.25 6.65629 20.25 6.65421 20.25C6.65214 20.25 6.65007 20.25 6.64801 20.25C6.64594 20.25 6.64388 20.25 6.64183 20.25C6.63977 20.25 6.63771 20.25 6.63566 20.25C6.63361 20.25 6.63156 20.25 6.62952 20.25C6.62748 20.25 6.62544 20.25 6.6234 20.25C6.62136 20.25 6.61933 20.25 6.6173 20.25C6.61527 20.25 6.61324 20.25 6.61122 20.25C6.6092 20.25 6.60718 20.25 6.60517 20.25C6.60315 20.25 6.60114 20.25 6.59913 20.25C6.59712 20.25 6.59512 20.25 6.59312 20.25C6.59112 20.25 6.58912 20.25 6.58713 20.25C6.58513 20.25 6.58315 20.25 6.58116 20.25C6.57917 20.25 6.57719 20.25 6.57521 20.25C6.57323 20.25 6.57126 20.25 6.56929 20.25C6.56732 20.25 6.56535 20.25 6.56339 20.25C6.56143 20.25 6.55947 20.25 6.55751 20.25C6.55555 20.25 6.5536 20.25 6.55165 20.25C6.54971 20.25 6.54776 20.25 6.54582 20.25C6.54388 20.25 6.54194 20.25 6.54001 20.25C6.53808 20.25 6.53615 20.25 6.53423 20.25C6.5323 20.25 6.53038 20.25 6.52846 20.25C6.52655 20.25 6.52463 20.25 6.52272 20.25C6.52081 20.25 6.51891 20.25 6.51701 20.25C6.51511 20.25 6.51321 20.25 6.51132 20.25C6.50942 20.25 6.50753 20.25 6.50565 20.25C6.50376 20.25 6.50188 20.25 6.5 20.25C6.49813 20.25 6.49625 20.25 6.49438 20.25C6.49252 20.25 6.49065 20.25 6.48879 20.25C6.48693 20.25 6.48507 20.25 6.48322 20.25C6.48137 20.25 6.47952 20.25 6.47767 20.25C6.47583 20.25 6.47399 20.25 6.47215 20.25C6.47031 20.25 6.46848 20.25 6.46665 20.25C6.46483 20.25 6.463 20.25 6.46118 20.25C6.45936 20.25 6.45755 20.25 6.45573 20.25C6.45392 20.25 6.45212 20.25 6.45031 20.25C6.44851 20.25 6.44671 20.25 6.44492 20.25C6.44312 20.25 6.44133 20.25 6.43955 20.25C6.43776 20.25 6.43598 20.25 6.4342 20.25C6.43242 20.25 6.43065 20.25 6.42888 20.25C6.42711 20.25 6.42535 20.25 6.42359 20.25C6.42183 20.25 6.42007 20.25 6.41832 20.25C6.41657 20.25 6.41482 20.25 6.41308 20.25C6.41134 20.25 6.4096 20.25 6.40787 20.25C6.40613 20.25 6.4044 20.25 6.40268 20.25C6.40095 20.25 6.39923 20.25 6.39752 20.25C6.3958 20.25 6.39409 20.25 6.39238 20.25C6.39068 20.25 6.38897 20.25 6.38728 20.25C6.38558 20.25 6.38388 20.25 6.38219 20.25C6.38051 20.25 6.37882 20.25 6.37714 20.25C6.37546 20.25 6.37379 20.25 6.37211 20.25C6.37044 20.25 6.36878 20.25 6.36712 20.25C6.36545 20.25 6.3638 20.25 6.36214 20.25C6.36049 20.25 6.35884 20.25 6.3572 20.25C6.35556 20.25 6.35392 20.25 6.35228 20.25C6.35065 20.25 6.34902 20.25 6.3474 20.25C6.34577 20.25 6.34415 20.25 6.34254 20.25C6.34092 20.25 6.33931 20.25 6.3377 20.25C6.3361 20.25 6.3345 20.25 6.3329 20.25C6.3313 20.25 6.32971 20.25 6.32812 20.25C6.32654 20.25 6.32496 20.25 6.32338 20.25C6.3218 20.25 6.32023 20.25 6.31866 20.25C6.31709 20.25 6.31553 20.25 6.31397 20.25C6.31241 20.25 6.31086 20.25 6.30931 20.25C6.30776 20.25 6.30622 20.25 6.30468 20.25C6.30314 20.25 6.30161 20.25 6.30008 20.25C6.29855 20.25 6.29703 20.25 6.29551 20.25C6.29399 20.25 6.29248 20.25 6.29097 20.25C6.28946 20.25 6.28795 20.25 6.28645 20.25C6.28495 20.25 6.28346 20.25 6.28197 20.25C6.28048 20.25 6.279 20.25 6.27752 20.25C6.27604 20.25 6.27456 20.25 6.27309 20.25C6.27163 20.25 6.27016 20.25 6.2687 20.25C6.26724 20.25 6.26579 20.25 6.26434 20.25C6.26289 20.25 6.26145 20.25 6.26001 20.25C6.25857 20.25 6.25714 20.25 6.25571 20.25C6.25428 20.25 6.25285 20.25 6.25144 20.25C6.25002 20.25 6.2486 20.25 6.2472 20.25C6.24579 20.25 6.24439 20.25 6.24299 20.25C6.24159 20.25 6.2402 20.25 6.23881 20.25C6.23742 20.25 6.23604 20.25 6.23466 20.25C6.23329 20.25 6.23192 20.25 6.23055 20.25C6.22918 20.25 6.22782 20.25 6.22647 20.25C6.22511 20.25 6.22376 20.25 6.22242 20.25C6.22107 20.25 6.21973 20.25 6.2184 20.25C6.21706 20.25 6.21573 20.25 6.21441 20.25C6.21308 20.25 6.21177 20.25 6.21045 20.25C6.20914 20.25 6.20783 20.25 6.20653 20.25C6.20523 20.25 6.20393 20.25 6.20264 20.25C6.20135 20.25 6.20006 20.25 6.19878 20.25C6.1975 20.25 6.19622 20.25 6.19496 20.25C6.19369 20.25 6.19242 20.25 6.19116 20.25C6.1899 20.25 6.18865 20.25 6.1874 20.25C6.18615 20.25 6.18491 20.25 6.18368 20.25C6.18244 20.25 6.18121 20.25 6.17998 20.25C6.17876 20.25 6.17754 20.25 6.17632 20.25C6.17511 20.25 6.1739 20.25 6.17269 20.25C6.17149 20.25 6.17029 20.25 6.1691 20.25C6.16791 20.25 6.16672 20.25 6.16554 20.25C6.16436 20.25 6.16318 20.25 6.16201 20.25C6.16084 20.25 6.15968 20.25 6.15852 20.25C6.15736 20.25 6.15621 20.25 6.15506 20.25C6.15392 20.25 6.15278 20.25 6.15164 20.25C6.1505 20.25 6.14937 20.25 6.14825 20.25C6.14713 20.25 6.14601 20.25 6.1449 20.25C6.14378 20.25 6.14268 20.25 6.14158 20.25C6.14048 20.25 6.13938 20.25 6.13829 20.25C6.1372 20.25 6.13612 20.25 6.13504 20.25C6.13396 20.25 6.13289 20.25 6.13182 20.25C6.13076 20.25 6.1297 20.25 6.12864 20.25C6.12759 20.25 6.12654 20.25 6.1255 20.25C6.12446 20.25 6.12342 20.25 6.12239 20.25C6.12136 20.25 6.12034 20.25 6.11932 20.25C6.1183 20.25 6.11729 20.25 6.11628 20.25C6.11527 20.25 6.11427 20.25 6.11328 20.25C6.11228 20.25 6.11129 20.25 6.11031 20.25C6.10933 20.25 6.10835 20.25 6.10738 20.25C6.10641 20.25 6.10544 20.25 6.10449 20.25C6.10353 20.25 6.10257 20.25 6.10163 20.25C6.10068 20.25 6.09974 20.25 6.09881 20.25C6.09787 20.25 6.09694 20.25 6.09602 20.25C6.0951 20.25 6.09418 20.25 6.09327 20.25C6.09237 20.25 6.09146 20.25 6.09056 20.25C6.08967 20.25 6.08878 20.25 6.08789 20.25C6.08701 20.25 6.08613 20.25 6.08525 20.25C6.08438 20.25 6.08352 20.25 6.08266 20.25C6.08179 20.25 6.08094 20.25 6.08009 20.25C6.07925 20.25 6.0784 20.25 6.07757 20.25C6.07673 20.25 6.07591 20.25 6.07508 20.25C6.07426 20.25 6.07344 20.25 6.07263 20.25C6.07183 20.25 6.07102 20.25 6.07022 20.25C6.06943 20.25 6.06864 20.25 6.06785 20.25C6.06707 20.25 6.06629 20.25 6.06552 20.25C6.06475 20.25 6.06398 20.25 6.06322 20.25C6.06246 20.25 6.06171 20.25 6.06097 20.25C6.06022 20.25 6.05948 20.25 6.05875 20.25C6.05801 20.25 6.05729 20.25 6.05657 20.25C6.05585 20.25 6.05513 20.25 6.05443 20.25C6.05372 20.25 6.05302 20.25 6.05232 20.25C6.05163 20.25 6.05094 20.25 6.05026 20.25C6.04958 20.25 6.04891 20.25 6.04824 20.25C6.04757 20.25 6.04691 20.25 6.04626 20.25C6.0456 20.25 6.04495 20.25 6.04431 20.25C6.04367 20.25 6.04304 20.25 6.04241 20.25C6.04178 20.25 6.04116 20.25 6.04054 20.25C6.03993 20.25 6.03932 20.25 6.03872 20.25C6.03812 20.25 6.03752 20.25 6.03693 20.25C6.03635 20.25 6.03577 20.25 6.03519 20.25C6.03462 20.25 6.03405 20.25 6.03349 20.25C6.03293 20.25 6.03237 20.25 6.03182 20.25C6.03128 20.25 6.03074 20.25 6.0302 20.25C6.02967 20.25 6.02914 20.25 6.02862 20.25C6.0281 20.25 6.02759 20.25 6.02708 20.25C6.02657 20.25 6.02607 20.25 6.02558 20.25C6.02509 20.25 6.0246 20.25 6.02412 20.25C6.02364 20.25 6.02317 20.25 6.02271 20.25C6.02224 20.25 6.02178 20.25 6.02133 20.25C6.02088 20.25 6.02043 20.25 6.02 20.25C6.01956 20.25 6.01913 20.25 6.0187 20.25C6.01828 20.25 6.01786 20.25 6.01745 20.25C6.01704 20.25 6.01664 20.25 6.01625 20.25C6.01585 20.25 6.01546 20.25 6.01508 20.25C6.0147 20.25 6.01432 20.25 6.01396 20.25C6.01359 20.25 6.01323 20.25 6.01287 20.25C6.01252 20.25 6.01218 20.25 6.01184 20.25C6.0115 20.25 6.01116 20.25 6.01084 20.25C6.01051 20.25 6.0102 20.25 6.00989 20.25C6.00958 20.25 6.00927 20.25 6.00898 20.25C6.00868 20.25 6.00839 20.25 6.00811 20.25C6.00783 20.25 6.00755 20.25 6.00729 20.25C6.00702 20.25 6.00676 20.25 6.0065 20.25C6.00625 20.25 6.00601 20.25 6.00577 20.25C6.00553 20.25 6.0053 20.25 6.00507 20.25C6.00485 20.25 6.00463 20.25 6.00442 20.25C6.00422 20.25 6.00401 20.25 6.00382 20.25C6.00362 20.25 6.00344 20.25 6.00326 20.25C6.00308 20.25 6.0029 20.25 6.00274 20.25C6.00257 20.25 6.00242 20.25 6.00227 20.25C6.00212 20.25 6.00197 20.25 6.00184 20.25C6.0017 20.25 6.00157 20.25 6.00145 20.25C6.00133 20.25 6.00122 20.25 6.00111 20.25C6.00101 20.25 6.00091 20.25 6.00082 20.25C6.00073 20.25 6.00065 20.25 6.00057 20.25C6.00049 20.25 6.00043 20.25 6.00036 20.25C6.0003 20.25 6.00025 20.25 6.00021 20.25C6.00016 20.25 6.00012 20.25 6.00009 20.25C6.00006 20.25 6.00004 20.25 6.00002 20.25C6.00001 20.25 6 20.25 6 21ZM15 21.75C15.002 21.75 15.0039 21.75 15.0059 21.75C15.0078 21.75 15.0098 21.75 15.0118 21.75C15.0137 21.75 15.0157 21.75 15.0177 21.75C15.0197 21.75 15.0216 21.75 15.0236 21.75C15.0256 21.75 15.0276 21.75 15.0296 21.75C15.0316 21.75 15.0336 21.75 15.0356 21.75C15.0376 21.75 15.0396 21.75 15.0416 21.75C15.0436 21.75 15.0456 21.75 15.0476 21.75C15.0496 21.75 15.0516 21.75 15.0536 21.75C15.0557 21.75 15.0577 21.75 15.0597 21.75C15.0617 21.75 15.0638 21.75 15.0658 21.75C15.0678 21.75 15.0699 21.75 15.0719 21.75C15.074 21.75 15.076 21.75 15.0781 21.75C15.0801 21.75 15.0822 21.75 15.0842 21.75C15.0863 21.75 15.0883 21.75 15.0904 21.75C15.0925 21.75 15.0945 21.75 15.0966 21.75C15.0987 21.75 15.1007 21.75 15.1028 21.75C15.1049 21.75 15.107 21.75 15.109 21.75C15.1111 21.75 15.1132 21.75 15.1153 21.75C15.1174 21.75 15.1195 21.75 15.1216 21.75C15.1237 21.75 15.1258 21.75 15.1279 21.75C15.13 21.75 15.1321 21.75 15.1342 21.75C15.1363 21.75 15.1384 21.75 15.1405 21.75C15.1427 21.75 15.1448 21.75 15.1469 21.75C15.149 21.75 15.1512 21.75 15.1533 21.75C15.1554 21.75 15.1576 21.75 15.1597 21.75C15.1618 21.75 15.164 21.75 15.1661 21.75C15.1682 21.75 15.1704 21.75 15.1725 21.75C15.1747 21.75 15.1768 21.75 15.179 21.75C15.1812 21.75 15.1833 21.75 15.1855 21.75C15.1876 21.75 15.1898 21.75 15.192 21.75C15.1941 21.75 15.1963 21.75 15.1985 21.75C15.2007 21.75 15.2028 21.75 15.205 21.75C15.2072 21.75 15.2094 21.75 15.2116 21.75C15.2138 21.75 15.2159 21.75 15.2181 21.75C15.2203 21.75 15.2225 21.75 15.2247 21.75C15.2269 21.75 15.2291 21.75 15.2313 21.75C15.2335 21.75 15.2357 21.75 15.238 21.75C15.2402 21.75 15.2424 21.75 15.2446 21.75C15.2468 21.75 15.249 21.75 15.2513 21.75C15.2535 21.75 15.2557 21.75 15.2579 21.75C15.2602 21.75 15.2624 21.75 15.2646 21.75C15.2669 21.75 15.2691 21.75 15.2713 21.75C15.2736 21.75 15.2758 21.75 15.2781 21.75C15.2803 21.75 15.2826 21.75 15.2848 21.75C15.2871 21.75 15.2893 21.75 15.2916 21.75C15.2938 21.75 15.2961 21.75 15.2984 21.75C15.3006 21.75 15.3029 21.75 15.3051 21.75C15.3074 21.75 15.3097 21.75 15.312 21.75C15.3142 21.75 15.3165 21.75 15.3188 21.75C15.3211 21.75 15.3233 21.75 15.3256 21.75C15.3279 21.75 15.3302 21.75 15.3325 21.75C15.3348 21.75 15.3371 21.75 15.3394 21.75C15.3417 21.75 15.344 21.75 15.3463 21.75C15.3486 21.75 15.3509 21.75 15.3532 21.75C15.3555 21.75 15.3578 21.75 15.3601 21.75C15.3624 21.75 15.3647 21.75 15.367 21.75C15.3693 21.75 15.3717 21.75 15.374 21.75C15.3763 21.75 15.3786 21.75 15.3809 21.75C15.3833 21.75 15.3856 21.75 15.3879 21.75C15.3903 21.75 15.3926 21.75 15.3949 21.75C15.3973 21.75 15.3996 21.75 15.4019 21.75C15.4043 21.75 15.4066 21.75 15.409 21.75C15.4113 21.75 15.4137 21.75 15.416 21.75C15.4184 21.75 15.4207 21.75 15.4231 21.75C15.4254 21.75 15.4278 21.75 15.4301 21.75C15.4325 21.75 15.4349 21.75 15.4372 21.75C15.4396 21.75 15.442 21.75 15.4443 21.75C15.4467 21.75 15.4491 21.75 15.4514 21.75C15.4538 21.75 15.4562 21.75 15.4586 21.75C15.4609 21.75 15.4633 21.75 15.4657 21.75C15.4681 21.75 15.4705 21.75 15.4729 21.75C15.4752 21.75 15.4776 21.75 15.48 21.75C15.4824 21.75 15.4848 21.75 15.4872 21.75C15.4896 21.75 15.492 21.75 15.4944 21.75C15.4968 21.75 15.4992 21.75 15.5016 21.75C15.504 21.75 15.5064 21.75 15.5088 21.75C15.5112 21.75 15.5136 21.75 15.5161 21.75C15.5185 21.75 15.5209 21.75 15.5233 21.75C15.5257 21.75 15.5281 21.75 15.5305 21.75C15.533 21.75 15.5354 21.75 15.5378 21.75C15.5402 21.75 15.5427 21.75 15.5451 21.75C15.5475 21.75 15.55 21.75 15.5524 21.75C15.5548 21.75 15.5573 21.75 15.5597 21.75C15.5621 21.75 15.5646 21.75 15.567 21.75C15.5694 21.75 15.5719 21.75 15.5743 21.75C15.5768 21.75 15.5792 21.75 15.5817 21.75C15.5841 21.75 15.5866 21.75 15.589 21.75C15.5915 21.75 15.5939 21.75 15.5964 21.75C15.5988 21.75 15.6013 21.75 15.6037 21.75C15.6062 21.75 15.6087 21.75 15.6111 21.75C15.6136 21.75 15.6161 21.75 15.6185 21.75C15.621 21.75 15.6235 21.75 15.6259 21.75C15.6284 21.75 15.6309 21.75 15.6333 21.75C15.6358 21.75 15.6383 21.75 15.6408 21.75C15.6432 21.75 15.6457 21.75 15.6482 21.75C15.6507 21.75 15.6532 21.75 15.6556 21.75C15.6581 21.75 15.6606 21.75 15.6631 21.75C15.6656 21.75 15.6681 21.75 15.6706 21.75C15.673 21.75 15.6755 21.75 15.678 21.75C15.6805 21.75 15.683 21.75 15.6855 21.75C15.688 21.75 15.6905 21.75 15.693 21.75C15.6955 21.75 15.698 21.75 15.7005 21.75C15.703 21.75 15.7055 21.75 15.708 21.75C15.7105 21.75 15.713 21.75 15.7155 21.75C15.718 21.75 15.7205 21.75 15.7231 21.75C15.7256 21.75 15.7281 21.75 15.7306 21.75C15.7331 21.75 15.7356 21.75 15.7381 21.75C15.7407 21.75 15.7432 21.75 15.7457 21.75C15.7482 21.75 15.7507 21.75 15.7533 21.75C15.7558 21.75 15.7583 21.75 15.7608 21.75C15.7633 21.75 15.7659 21.75 15.7684 21.75C15.7709 21.75 15.7735 21.75 15.776 21.75C15.7785 21.75 15.781 21.75 15.7836 21.75C15.7861 21.75 15.7886 21.75 15.7912 21.75C15.7937 21.75 15.7963 21.75 15.7988 21.75C15.8013 21.75 15.8039 21.75 15.8064 21.75C15.8089 21.75 15.8115 21.75 15.814 21.75C15.8166 21.75 15.8191 21.75 15.8217 21.75C15.8242 21.75 15.8267 21.75 15.8293 21.75C15.8318 21.75 15.8344 21.75 15.8369 21.75C15.8395 21.75 15.842 21.75 15.8446 21.75C15.8471 21.75 15.8497 21.75 15.8522 21.75C15.8548 21.75 15.8574 21.75 15.8599 21.75C15.8625 21.75 15.865 21.75 15.8676 21.75C15.8701 21.75 15.8727 21.75 15.8753 21.75C15.8778 21.75 15.8804 21.75 15.8829 21.75C15.8855 21.75 15.8881 21.75 15.8906 21.75C15.8932 21.75 15.8958 21.75 15.8983 21.75C15.9009 21.75 15.9035 21.75 15.906 21.75C15.9086 21.75 15.9112 21.75 15.9137 21.75C15.9163 21.75 15.9189 21.75 15.9214 21.75C15.924 21.75 15.9266 21.75 15.9291 21.75C15.9317 21.75 15.9343 21.75 15.9369 21.75C15.9394 21.75 15.942 21.75 15.9446 21.75C15.9472 21.75 15.9497 21.75 15.9523 21.75C15.9549 21.75 15.9575 21.75 15.9601 21.75C15.9626 21.75 15.9652 21.75 15.9678 21.75C15.9704 21.75 15.973 21.75 15.9755 21.75C15.9781 21.75 15.9807 21.75 15.9833 21.75C15.9859 21.75 15.9885 21.75 15.991 21.75C15.9936 21.75 15.9962 21.75 15.9988 21.75C16.0014 21.75 16.004 21.75 16.0065 21.75C16.0091 21.75 16.0117 21.75 16.0143 21.75C16.0169 21.75 16.0195 21.75 16.0221 21.75C16.0247 21.75 16.0273 21.75 16.0298 21.75C16.0324 21.75 16.035 21.75 16.0376 21.75C16.0402 21.75 16.0428 21.75 16.0454 21.75C16.048 21.75 16.0506 21.75 16.0532 21.75C16.0558 21.75 16.0584 21.75 16.061 21.75C16.0636 21.75 16.0662 21.75 16.0687 21.75C16.0713 21.75 16.0739 21.75 16.0765 21.75C16.0791 21.75 16.0817 21.75 16.0843 21.75C16.0869 21.75 16.0895 21.75 16.0921 21.75C16.0947 21.75 16.0973 21.75 16.0999 21.75C16.1025 21.75 16.1051 21.75 16.1077 21.75C16.1103 21.75 16.1129 21.75 16.1155 21.75C16.1181 21.75 16.1207 21.75 16.1233 21.75C16.1259 21.75 16.1285 21.75 16.1311 21.75C16.1337 21.75 16.1363 21.75 16.1389 21.75C16.1415 21.75 16.1441 21.75 16.1467 21.75C16.1493 21.75 16.1519 21.75 16.1545 21.75C16.1571 21.75 16.1597 21.75 16.1623 21.75C16.1649 21.75 16.1675 21.75 16.1701 21.75C16.1727 21.75 16.1754 21.75 16.178 21.75C16.1806 21.75 16.1832 21.75 16.1858 21.75C16.1884 21.75 16.191 21.75 16.1936 21.75C16.1962 21.75 16.1988 21.75 16.2014 21.75C16.204 21.75 16.2066 21.75 16.2092 21.75C16.2118 21.75 16.2144 21.75 16.217 21.75C16.2196 21.75 16.2222 21.75 16.2248 21.75C16.2274 21.75 16.23 21.75 16.2326 21.75C16.2352 21.75 16.2378 21.75 16.2405 21.75C16.2431 21.75 16.2457 21.75 16.2483 21.75C16.2509 21.75 16.2535 21.75 16.2561 21.75C16.2587 21.75 16.2613 21.75 16.2639 21.75C16.2665 21.75 16.2691 21.75 16.2717 21.75C16.2743 21.75 16.2769 21.75 16.2795 21.75C16.2821 21.75 16.2847 21.75 16.2873 21.75C16.2899 21.75 16.2925 21.75 16.2951 21.75C16.2977 21.75 16.3003 21.75 16.3029 21.75C16.3055 21.75 16.3081 21.75 16.3107 21.75C16.3133 21.75 16.3159 21.75 16.3185 21.75C16.3211 21.75 16.3237 21.75 16.3263 21.75C16.3289 21.75 16.3315 21.75 16.3341 21.75C16.3367 21.75 16.3393 21.75 16.3419 21.75C16.3445 21.75 16.3471 21.75 16.3497 21.75C16.3523 21.75 16.3549 21.75 16.3575 21.75C16.3601 21.75 16.3627 21.75 16.3653 21.75C16.3679 21.75 16.3705 21.75 16.3731 21.75C16.3757 21.75 16.3783 21.75 16.3809 21.75C16.3835 21.75 16.3861 21.75 16.3887 21.75C16.3913 21.75 16.3939 21.75 16.3965 21.75C16.399 21.75 16.4016 21.75 16.4042 21.75C16.4068 21.75 16.4094 21.75 16.412 21.75C16.4146 21.75 16.4172 21.75 16.4198 21.75C16.4224 21.75 16.425 21.75 16.4275 21.75C16.4301 21.75 16.4327 21.75 16.4353 21.75C16.4379 21.75 16.4405 21.75 16.4431 21.75C16.4457 21.75 16.4482 21.75 16.4508 21.75C16.4534 21.75 16.456 21.75 16.4586 21.75C16.4612 21.75 16.4637 21.75 16.4663 21.75C16.4689 21.75 16.4715 21.75 16.4741 21.75C16.4767 21.75 16.4792 21.75 16.4818 21.75C16.4844 21.75 16.487 21.75 16.4895 21.75C16.4921 21.75 16.4947 21.75 16.4973 21.75C16.4999 21.75 16.5024 21.75 16.505 21.75C16.5076 21.75 16.5102 21.75 16.5127 21.75C16.5153 21.75 16.5179 21.75 16.5204 21.75C16.523 21.75 16.5256 21.75 16.5282 21.75C16.5307 21.75 16.5333 21.75 16.5359 21.75C16.5384 21.75 16.541 21.75 16.5436 21.75C16.5461 21.75 16.5487 21.75 16.5513 21.75C16.5538 21.75 16.5564 21.75 16.5589 21.75C16.5615 21.75 16.5641 21.75 16.5666 21.75C16.5692 21.75 16.5717 21.75 16.5743 21.75C16.5769 21.75 16.5794 21.75 16.582 21.75C16.5845 21.75 16.5871 21.75 16.5896 21.75C16.5922 21.75 16.5948 21.75 16.5973 21.75C16.5999 21.75 16.6024 21.75 16.605 21.75C16.6075 21.75 16.6101 21.75 16.6126 21.75C16.6151 21.75 16.6177 21.75 16.6202 21.75C16.6228 21.75 16.6253 21.75 16.6279 21.75C16.6304 21.75 16.633 21.75 16.6355 21.75C16.638 21.75 16.6406 21.75 16.6431 21.75C16.6457 21.75 16.6482 21.75 16.6507 21.75C16.6533 21.75 16.6558 21.75 16.6583 21.75C16.6609 21.75 16.6634 21.75 16.6659 21.75C16.6685 21.75 16.671 21.75 16.6735 21.75C16.676 21.75 16.6786 21.75 16.6811 21.75C16.6836 21.75 16.6861 21.75 16.6887 21.75C16.6912 21.75 16.6937 21.75 16.6962 21.75C16.6988 21.75 16.7013 21.75 16.7038 21.75C16.7063 21.75 16.7088 21.75 16.7113 21.75C16.7139 21.75 16.7164 21.75 16.7189 21.75C16.7214 21.75 16.7239 21.75 16.7264 21.75C16.7289 21.75 16.7314 21.75 16.7339 21.75C16.7364 21.75 16.7389 21.75 16.7414 21.75C16.7439 21.75 16.7464 21.75 16.7489 21.75C16.7514 21.75 16.7539 21.75 16.7564 21.75C16.7589 21.75 16.7614 21.75 16.7639 21.75C16.7664 21.75 16.7689 21.75 16.7714 21.75C16.7739 21.75 16.7764 21.75 16.7789 21.75C16.7814 21.75 16.7838 21.75 16.7863 21.75C16.7888 21.75 16.7913 21.75 16.7938 21.75C16.7963 21.75 16.7987 21.75 16.8012 21.75C16.8037 21.75 16.8062 21.75 16.8086 21.75C16.8111 21.75 16.8136 21.75 16.8161 21.75C16.8185 21.75 16.821 21.75 16.8235 21.75C16.8259 21.75 16.8284 21.75 16.8309 21.75C16.8333 21.75 16.8358 21.75 16.8382 21.75C16.8407 21.75 16.8432 21.75 16.8456 21.75C16.8481 21.75 16.8505 21.75 16.853 21.75C16.8554 21.75 16.8579 21.75 16.8603 21.75C16.8628 21.75 16.8652 21.75 16.8677 21.75C16.8701 21.75 16.8726 21.75 16.875 21.75C16.8774 21.75 16.8799 21.75 16.8823 21.75C16.8848 21.75 16.8872 21.75 16.8896 21.75C16.8921 21.75 16.8945 21.75 16.8969 21.75C16.8994 21.75 16.9018 21.75 16.9042 21.75C16.9066 21.75 16.9091 21.75 16.9115 21.75C16.9139 21.75 16.9163 21.75 16.9187 21.75C16.9212 21.75 16.9236 21.75 16.926 21.75C16.9284 21.75 16.9308 21.75 16.9332 21.75C16.9356 21.75 16.938 21.75 16.9404 21.75C16.9428 21.75 16.9452 21.75 16.9476 21.75C16.95 21.75 16.9524 21.75 16.9548 21.75C16.9572 21.75 16.9596 21.75 16.962 21.75C16.9644 21.75 16.9668 21.75 16.9692 21.75C16.9716 21.75 16.974 21.75 16.9764 21.75C16.9787 21.75 16.9811 21.75 16.9835 21.75C16.9859 21.75 16.9883 21.75 16.9906 21.75C16.993 21.75 16.9954 21.75 16.9977 21.75C17.0001 21.75 17.0025 21.75 17.0049 21.75C17.0072 21.75 17.0096 21.75 17.0119 21.75C17.0143 21.75 17.0167 21.75 17.019 21.75C17.0214 21.75 17.0237 21.75 17.0261 21.75C17.0284 21.75 17.0308 21.75 17.0331 21.75C17.0355 21.75 17.0378 21.75 17.0402 21.75C17.0425 21.75 17.0448 21.75 17.0472 21.75C17.0495 21.75 17.0518 21.75 17.0542 21.75C17.0565 21.75 17.0588 21.75 17.0612 21.75C17.0635 21.75 17.0658 21.75 17.0681 21.75C17.0705 21.75 17.0728 21.75 17.0751 21.75C17.0774 21.75 17.0797 21.75 17.082 21.75C17.0844 21.75 17.0867 21.75 17.089 21.75C17.0913 21.75 17.0936 21.75 17.0959 21.75C17.0982 21.75 17.1005 21.75 17.1028 21.75C17.1051 21.75 17.1074 21.75 17.1097 21.75C17.112 21.75 17.1142 21.75 17.1165 21.75C17.1188 21.75 17.1211 21.75 17.1234 21.75C17.1257 21.75 17.1279 21.75 17.1302 21.75C17.1325 21.75 17.1348 21.75 17.137 21.75C17.1393 21.75 17.1416 21.75 17.1438 21.75C17.1461 21.75 17.1484 21.75 17.1506 21.75C17.1529 21.75 17.1551 21.75 17.1574 21.75C17.1596 21.75 17.1619 21.75 17.1641 21.75C17.1664 21.75 17.1686 21.75 17.1709 21.75C17.1731 21.75 17.1753 21.75 17.1776 21.75C17.1798 21.75 17.1821 21.75 17.1843 21.75C17.1865 21.75 17.1887 21.75 17.191 21.75C17.1932 21.75 17.1954 21.75 17.1976 21.75C17.1998 21.75 17.2021 21.75 17.2043 21.75C17.2065 21.75 17.2087 21.75 17.2109 21.75C17.2131 21.75 17.2153 21.75 17.2175 21.75C17.2197 21.75 17.2219 21.75 17.2241 21.75C17.2263 21.75 17.2285 21.75 17.2307 21.75C17.2329 21.75 17.2351 21.75 17.2372 21.75C17.2394 21.75 17.2416 21.75 17.2438 21.75C17.246 21.75 17.2481 21.75 17.2503 21.75C17.2525 21.75 17.2546 21.75 17.2568 21.75C17.259 21.75 17.2611 21.75 17.2633 21.75C17.2654 21.75 17.2676 21.75 17.2698 21.75C17.2719 21.75 17.274 21.75 17.2762 21.75C17.2783 21.75 17.2805 21.75 17.2826 21.75C17.2848 21.75 17.2869 21.75 17.289 21.75C17.2912 21.75 17.2933 21.75 17.2954 21.75C17.2975 21.75 17.2997 21.75 17.3018 21.75C17.3039 21.75 17.306 21.75 17.3081 21.75C17.3102 21.75 17.3123 21.75 17.3145 21.75C17.3166 21.75 17.3187 21.75 17.3208 21.75C17.3229 21.75 17.325 21.75 17.327 21.75C17.3291 21.75 17.3312 21.75 17.3333 21.75C17.3354 21.75 17.3375 21.75 17.3396 21.75C17.3416 21.75 17.3437 21.75 17.3458 21.75C17.3479 21.75 17.3499 21.75 17.352 21.75C17.3541 21.75 17.3561 21.75 17.3582 21.75C17.3602 21.75 17.3623 21.75 17.3643 21.75C17.3664 21.75 17.3684 21.75 17.3705 21.75C17.3725 21.75 17.3746 21.75 17.3766 21.75C17.3786 21.75 17.3807 21.75 17.3827 21.75C17.3847 21.75 17.3868 21.75 17.3888 21.75C17.3908 21.75 17.3928 21.75 17.3948 21.75C17.3968 21.75 17.3989 21.75 17.4009 21.75C17.4029 21.75 17.4049 21.75 17.4069 21.75C17.4089 21.75 17.4109 21.75 17.4129 21.75C17.4149 21.75 17.4169 21.75 17.4188 21.75C17.4208 21.75 17.4228 21.75 17.4248 21.75C17.4268 21.75 17.4287 21.75 17.4307 21.75C17.4327 21.75 17.4346 21.75 17.4366 21.75C17.4386 21.75 17.4405 21.75 17.4425 21.75C17.4444 21.75 17.4464 21.75 17.4483 21.75C17.4503 21.75 17.4522 21.75 17.4542 21.75C17.4561 21.75 17.4581 21.75 17.46 21.75C17.4619 21.75 17.4638 21.75 17.4658 21.75C17.4677 21.75 17.4696 21.75 17.4715 21.75C17.4735 21.75 17.4754 21.75 17.4773 21.75C17.4792 21.75 17.4811 21.75 17.483 21.75C17.4849 21.75 17.4868 21.75 17.4887 21.75C17.4906 21.75 17.4925 21.75 17.4944 21.75C17.4962 21.75 17.4981 21.75 17.5 21.75C17.5019 21.75 17.5037 21.75 17.5056 21.75C17.5075 21.75 17.5093 21.75 17.5112 21.75C17.5131 21.75 17.5149 21.75 17.5168 21.75C17.5186 21.75 17.5205 21.75 17.5223 21.75C17.5242 21.75 17.526 21.75 17.5278 21.75C17.5297 21.75 17.5315 21.75 17.5333 21.75C17.5352 21.75 17.537 21.75 17.5388 21.75C17.5406 21.75 17.5425 21.75 17.5443 21.75C17.5461 21.75 17.5479 21.75 17.5497 21.75C17.5515 21.75 17.5533 21.75 17.5551 21.75C17.5569 21.75 17.5587 21.75 17.5605 21.75C17.5622 21.75 17.564 21.75 17.5658 21.75C17.5676 21.75 17.5693 21.75 17.5711 21.75C17.5729 21.75 17.5746 21.75 17.5764 21.75C17.5782 21.75 17.5799 21.75 17.5817 21.75C17.5834 21.75 17.5852 21.75 17.5869 21.75C17.5887 21.75 17.5904 21.75 17.5921 21.75C17.5939 21.75 17.5956 21.75 17.5973 21.75C17.599 21.75 17.6008 21.75 17.6025 21.75C17.6042 21.75 17.6059 21.75 17.6076 21.75C17.6093 21.75 17.611 21.75 17.6127 21.75C17.6144 21.75 17.6161 21.75 17.6178 21.75C17.6195 21.75 17.6212 21.75 17.6229 21.75C17.6245 21.75 17.6262 21.75 17.6279 21.75C17.6296 21.75 17.6312 21.75 17.6329 21.75C17.6345 21.75 17.6362 21.75 17.6379 21.75C17.6395 21.75 17.6412 21.75 17.6428 21.75C17.6444 21.75 17.6461 21.75 17.6477 21.75C17.6494 21.75 17.651 21.75 17.6526 21.75C17.6542 21.75 17.6558 21.75 17.6575 21.75C17.6591 21.75 17.6607 21.75 17.6623 21.75C17.6639 21.75 17.6655 21.75 17.6671 21.75C17.6687 21.75 17.6703 21.75 17.6719 21.75C17.6735 21.75 17.675 21.75 17.6766 21.75C17.6782 21.75 17.6798 21.75 17.6813 21.75C17.6829 21.75 17.6845 21.75 17.686 21.75C17.6876 21.75 17.6891 21.75 17.6907 21.75C17.6922 21.75 17.6938 21.75 17.6953 21.75C17.6969 21.75 17.6984 21.75 17.6999 21.75C17.7014 21.75 17.703 21.75 17.7045 21.75C17.706 21.75 17.7075 21.75 17.709 21.75C17.7105 21.75 17.712 21.75 17.7135 21.75C17.715 21.75 17.7165 21.75 17.718 21.75C17.7195 21.75 17.721 21.75 17.7225 21.75C17.724 21.75 17.7254 21.75 17.7269 21.75C17.7284 21.75 17.7298 21.75 17.7313 21.75C17.7328 21.75 17.7342 21.75 17.7357 21.75C17.7371 21.75 17.7386 21.75 17.74 21.75C17.7414 21.75 17.7429 21.75 17.7443 21.75C17.7457 21.75 17.7471 21.75 17.7486 21.75C17.75 21.75 17.7514 21.75 17.7528 21.75C17.7542 21.75 17.7556 21.75 17.757 21.75C17.7584 21.75 17.7598 21.75 17.7612 21.75C17.7626 21.75 17.764 21.75 17.7653 21.75C17.7667 21.75 17.7681 21.75 17.7694 21.75C17.7708 21.75 17.7722 21.75 17.7735 21.75C17.7749 21.75 17.7762 21.75 17.7776 21.75C17.7789 21.75 17.7803 21.75 17.7816 21.75C17.7829 21.75 17.7843 21.75 17.7856 21.75C17.7869 21.75 17.7882 21.75 17.7895 21.75C17.7909 21.75 17.7922 21.75 17.7935 21.75C17.7948 21.75 17.7961 21.75 17.7974 21.75C17.7987 21.75 17.7999 21.75 17.8012 21.75C17.8025 21.75 17.8038 21.75 17.805 21.75C17.8063 21.75 17.8076 21.75 17.8088 21.75C17.8101 21.75 17.8113 21.75 17.8126 21.75C17.8138 21.75 17.8151 21.75 17.8163 21.75C17.8176 21.75 17.8188 21.75 17.82 21.75C17.8212 21.75 17.8225 21.75 17.8237 21.75C17.8249 21.75 17.8261 21.75 17.8273 21.75C17.8285 21.75 17.8297 21.75 17.8309 21.75C17.8321 21.75 17.8333 21.75 17.8345 21.75C17.8356 21.75 17.8368 21.75 17.838 21.75C17.8392 21.75 17.8403 21.75 17.8415 21.75C17.8426 21.75 17.8438 21.75 17.8449 21.75C17.8461 21.75 17.8472 21.75 17.8484 21.75C17.8495 21.75 17.8506 21.75 17.8517 21.75C17.8529 21.75 17.854 21.75 17.8551 21.75C17.8562 21.75 17.8573 21.75 17.8584 21.75C17.8595 21.75 17.8606 21.75 17.8617 21.75C17.8628 21.75 17.8639 21.75 17.865 21.75C17.866 21.75 17.8671 21.75 17.8682 21.75C17.8692 21.75 17.8703 21.75 17.8714 21.75C17.8724 21.75 17.8735 21.75 17.8745 21.75C17.8755 21.75 17.8766 21.75 17.8776 21.75C17.8786 21.75 17.8797 21.75 17.8807 21.75C17.8817 21.75 17.8827 21.75 17.8837 21.75C17.8847 21.75 17.8857 21.75 17.8867 21.75C17.8877 21.75 17.8887 21.75 17.8897 21.75C17.8907 21.75 17.8917 21.75 17.8926 21.75C17.8936 21.75 17.8946 21.75 17.8955 21.75C17.8965 21.75 17.8974 21.75 17.8984 21.75C17.8993 21.75 17.9003 21.75 17.9012 21.75C17.9021 21.75 17.9031 21.75 17.904 21.75C17.9049 21.75 17.9058 21.75 17.9067 21.75C17.9076 21.75 17.9085 21.75 17.9094 21.75C17.9103 21.75 17.9112 21.75 17.9121 21.75C17.913 21.75 17.9139 21.75 17.9147 21.75C17.9156 21.75 17.9165 21.75 17.9173 21.75C17.9182 21.75 17.9191 21.75 17.9199 21.75C17.9208 21.75 17.9216 21.75 17.9224 21.75C17.9233 21.75 17.9241 21.75 17.9249 21.75C17.9257 21.75 17.9266 21.75 17.9274 21.75C17.9282 21.75 17.929 21.75 17.9298 21.75C17.9306 21.75 17.9314 21.75 17.9321 21.75C17.9329 21.75 17.9337 21.75 17.9345 21.75C17.9353 21.75 17.936 21.75 17.9368 21.75C17.9375 21.75 17.9383 21.75 17.939 21.75C17.9398 21.75 17.9405 21.75 17.9413 21.75C17.942 21.75 17.9427 21.75 17.9434 21.75C17.9442 21.75 17.9449 21.75 17.9456 21.75C17.9463 21.75 17.947 21.75 17.9477 21.75C17.9484 21.75 17.9491 21.75 17.9497 21.75C17.9504 21.75 17.9511 21.75 17.9518 21.75C17.9524 21.75 17.9531 21.75 17.9537 21.75C17.9544 21.75 17.955 21.75 17.9557 21.75C17.9563 21.75 17.957 21.75 17.9576 21.75C17.9582 21.75 17.9588 21.75 17.9595 21.75C17.9601 21.75 17.9607 21.75 17.9613 21.75C17.9619 21.75 17.9625 21.75 17.9631 21.75C17.9637 21.75 17.9642 21.75 17.9648 21.75C17.9654 21.75 17.966 21.75 17.9665 21.75C17.9671 21.75 17.9676 21.75 17.9682 21.75C17.9687 21.75 17.9693 21.75 17.9698 21.75C17.9703 21.75 17.9709 21.75 17.9714 21.75C17.9719 21.75 17.9724 21.75 17.9729 21.75C17.9734 21.75 17.9739 21.75 17.9744 21.75C17.9749 21.75 17.9754 21.75 17.9759 21.75C17.9764 21.75 17.9768 21.75 17.9773 21.75C17.9778 21.75 17.9782 21.75 17.9787 21.75C17.9791 21.75 17.9796 21.75 17.98 21.75C17.9804 21.75 17.9809 21.75 17.9813 21.75C17.9817 21.75 17.9821 21.75 17.9825 21.75C17.983 21.75 17.9834 21.75 17.9838 21.75C17.9841 21.75 17.9845 21.75 17.9849 21.75C17.9853 21.75 17.9857 21.75 17.986 21.75C17.9864 21.75 17.9868 21.75 17.9871 21.75C17.9875 21.75 17.9878 21.75 17.9882 21.75C17.9885 21.75 17.9888 21.75 17.9892 21.75C17.9895 21.75 17.9898 21.75 17.9901 21.75C17.9904 21.75 17.9907 21.75 17.991 21.75C17.9913 21.75 17.9916 21.75 17.9919 21.75C17.9922 21.75 17.9924 21.75 17.9927 21.75C17.993 21.75 17.9932 21.75 17.9935 21.75C17.9937 21.75 17.994 21.75 17.9942 21.75C17.9945 21.75 17.9947 21.75 17.9949 21.75C17.9951 21.75 17.9954 21.75 17.9956 21.75C17.9958 21.75 17.996 21.75 17.9962 21.75C17.9964 21.75 17.9966 21.75 17.9967 21.75C17.9969 21.75 17.9971 21.75 17.9973 21.75C17.9974 21.75 17.9976 21.75 17.9977 21.75C17.9979 21.75 17.998 21.75 17.9982 21.75C17.9983 21.75 17.9984 21.75 17.9985 21.75C17.9987 21.75 17.9988 21.75 17.9989 21.75C17.999 21.75 17.9991 21.75 17.9992 21.75C17.9993 21.75 17.9994 21.75 17.9994 21.75C17.9995 21.75 17.9996 21.75 17.9996 21.75C17.9997 21.75 17.9997 21.75 17.9998 21.75C17.9998 21.75 17.9999 21.75 17.9999 21.75C17.9999 21.75 18 21.75 18 21.75C18 21.75 18 21.75 18 21C18 20.25 18 20.25 18 20.25C18 20.25 17.9999 20.25 17.9999 20.25C17.9999 20.25 17.9998 20.25 17.9998 20.25C17.9997 20.25 17.9997 20.25 17.9996 20.25C17.9996 20.25 17.9995 20.25 17.9994 20.25C17.9994 20.25 17.9993 20.25 17.9992 20.25C17.9991 20.25 17.999 20.25 17.9989 20.25C17.9988 20.25 17.9987 20.25 17.9985 20.25C17.9984 20.25 17.9983 20.25 17.9982 20.25C17.998 20.25 17.9979 20.25 17.9977 20.25C17.9976 20.25 17.9974 20.25 17.9973 20.25C17.9971 20.25 17.9969 20.25 17.9967 20.25C17.9966 20.25 17.9964 20.25 17.9962 20.25C17.996 20.25 17.9958 20.25 17.9956 20.25C17.9954 20.25 17.9951 20.25 17.9949 20.25C17.9947 20.25 17.9945 20.25 17.9942 20.25C17.994 20.25 17.9937 20.25 17.9935 20.25C17.9932 20.25 17.993 20.25 17.9927 20.25C17.9924 20.25 17.9922 20.25 17.9919 20.25C17.9916 20.25 17.9913 20.25 17.991 20.25C17.9907 20.25 17.9904 20.25 17.9901 20.25C17.9898 20.25 17.9895 20.25 17.9892 20.25C17.9888 20.25 17.9885 20.25 17.9882 20.25C17.9878 20.25 17.9875 20.25 17.9871 20.25C17.9868 20.25 17.9864 20.25 17.986 20.25C17.9857 20.25 17.9853 20.25 17.9849 20.25C17.9845 20.25 17.9841 20.25 17.9838 20.25C17.9834 20.25 17.983 20.25 17.9825 20.25C17.9821 20.25 17.9817 20.25 17.9813 20.25C17.9809 20.25 17.9804 20.25 17.98 20.25C17.9796 20.25 17.9791 20.25 17.9787 20.25C17.9782 20.25 17.9778 20.25 17.9773 20.25C17.9768 20.25 17.9764 20.25 17.9759 20.25C17.9754 20.25 17.9749 20.25 17.9744 20.25C17.9739 20.25 17.9734 20.25 17.9729 20.25C17.9724 20.25 17.9719 20.25 17.9714 20.25C17.9709 20.25 17.9703 20.25 17.9698 20.25C17.9693 20.25 17.9687 20.25 17.9682 20.25C17.9676 20.25 17.9671 20.25 17.9665 20.25C17.966 20.25 17.9654 20.25 17.9648 20.25C17.9642 20.25 17.9637 20.25 17.9631 20.25C17.9625 20.25 17.9619 20.25 17.9613 20.25C17.9607 20.25 17.9601 20.25 17.9595 20.25C17.9588 20.25 17.9582 20.25 17.9576 20.25C17.957 20.25 17.9563 20.25 17.9557 20.25C17.955 20.25 17.9544 20.25 17.9537 20.25C17.9531 20.25 17.9524 20.25 17.9518 20.25C17.9511 20.25 17.9504 20.25 17.9497 20.25C17.9491 20.25 17.9484 20.25 17.9477 20.25C17.947 20.25 17.9463 20.25 17.9456 20.25C17.9449 20.25 17.9442 20.25 17.9434 20.25C17.9427 20.25 17.942 20.25 17.9413 20.25C17.9405 20.25 17.9398 20.25 17.939 20.25C17.9383 20.25 17.9375 20.25 17.9368 20.25C17.936 20.25 17.9353 20.25 17.9345 20.25C17.9337 20.25 17.9329 20.25 17.9321 20.25C17.9314 20.25 17.9306 20.25 17.9298 20.25C17.929 20.25 17.9282 20.25 17.9274 20.25C17.9266 20.25 17.9257 20.25 17.9249 20.25C17.9241 20.25 17.9233 20.25 17.9224 20.25C17.9216 20.25 17.9208 20.25 17.9199 20.25C17.9191 20.25 17.9182 20.25 17.9173 20.25C17.9165 20.25 17.9156 20.25 17.9147 20.25C17.9139 20.25 17.913 20.25 17.9121 20.25C17.9112 20.25 17.9103 20.25 17.9094 20.25C17.9085 20.25 17.9076 20.25 17.9067 20.25C17.9058 20.25 17.9049 20.25 17.904 20.25C17.9031 20.25 17.9021 20.25 17.9012 20.25C17.9003 20.25 17.8993 20.25 17.8984 20.25C17.8974 20.25 17.8965 20.25 17.8955 20.25C17.8946 20.25 17.8936 20.25 17.8926 20.25C17.8917 20.25 17.8907 20.25 17.8897 20.25C17.8887 20.25 17.8877 20.25 17.8867 20.25C17.8857 20.25 17.8847 20.25 17.8837 20.25C17.8827 20.25 17.8817 20.25 17.8807 20.25C17.8797 20.25 17.8786 20.25 17.8776 20.25C17.8766 20.25 17.8755 20.25 17.8745 20.25C17.8735 20.25 17.8724 20.25 17.8714 20.25C17.8703 20.25 17.8692 20.25 17.8682 20.25C17.8671 20.25 17.866 20.25 17.865 20.25C17.8639 20.25 17.8628 20.25 17.8617 20.25C17.8606 20.25 17.8595 20.25 17.8584 20.25C17.8573 20.25 17.8562 20.25 17.8551 20.25C17.854 20.25 17.8529 20.25 17.8517 20.25C17.8506 20.25 17.8495 20.25 17.8484 20.25C17.8472 20.25 17.8461 20.25 17.8449 20.25C17.8438 20.25 17.8426 20.25 17.8415 20.25C17.8403 20.25 17.8392 20.25 17.838 20.25C17.8368 20.25 17.8356 20.25 17.8345 20.25C17.8333 20.25 17.8321 20.25 17.8309 20.25C17.8297 20.25 17.8285 20.25 17.8273 20.25C17.8261 20.25 17.8249 20.25 17.8237 20.25C17.8225 20.25 17.8212 20.25 17.82 20.25C17.8188 20.25 17.8176 20.25 17.8163 20.25C17.8151 20.25 17.8138 20.25 17.8126 20.25C17.8113 20.25 17.8101 20.25 17.8088 20.25C17.8076 20.25 17.8063 20.25 17.805 20.25C17.8038 20.25 17.8025 20.25 17.8012 20.25C17.7999 20.25 17.7987 20.25 17.7974 20.25C17.7961 20.25 17.7948 20.25 17.7935 20.25C17.7922 20.25 17.7909 20.25 17.7895 20.25C17.7882 20.25 17.7869 20.25 17.7856 20.25C17.7843 20.25 17.7829 20.25 17.7816 20.25C17.7803 20.25 17.7789 20.25 17.7776 20.25C17.7762 20.25 17.7749 20.25 17.7735 20.25C17.7722 20.25 17.7708 20.25 17.7694 20.25C17.7681 20.25 17.7667 20.25 17.7653 20.25C17.764 20.25 17.7626 20.25 17.7612 20.25C17.7598 20.25 17.7584 20.25 17.757 20.25C17.7556 20.25 17.7542 20.25 17.7528 20.25C17.7514 20.25 17.75 20.25 17.7486 20.25C17.7471 20.25 17.7457 20.25 17.7443 20.25C17.7429 20.25 17.7414 20.25 17.74 20.25C17.7386 20.25 17.7371 20.25 17.7357 20.25C17.7342 20.25 17.7328 20.25 17.7313 20.25C17.7298 20.25 17.7284 20.25 17.7269 20.25C17.7254 20.25 17.724 20.25 17.7225 20.25C17.721 20.25 17.7195 20.25 17.718 20.25C17.7165 20.25 17.715 20.25 17.7135 20.25C17.712 20.25 17.7105 20.25 17.709 20.25C17.7075 20.25 17.706 20.25 17.7045 20.25C17.703 20.25 17.7014 20.25 17.6999 20.25C17.6984 20.25 17.6969 20.25 17.6953 20.25C17.6938 20.25 17.6922 20.25 17.6907 20.25C17.6891 20.25 17.6876 20.25 17.686 20.25C17.6845 20.25 17.6829 20.25 17.6813 20.25C17.6798 20.25 17.6782 20.25 17.6766 20.25C17.675 20.25 17.6735 20.25 17.6719 20.25C17.6703 20.25 17.6687 20.25 17.6671 20.25C17.6655 20.25 17.6639 20.25 17.6623 20.25C17.6607 20.25 17.6591 20.25 17.6575 20.25C17.6558 20.25 17.6542 20.25 17.6526 20.25C17.651 20.25 17.6494 20.25 17.6477 20.25C17.6461 20.25 17.6444 20.25 17.6428 20.25C17.6412 20.25 17.6395 20.25 17.6379 20.25C17.6362 20.25 17.6345 20.25 17.6329 20.25C17.6312 20.25 17.6296 20.25 17.6279 20.25C17.6262 20.25 17.6245 20.25 17.6229 20.25C17.6212 20.25 17.6195 20.25 17.6178 20.25C17.6161 20.25 17.6144 20.25 17.6127 20.25C17.611 20.25 17.6093 20.25 17.6076 20.25C17.6059 20.25 17.6042 20.25 17.6025 20.25C17.6008 20.25 17.599 20.25 17.5973 20.25C17.5956 20.25 17.5939 20.25 17.5921 20.25C17.5904 20.25 17.5887 20.25 17.5869 20.25C17.5852 20.25 17.5834 20.25 17.5817 20.25C17.5799 20.25 17.5782 20.25 17.5764 20.25C17.5746 20.25 17.5729 20.25 17.5711 20.25C17.5693 20.25 17.5676 20.25 17.5658 20.25C17.564 20.25 17.5622 20.25 17.5605 20.25C17.5587 20.25 17.5569 20.25 17.5551 20.25C17.5533 20.25 17.5515 20.25 17.5497 20.25C17.5479 20.25 17.5461 20.25 17.5443 20.25C17.5425 20.25 17.5406 20.25 17.5388 20.25C17.537 20.25 17.5352 20.25 17.5333 20.25C17.5315 20.25 17.5297 20.25 17.5278 20.25C17.526 20.25 17.5242 20.25 17.5223 20.25C17.5205 20.25 17.5186 20.25 17.5168 20.25C17.5149 20.25 17.5131 20.25 17.5112 20.25C17.5093 20.25 17.5075 20.25 17.5056 20.25C17.5037 20.25 17.5019 20.25 17.5 20.25C17.4981 20.25 17.4962 20.25 17.4944 20.25C17.4925 20.25 17.4906 20.25 17.4887 20.25C17.4868 20.25 17.4849 20.25 17.483 20.25C17.4811 20.25 17.4792 20.25 17.4773 20.25C17.4754 20.25 17.4735 20.25 17.4715 20.25C17.4696 20.25 17.4677 20.25 17.4658 20.25C17.4638 20.25 17.4619 20.25 17.46 20.25C17.4581 20.25 17.4561 20.25 17.4542 20.25C17.4522 20.25 17.4503 20.25 17.4483 20.25C17.4464 20.25 17.4444 20.25 17.4425 20.25C17.4405 20.25 17.4386 20.25 17.4366 20.25C17.4346 20.25 17.4327 20.25 17.4307 20.25C17.4287 20.25 17.4268 20.25 17.4248 20.25C17.4228 20.25 17.4208 20.25 17.4188 20.25C17.4169 20.25 17.4149 20.25 17.4129 20.25C17.4109 20.25 17.4089 20.25 17.4069 20.25C17.4049 20.25 17.4029 20.25 17.4009 20.25C17.3989 20.25 17.3968 20.25 17.3948 20.25C17.3928 20.25 17.3908 20.25 17.3888 20.25C17.3868 20.25 17.3847 20.25 17.3827 20.25C17.3807 20.25 17.3786 20.25 17.3766 20.25C17.3746 20.25 17.3725 20.25 17.3705 20.25C17.3684 20.25 17.3664 20.25 17.3643 20.25C17.3623 20.25 17.3602 20.25 17.3582 20.25C17.3561 20.25 17.3541 20.25 17.352 20.25C17.3499 20.25 17.3479 20.25 17.3458 20.25C17.3437 20.25 17.3416 20.25 17.3396 20.25C17.3375 20.25 17.3354 20.25 17.3333 20.25C17.3312 20.25 17.3291 20.25 17.327 20.25C17.325 20.25 17.3229 20.25 17.3208 20.25C17.3187 20.25 17.3166 20.25 17.3145 20.25C17.3123 20.25 17.3102 20.25 17.3081 20.25C17.306 20.25 17.3039 20.25 17.3018 20.25C17.2997 20.25 17.2975 20.25 17.2954 20.25C17.2933 20.25 17.2912 20.25 17.289 20.25C17.2869 20.25 17.2848 20.25 17.2826 20.25C17.2805 20.25 17.2783 20.25 17.2762 20.25C17.274 20.25 17.2719 20.25 17.2698 20.25C17.2676 20.25 17.2654 20.25 17.2633 20.25C17.2611 20.25 17.259 20.25 17.2568 20.25C17.2546 20.25 17.2525 20.25 17.2503 20.25C17.2481 20.25 17.246 20.25 17.2438 20.25C17.2416 20.25 17.2394 20.25 17.2372 20.25C17.2351 20.25 17.2329 20.25 17.2307 20.25C17.2285 20.25 17.2263 20.25 17.2241 20.25C17.2219 20.25 17.2197 20.25 17.2175 20.25C17.2153 20.25 17.2131 20.25 17.2109 20.25C17.2087 20.25 17.2065 20.25 17.2043 20.25C17.2021 20.25 17.1998 20.25 17.1976 20.25C17.1954 20.25 17.1932 20.25 17.191 20.25C17.1887 20.25 17.1865 20.25 17.1843 20.25C17.1821 20.25 17.1798 20.25 17.1776 20.25C17.1753 20.25 17.1731 20.25 17.1709 20.25C17.1686 20.25 17.1664 20.25 17.1641 20.25C17.1619 20.25 17.1596 20.25 17.1574 20.25C17.1551 20.25 17.1529 20.25 17.1506 20.25C17.1484 20.25 17.1461 20.25 17.1438 20.25C17.1416 20.25 17.1393 20.25 17.137 20.25C17.1348 20.25 17.1325 20.25 17.1302 20.25C17.1279 20.25 17.1257 20.25 17.1234 20.25C17.1211 20.25 17.1188 20.25 17.1165 20.25C17.1142 20.25 17.112 20.25 17.1097 20.25C17.1074 20.25 17.1051 20.25 17.1028 20.25C17.1005 20.25 17.0982 20.25 17.0959 20.25C17.0936 20.25 17.0913 20.25 17.089 20.25C17.0867 20.25 17.0844 20.25 17.082 20.25C17.0797 20.25 17.0774 20.25 17.0751 20.25C17.0728 20.25 17.0705 20.25 17.0681 20.25C17.0658 20.25 17.0635 20.25 17.0612 20.25C17.0588 20.25 17.0565 20.25 17.0542 20.25C17.0518 20.25 17.0495 20.25 17.0472 20.25C17.0448 20.25 17.0425 20.25 17.0402 20.25C17.0378 20.25 17.0355 20.25 17.0331 20.25C17.0308 20.25 17.0284 20.25 17.0261 20.25C17.0237 20.25 17.0214 20.25 17.019 20.25C17.0167 20.25 17.0143 20.25 17.0119 20.25C17.0096 20.25 17.0072 20.25 17.0049 20.25C17.0025 20.25 17.0001 20.25 16.9977 20.25C16.9954 20.25 16.993 20.25 16.9906 20.25C16.9883 20.25 16.9859 20.25 16.9835 20.25C16.9811 20.25 16.9787 20.25 16.9764 20.25C16.974 20.25 16.9716 20.25 16.9692 20.25C16.9668 20.25 16.9644 20.25 16.962 20.25C16.9596 20.25 16.9572 20.25 16.9548 20.25C16.9524 20.25 16.95 20.25 16.9476 20.25C16.9452 20.25 16.9428 20.25 16.9404 20.25C16.938 20.25 16.9356 20.25 16.9332 20.25C16.9308 20.25 16.9284 20.25 16.926 20.25C16.9236 20.25 16.9212 20.25 16.9187 20.25C16.9163 20.25 16.9139 20.25 16.9115 20.25C16.9091 20.25 16.9066 20.25 16.9042 20.25C16.9018 20.25 16.8994 20.25 16.8969 20.25C16.8945 20.25 16.8921 20.25 16.8896 20.25C16.8872 20.25 16.8848 20.25 16.8823 20.25C16.8799 20.25 16.8774 20.25 16.875 20.25C16.8726 20.25 16.8701 20.25 16.8677 20.25C16.8652 20.25 16.8628 20.25 16.8603 20.25C16.8579 20.25 16.8554 20.25 16.853 20.25C16.8505 20.25 16.8481 20.25 16.8456 20.25C16.8432 20.25 16.8407 20.25 16.8382 20.25C16.8358 20.25 16.8333 20.25 16.8309 20.25C16.8284 20.25 16.8259 20.25 16.8235 20.25C16.821 20.25 16.8185 20.25 16.8161 20.25C16.8136 20.25 16.8111 20.25 16.8086 20.25C16.8062 20.25 16.8037 20.25 16.8012 20.25C16.7987 20.25 16.7963 20.25 16.7938 20.25C16.7913 20.25 16.7888 20.25 16.7863 20.25C16.7838 20.25 16.7814 20.25 16.7789 20.25C16.7764 20.25 16.7739 20.25 16.7714 20.25C16.7689 20.25 16.7664 20.25 16.7639 20.25C16.7614 20.25 16.7589 20.25 16.7564 20.25C16.7539 20.25 16.7514 20.25 16.7489 20.25C16.7464 20.25 16.7439 20.25 16.7414 20.25C16.7389 20.25 16.7364 20.25 16.7339 20.25C16.7314 20.25 16.7289 20.25 16.7264 20.25C16.7239 20.25 16.7214 20.25 16.7189 20.25C16.7164 20.25 16.7139 20.25 16.7113 20.25C16.7088 20.25 16.7063 20.25 16.7038 20.25C16.7013 20.25 16.6988 20.25 16.6962 20.25C16.6937 20.25 16.6912 20.25 16.6887 20.25C16.6861 20.25 16.6836 20.25 16.6811 20.25C16.6786 20.25 16.676 20.25 16.6735 20.25C16.671 20.25 16.6685 20.25 16.6659 20.25C16.6634 20.25 16.6609 20.25 16.6583 20.25C16.6558 20.25 16.6533 20.25 16.6507 20.25C16.6482 20.25 16.6457 20.25 16.6431 20.25C16.6406 20.25 16.638 20.25 16.6355 20.25C16.633 20.25 16.6304 20.25 16.6279 20.25C16.6253 20.25 16.6228 20.25 16.6202 20.25C16.6177 20.25 16.6151 20.25 16.6126 20.25C16.6101 20.25 16.6075 20.25 16.605 20.25C16.6024 20.25 16.5999 20.25 16.5973 20.25C16.5948 20.25 16.5922 20.25 16.5896 20.25C16.5871 20.25 16.5845 20.25 16.582 20.25C16.5794 20.25 16.5769 20.25 16.5743 20.25C16.5717 20.25 16.5692 20.25 16.5666 20.25C16.5641 20.25 16.5615 20.25 16.5589 20.25C16.5564 20.25 16.5538 20.25 16.5513 20.25C16.5487 20.25 16.5461 20.25 16.5436 20.25C16.541 20.25 16.5384 20.25 16.5359 20.25C16.5333 20.25 16.5307 20.25 16.5282 20.25C16.5256 20.25 16.523 20.25 16.5204 20.25C16.5179 20.25 16.5153 20.25 16.5127 20.25C16.5102 20.25 16.5076 20.25 16.505 20.25C16.5024 20.25 16.4999 20.25 16.4973 20.25C16.4947 20.25 16.4921 20.25 16.4895 20.25C16.487 20.25 16.4844 20.25 16.4818 20.25C16.4792 20.25 16.4767 20.25 16.4741 20.25C16.4715 20.25 16.4689 20.25 16.4663 20.25C16.4637 20.25 16.4612 20.25 16.4586 20.25C16.456 20.25 16.4534 20.25 16.4508 20.25C16.4482 20.25 16.4457 20.25 16.4431 20.25C16.4405 20.25 16.4379 20.25 16.4353 20.25C16.4327 20.25 16.4301 20.25 16.4275 20.25C16.425 20.25 16.4224 20.25 16.4198 20.25C16.4172 20.25 16.4146 20.25 16.412 20.25C16.4094 20.25 16.4068 20.25 16.4042 20.25C16.4016 20.25 16.399 20.25 16.3965 20.25C16.3939 20.25 16.3913 20.25 16.3887 20.25C16.3861 20.25 16.3835 20.25 16.3809 20.25C16.3783 20.25 16.3757 20.25 16.3731 20.25C16.3705 20.25 16.3679 20.25 16.3653 20.25C16.3627 20.25 16.3601 20.25 16.3575 20.25C16.3549 20.25 16.3523 20.25 16.3497 20.25C16.3471 20.25 16.3445 20.25 16.3419 20.25C16.3393 20.25 16.3367 20.25 16.3341 20.25C16.3315 20.25 16.3289 20.25 16.3263 20.25C16.3237 20.25 16.3211 20.25 16.3185 20.25C16.3159 20.25 16.3133 20.25 16.3107 20.25C16.3081 20.25 16.3055 20.25 16.3029 20.25C16.3003 20.25 16.2977 20.25 16.2951 20.25C16.2925 20.25 16.2899 20.25 16.2873 20.25C16.2847 20.25 16.2821 20.25 16.2795 20.25C16.2769 20.25 16.2743 20.25 16.2717 20.25C16.2691 20.25 16.2665 20.25 16.2639 20.25C16.2613 20.25 16.2587 20.25 16.2561 20.25C16.2535 20.25 16.2509 20.25 16.2483 20.25C16.2457 20.25 16.2431 20.25 16.2405 20.25C16.2378 20.25 16.2352 20.25 16.2326 20.25C16.23 20.25 16.2274 20.25 16.2248 20.25C16.2222 20.25 16.2196 20.25 16.217 20.25C16.2144 20.25 16.2118 20.25 16.2092 20.25C16.2066 20.25 16.204 20.25 16.2014 20.25C16.1988 20.25 16.1962 20.25 16.1936 20.25C16.191 20.25 16.1884 20.25 16.1858 20.25C16.1832 20.25 16.1806 20.25 16.178 20.25C16.1754 20.25 16.1727 20.25 16.1701 20.25C16.1675 20.25 16.1649 20.25 16.1623 20.25C16.1597 20.25 16.1571 20.25 16.1545 20.25C16.1519 20.25 16.1493 20.25 16.1467 20.25C16.1441 20.25 16.1415 20.25 16.1389 20.25C16.1363 20.25 16.1337 20.25 16.1311 20.25C16.1285 20.25 16.1259 20.25 16.1233 20.25C16.1207 20.25 16.1181 20.25 16.1155 20.25C16.1129 20.25 16.1103 20.25 16.1077 20.25C16.1051 20.25 16.1025 20.25 16.0999 20.25C16.0973 20.25 16.0947 20.25 16.0921 20.25C16.0895 20.25 16.0869 20.25 16.0843 20.25C16.0817 20.25 16.0791 20.25 16.0765 20.25C16.0739 20.25 16.0713 20.25 16.0687 20.25C16.0662 20.25 16.0636 20.25 16.061 20.25C16.0584 20.25 16.0558 20.25 16.0532 20.25C16.0506 20.25 16.048 20.25 16.0454 20.25C16.0428 20.25 16.0402 20.25 16.0376 20.25C16.035 20.25 16.0324 20.25 16.0298 20.25C16.0273 20.25 16.0247 20.25 16.0221 20.25C16.0195 20.25 16.0169 20.25 16.0143 20.25C16.0117 20.25 16.0091 20.25 16.0065 20.25C16.004 20.25 16.0014 20.25 15.9988 20.25C15.9962 20.25 15.9936 20.25 15.991 20.25C15.9885 20.25 15.9859 20.25 15.9833 20.25C15.9807 20.25 15.9781 20.25 15.9755 20.25C15.973 20.25 15.9704 20.25 15.9678 20.25C15.9652 20.25 15.9626 20.25 15.9601 20.25C15.9575 20.25 15.9549 20.25 15.9523 20.25C15.9497 20.25 15.9472 20.25 15.9446 20.25C15.942 20.25 15.9394 20.25 15.9369 20.25C15.9343 20.25 15.9317 20.25 15.9291 20.25C15.9266 20.25 15.924 20.25 15.9214 20.25C15.9189 20.25 15.9163 20.25 15.9137 20.25C15.9112 20.25 15.9086 20.25 15.906 20.25C15.9035 20.25 15.9009 20.25 15.8983 20.25C15.8958 20.25 15.8932 20.25 15.8906 20.25C15.8881 20.25 15.8855 20.25 15.8829 20.25C15.8804 20.25 15.8778 20.25 15.8753 20.25C15.8727 20.25 15.8701 20.25 15.8676 20.25C15.865 20.25 15.8625 20.25 15.8599 20.25C15.8574 20.25 15.8548 20.25 15.8522 20.25C15.8497 20.25 15.8471 20.25 15.8446 20.25C15.842 20.25 15.8395 20.25 15.8369 20.25C15.8344 20.25 15.8318 20.25 15.8293 20.25C15.8267 20.25 15.8242 20.25 15.8217 20.25C15.8191 20.25 15.8166 20.25 15.814 20.25C15.8115 20.25 15.8089 20.25 15.8064 20.25C15.8039 20.25 15.8013 20.25 15.7988 20.25C15.7963 20.25 15.7937 20.25 15.7912 20.25C15.7886 20.25 15.7861 20.25 15.7836 20.25C15.781 20.25 15.7785 20.25 15.776 20.25C15.7735 20.25 15.7709 20.25 15.7684 20.25C15.7659 20.25 15.7633 20.25 15.7608 20.25C15.7583 20.25 15.7558 20.25 15.7533 20.25C15.7507 20.25 15.7482 20.25 15.7457 20.25C15.7432 20.25 15.7407 20.25 15.7381 20.25C15.7356 20.25 15.7331 20.25 15.7306 20.25C15.7281 20.25 15.7256 20.25 15.7231 20.25C15.7205 20.25 15.718 20.25 15.7155 20.25C15.713 20.25 15.7105 20.25 15.708 20.25C15.7055 20.25 15.703 20.25 15.7005 20.25C15.698 20.25 15.6955 20.25 15.693 20.25C15.6905 20.25 15.688 20.25 15.6855 20.25C15.683 20.25 15.6805 20.25 15.678 20.25C15.6755 20.25 15.673 20.25 15.6706 20.25C15.6681 20.25 15.6656 20.25 15.6631 20.25C15.6606 20.25 15.6581 20.25 15.6556 20.25C15.6532 20.25 15.6507 20.25 15.6482 20.25C15.6457 20.25 15.6432 20.25 15.6408 20.25C15.6383 20.25 15.6358 20.25 15.6333 20.25C15.6309 20.25 15.6284 20.25 15.6259 20.25C15.6235 20.25 15.621 20.25 15.6185 20.25C15.6161 20.25 15.6136 20.25 15.6111 20.25C15.6087 20.25 15.6062 20.25 15.6037 20.25C15.6013 20.25 15.5988 20.25 15.5964 20.25C15.5939 20.25 15.5915 20.25 15.589 20.25C15.5866 20.25 15.5841 20.25 15.5817 20.25C15.5792 20.25 15.5768 20.25 15.5743 20.25C15.5719 20.25 15.5694 20.25 15.567 20.25C15.5646 20.25 15.5621 20.25 15.5597 20.25C15.5573 20.25 15.5548 20.25 15.5524 20.25C15.55 20.25 15.5475 20.25 15.5451 20.25C15.5427 20.25 15.5402 20.25 15.5378 20.25C15.5354 20.25 15.533 20.25 15.5305 20.25C15.5281 20.25 15.5257 20.25 15.5233 20.25C15.5209 20.25 15.5185 20.25 15.5161 20.25C15.5136 20.25 15.5112 20.25 15.5088 20.25C15.5064 20.25 15.504 20.25 15.5016 20.25C15.4992 20.25 15.4968 20.25 15.4944 20.25C15.492 20.25 15.4896 20.25 15.4872 20.25C15.4848 20.25 15.4824 20.25 15.48 20.25C15.4776 20.25 15.4752 20.25 15.4729 20.25C15.4705 20.25 15.4681 20.25 15.4657 20.25C15.4633 20.25 15.4609 20.25 15.4586 20.25C15.4562 20.25 15.4538 20.25 15.4514 20.25C15.4491 20.25 15.4467 20.25 15.4443 20.25C15.442 20.25 15.4396 20.25 15.4372 20.25C15.4349 20.25 15.4325 20.25 15.4301 20.25C15.4278 20.25 15.4254 20.25 15.4231 20.25C15.4207 20.25 15.4184 20.25 15.416 20.25C15.4137 20.25 15.4113 20.25 15.409 20.25C15.4066 20.25 15.4043 20.25 15.4019 20.25C15.3996 20.25 15.3973 20.25 15.3949 20.25C15.3926 20.25 15.3903 20.25 15.3879 20.25C15.3856 20.25 15.3833 20.25 15.3809 20.25C15.3786 20.25 15.3763 20.25 15.374 20.25C15.3717 20.25 15.3693 20.25 15.367 20.25C15.3647 20.25 15.3624 20.25 15.3601 20.25C15.3578 20.25 15.3555 20.25 15.3532 20.25C15.3509 20.25 15.3486 20.25 15.3463 20.25C15.344 20.25 15.3417 20.25 15.3394 20.25C15.3371 20.25 15.3348 20.25 15.3325 20.25C15.3302 20.25 15.3279 20.25 15.3256 20.25C15.3233 20.25 15.3211 20.25 15.3188 20.25C15.3165 20.25 15.3142 20.25 15.312 20.25C15.3097 20.25 15.3074 20.25 15.3051 20.25C15.3029 20.25 15.3006 20.25 15.2984 20.25C15.2961 20.25 15.2938 20.25 15.2916 20.25C15.2893 20.25 15.2871 20.25 15.2848 20.25C15.2826 20.25 15.2803 20.25 15.2781 20.25C15.2758 20.25 15.2736 20.25 15.2713 20.25C15.2691 20.25 15.2669 20.25 15.2646 20.25C15.2624 20.25 15.2602 20.25 15.2579 20.25C15.2557 20.25 15.2535 20.25 15.2513 20.25C15.249 20.25 15.2468 20.25 15.2446 20.25C15.2424 20.25 15.2402 20.25 15.238 20.25C15.2357 20.25 15.2335 20.25 15.2313 20.25C15.2291 20.25 15.2269 20.25 15.2247 20.25C15.2225 20.25 15.2203 20.25 15.2181 20.25C15.2159 20.25 15.2138 20.25 15.2116 20.25C15.2094 20.25 15.2072 20.25 15.205 20.25C15.2028 20.25 15.2007 20.25 15.1985 20.25C15.1963 20.25 15.1941 20.25 15.192 20.25C15.1898 20.25 15.1876 20.25 15.1855 20.25C15.1833 20.25 15.1812 20.25 15.179 20.25C15.1768 20.25 15.1747 20.25 15.1725 20.25C15.1704 20.25 15.1682 20.25 15.1661 20.25C15.164 20.25 15.1618 20.25 15.1597 20.25C15.1576 20.25 15.1554 20.25 15.1533 20.25C15.1512 20.25 15.149 20.25 15.1469 20.25C15.1448 20.25 15.1427 20.25 15.1405 20.25C15.1384 20.25 15.1363 20.25 15.1342 20.25C15.1321 20.25 15.13 20.25 15.1279 20.25C15.1258 20.25 15.1237 20.25 15.1216 20.25C15.1195 20.25 15.1174 20.25 15.1153 20.25C15.1132 20.25 15.1111 20.25 15.109 20.25C15.107 20.25 15.1049 20.25 15.1028 20.25C15.1007 20.25 15.0987 20.25 15.0966 20.25C15.0945 20.25 15.0925 20.25 15.0904 20.25C15.0883 20.25 15.0863 20.25 15.0842 20.25C15.0822 20.25 15.0801 20.25 15.0781 20.25C15.076 20.25 15.074 20.25 15.0719 20.25C15.0699 20.25 15.0678 20.25 15.0658 20.25C15.0638 20.25 15.0617 20.25 15.0597 20.25C15.0577 20.25 15.0557 20.25 15.0536 20.25C15.0516 20.25 15.0496 20.25 15.0476 20.25C15.0456 20.25 15.0436 20.25 15.0416 20.25C15.0396 20.25 15.0376 20.25 15.0356 20.25C15.0336 20.25 15.0316 20.25 15.0296 20.25C15.0276 20.25 15.0256 20.25 15.0236 20.25C15.0216 20.25 15.0197 20.25 15.0177 20.25C15.0157 20.25 15.0137 20.25 15.0118 20.25C15.0098 20.25 15.0078 20.25 15.0059 20.25C15.0039 20.25 15.002 20.25 15 20.25V21.75Z" fill="#1F2025"/>
</svg>
