<svg display="none" xmlns="http://www.w3.org/2000/svg">
    <symbol id="like" viewBox="0 0 10 12">
        <path fill-rule="evenodd" clip-rule="evenodd" d="M4.13495 1.5C4.02415 1.5 3.92181 1.55946 3.86695 1.65575L1.63631 5.57127C1.34063 6.09027 1.21654 6.68947 1.28179 7.28327L1.51721 9.42567C1.55911 9.80687 1.85835 10.1088 2.23915 10.1541L3.65051 10.322C4.58221 10.4329 5.52688 10.3367 6.41721 10.0406C6.85695 9.8944 7.20908 9.56067 7.37881 9.12947L8.51481 6.2424C8.54261 6.17187 8.56181 6.0982 8.57201 6.023C8.65815 5.38827 8.10255 4.8528 7.47141 4.96247L5.19421 5.35793C4.47488 5.48287 3.85361 4.84813 3.99401 4.13163L4.43761 1.86772C4.47495 1.67721 4.32908 1.5 4.13495 1.5ZM2.99807 1.16074C3.23079 0.75224 3.66479 0.500007 4.13495 0.5C4.95855 0.499993 5.57728 1.25179 5.41895 2.06001L4.97535 4.32391C4.97341 4.33361 4.97448 4.33954 4.97581 4.34379C4.97741 4.34903 4.98081 4.35517 4.98641 4.36087C4.99195 4.36656 4.99801 4.37007 5.00321 4.37183C5.00741 4.37325 5.01335 4.3744 5.02308 4.37271L7.30028 3.97719C8.59775 3.75185 9.74008 4.8526 9.56295 6.15753C9.54195 6.31207 9.50248 6.46347 9.44541 6.6086L8.30935 9.49567C8.03115 10.2026 7.45375 10.7497 6.73281 10.9895C5.70295 11.3321 4.61015 11.4432 3.53239 11.315L2.12103 11.1471C1.27822 11.0469 0.615907 10.3786 0.5232 9.53493L0.287774 7.39247C0.199494 6.58913 0.367374 5.77847 0.767427 5.0762L2.99807 1.16074Z" />
    </symbol>
    <symbol id="reviews" viewBox="0 0 12 12">
        <path fill-rule="evenodd" clip-rule="evenodd" d="M1.06123 8.2028C-0.437345 4.5245 2.26873 0.5 6.24059 0.5H6.45485C9.42532 0.5 11.8333 2.90801 11.8333 5.8784C11.8333 9.18567 9.15226 11.8667 5.84505 11.8667H0.631555C0.419388 11.8667 0.230315 11.7327 0.159901 11.5326C0.0894814 11.3325 0.153048 11.1097 0.318475 10.9768L1.6328 9.92127C1.69027 9.87513 1.7106 9.79673 1.68279 9.72847L1.06123 8.2028ZM6.24059 1.5C2.97891 1.5 0.756701 4.80493 1.98733 7.82553L2.60888 9.3512C2.80355 9.829 2.66125 10.3779 2.25897 10.701L2.05267 10.8667H5.84505C8.59999 10.8667 10.8333 8.63333 10.8333 5.8784C10.8333 3.46029 8.87305 1.5 6.45485 1.5H6.24059Z" />
    </symbol>
    <symbol id="star" viewBox="0 0 24 24">
        <path d="M8.5 8.5L12 4L15.5 8.5L20.5 10.5L17 14.5L17.5 20L12 18L6.5 20L7 14.5L3.5 10.5L8.5 8.5Z" />
        <path fill-rule="evenodd" clip-rule="evenodd" d="M10.4864 4.11413C11.1608 2.95186 12.8392 2.95187 13.5136 4.11413L15.579 7.67349C15.7694 8.00158 16.0984 8.22547 16.4735 8.28212L19.9031 8.80012C21.3981 9.02592 21.9225 10.9135 20.7582 11.878L18.2593 13.9484C17.9086 14.2389 17.7437 14.6973 17.8289 15.1448L18.5289 18.8207C18.8031 20.2607 17.2914 21.3795 15.9944 20.6965L12.5824 18.9C12.2178 18.708 11.7822 18.708 11.4176 18.9L8.0056 20.6965C6.70859 21.3795 5.19696 20.2607 5.47116 18.8207L6.17114 15.1448C6.25634 14.6973 6.09142 14.2389 5.74068 13.9484L3.24178 11.878C2.07749 10.9135 2.6019 9.02592 4.09689 8.80012L7.52654 8.28212C7.9016 8.22547 8.23065 8.00158 8.42102 7.67349L10.4864 4.11413ZM12.2162 4.86696C12.1199 4.70092 11.8801 4.70092 11.7838 4.86696L9.71842 8.42632C9.2996 9.14811 8.57569 9.64067 7.75055 9.76529L4.32091 10.2833C4.10734 10.3155 4.03242 10.5852 4.19875 10.723L6.69765 12.7933C7.46928 13.4326 7.83211 14.441 7.64466 15.4253L6.94468 19.1013C6.90551 19.307 7.12145 19.4669 7.30674 19.3693L10.7188 17.5727C11.5207 17.1504 12.4793 17.1504 13.2812 17.5727L16.6933 19.3693C16.8786 19.4669 17.0945 19.307 17.0553 19.1013L16.3554 15.4253C16.1679 14.441 16.5307 13.4326 17.3024 12.7933L19.8013 10.723C19.9676 10.5852 19.8927 10.3155 19.6791 10.2833L16.2495 9.76529C15.4243 9.64067 14.7004 9.14811 14.2816 8.42632L12.2162 4.86696Z" />
    </symbol>
    <symbol id="star-black" viewBox="0 0 24 24">
        <path fill-rule="evenodd" clip-rule="evenodd" d="M10.4864 4.11413C11.1608 2.95186 12.8392 2.95187 13.5136 4.11413L15.579 7.67349C15.7694 8.00158 16.0984 8.22547 16.4735 8.28212L19.9031 8.80012C21.3981 9.02592 21.9225 10.9135 20.7582 11.878L18.2593 13.9484C17.9086 14.2389 17.7437 14.6973 17.8289 15.1448L18.5289 18.8207C18.8031 20.2607 17.2914 21.3795 15.9944 20.6965L12.5824 18.9C12.2178 18.708 11.7822 18.708 11.4176 18.9L8.0056 20.6965C6.70859 21.3795 5.19696 20.2607 5.47116 18.8207L6.17114 15.1448C6.25634 14.6973 6.09142 14.2389 5.74068 13.9484L3.24178 11.878C2.07749 10.9135 2.6019 9.02592 4.09689 8.80012L7.52654 8.28212C7.9016 8.22547 8.23065 8.00158 8.42102 7.67349L10.4864 4.11413ZM12.2162 4.86696C12.1199 4.70092 11.8801 4.70092 11.7838 4.86696L9.71842 8.42632C9.2996 9.14811 8.57569 9.64067 7.75055 9.76529L4.32091 10.2833C4.10734 10.3155 4.03242 10.5852 4.19875 10.723L6.69765 12.7933C7.46928 13.4326 7.83211 14.441 7.64466 15.4253L6.94468 19.1013C6.90551 19.307 7.12145 19.4669 7.30674 19.3693L10.7188 17.5727C11.5207 17.1504 12.4793 17.1504 13.2812 17.5727L16.6933 19.3693C16.8786 19.4669 17.0945 19.307 17.0553 19.1013L16.3554 15.4253C16.1679 14.441 16.5307 13.4326 17.3024 12.7933L19.8013 10.723C19.9676 10.5852 19.8927 10.3155 19.6791 10.2833L16.2495 9.76529C15.4243 9.64067 14.7004 9.14811 14.2816 8.42632L12.2162 4.86696Z" />
    </symbol>
    <symbol id="exchange" viewBox="0 0 24 24">
        <path d="M7.53033 6.53033C7.82322 6.23744 7.82322 5.76256 7.53033 5.46967C7.23744 5.17678 6.76256 5.17678 6.46967 5.46967L4.46967 7.46967C4.17678 7.76256 4.17678 8.23744 4.46967 8.53033L6.46967 10.5303C6.76256 10.8232 7.23744 10.8232 7.53033 10.5303C7.82322 10.2374 7.82322 9.76256 7.53033 9.46967L6.81066 8.75H17C17.4142 8.75 17.75 8.41421 17.75 8C17.75 7.58579 17.4142 7.25 17 7.25H6.81066L7.53033 6.53033Z"/>
        <path d="M16.4697 13.4697C16.1768 13.7626 16.1768 14.2374 16.4697 14.5303L17.1893 15.25H7C6.58579 15.25 6.25 15.5858 6.25 16C6.25 16.4142 6.58579 16.75 7 16.75H17.1893L16.4697 17.4697C16.1768 17.7626 16.1768 18.2374 16.4697 18.5303C16.7626 18.8232 17.2374 18.8232 17.5303 18.5303L19.5303 16.5303C19.8232 16.2374 19.8232 15.7626 19.5303 15.4697L17.5303 13.4697C17.2374 13.1768 16.7626 13.1768 16.4697 13.4697Z"/>
    </symbol>
    <symbol id="arrow-bottom" viewBox="0 0 8 5">
        <path fill-rule="evenodd" clip-rule="evenodd" d="M7.62431 0.175734C7.85863 0.410046 7.85863 0.78995 7.62431 1.02424L4.42431 4.22424C4.18999 4.45856 3.81015 4.45856 3.57583 4.22424L0.375807 1.02424C0.141495 0.78995 0.141495 0.410046 0.375807 0.175734C0.610119 -0.058578 0.990023 -0.058578 1.22434 0.175734L4.00007 2.95144L6.77583 0.175734C7.01015 -0.058578 7.38999 -0.058578 7.62431 0.175734Z" />
    </symbol>
    <symbol id="search" viewBox="0 0 12 12">
        <path fill-rule="evenodd" clip-rule="evenodd" d="M7.59004 8.01609C5.82317 9.43122 3.23689 9.31982 1.59903 7.68195C-0.158334 5.92462 -0.158334 3.07538 1.59903 1.31802C3.35639 -0.43934 6.20564 -0.43934 7.96297 1.31802C9.60084 2.95587 9.71224 5.54215 8.2971 7.30902L11.7342 10.7461C11.9295 10.9414 11.9295 11.258 11.7342 11.4532C11.539 11.6485 11.2224 11.6485 11.0271 11.4532L7.59004 8.01609ZM2.30613 6.97489C0.939299 5.60802 0.939299 3.39196 2.30613 2.02513C3.67297 0.658293 5.88904 0.658293 7.2559 2.02513C8.62171 3.39096 8.6227 5.60475 7.2589 6.97189C7.25791 6.97289 7.2569 6.97382 7.25584 6.97489C7.25484 6.97589 7.25384 6.97689 7.2529 6.97789C5.88577 8.34169 3.67197 8.34069 2.30613 6.97489Z" />
    </symbol>
    <symbol id="location" viewBox="0 0 16 16">
        <path fill-rule="evenodd" clip-rule="evenodd" d="M4.83325 6.66667C4.83325 4.91777 6.25102 3.5 7.99992 3.5C9.74879 3.5 11.1666 4.91777 11.1666 6.66667C11.1666 8.4156 9.74879 9.83333 7.99992 9.83333C6.25102 9.83333 4.83325 8.4156 4.83325 6.66667ZM7.99992 4.5C6.80333 4.5 5.83325 5.47005 5.83325 6.66667C5.83325 7.86327 6.80333 8.83333 7.99992 8.83333C9.19652 8.83333 10.1666 7.86327 10.1666 6.66667C10.1666 5.47005 9.19652 4.5 7.99992 4.5Z"/>
        <path fill-rule="evenodd" clip-rule="evenodd" d="M2.34951 5.90449C2.58573 3.03874 4.9805 0.833252 7.85594 0.833252H8.14394C11.0194 0.833252 13.4141 3.03874 13.6503 5.90449C13.7773 7.44392 13.3017 8.97252 12.3239 10.1683L9.1286 14.0762C8.54527 14.7896 7.4546 14.7896 6.87127 14.0762L3.67591 10.1683C2.69814 8.97252 2.22262 7.44392 2.34951 5.90449ZM7.85594 1.83325C5.50093 1.83325 3.53959 3.63957 3.34613 5.98664C3.24052 7.26785 3.63628 8.54005 4.45006 9.53532L7.6454 13.4432C7.82867 13.6673 8.1712 13.6673 8.35447 13.4432L11.5498 9.53532C12.3636 8.54005 12.7593 7.26785 12.6537 5.98664C12.4603 3.63957 10.4989 1.83325 8.14394 1.83325H7.85594Z"/>
    </symbol>
    <symbol id="eye" viewBox="0 0 24 24">
        <path d="M21.5903 10.8345C21.8533 11.1488 22 11.5661 22 12C22 12.4339 21.8533 12.8512 21.5903 13.1655C19.9689 15.15 16.286 19 12 19C7.71403 19 4.03112 15.15 2.40965 13.1655C2.14667 12.8512 2 12.4339 2 12C2 11.5661 2.14667 11.1488 2.40965 10.8345C4.03112 8.85 7.71403 5 12 5C16.286 5 19.9689 8.85 21.5903 10.8345Z" stroke="#737373" stroke-width="1.5" stroke-linecap="round" stroke-linejoin="round"/>
        <path d="M12.0001 15.4287C13.8937 15.4287 15.4287 13.8937 15.4287 12.0001C15.4287 10.1066 13.8937 8.57153 12.0001 8.57153C10.1066 8.57153 8.57153 10.1066 8.57153 12.0001C8.57153 13.8937 10.1066 15.4287 12.0001 15.4287Z" stroke="#737373" stroke-width="1.5" stroke-linecap="round" stroke-linejoin="round"/>
    </symbol>
    <symbol id="close" viewBox="0 0 8 8">
        <path d="M0.469668 0.469668C0.762558 0.176777 1.23744 0.176777 1.53033 0.469668L4 2.93931L6.4697 0.469678C6.7626 0.176788 7.2374 0.176788 7.5303 0.469678C7.8232 0.762568 7.8232 1.23745 7.5303 1.53034L5.0607 4.00001L7.5303 6.46971C7.8232 6.76261 7.8232 7.23741 7.5303 7.53031C7.2374 7.82321 6.7626 7.82321 6.4697 7.53031L4 5.06071L1.53034 7.53031C1.23744 7.82321 0.762567 7.82321 0.469677 7.53031C0.176777 7.23741 0.176777 6.76261 0.469677 6.46971L2.9393 4.00001L0.469668 1.53033C0.176777 1.23744 0.176777 0.762558 0.469668 0.469668Z" />
    </symbol>
    <symbol id="google" viewBox="0 0 20 20">
        <path fill-rule="evenodd" clip-rule="evenodd" d="M0.25 10C0.25 4.61554 4.61554 0.25 10 0.25C12.5699 0.25 14.9004 1.25246 16.6394 2.87324C16.7883 3.01197 16.8744 3.20524 16.878 3.4087C16.8816 3.61216 16.8023 3.80834 16.6584 3.95223L14.1128 6.49788C13.8319 6.77876 13.3807 6.79193 13.084 6.52792C12.2608 5.79565 11.1837 5.35 10 5.35C7.43206 5.35 5.35 7.43206 5.35 10C5.35 12.5679 7.43206 14.65 10 14.65C11.6238 14.65 13.0521 13.8153 13.8828 12.55H10C9.5858 12.55 9.25 12.2142 9.25 11.8V8.2C9.25 7.78579 9.5858 7.45 10 7.45H18.8249C19.183 7.45 19.4911 7.70305 19.5607 8.0543C19.6832 8.6728 19.75 9.348 19.75 10C19.75 15.3845 15.3845 19.75 10 19.75C4.61554 19.75 0.25 15.3845 0.25 10ZM10 1.75C5.44396 1.75 1.75 5.44396 1.75 10C1.75 14.556 5.44396 18.25 10 18.25C14.556 18.25 18.25 14.556 18.25 10C18.25 9.6525 18.2275 9.2961 18.1853 8.95H10.75V11.05H15.0864C15.3299 11.05 15.5583 11.1683 15.6988 11.3671C15.8394 11.566 15.8746 11.8208 15.7933 12.0503C14.9491 14.4346 12.6795 16.15 10 16.15C6.60364 16.15 3.85 13.3964 3.85 10C3.85 6.60364 6.60364 3.85 10 3.85C11.3133 3.85 12.5272 4.26519 13.5236 4.96571L15.0229 3.46644C13.6306 2.39163 11.8918 1.75 10 1.75Z" />
    </symbol>
    <symbol id="fb" viewBox="0 0 12 20">
        <path fill-rule="evenodd" clip-rule="evenodd" d="M4.4877 1.78769C5.4723 0.80312 6.8076 0.25 8.2 0.25H10.9C11.3142 0.25 11.65 0.58579 11.65 1V4.6C11.65 5.01421 11.3142 5.35 10.9 5.35H8.2C8.1602 5.35 8.1221 5.3658 8.0939 5.39393C8.0658 5.42206 8.05 5.46022 8.05 5.5V7.45H10.9C11.131 7.45 11.349 7.5564 11.4912 7.73844C11.6333 7.92048 11.6836 8.1578 11.6276 8.3819L10.7276 11.9819C10.6441 12.3158 10.3442 12.55 10 12.55H8.05V19C8.05 19.4142 7.7142 19.75 7.3 19.75H3.7C3.28579 19.75 2.95 19.4142 2.95 19V12.55H1C0.58579 12.55 0.25 12.2142 0.25 11.8V8.2C0.25 7.78579 0.58579 7.45 1 7.45H2.95V5.5C2.95 4.10761 3.50312 2.77226 4.4877 1.78769ZM8.2 1.75C7.2054 1.75 6.2516 2.14509 5.5483 2.84835C4.8451 3.55161 4.45 4.50544 4.45 5.5V8.2C4.45 8.6142 4.1142 8.95 3.7 8.95H1.75V11.05H3.7C4.1142 11.05 4.45 11.3858 4.45 11.8V18.25H6.55V11.8C6.55 11.3858 6.8858 11.05 7.3 11.05H9.4144L9.9394 8.95H7.3C6.8858 8.95 6.55 8.6142 6.55 8.2V5.5C6.55 5.06239 6.7238 4.64271 7.0333 4.33327C7.3427 4.02384 7.7624 3.85 8.2 3.85H10.15V1.75H8.2Z" />
    </symbol>
    <symbol id="arrow-prev" viewBox="0 0 6 10">
        <path fill-rule="evenodd" clip-rule="evenodd" d="M5.5 9.5303C5.20711 9.8232 4.73223 9.8232 4.43937 9.5303L0.43937 5.5303C0.14647 5.2374 0.14647 4.7626 0.43937 4.4697L4.43937 0.469668C4.73223 0.176778 5.20711 0.176778 5.5 0.469668C5.79289 0.762558 5.79289 1.23744 5.5 1.53033L2.03037 5L5.5 8.4697C5.79289 8.7626 5.79289 9.2374 5.5 9.5303Z" />
    </symbol>
    <symbol id="arrow-next" viewBox="0 0 6 10">
        <path fill-rule="evenodd" clip-rule="evenodd" d="M0.5 0.469702C0.79289 0.176802 1.26777 0.176802 1.56063 0.469702L5.56063 4.4697C5.85353 4.7626 5.85353 5.2374 5.56063 5.5303L1.56063 9.53033C1.26777 9.82322 0.79289 9.82322 0.5 9.53033C0.20711 9.23744 0.20711 8.76256 0.5 8.46967L3.96963 5L0.5 1.5303C0.20711 1.2374 0.20711 0.762602 0.5 0.469702Z" />
    </symbol>
    <symbol id="sort" viewBox="0 0 16 16">
        <path d="M8.97982 5.0202C9.17509 5.21546 9.49162 5.21546 9.68689 5.0202L10.1667 4.54042V11.3333C10.1667 11.6094 10.3906 11.8333 10.6667 11.8333C10.9428 11.8333 11.1667 11.6094 11.1667 11.3333V4.54042L11.6465 5.0202C11.8418 5.21546 12.1583 5.21546 12.3536 5.0202C12.5488 4.82494 12.5488 4.50835 12.3536 4.31309L11.0202 2.97976C10.825 2.7845 10.5084 2.7845 10.3132 2.97976L8.97982 4.31309C8.78456 4.50835 8.78456 4.82494 8.97982 5.0202Z" />
        <path d="M5.83333 11.4596L6.31311 10.9798C6.50837 10.7846 6.82493 10.7846 7.0202 10.9798C7.21546 11.1751 7.21546 11.4916 7.0202 11.6869L5.68688 13.0202C5.49162 13.2155 5.17504 13.2155 4.97978 13.0202L3.64644 11.6869C3.45119 11.4916 3.45119 11.1751 3.64644 10.9798C3.8417 10.7846 4.15829 10.7846 4.35355 10.9798L4.83333 11.4596V4.66669C4.83333 4.39055 5.05719 4.16669 5.33333 4.16669C5.60947 4.16669 5.83333 4.39055 5.83333 4.66669V11.4596Z" />
    </symbol>
    <symbol id="check" viewBox="0 0 14 10">
        <path fill-rule="evenodd" clip-rule="evenodd" d="M13.0303 0.969668C13.3232 1.26256 13.3232 1.73744 13.0303 2.03033L6.0303 9.0303C5.7374 9.3232 5.2626 9.3232 4.96967 9.0303L0.969668 5.0303C0.676777 4.7374 0.676777 4.2626 0.969668 3.9697C1.26256 3.6768 1.73744 3.6768 2.03033 3.9697L5.5 7.4393L11.9697 0.969668C12.2626 0.676777 12.7374 0.676777 13.0303 0.969668Z" />
    </symbol>
    <symbol id="faq" viewBox="0 0 12 12">
        <path d="M5.31473 7.6266C5.32213 7.22646 5.37207 6.91039 5.46455 6.67838C5.55703 6.44637 5.74568 6.18914 6.03052 5.90669L6.7574 5.22579C7.06813 4.90635 7.22349 4.56338 7.22349 4.19687C7.22349 3.84381 7.12176 3.56809 6.91831 3.3697C6.71486 3.16796 6.41893 3.06708 6.03052 3.06708C5.65321 3.06708 5.34988 3.15787 5.12053 3.33944C4.89118 3.52102 4.77651 3.76479 4.77651 4.07078H3.75C3.7574 3.52606 3.9701 3.08726 4.3881 2.75437C4.8098 2.41812 5.35727 2.25 6.03052 2.25C6.72965 2.25 7.27343 2.42149 7.66184 2.76446C8.05395 3.10407 8.25 3.57145 8.25 4.16661C8.25 4.75504 7.95037 5.33507 7.35111 5.90669L6.7463 6.45141C6.47626 6.72377 6.34125 7.1155 6.34125 7.6266H5.31473ZM5.27035 9.22545C5.27035 9.07414 5.32028 8.94805 5.42016 8.84718C5.52374 8.74294 5.6754 8.69082 5.87515 8.69082C6.07491 8.69082 6.22657 8.74294 6.33015 8.84718C6.43372 8.94805 6.48551 9.07414 6.48551 9.22545C6.48551 9.37677 6.43372 9.50286 6.33015 9.60373C6.22657 9.70124 6.07491 9.75 5.87515 9.75C5.6754 9.75 5.52374 9.70124 5.42016 9.60373C5.32028 9.50286 5.27035 9.37677 5.27035 9.22545Z" fill="#1F2025"/>
        <circle cx="6" cy="6" r="5.5" stroke="#737373"/>
    </symbol>
    <symbol id="menu" viewBox="0 0 24 24">
        <path fill-rule="evenodd" clip-rule="evenodd" d="M19.75 12C19.75 11.5858 19.4142 11.25 19 11.25H10.75C10.3358 11.25 10 11.5858 10 12C10 12.4142 10.3358 12.75 10.75 12.75H19C19.4142 12.75 19.75 12.4142 19.75 12Z"/>
        <path fill-rule="evenodd" clip-rule="evenodd" d="M19.75 7C19.75 6.58579 19.4142 6.25 19 6.25H5C4.58579 6.25 4.25 6.58579 4.25 7C4.25 7.41421 4.58579 7.75 5 7.75H19C19.4142 7.75 19.75 7.41421 19.75 7Z"/>
        <path fill-rule="evenodd" clip-rule="evenodd" d="M19.75 17C19.75 16.5858 19.4142 16.25 19 16.25H16C15.5858 16.25 15.25 16.5858 15.25 17C15.25 17.4142 15.5858 17.75 16 17.75H19C19.4142 17.75 19.75 17.4142 19.75 17Z"/>
    </symbol>
    <symbol id="user" viewBox="0 0 24 24">
        <path fill-rule="evenodd" clip-rule="evenodd" d="M7.75 7.5C7.75 5.15279 9.65279 3.25 12 3.25C14.3472 3.25 16.25 5.15279 16.25 7.5C16.25 9.84721 14.3472 11.75 12 11.75C9.65279 11.75 7.75 9.84721 7.75 7.5ZM12 4.75C10.4812 4.75 9.25 5.98122 9.25 7.5C9.25 9.01878 10.4812 10.25 12 10.25C13.5188 10.25 14.75 9.01878 14.75 7.5C14.75 5.98122 13.5188 4.75 12 4.75Z" />
        <path fill-rule="evenodd" clip-rule="evenodd" d="M8 14.75C6.75736 14.75 5.75 15.7574 5.75 17V18.1883C5.75 18.2064 5.76311 18.2218 5.78097 18.2247C9.89972 18.8972 14.1003 18.8972 18.219 18.2247C18.2369 18.2218 18.25 18.2064 18.25 18.1883V17C18.25 15.7574 17.2426 14.75 16 14.75H15.6591C15.6328 14.75 15.6066 14.7542 15.5815 14.7623L14.716 15.045C12.9512 15.6212 11.0488 15.6212 9.28398 15.045L8.41847 14.7623C8.39342 14.7542 8.36722 14.75 8.34087 14.75H8ZM4.25 17C4.25 14.9289 5.92893 13.25 8 13.25H8.34087C8.52536 13.25 8.70869 13.2792 8.88407 13.3364L9.74959 13.6191C11.2119 14.0965 12.7881 14.0965 14.2504 13.6191L15.1159 13.3364C15.2913 13.2792 15.4746 13.25 15.6591 13.25H16C18.0711 13.25 19.75 14.9289 19.75 17V18.1883C19.75 18.9415 19.2041 19.5837 18.4607 19.7051C14.1819 20.4037 9.8181 20.4037 5.53927 19.7051C4.79588 19.5837 4.25 18.9415 4.25 18.1883V17Z" />
    </symbol>
</svg>