<svg width="14" height="12" viewBox="0 0 14 12" fill="none" xmlns="http://www.w3.org/2000/svg">
<path fill-rule="evenodd" clip-rule="evenodd" d="M5.99106 0.743242C6.44066 -0.0316048 7.5596 -0.0315982 8.0092 0.743242L9.38613 3.11615C9.51306 3.33488 9.7324 3.48414 9.98246 3.5219L12.2689 3.86724C13.2655 4.01777 13.6151 5.27618 12.8389 5.91918L11.173 7.29945C10.9392 7.49311 10.8293 7.79872 10.8861 8.09705L11.3527 10.5476C11.5355 11.5076 10.5277 12.2535 9.66306 11.7982L7.3884 10.6005C7.14533 10.4725 6.85493 10.4725 6.61186 10.6005L4.33719 11.7982C3.47252 12.2535 2.46476 11.5076 2.64756 10.5476L3.11422 8.09705C3.17102 7.79872 3.06107 7.49311 2.82724 7.29945L1.16131 5.91918C0.385117 5.27618 0.734724 4.01777 1.73138 3.86724L4.01782 3.5219C4.26786 3.48414 4.48722 3.33488 4.61414 3.11615L5.99106 0.743242Z" fill="#FFDD29"/>
</svg>
