<svg width="22" height="16" viewBox="0 0 22 16" fill="none" xmlns="http://www.w3.org/2000/svg">
<path fill-rule="evenodd" clip-rule="evenodd" d="M18.1843 0.91249L11.0006 0.75L3.81688 0.91249C2.48572 0.9426 1.35862 1.90322 1.11793 3.21278C0.536211 6.37788 0.536211 9.62248 1.11793 12.7876C1.35862 14.0972 2.48572 15.0578 3.81688 15.0879L11.0006 15.2504L18.1843 15.0879C19.5155 15.0578 20.6426 14.0972 20.8833 12.7876C21.465 9.62248 21.465 6.37788 20.8833 3.21278C20.6426 1.90321 19.5155 0.9426 18.1843 0.91249ZM3.8508 2.4121L11.0006 2.25038L18.1504 2.4121C18.7707 2.42613 19.2958 2.87373 19.408 3.48393C19.5613 4.31792 19.6717 5.15776 19.7394 6.00018H2.26182C2.32947 5.15776 2.43994 4.31792 2.59322 3.48393C2.70537 2.87373 3.23054 2.42613 3.8508 2.4121ZM2.18164 8.00018C2.18164 9.51188 2.31883 11.0235 2.59322 12.5165C2.70537 13.1267 3.23054 13.5743 3.8508 13.5883L11.0006 13.75L18.1504 13.5883C18.7707 13.5743 19.2958 13.1267 19.408 12.5165C19.6824 11.0235 19.8196 9.51188 19.8196 8.00018H2.18164Z" fill="#0038FF"/>
</svg>
