<svg width="168" height="84" fill="none" xmlns="http://www.w3.org/2000/svg"><path d="M87.175 72.57c-3.247-.218-6.991-.791-9.944-1.653-.553-.161-2.843-1.01-3.426-1.279-10.28-4.797-17.442-15.27-17.442-27.422 0-16.666 13.458-30.24 30.01-30.24 16.405 0 29.772 13.343 30.002 29.82h10.841c-.23-22.497-18.457-40.73-40.843-40.73-22.52 0-40.848 18.456-40.848 41.15 0 15.646 8.733 29.253 21.52 36.205 2.308 1.23 5.622 2.499 6.747 2.846 3.645 1.093 8.118 1.82 12.1 2.124 1.352.102 6.074.156 7.45.162H168v-10.88H93.468c-.992 0-5.323-.038-6.293-.103zm6.293-17.083c-.788 0-4.912-.027-5.673-.091-1.291-.11-3.162-.305-4.364-.582-1.358-.366-2.632-.85-3.207-1.169a12.999 12.999 0 01-6.771-11.429c0-7.191 5.78-13.023 12.92-13.023 6.99 0 12.674 5.603 12.902 12.603h10.416c-.219-12.789-10.566-23.095-23.318-23.095-12.894 0-23.345 10.527-23.345 23.515a23.48 23.48 0 0012.8 20.944c1.168.69 3.365 1.411 3.99 1.576 2.143.568 5.021.955 7.357 1.128.863.072 5.09.105 5.983.11v.016h74.839V55.487h-74.53zM38.844 83.512H27.93V12H11.982V1.001h26.862v82.511zM0 17.495V28.07h11.982v55.442h10.486V17.495H0zm148.716-15.73c-3.93 0-7.191 3.159-7.191 7.122s3.261 7.248 7.191 7.248c4.052 0 7.186-3.285 7.186-7.248s-3.134-7.122-7.186-7.122zm0 13.201c-3.246 0-6.044-2.571-6.044-6.08 0-3.33 2.798-5.966 6.044-5.966 3.245 0 6.029 2.636 6.029 5.967a6.012 6.012 0 01-6.029 6.08z" fill="#C4161C"/><path d="M151.453 10.842c0-.8-.117-1.543-1.026-1.836 1.139-.399 1.251-1.15 1.251-1.605 0-1.839-1.657-2.073-2.338-2.073h-3.135v7.121h1.307V9.528h1.029c1.48 0 1.603.686 1.603 1.314 0 1.214 0 1.443.283 1.607h1.31c-.284-.288-.171-.511-.284-1.607zm-2.399-2.353h-1.542V6.246h1.32c.914 0 1.534.29 1.534 1.155 0 .455-.222 1.088-1.312 1.088z" fill="#C4161C"/></svg>