<svg width="12" height="12" fill="none" xmlns="http://www.w3.org/2000/svg"><path d="M5.315 7.627c.007-.4.057-.717.15-.949.092-.232.28-.489.566-.771l.726-.681c.311-.32.466-.663.466-1.03 0-.352-.101-.628-.305-.826-.203-.202-.5-.303-.887-.303-.378 0-.681.09-.91.272a.885.885 0 00-.344.732H3.75a1.63 1.63 0 01.638-1.317c.422-.336.97-.504 1.643-.504.699 0 1.242.171 1.63.514.393.34.589.807.589 1.403 0 .588-.3 1.168-.899 1.74l-.605.544c-.27.273-.405.665-.405 1.176H5.315zM5.27 9.225c0-.15.05-.277.15-.378.104-.104.255-.156.455-.156s.352.052.455.156a.505.505 0 01.156.378.506.506 0 01-.156.379c-.103.097-.255.146-.455.146s-.351-.049-.455-.146a.516.516 0 01-.15-.379z" fill="#1F2025"/><circle cx="6" cy="6" r="5.5" stroke="#737373"/></svg>