<svg width="22" height="20" fill="none" xmlns="http://www.w3.org/2000/svg"><path fill-rule="evenodd" clip-rule="evenodd" d="M5.535.25a1.75 1.75 0 00-1.456.78L.49 6.412c-.22.33-.246.752-.069 1.106A32.952 32.952 0 008.45 17.801l1.751 1.501a1.23 1.23 0 001.6 0l1.751-1.5A32.952 32.952 0 0021.58 7.519a1.104 1.104 0 00-.069-1.106l-3.59-5.383a1.75 1.75 0 00-1.456-.78H5.535zm-.208 1.611a.25.25 0 01.208-.111h2.34L5.96 6.346a1.75 1.75 0 00-.1.326 69.284 69.284 0 01-2.11-.19l-1.405-.147L5.327 1.86zM2.28 7.836a31.45 31.45 0 006.994 8.695L6.148 8.197a70.78 70.78 0 01-2.554-.222l-1.315-.139zm5.506.454L11 16.864l3.215-8.574a70.792 70.792 0 01-6.43 0zm8.067-.093l-3.125 8.334a31.45 31.45 0 006.994-8.695l-1.314.138c-.85.09-1.702.164-2.555.223zm3.803-1.862l-1.405.148c-.703.074-1.406.137-2.11.19a1.755 1.755 0 00-.1-.327L14.125 1.75h2.34a.25.25 0 01.208.111l2.982 4.474zm-5.063.435c-2.393.124-4.79.124-7.183 0L9.5 1.75h3l2.092 5.02z" fill="#0038FF"/></svg>