<svg width="24" height="24" fill="none" xmlns="http://www.w3.org/2000/svg"><path fill-rule="evenodd" clip-rule="evenodd" d="M16.71 1.378a.75.75 0 00-.896-.703c-.5.1-2.132.505-3.42 1.793-.658.658-1.022 1.488-1.22 2.244a7.02 7.02 0 00-.194 1.123 37.996 37.996 0 00-.243-.105c-.693-.296-1.59-.64-2.61-.64-1.092 0-2.642.444-3.922 1.7-1.298 1.274-2.255 3.318-2.255 6.4 0 1.732.866 4.251 2.033 6.295.59 1.033 1.285 1.995 2.035 2.704.729.688 1.617 1.238 2.585 1.213.72-.003 1.45-.285 2.017-.506l.05-.02c.654-.252 1.12-.423 1.51-.423.375 0 .845.17 1.51.425l.048.018c.576.222 1.319.506 2.032.506.539 0 1.162-.288 1.708-.627a9.608 9.608 0 001.796-1.476c1.137-1.181 2.217-2.87 2.175-4.679a.75.75 0 00-.428-.66 4.627 4.627 0 01-1.39-1.084c-.473-.542-.822-1.212-.844-1.988a5.549 5.549 0 01.683-2.806c.421-.77.9-1.21 1.122-1.327a.75.75 0 00.262-1.1c-.342-.48-.992-1.112-1.758-1.621-.757-.504-1.744-.965-2.754-.945a5.15 5.15 0 00-.52.038c.37-.55.586-1.232.712-1.831a8.23 8.23 0 00.177-1.918zm-3.255 2.15c.541-.54 1.177-.883 1.704-1.094a7.103 7.103 0 01-.093.553c-.131.622-.337 1.142-.59 1.438-.48.559-1.124 1.169-1.988 1.41.028-.237.072-.49.138-.744.155-.595.42-1.153.829-1.562zm2.917 3.061c.565-.011 1.242.26 1.894.694.344.229.648.48.89.712a6.11 6.11 0 00-1.002 1.367 7.048 7.048 0 00-.866 3.568c.034 1.222.584 2.212 1.212 2.932.46.527.98.933 1.43 1.208-.127 1.096-.824 2.24-1.737 3.19a8.114 8.114 0 01-1.507 1.241c-.508.316-.824.401-.916.401-.4 0-.888-.173-1.544-.425l-.08-.03c-.564-.217-1.286-.494-1.965-.494-.7 0-1.418.279-1.98.497l-.072.028c-.648.251-1.127.424-1.537.424h-.023c-.376.012-.894-.212-1.52-.803-.608-.574-1.217-1.403-1.763-2.358-1.104-1.934-1.836-4.187-1.836-5.55 0-2.757.845-4.388 1.805-5.33.978-.96 2.141-1.272 2.873-1.272.695 0 1.353.236 2.02.52l.27.117c.238.104.485.211.709.295.311.117.679.23 1.054.23s.746-.106 1.07-.22c.241-.085.505-.194.76-.3l.252-.103c.693-.283 1.382-.524 2.109-.539z" fill="#1F2025"/></svg>