<svg width="69" height="34" fill="none" xmlns="http://www.w3.org/2000/svg"><path d="M35.804 29.375c-1.334-.088-2.871-.32-4.084-.669a20.396 20.396 0 01-1.407-.518c-4.222-1.942-7.164-6.18-7.164-11.1 0-6.745 5.527-12.24 12.326-12.24 6.737 0 12.227 5.401 12.322 12.07h4.452C52.155 7.814 44.67.434 35.475.434c-9.25 0-16.777 7.47-16.777 16.656 0 6.333 3.586 11.84 8.838 14.654a20.48 20.48 0 002.771 1.152c1.497.442 3.335.737 4.97.86.555.041 2.495.063 3.06.065H69v-4.404H38.389c-.408 0-2.187-.015-2.585-.04zm2.585-6.915c-.324 0-2.018-.01-2.33-.037-.53-.044-1.299-.123-1.793-.235-.557-.148-1.08-.344-1.317-.473a5.25 5.25 0 01-2.781-4.626c0-2.91 2.374-5.271 5.307-5.271 2.87 0 5.205 2.268 5.298 5.1h4.279c-.09-5.176-4.34-9.347-9.577-9.347-5.296 0-9.588 4.26-9.588 9.518 0 3.707 2.14 6.91 5.257 8.477.48.28 1.382.571 1.638.638.88.23 2.063.387 3.022.456.354.03 2.09.043 2.457.045v.007H69V22.46H38.39zM15.954 33.804h-4.482V4.858h-6.55V.407h11.032v33.397zM0 7.083v4.28h4.921v22.441h4.307V7.083H0z" fill="#C4161C"/></svg>