<svg width="251" height="52" fill="none" xmlns="http://www.w3.org/2000/svg"><path d="M67.528 16.666c-.213 0-.425-.07-.637-.285a.905.905 0 01-.284-.64v-2.565c0-.214.071-.427.284-.641a.895.895 0 01.637-.285h3.256c.283 0 .495.071.637.285a.905.905 0 01.283.641v2.564c0 .214-.07.428-.283.641a.894.894 0 01-.637.285h-3.256zm.141 21.869c-.212 0-.424-.071-.637-.285a.906.906 0 01-.283-.641V20.655c0-.213.07-.427.283-.64a.895.895 0 01.637-.285h2.973c.283 0 .496.07.637.284.142.143.213.357.213.642V37.68c0 .214-.071.428-.213.641a.895.895 0 01-.637.285H67.67v-.071zm17.059 0c-1.415 0-2.618-.285-3.61-.783-.99-.499-1.698-1.282-2.194-2.28-.495-.997-.708-2.208-.708-3.704v-8.12h-2.831c-.212 0-.425-.072-.637-.285a.905.905 0 01-.283-.641v-2.066c0-.214.07-.427.283-.641a.895.895 0 01.637-.285h2.831v-5.984c0-.213.071-.427.213-.64a.895.895 0 01.637-.286h2.902c.212 0 .425.072.637.285a.905.905 0 01.283.641v5.984h4.46c.212 0 .424.071.637.285a.905.905 0 01.283.64v2.067c0 .285-.071.498-.283.64a.895.895 0 01-.638.286h-4.459v7.835c0 .998.142 1.781.496 2.28.353.498.92.855 1.84.855h2.477c.213 0 .425.07.638.285a.905.905 0 01.283.64v2.209c0 .213-.071.427-.284.64a.895.895 0 01-.637.286H84.73v-.143zm20.244-.003c-.354 0-.566-.071-.779-.285-.141-.142-.283-.356-.424-.641l-5.097-16.74c0-.142-.07-.213-.07-.356a.81.81 0 01.212-.57.762.762 0 01.495-.213h2.619c.284 0 .496.07.708.213.142.143.283.285.283.428l3.54 11.967 3.751-11.825c.071-.142.142-.356.354-.498.142-.214.425-.285.779-.285h1.769c.354 0 .567.07.779.285.141.213.283.356.354.498l3.751 11.825 3.54-11.967c0-.143.141-.285.283-.428.141-.142.354-.213.637-.213h2.619c.212 0 .424.07.566.213a.81.81 0 01.212.57c0 .071 0 .214-.07.356l-5.097 16.74a1.378 1.378 0 01-.354.641c-.212.143-.424.285-.778.285h-2.336c-.283 0-.567-.071-.779-.285-.212-.142-.354-.356-.425-.641l-3.751-11.397-3.752 11.397c-.07.285-.212.499-.424.641-.213.143-.425.285-.779.285h-2.336zm32.561.43c-1.912 0-3.54-.356-4.814-.997s-2.265-1.638-2.973-2.85c-.708-1.21-1.061-2.635-1.132-4.273 0-.428-.071-.998-.071-1.567 0-.642 0-1.14.071-1.568.071-1.638.495-3.063 1.203-4.345.708-1.21 1.699-2.137 3.044-2.85 1.274-.64 2.902-.996 4.742-.996 1.841 0 3.469.356 4.743.997a7.368 7.368 0 013.044 2.85c.707 1.21 1.132 2.635 1.203 4.344 0 .428.071.998.071 1.567 0 .642 0 1.14-.071 1.568a10.028 10.028 0 01-1.133 4.274c-.708 1.21-1.698 2.208-2.973 2.849-1.415.641-3.043.997-4.954.997zm0-3.633c1.274 0 2.265-.427 2.972-1.21.708-.784 1.062-1.995 1.133-3.562 0-.356.071-.855.071-1.425 0-.57 0-1.068-.071-1.425-.071-1.567-.425-2.778-1.133-3.561-.707-.784-1.698-1.211-2.972-1.211-1.275 0-2.266.427-2.973 1.21-.708.784-1.062 1.995-1.133 3.562 0 .357-.071.855-.071 1.425 0 .57 0 1.069.071 1.425.071 1.567.425 2.778 1.133 3.561.707.855 1.698 1.211 2.973 1.211zm13.802 3.206c-.212 0-.424-.071-.637-.285a.908.908 0 01-.283-.641V20.727c0-.285.071-.499.283-.641a.896.896 0 01.637-.285h2.902c.213 0 .425.071.637.285.213.142.284.356.284.64v1.497c.566-.784 1.274-1.354 2.123-1.781.849-.427 1.911-.641 3.044-.641h1.486c.283 0 .496.071.637.285.142.142.213.356.213.64v2.565c0 .214-.071.428-.213.641a.894.894 0 01-.637.285h-2.831c-1.133 0-2.053.285-2.69.926s-.92 1.567-.92 2.707v9.901c0 .214-.071.428-.283.642a.896.896 0 01-.637.285h-3.115v-.143zm15.007 0c-.212 0-.425-.072-.637-.285a.903.903 0 01-.283-.642V13.817c0-.214.071-.428.283-.641a.896.896 0 01.637-.285h2.973c.212 0 .425.07.637.285a.903.903 0 01.283.64V37.68c0 .213-.071.427-.283.64a.896.896 0 01-.637.286h-2.973v-.072zm15.572.427c-1.274 0-2.336-.214-3.256-.641-.92-.428-1.699-.997-2.336-1.781a7.612 7.612 0 01-1.415-2.707c-.354-1.068-.496-2.208-.567-3.42 0-.427-.07-.854-.07-1.139 0-.285 0-.712.07-1.14.071-1.21.213-2.35.567-3.348.354-1.068.778-1.923 1.415-2.706.637-.784 1.416-1.425 2.336-1.852.92-.428 2.053-.642 3.256-.642 1.274 0 2.407.214 3.256.642.92.427 1.628.997 2.265 1.71v-8.121c0-.214.071-.428.213-.641a.894.894 0 01.637-.285h3.043c.213 0 .425.07.638.285a.907.907 0 01.283.64V37.68c0 .213-.071.427-.283.64a.896.896 0 01-.638.286h-2.831c-.283 0-.495-.072-.637-.285-.142-.143-.212-.356-.212-.641v-1.354c-.567.713-1.345 1.354-2.265 1.852-.991.499-2.124.784-3.469.784zm1.274-3.918c.991 0 1.77-.214 2.407-.712a4.249 4.249 0 001.345-1.781c.283-.712.425-1.425.495-2.208 0-.428.071-.926.071-1.425s0-.926-.071-1.425c0-.712-.212-1.424-.495-2.065-.283-.642-.779-1.211-1.345-1.639-.566-.427-1.345-.64-2.336-.64-.991 0-1.77.213-2.407.64-.566.428-.991.997-1.274 1.781-.283.712-.424 1.496-.495 2.35v2.138c.071.855.212 1.638.495 2.35a4.575 4.575 0 001.274 1.781c.567.641 1.345.855 2.336.855z" fill="#064EBE"/><path d="M206.335 38.533a.801.801 0 01-.566-.213.81.81 0 01-.212-.57V13.745a.81.81 0 01.212-.57.802.802 0 01.566-.214h1.699c.283 0 .496.071.637.214a.81.81 0 01.212.57v23.934a.81.81 0 01-.212.57c-.141.142-.354.213-.637.213h-1.699v.071zm13.024.43c-1.204 0-2.265-.214-3.256-.712-.991-.499-1.77-1.14-2.336-1.923-.566-.784-.92-1.71-.92-2.779 0-1.638.637-2.991 1.982-3.989 1.345-.997 3.114-1.638 5.238-1.923l5.308-.784v-1.068c0-1.14-.353-2.066-.991-2.707-.637-.64-1.698-.997-3.185-.997-1.062 0-1.911.214-2.548.641-.637.427-1.133.997-1.416 1.638-.141.357-.424.57-.778.57h-1.628c-.284 0-.496-.071-.567-.213a.814.814 0 01-.212-.57c0-.356.142-.784.425-1.354a6.206 6.206 0 011.274-1.567c.566-.498 1.274-.926 2.194-1.282.92-.356 1.982-.499 3.256-.499 1.416 0 2.619.214 3.61.57.991.356 1.77.855 2.336 1.496.566.641.991 1.354 1.203 2.137.284.784.354 1.567.354 2.422v11.682a.81.81 0 01-.212.57.801.801 0 01-.566.214h-1.628c-.284 0-.496-.072-.637-.214a.81.81 0 01-.213-.57v-1.567c-.283.427-.708.855-1.274 1.282-.495.428-1.203.784-1.982 1.069-.708.285-1.699.427-2.831.427zm.778-2.707c.991 0 1.912-.213 2.69-.64.779-.428 1.487-1.07 1.911-1.995.496-.855.708-1.995.708-3.348v-.998l-4.176.642c-1.699.213-2.973.64-3.822 1.21-.85.57-1.274 1.283-1.274 2.137 0 .642.212 1.211.566 1.71.425.428.92.784 1.486.997.637.143 1.274.285 1.911.285zm23.005 2.704c-1.415 0-2.619-.284-3.61-.783a6.072 6.072 0 01-2.265-1.923v1.496a.81.81 0 01-.212.57.801.801 0 01-.566.213h-1.628a.802.802 0 01-.567-.213.814.814 0 01-.212-.57V13.745c0-.214.071-.428.212-.57a.803.803 0 01.567-.214h1.769a.8.8 0 01.567.214.814.814 0 01.212.57v8.334c.566-.713 1.345-1.354 2.336-1.852.92-.499 2.123-.784 3.468-.784 1.345 0 2.478.214 3.398.712a7.707 7.707 0 012.336 1.924c.637.783 1.061 1.71 1.415 2.778.283 1.068.496 2.137.567 3.277 0 .356.07.712.07 1.068 0 .356 0 .712-.07 1.068-.071 1.14-.213 2.28-.567 3.277-.283 1.069-.778 1.924-1.415 2.778a7.706 7.706 0 01-2.336 1.924 8.6 8.6 0 01-3.469.712zm-.707-2.92c1.274 0 2.194-.285 2.902-.783.708-.57 1.203-1.282 1.557-2.137a11.97 11.97 0 00.566-2.85v-2.065c-.071-.997-.212-1.923-.566-2.85-.283-.854-.849-1.567-1.557-2.137-.708-.57-1.699-.783-2.902-.783-1.133 0-2.053.285-2.832.784-.708.498-1.274 1.21-1.699 1.994-.354.784-.566 1.638-.566 2.493 0 .356-.071.855-.071 1.425 0 .57 0 .997.071 1.424.071.855.212 1.781.566 2.636.354.855.85 1.567 1.628 2.137.779.427 1.699.712 2.903.712z" fill="#000"/><path d="M37.728 0H18.97c-3.397 0-6.583 1.852-8.282 4.844L1.274 21.156a9.844 9.844 0 000 9.688l9.344 16.312C12.316 50.148 15.502 52 18.899 52h18.758c3.398 0 6.583-1.852 8.282-4.844l9.343-16.312a9.844 9.844 0 000-9.688L46.01 4.844C44.31 1.852 41.126 0 37.728 0z" fill="#064EBE"/><path d="M39.863 36.08c-.566.57-1.203.64-5.025.64h-7.079c-2.053.072-4.388.143-7.928 0-2.123-.07-2.619-.213-3.114-.64-1.062-.927-.779-2.565-.212-7.551.354-3.42.354-3.918 1.061-8.833.567-4.488.85-5.841 1.982-6.482.284-.143.496-.214 3.61-.214h8.565c3.327 0 3.398 0 3.752.143 1.203.57 1.557 1.923 2.477 6.98.85 4.56.85 4.844 1.487 8.406.92 5.342 1.274 6.624.424 7.55z" fill="#fff" stroke="#fff" stroke-width="6" stroke-miterlimit="10"/><path d="M22.53 20.012a10.438 10.438 0 0010.405 0c1.203-.64.141-2.493-1.062-1.852-2.548 1.425-5.663 1.425-8.282 0-1.203-.712-2.265 1.14-1.062 1.852z" fill="#064EBE"/></svg>