<svg width="247" height="23" fill="none" xmlns="http://www.w3.org/2000/svg"><path d="M7.104 18.464h2.688v4.16H0v-4.16h2.688V4.384H0V.224h9.792v4.16H7.104v14.08zm18.003-14.08v18.24h-4.416V4.384h-6.144V.224h16.704v4.16h-6.144zm44.874 18.24h-2.624l-5.44-13.472-5.472 13.472h-2.592L44.797.224h4.896l5.408 14.272L60.605.224h2.592l5.504 14.272L74.11.224h4.896l-9.024 22.4zM85.574 3.36C87.793 1.12 90.481 0 93.638 0s5.845 1.12 8.064 3.36c2.24 2.219 3.36 4.907 3.36 8.064s-1.12 5.856-3.36 8.096c-2.219 2.219-4.907 3.328-8.064 3.328s-5.845-1.11-8.064-3.328c-2.219-2.24-3.328-4.939-3.328-8.096s1.11-5.845 3.328-8.064zM98.63 6.208c-1.344-1.365-3.008-2.048-4.992-2.048s-3.648.683-4.992 2.048c-1.323 1.365-1.984 3.104-1.984 5.216 0 2.133.661 3.883 1.984 5.248 1.344 1.344 3.008 2.016 4.992 2.016 2.005 0 3.67-.672 4.992-2.016 1.344-1.365 2.016-3.115 2.016-5.248 0-2.112-.672-3.85-2.016-5.216zM110.281.224h7.616c3.051 0 5.43.8 7.136 2.4 1.728 1.579 2.592 3.595 2.592 6.048 0 1.664-.426 3.104-1.28 4.32-.832 1.216-2.016 2.123-3.552 2.72.939.597 2.048 1.91 3.328 3.936l1.92 2.976h-4.96l-1.44-2.24c-.896-1.365-1.6-2.24-2.112-2.624-.49-.384-1.28-.587-2.368-.608h-2.464v5.472h-4.416V.224zm4.416 4.16v8.608h3.616c1.536 0 2.774-.363 3.712-1.088.939-.725 1.408-1.803 1.408-3.232 0-1.365-.48-2.421-1.44-3.168-.938-.747-2.165-1.12-3.68-1.12h-3.616zm32.58 18.24h-14.496V.224h4.416v18.24h10.08v4.16zM152 .224h7.776c3.179 0 5.867 1.067 8.064 3.2 2.219 2.112 3.328 4.779 3.328 8s-1.099 5.899-3.296 8.032c-2.197 2.112-4.896 3.168-8.096 3.168H152V.224zm4.416 18.24h3.36c2.027 0 3.691-.619 4.992-1.856 1.323-1.259 1.984-2.987 1.984-5.184s-.661-3.915-1.984-5.152c-1.301-1.259-2.965-1.888-4.992-1.888h-3.36v14.08zm45.236 4.16h-14.496V.224h4.416v18.24h10.08v4.16zm9.235-4.096l-1.6 4.096h-4.896l9.216-22.4h2.592l9.088 22.4h-4.896l-1.6-4.096h-7.904zm3.968-10.304l-2.432 6.112h4.832l-2.4-6.112zm14.457-8h8.64c1.536 0 2.838.203 3.905.608 1.066.384 1.845.907 2.336 1.568.512.661.864 1.29 1.056 1.888.192.597.287 1.227.287 1.888 0 2.39-.981 3.979-2.944 4.768 1.174.277 2.102.896 2.784 1.856.683.939 1.024 2.07 1.024 3.392 0 4.288-2.762 6.432-8.287 6.432h-8.801V.224zm4.417 4.16v4.8h4.703c1.067 0 1.824-.235 2.272-.704.448-.49.672-1.056.672-1.696 0-1.6-.981-2.4-2.944-2.4h-4.703zm0 8.608v5.44h5.311c1.131 0 1.942-.245 2.433-.736.512-.512.767-1.173.767-1.984 0-.768-.266-1.408-.799-1.92-.512-.533-1.313-.8-2.401-.8h-5.311z" fill="#1F2025"/><path d="M85.574 3.36C87.793 1.12 90.481 0 93.638 0s5.845 1.12 8.064 3.36c2.24 2.219 3.36 4.907 3.36 8.064s-1.12 5.856-3.36 8.096c-2.219 2.219-4.907 3.328-8.064 3.328s-5.845-1.11-8.064-3.328c-2.219-2.24-3.328-4.939-3.328-8.096s1.11-5.845 3.328-8.064zM98.63 6.208c-1.344-1.365-3.008-2.048-4.992-2.048s-3.648.683-4.992 2.048c-1.323 1.365-1.984 3.104-1.984 5.216 0 2.133.661 3.883 1.984 5.248 1.344 1.344 3.008 2.016 4.992 2.016 2.005 0 3.67-.672 4.992-2.016 1.344-1.365 2.016-3.115 2.016-5.248 0-2.112-.672-3.85-2.016-5.216z" fill="#1F2025"/><path d="M85.574 3.36C87.793 1.12 90.481 0 93.638 0s5.845 1.12 8.064 3.36c2.24 2.219 3.36 4.907 3.36 8.064s-1.12 5.856-3.36 8.096c-2.219 2.219-4.907 3.328-8.064 3.328s-5.845-1.11-8.064-3.328c-2.219-2.24-3.328-4.939-3.328-8.096s1.11-5.845 3.328-8.064zM98.63 6.208c-1.344-1.365-3.008-2.048-4.992-2.048s-3.648.683-4.992 2.048c-1.323 1.365-1.984 3.104-1.984 5.216 0 2.133.661 3.883 1.984 5.248 1.344 1.344 3.008 2.016 4.992 2.016 2.005 0 3.67-.672 4.992-2.016 1.344-1.365 2.016-3.115 2.016-5.248 0-2.112-.672-3.85-2.016-5.216z" fill="#E92742"/></svg>