<svg width="24" height="24" fill="none" xmlns="http://www.w3.org/2000/svg"><path fill-rule="evenodd" clip-rule="evenodd" d="M13.808 8.447a16.407 16.407 0 00-3.616 0c-.898.1-1.626.808-1.732 1.717a15.808 15.808 0 000 3.672c.106.91.834 1.616 1.732 1.716 1.192.134 2.424.134 3.616 0a1.963 1.963 0 001.732-1.716c.143-1.22.143-2.452 0-3.672a1.963 1.963 0 00-1.732-1.717zm-3.45 1.491c1.082-.12 2.202-.12 3.284 0a.463.463 0 01.409.4c.129 1.104.129 2.22 0 3.324a.464.464 0 01-.41.4 14.92 14.92 0 01-3.283 0 .464.464 0 01-.408-.4c-.13-1.104-.13-2.22 0-3.324a.463.463 0 01.408-.4z" fill="#1F2025"/><path fill-rule="evenodd" clip-rule="evenodd" d="M15.75 3a.75.75 0 00-1.5 0v2.524a32.03 32.03 0 00-1.5-.07V4a.75.75 0 00-1.5 0v1.454a32.03 32.03 0 00-1.5.07V3a.75.75 0 00-1.5 0v2.672A3.178 3.178 0 005.688 8.25H3a.75.75 0 000 1.5h2.537c-.036.5-.06 1-.073 1.5H4a.75.75 0 000 1.5h1.464c.013.5.037 1 .073 1.5H3a.75.75 0 000 1.5h2.688a3.178 3.178 0 002.562 2.578V21a.75.75 0 001.5 0v-2.524c.498.035.999.059 1.5.07V20a.75.75 0 001.5 0v-1.454a31.975 31.975 0 001.5-.07V21a.75.75 0 001.5 0v-2.672a3.178 3.178 0 002.562-2.578H21a.75.75 0 000-1.5h-2.537c.036-.5.06-1 .073-1.5H20a.75.75 0 000-1.5h-1.464c-.013-.5-.037-1-.073-1.5H21a.75.75 0 000-1.5h-2.688a3.178 3.178 0 00-2.562-2.578V3zM8.633 7.13a30.565 30.565 0 016.734 0c.773.087 1.39.698 1.479 1.459a29.362 29.362 0 010 6.822 1.677 1.677 0 01-1.48 1.458 30.574 30.574 0 01-6.733 0 1.677 1.677 0 01-1.479-1.458 29.365 29.365 0 010-6.822 1.677 1.677 0 011.48-1.458z" fill="#1F2025"/></svg>