<svg width="12" height="20" fill="none" xmlns="http://www.w3.org/2000/svg"><path fill-rule="evenodd" clip-rule="evenodd" d="M4.488 1.788A5.25 5.25 0 018.2.25h2.7a.75.75 0 01.75.75v3.6a.75.75 0 01-.75.75H8.2a.15.15 0 00-.15.15v1.95h2.85a.75.75 0 01.728.932l-.9 3.6a.75.75 0 01-.728.568H8.05V19a.75.75 0 01-.75.75H3.7a.75.75 0 01-.75-.75v-6.45H1a.75.75 0 01-.75-.75V8.2A.75.75 0 011 7.45h1.95V5.5a5.25 5.25 0 011.538-3.712zM8.2 1.75A3.75 3.75 0 004.45 5.5v2.7a.75.75 0 01-.75.75H1.75v2.1H3.7a.75.75 0 01.75.75v6.45h2.1V11.8a.75.75 0 01.75-.75h2.114l.525-2.1H7.3a.75.75 0 01-.75-.75V5.5A1.65 1.65 0 018.2 3.85h1.95v-2.1H8.2z" fill="#1F2025"/></svg>