<svg width="16" height="18" fill="none" xmlns="http://www.w3.org/2000/svg"><path fill-rule="evenodd" clip-rule="evenodd" d="M8.645 2.264a1.25 1.25 0 00-1.29 0l-.516.31a10.75 10.75 0 01-4.537 1.494l-.325.03a.25.25 0 00-.227.25V5.99a9.25 9.25 0 002.82 6.651l3.256 3.147a.25.25 0 00.348 0l3.255-3.147a9.25 9.25 0 002.821-6.65V4.347a.25.25 0 00-.226-.25l-.326-.03a10.75 10.75 0 01-4.537-1.493l-.516-.311zM6.58.979a2.75 2.75 0 012.838 0l.516.31a9.25 9.25 0 003.904 1.286l.325.03a1.75 1.75 0 011.586 1.743V5.99a10.75 10.75 0 01-3.278 7.73l-3.256 3.146a1.75 1.75 0 01-2.432 0L3.528 13.72A10.75 10.75 0 01.25 5.991V4.348a1.75 1.75 0 011.586-1.743l.325-.03A9.25 9.25 0 006.065 1.29l.516-.311z" fill="#1F2025"/></svg>