<svg width="100%" height="100%" viewBox="0 0 231 34" fill="none" xmlns="http://www.w3.org/2000/svg">
<path fill-rule="evenodd" clip-rule="evenodd" d="M1.5999 0.5H230.1V33.5H0.899902V0.5H1.5999ZM176.4 25.6C177.9 25.6 179.3 25.3 180.5 24.8C181.7 24.3 182.7 23.5 183.5 22.5L180.5 19.8C179.4 21.1 178.1 21.7 176.6 21.7C175.7 21.7 174.9 21.5 174.2 21.1C173.5 20.7 173 20.1 172.6 19.4C172.2 18.7 172 17.9 172 16.9C172 16 172.2 15.1 172.6 14.4C173 13.7 173.5 13.1 174.2 12.7C174.9 12.3 175.7 12.1 176.6 12.1C178.1 12.1 179.4 12.7 180.5 14L183.5 11.3C182.7 10.3 181.7 9.5 180.5 9C179.3 8.5 177.9 8.2 176.4 8.2C174.7 8.2 173.1 8.6 171.7 9.3C170.3 10 169.2 11.1 168.4 12.4C167.6 13.7 167.2 15.2 167.2 16.9C167.2 18.6 167.6 20 168.4 21.3C169.2 22.6 170.3 23.6 171.7 24.4C173.1 25.2 174.7 25.6 176.4 25.6ZM192.9 20.9L195.9 25.3H200.9L197.3 20.1C198.3 19.6 199.1 18.9 199.7 18C200.3 17.1 200.5 16.1 200.5 14.9C200.5 13.7 200.2 12.6 199.6 11.6C199 10.7 198.1 10 197 9.5C195.9 9 194.6 8.8 193.1 8.8H185.5V25.4H190.2V21H192.9V20.9ZM195.8 14.8C195.8 14 195.6 13.4 195.1 13C194.6 12.6 193.9 12.4 192.9 12.4H190.3V17.3H192.9C193.9 17.3 194.6 17.1 195.1 16.7C195.6 16.2 195.8 15.6 195.8 14.8ZM218.1 25.3H222.4V8.7H218.5L212.8 18.3L207 8.7H203.1V25.3H207.4V16.8L211.6 23.7H213.7L218 16.6L218.1 25.3ZM162.2 1.9V32.1H228.8V1.9H162.2ZM23.7999 25.3H28.0999V8.7H24.1999L18.4999 18.3L12.6999 8.7H8.7999V25.3H13.0999V16.8L17.2999 23.7H19.3999L23.6999 16.6L23.7999 25.3ZM31.6999 8.7V25.3H36.3999V8.7H31.6999ZM55.6999 8.7H51.0999V17.5L43.7999 8.7H39.8999V25.3H44.4999V16.5L51.7999 25.3H55.6999V8.7ZM59.2999 8.7V25.3H67.0999C68.8999 25.3 70.4999 25 71.8999 24.3C73.2999 23.6 74.3999 22.7 75.1999 21.4C75.9999 20.2 76.3999 18.7 76.3999 17C76.3999 15.3 75.9999 13.9 75.1999 12.6C74.3999 11.4 73.2999 10.4 71.8999 9.7C70.4999 9 68.8999 8.7 67.0999 8.7H59.2999ZM66.8999 21.5C68.2999 21.5 69.4999 21.1 70.2999 20.3C71.1999 19.5 71.5999 18.4 71.5999 17C71.5999 15.6 71.1999 14.5 70.2999 13.7C69.3999 12.9 68.2999 12.5 66.8999 12.5H63.8999V21.6H66.8999V21.5ZM86.9999 25.4C88.2999 25.4 89.3999 25.2 90.2999 24.8C91.1999 24.4 91.8999 23.9 92.2999 23.2C92.6999 22.5 92.9999 21.8 92.9999 21C92.9999 20 92.6999 19.2 92.1999 18.7C91.6999 18.1 91.0999 17.7 90.2999 17.4C89.5999 17.1 88.5999 16.8 87.3999 16.5C86.2999 16.2 85.4999 16 84.7999 15.7C84.1999 15.5 83.5999 15.1 83.1999 14.7C82.7999 14.3 82.5999 13.7 82.5999 12.9C82.5999 11.9 82.9999 11.1 83.7999 10.5C84.5999 9.9 85.6999 9.6 87.2999 9.6C88.0999 9.6 88.8999 9.7 89.6999 10C90.4999 10.2 91.1999 10.6 91.8999 11L92.2999 10C91.6999 9.5 90.8999 9.2 89.9999 8.9C89.0999 8.6 88.1999 8.5 87.2999 8.5C85.9999 8.5 84.8999 8.7 83.9999 9.1C83.0999 9.5 82.4999 10 81.9999 10.7C81.5999 11.4 81.3999 12.1 81.3999 12.9C81.3999 13.9 81.6999 14.7 82.1999 15.3C82.6999 15.9 83.2999 16.3 84.0999 16.6C84.7999 16.9 85.7999 17.2 86.9999 17.5C88.0999 17.8 88.8999 18 89.5999 18.2C90.1999 18.4 90.7999 18.8 91.1999 19.2C91.5999 19.6 91.7999 20.2 91.7999 21C91.7999 22 91.3999 22.7 90.5999 23.3C89.7999 23.9 88.5999 24.2 86.9999 24.2C85.8999 24.2 84.8999 24 83.8999 23.6C82.8999 23.2 82.0999 22.7 81.4999 22.1L80.9999 23C81.5999 23.7 82.4999 24.2 83.5999 24.6C84.5999 25.2 85.7999 25.4 86.9999 25.4ZM107.3 20.6L109.4 25.3H110.7L103.1 8.7H101.9L94.2999 25.3H95.5999L97.6999 20.6H107.3ZM106.9 19.6L102.5 10L98.1999 19.6H106.9ZM113.7 8.7V25.3H124.4V24.2H114.9V8.7H113.7ZM139 24.2H128.8V17.4H137.6V16.3H128.8V9.8H138.7V8.7H127.6V25.3H139V24.2ZM147.8 25.4C149.1 25.4 150.2 25.2 151.1 24.8C152 24.4 152.7 23.9 153.1 23.2C153.5 22.5 153.8 21.8 153.8 21C153.8 20 153.5 19.2 153 18.7C152.5 18.1 151.9 17.7 151.1 17.4C150.4 17.1 149.4 16.8 148.2 16.5C147.1 16.2 146.3 16 145.6 15.7C145 15.5 144.4 15.1 144 14.7C143.6 14.3 143.4 13.7 143.4 12.9C143.4 11.9 143.8 11.1 144.6 10.5C145.4 9.9 146.5 9.6 148.1 9.6C148.9 9.6 149.7 9.7 150.5 10C151.3 10.2 152 10.6 152.7 11L153.1 10C152.5 9.5 151.7 9.2 150.8 8.9C149.9 8.6 149 8.5 148.1 8.5C146.8 8.5 145.7 8.7 144.8 9.1C143.9 9.5 143.3 10 142.8 10.7C142.4 11.4 142.2 12.1 142.2 12.9C142.2 13.9 142.5 14.7 143 15.3C143.5 15.9 144.1 16.3 144.9 16.6C145.6 16.9 146.6 17.2 147.8 17.5C148.9 17.8 149.7 18 150.4 18.2C151 18.4 151.6 18.8 152 19.2C152.4 19.6 152.6 20.2 152.6 21C152.6 22 152.2 22.7 151.4 23.3C150.6 23.9 149.4 24.2 147.8 24.2C146.7 24.2 145.7 24 144.7 23.6C143.7 23.2 142.9 22.7 142.3 22.1L141.8 23C142.4 23.7 143.3 24.2 144.4 24.6C145.4 25.2 146.6 25.4 147.8 25.4Z" fill="#893496"/>
</svg>
