<svg width="24" height="24" fill="none" xmlns="http://www.w3.org/2000/svg"><path d="M2.47 11.47a.75.75 0 101.06 1.06l-1.06-1.06zM12 3l.53-.53a.75.75 0 00-1.06 0L12 3zm8.47 9.53a.75.75 0 101.06-1.06l-1.06 1.06zm-16.94 0l2-2-1.06-1.06-2 2 1.06 1.06zm2-2l7-7-1.06-1.06-7 7 1.06 1.06zm5.94-7l7 7 1.06-1.06-7-7-1.06 1.06zM4.25 10v10h1.5V10h-1.5zm0 10c0 .464.184.91.513 1.237l1.06-1.06A.25.25 0 015.75 20h-1.5zm.513 1.237A1.75 1.75 0 006 21.75v-1.5a.25.25 0 01-.177-.073l-1.06 1.06zM18.47 10.53l2 2 1.06-1.06-2-2-1.06 1.06zm-.22-.53v10h1.5V10h-1.5zm0 10a.25.25 0 01-.073.177l1.06 1.06A1.75 1.75 0 0019.75 20h-1.5zm-.073.177a.25.25 0 01-.177.073v1.5c.464 0 .91-.184 1.237-.513l-1.06-1.06zM9 21.75c.714 0 1.241-.284 1.525-.776.237-.412.225-.855.225-.974h-1.5c0 .066 0 .113-.008.159a.214.214 0 01-.017.066l.002-.003a.055.055 0 01.005-.005c.004-.004.006-.004 0-.002A.537.537 0 019 20.25v1.5zM10.75 20v-4h-1.5v4h1.5zm0-4a.25.25 0 01.073-.177l-1.06-1.06A1.75 1.75 0 009.25 16h1.5zm.073-.177A.25.25 0 0111 15.75v-1.5c-.464 0-.91.184-1.237.513l1.06 1.06zM11 15.75h2v-1.5h-2v1.5zm2 0a.25.25 0 01.177.073l1.06-1.06A1.75 1.75 0 0013 14.25v1.5zm.177.073a.25.25 0 01.073.177h1.5c0-.464-.184-.91-.513-1.237l-1.06 1.06zm.073.177v4h1.5v-4h-1.5zm0 4c0 .12-.012.562.225.974.284.492.81.776 1.525.776v-1.5a.538.538 0 01-.232-.035c-.006-.002-.004-.002 0 .002a.043.043 0 01.005.005l.002.003a.216.216 0 01-.017-.066A1.08 1.08 0 0114.75 20h-1.5zM6 21v.75h3v-1.5H6V21zm9 .75h3v-1.5h-3v1.5z" fill="#1F2025"/></svg>