<svg width="22" height="18" fill="none" xmlns="http://www.w3.org/2000/svg"><path fill-rule="evenodd" clip-rule="evenodd" d="M11 .75l7.273.205a2.584 2.584 0 012.495 2.29 37.436 37.436 0 010 8.51 2.584 2.584 0 01-2.495 2.29l-5.523.156v2.05H16a.75.75 0 010 1.5H6a.75.75 0 010-1.5h3.25V14.2l-5.524-.156a2.584 2.584 0 01-2.494-2.29 37.434 37.434 0 010-8.51A2.584 2.584 0 013.726.955L11 .75zm0 1.5l-7.231.205c-.54.015-.986.424-1.047.96a35.934 35.934 0 000 8.17c.062.536.507.945 1.047.96l7.23.205 7.232-.205c.54-.015.985-.424 1.047-.96a35.93 35.93 0 000-8.17 1.084 1.084 0 00-1.047-.96L11 2.25z" fill="#1F2025"/></svg>