<svg width="69" height="34" fill="none" xmlns="http://www.w3.org/2000/svg"><path d="M35.804 29.477c-1.334-.09-2.871-.326-4.084-.681a20.171 20.171 0 01-1.407-.527 12.464 12.464 0 01-7.164-11.294c0-6.864 5.527-12.455 12.326-12.455 6.737 0 12.227 5.496 12.322 12.282h4.452C52.155 7.536 44.67.027 35.475.027c-9.25 0-16.777 7.601-16.777 16.948a16.974 16.974 0 008.838 14.911c.948.507 2.31 1.03 2.771 1.173 1.498.45 3.335.75 4.97.875.555.042 2.495.064 3.06.066H69v-4.481H38.389c-.408 0-2.187-.016-2.585-.042zm2.585-7.036c-.324 0-2.018-.011-2.33-.038-.53-.045-1.299-.125-1.793-.24-.557-.15-1.08-.35-1.317-.48a5.356 5.356 0 01-2.781-4.708c0-2.962 2.374-5.364 5.307-5.364 2.87 0 5.205 2.308 5.298 5.191h4.279c-.09-5.267-4.34-9.512-9.577-9.512-5.296 0-9.588 4.336-9.588 9.685 0 3.772 2.14 7.03 5.257 8.626.48.284 1.382.581 1.638.649.88.234 2.063.394 3.022.465.354.03 2.09.043 2.457.045v.007H69V22.44H38.39zM15.954 33.983h-4.482V4.53h-6.55V0h11.032v33.983zM0 6.793v4.356h4.921v22.834h4.307V6.793H0z" fill="#C4161C"/></svg>