<svg width="24" height="24" fill="none" xmlns="http://www.w3.org/2000/svg"><path fill-rule="evenodd" clip-rule="evenodd" d="M21.094 12.757a.197.197 0 00-.064-.01h-8.553a.2.2 0 00-.2.2v6.421a.2.2 0 00.168.198l8.553 1.393a.2.2 0 00.232-.198v-7.815a.2.2 0 00-.136-.19zm-1.364 6.475v-4.986h-5.953v4.017l5.953.97zm-7.318-7.985c.02.007.042.011.065.011h8.553a.2.2 0 00.2-.2V3.239a.2.2 0 00-.233-.197l-8.553 1.417a.2.2 0 00-.167.197v6.402a.2.2 0 00.135.19zm7.318-6.475l-5.953.987v3.999h5.953V4.772zm-9.49 6.475a.2.2 0 00.143-.191V4.969a.2.2 0 00-.233-.198L2.982 5.96a.2.2 0 00-.167.197v4.9a.2.2 0 00.2.2h7.168a.2.2 0 00.058-.009zM8.884 6.502l-4.568.757v2.497h4.568V6.502zm1.358 6.253a.2.2 0 00-.058-.009H3.015a.2.2 0 00-.2.2v4.946a.2.2 0 00.168.197l7.168 1.168a.2.2 0 00.232-.198v-6.113a.2.2 0 00-.142-.191zM8.883 17.53v-3.285H4.315v2.54l4.568.745z" fill="#1F2025"/></svg>