<?xml version="1.0" encoding="UTF-8" standalone="no"?> <svg width="20" height="22" xmlns="http://www.w3.org/2000/svg" viewBox="0 0 64 64"><g id="outline_ok" data-name="outline ok"><path d="M5,63a1,1,0,0,1-1-1V15a1,1,0,0,1,.566-.9l27-13a1,1,0,0,1,.868,0l27,13A1,1,0,0,1,60,15V40a1,1,0,0,1-2,0V15.628L32,3.11,6,15.628V62A1,1,0,0,1,5,63Z" style="fill:#231f20"/><path d="M12,47a1,1,0,0,1-1-1V25a1,1,0,0,1,1-1H52a1,1,0,0,1,1,1V40a1,1,0,0,1-2,0V26H13V46A1,1,0,0,1,12,47Z" style="fill:#231f20"/><path d="M52,30H12a1,1,0,0,1-1-1V25a1,1,0,0,1,1-1H52a1,1,0,0,1,1,1v4A1,1,0,0,1,52,30ZM13,28H51V26H13Z" style="fill:#231f20"/><path d="M52,34H12a1,1,0,0,1-1-1V29a1,1,0,0,1,1-1H52a1,1,0,0,1,1,1v4A1,1,0,0,1,52,34ZM13,32H51V30H13Z" style="fill:#231f20"/><path d="M48,22H16a1,1,0,0,1-1-1V15a1,1,0,0,1,1-1H48a1,1,0,0,1,1,1v6A1,1,0,0,1,48,22ZM17,20H47V16H17Z" style="fill:#231f20"/><path d="M21,63H9a1,1,0,0,1-1-1V50a1,1,0,0,1,1-1H21a1,1,0,0,1,1,1V62A1,1,0,0,1,21,63ZM10,61H20V51H10Z" style="fill:#231f20"/><path d="M15,54a1,1,0,0,1-1-1V50a1,1,0,0,1,2,0v3A1,1,0,0,1,15,54Z" style="fill:#231f20"/><path d="M47,53H35a1,1,0,0,1-1-1V40a1,1,0,0,1,1-1H47a1,1,0,0,1,1,1V52A1,1,0,0,1,47,53ZM36,51H46V41H36Z" style="fill:#231f20"/><path d="M41,44a1,1,0,0,1-1-1V40a1,1,0,0,1,2,0v3A1,1,0,0,1,41,44Z" style="fill:#231f20"/><path d="M58,53H54a1,1,0,0,1-1-1V44a1,1,0,0,1,2,0v7h3a1,1,0,0,1,0,2Z" style="fill:#231f20"/><path d="M61,60H59a1,1,0,0,1,0-2h1V52.181L57.307,45H52v7a1,1,0,0,1-1,1H32v5h2a1,1,0,0,1,0,2H31a1,1,0,0,1-1-1V52a1,1,0,0,1,1-1H50V44a1,1,0,0,1,1-1h7a1,1,0,0,1,.937.649l3,8A1,1,0,0,1,62,52v7A1,1,0,0,1,61,60Z" style="fill:#231f20"/><path d="M53,60H40a1,1,0,0,1,0-2H53a1,1,0,0,1,0,2Z" style="fill:#231f20"/><path d="M37,63a4,4,0,1,1,4-4A4,4,0,0,1,37,63Zm0-6a2,2,0,1,0,2,2A2,2,0,0,0,37,57Z" style="fill:#231f20"/><path d="M56,63a4,4,0,1,1,4-4A4,4,0,0,1,56,63Zm0-6a2,2,0,1,0,2,2A2,2,0,0,0,56,57Z" style="fill:#231f20"/><path d="M62,63H2a1,1,0,0,1,0-2H62a1,1,0,0,1,0,2Z" style="fill:#231f20"/></g></svg>