<svg width="23" height="15" viewBox="0 0 23 15" fill="none" xmlns="http://www.w3.org/2000/svg">
<path fill-rule="evenodd" clip-rule="evenodd" d="M11.9327 2.20831C10.3824 2.20831 9.04141 3.11064 8.40892 4.42212C8.23887 4.77473 7.82623 4.93724 7.4614 4.79528C6.97067 4.60433 6.43621 4.49919 5.8754 4.49919C3.45894 4.49919 1.5 6.4581 1.5 8.8746C1.5 11.2911 3.45894 13.25 5.8754 13.25H17.524C19.1685 13.25 20.5016 11.9169 20.5016 10.2724C20.5016 8.628 19.1685 7.2949 17.524 7.2949C17.2565 7.2949 16.9982 7.33 16.7532 7.3954C16.513 7.4596 16.2566 7.4005 16.0687 7.2378C15.8807 7.075 15.7857 6.8296 15.8149 6.5827C15.8329 6.4305 15.8421 6.2754 15.8421 6.1178C15.8421 3.95864 14.0918 2.20831 11.9327 2.20831ZM7.38082 3.19402C8.34256 1.69973 10.0213 0.708313 11.9327 0.708313C14.8132 0.708313 17.1679 2.95976 17.3329 5.79889C17.3963 5.79622 17.46 5.79487 17.524 5.79487C19.9969 5.79487 22.0016 7.7995 22.0016 10.2724C22.0016 12.7453 19.9969 14.75 17.524 14.75H5.8754C2.63051 14.75 0 12.1195 0 8.8746C0 5.6297 2.63051 2.99919 5.8754 2.99919C6.39506 2.99919 6.89978 3.06684 7.38082 3.19402Z" fill="#1F2025"/>
</svg>
