<svg width="12" height="20" viewBox="0 0 12 20" fill="none" xmlns="http://www.w3.org/2000/svg">
<path fill-rule="evenodd" clip-rule="evenodd" d="M4.4877 1.78769C5.4723 0.80312 6.8076 0.25 8.2 0.25H10.9C11.3142 0.25 11.65 0.58579 11.65 1V4.6C11.65 5.01421 11.3142 5.35 10.9 5.35H8.2C8.1602 5.35 8.1221 5.3658 8.0939 5.39393C8.0658 5.42206 8.05 5.46022 8.05 5.5V7.45H10.9C11.131 7.45 11.349 7.5564 11.4912 7.73844C11.6333 7.92048 11.6836 8.1578 11.6276 8.3819L10.7276 11.9819C10.6441 12.3158 10.3442 12.55 10 12.55H8.05V19C8.05 19.4142 7.7142 19.75 7.3 19.75H3.7C3.28579 19.75 2.95 19.4142 2.95 19V12.55H1C0.58579 12.55 0.25 12.2142 0.25 11.8V8.2C0.25 7.78579 0.58579 7.45 1 7.45H2.95V5.5C2.95 4.10761 3.50312 2.77226 4.4877 1.78769ZM8.2 1.75C7.2054 1.75 6.2516 2.14509 5.5483 2.84835C4.8451 3.55161 4.45 4.50544 4.45 5.5V8.2C4.45 8.6142 4.1142 8.95 3.7 8.95H1.75V11.05H3.7C4.1142 11.05 4.45 11.3858 4.45 11.8V18.25H6.55V11.8C6.55 11.3858 6.8858 11.05 7.3 11.05H9.4144L9.9394 8.95H7.3C6.8858 8.95 6.55 8.6142 6.55 8.2V5.5C6.55 5.06239 6.7238 4.64271 7.0333 4.33327C7.3427 4.02384 7.7624 3.85 8.2 3.85H10.15V1.75H8.2Z" fill="#1F2025"/>
</svg>
