<svg width="12" height="12" viewBox="0 0 12 12" fill="none" xmlns="http://www.w3.org/2000/svg">
<path fill-rule="evenodd" clip-rule="evenodd" d="M1.06123 8.2028C-0.437345 4.5245 2.26873 0.5 6.24059 0.5H6.45485C9.42532 0.5 11.8333 2.90801 11.8333 5.8784C11.8333 9.18567 9.15226 11.8667 5.84505 11.8667H0.631555C0.419388 11.8667 0.230315 11.7327 0.159901 11.5326C0.0894814 11.3325 0.153048 11.1097 0.318475 10.9768L1.6328 9.92127C1.69027 9.87513 1.7106 9.79673 1.68279 9.72847L1.06123 8.2028ZM6.24059 1.5C2.97891 1.5 0.756701 4.80493 1.98733 7.82553L2.60888 9.3512C2.80355 9.829 2.66125 10.3779 2.25897 10.701L2.05267 10.8667H5.84505C8.59999 10.8667 10.8333 8.63333 10.8333 5.8784C10.8333 3.46029 8.87305 1.5 6.45485 1.5H6.24059Z" fill="#8D8D8D"/>
</svg>
